<?xml version="1.0" encoding="utf-8"?>
<!-- Generator: Adobe Illustrator 18.1.1, SVG Export Plug-In . SVG Version: 6.00 Build 0)  -->
<svg version="1.1" xmlns="http://www.w3.org/2000/svg" xmlns:xlink="http://www.w3.org/1999/xlink" x="0px" y="0px"
	 viewBox="0 0 55 55" enable-background="new 0 0 55 55" xml:space="preserve">
<g id="Capa_1">
	<g>
		<g>
			<path fill="#0F0F38" d="M39.8,28.9h-3.9H14.1h-3.9c-1,0-1.8,0.8-1.8,1.8v18.8c0,1,0.8,1.8,1.8,1.8h29.6c1,0,1.8-0.8,1.8-1.8v-5.4
				l12.3,8.1V26.9L41.6,35v-4.3C41.6,29.7,40.8,28.9,39.8,28.9L39.8,28.9z"/>
			<path fill="#0F0F38" d="M14.1,28.9c4.6,0,8.6-2.3,10.9-5.9c2.3,3.5,6.3,5.9,10.9,5.9c7.2,0,13.1-5.9,13.1-13.1
				c0-7.2-5.9-13.1-13.1-13.1c-4.6,0-8.6,2.3-10.9,5.9c-2.3-3.5-6.4-5.9-10.9-5.9C6.9,2.8,1.1,8.6,1.1,15.8
				C1.1,23.1,6.9,28.9,14.1,28.9z"/>
		</g>
	</g>
</g>
<g id="Layer_2" display="none">
</g>
</svg>
