<?xml version="1.0" encoding="utf-8"?>
<!-- Generator: Adobe Illustrator 18.1.1, SVG Export Plug-In . SVG Version: 6.00 Build 0)  -->
<svg version="1.1" xmlns="http://www.w3.org/2000/svg" xmlns:xlink="http://www.w3.org/1999/xlink" x="0px" y="0px"
	 viewBox="0 0 55 55" enable-background="new 0 0 55 55" xml:space="preserve">
<g id="Capa_1">
	<g>
		<path id="youtube-new-icon_4_" fill="#0F0F38" d="M47.1,9.2C46.5,3.8,44.3,3,40,2.7c-6.1-0.4-19.8-0.4-25.9,0C9.8,3,7.6,3.8,7,9.2
			c-0.5,4.1-0.5,11,0,15c0.6,5.5,2.8,6.2,7.1,6.5c6.1,0.4,19.8,0.4,25.9,0c4.3-0.3,6.5-1,7.1-6.5C47.6,20.2,47.6,13.3,47.1,9.2z
			 M23,22.5V11.1l10.9,5.7L23,22.5z"/>
		<g>
			<path fill="#0F0F38" d="M13.3,48.1L6.9,45c-0.7-0.3-1.2-0.9-1.2-1.6v-0.2c0-0.7,0.4-1.3,1.2-1.6l6.4-3.1c0.2-0.1,0.4-0.2,0.7-0.2
				c0.6,0,1.2,0.5,1.2,1.2c0,0.6-0.3,0.9-0.8,1.2l-5.8,2.6l5.8,2.6c0.5,0.2,0.8,0.7,0.8,1.2c0,0.7-0.6,1.2-1.3,1.2
				C13.7,48.2,13.5,48.2,13.3,48.1z"/>
			<path fill="#0F0F38" d="M22.6,50.9l7.5-15.6c0.2-0.4,0.6-0.7,1-0.7c0.6,0,1.1,0.5,1.1,1.1c0,0.2-0.1,0.4-0.1,0.6l-7.5,15.6
				c-0.2,0.4-0.6,0.7-1,0.7c-0.6,0-1.1-0.5-1.1-1.1C22.5,51.3,22.6,51.1,22.6,50.9z"/>
			<path fill="#0F0F38" d="M41.7,38.5l6.4,3.1c0.7,0.3,1.2,0.9,1.2,1.6v0.2c0,0.7-0.4,1.3-1.2,1.6l-6.4,3.1
				c-0.2,0.1-0.4,0.2-0.7,0.2c-0.6,0-1.2-0.5-1.2-1.2c0-0.6,0.3-0.9,0.8-1.2l5.8-2.6l-5.8-2.6c-0.5-0.2-0.8-0.7-0.8-1.2
				c0-0.7,0.6-1.2,1.3-1.2C41.3,38.4,41.5,38.4,41.7,38.5z"/>
		</g>
	</g>
</g>
<g id="Layer_2" display="none">
</g>
</svg>
