<?xml version="1.0" encoding="utf-8"?>
<!-- Generator: Adobe Illustrator 18.1.1, SVG Export Plug-In . SVG Version: 6.00 Build 0)  -->
<svg version="1.1" xmlns="http://www.w3.org/2000/svg" xmlns:xlink="http://www.w3.org/1999/xlink" x="0px" y="0px"
	 viewBox="0 0 55 55" enable-background="new 0 0 55 55" xml:space="preserve">
<g id="Capa_1">
	<path id="Astronaut_4_" fill="#0F0F38" d="M51.6,11.9L51.6,11.9c1-0.3,1.7-1.4,1.7-2.4c0-1.4-1.2-2.6-2.6-2.6
		c-1.4,0-2.6,1.2-2.6,2.6c0,1.2,0.7,2.1,1.7,2.4l0,0V21c-0.2,0-0.3-0.2-0.5-0.2c-2.4-10-11.2-17.4-21.8-17.4
		c-10.7,0-19.4,7.4-21.8,17.4c-2.2,0.5-4,2.6-4,5c0,2.4,1.7,4.5,4,5c0.9,3.4,2.4,6.5,4.6,9.3v4.6c0,0,3.4,6.9,17.2,6.9
		c13.7,0,17.2-6.9,17.2-6.9V40c2.2-2.6,3.8-5.8,4.6-9.3c2.2-0.5,4-2.6,4-5c0-1.5-0.7-2.9-1.7-3.8V11.9z M46.6,30.8
		c-0.9,3.4-2.6,6.4-5,8.8c-3.6,3.8-8.6,0-14.1,0c-5.5,0-10.7,3.8-14.1,0c-2.4-2.4-4.1-5.5-5-8.8c-0.5-1.7-0.7-3.3-0.7-5
		c0-1.7,0.2-3.3,0.7-5c2.2-8.6,10-11.3,19.1-11.3c9.3,0,17,2.9,19.1,11.3c0.3,1.5,0.7,3.3,0.7,5C47.3,27.5,47.1,29,46.6,30.8z
		 M27.5,13.6c-6.9,0-12.5,2.2-14.3,8.6c-0.3,1.2-0.5,2.4-0.5,3.6c0,1.2,0.2,2.4,0.5,3.6l0.2,0.3c3.4-2.7,9.1-5.8,16.7-5.8
		c-7.2,2.9-11.9,7-14.4,10.3c0.5,0.7,0.9,1.2,1.4,1.7c0.9,0.9,1.9,1.2,2.9,1.2c2.2,0,4.8-1.2,7.6-1.2c2.7,0,5.3,1.2,7.6,1.2
		c1,0,2.1-0.3,2.9-1.2c1.7-1.9,3.1-4.1,3.6-6.5c0.3-1.2,0.5-2.4,0.5-3.6c0-1.2-0.2-2.4-0.5-3.6C40,15.6,34.4,13.6,27.5,13.6z"/>
</g>
<g id="Layer_2" display="none">
</g>
</svg>
