<?xml version="1.0" encoding="utf-8"?>
<!-- Generator: Adobe Illustrator 18.1.1, SVG Export Plug-In . SVG Version: 6.00 Build 0)  -->
<svg version="1.1" xmlns="http://www.w3.org/2000/svg" xmlns:xlink="http://www.w3.org/1999/xlink" x="0px" y="0px"
	 viewBox="0 0 197.9 82.6" enable-background="new 0 0 197.9 82.6" xml:space="preserve">
<g id="Capa_1">
	<g opacity="0.69">
		<path fill="#0F0F38" d="M50.5,27.3c2.6-2.6,4.2-2.6,4.2-2.6s0.5-0.1,1.8,0.4c1.2,0.4,1.3,1.1,1.3,1.1v18.8
			c0.2,5.3-1.2,7.3-2.7,8.7c-0.9,0.7-1.6,0.8-1.7,0.8c-0.2,0-0.4,0-0.4-0.3c0-0.3,0.2-1.1,0.2-1.1c0.8-2,0.7-5.5,0.7-5.5l0.1-20.3
			c0,0,0.1-0.4-0.3-0.3c-3.1,2.7-3.5,6.4-3.6,8.2c-0.1,2.7,1.1,4.1,1.1,4.1s0.3,0.3,0.3,0.7c0,0.5-0.5,0.5-0.5,0.5
			c-1.2-0.1-3-1.4-3.7-3c-0.6-1.2-0.5-2.4-0.5-2.4C46.8,33.5,47.8,29.9,50.5,27.3z M185.4,45.3c0,6-3.7,6-3.7,6
			c-3.5,0.1-4.4-3.6-4.6-7.3c-0.2-2.8,0-6,0-6s0-0.1-0.1,0c-1.2,2.1-2,5.3-2.3,7.8c-0.3,1.8-0.3,3.3-0.3,3.3s0,0.3-0.2,0.5
			c-1.9,0.9-3.1-0.4-3.5-1.7c-0.6-1.3-0.9-9.2-0.9-9.6s-0.3-0.1-0.3-0.1c-2.6,4.4-2.6,10.8-2.6,12.1c0,1.3-2.2,0.9-2.2,0.9
			c-1.9-0.1-1.8-1.1-1.8-1.1l-0.1-1.6c-0.7,1.2-1.9,2.8-3.8,2.7c-2.8-0.2-3.4-3.1-3.4-3.6c0,0-1.4,3.7-5.3,3.6
			c-2.6,0-3.7-2.8-3.7-2.8s-1.1,2.9-3.7,2.8c-2.6-0.1-4.8-3.1-4.6-7c0.2-3.9,0.8-5.8,0.8-5.8s0.2-0.4-0.1-0.4c-0.4,0-2.6,0-2.6,0
			s-1.3,5.1-6.6,11.4c0,0,0,2,0,4.2c0,4.2-0.5,9.8-6.2,10.2c-4.9-0.3-4.6-4.1-4.6-4.1c-0.1-1.1,0.6-3.1,3.5-5.9
			c2.9-2.7,4.1-3.8,4.1-3.8l-0.1-1.7c-1.9,3.1-4.7,2.9-4.7,2.9s-2.2,0.4-4.1-2.8c-0.5,1.1-1.8,3-3.8,2.8c-2.8-0.3-3.4-3.2-3.5-3.7
			c0,0-1.4,3.7-5.3,3.7c-2.7,0-3.7-2.8-3.7-2.8c-0.3-0.6-0.5-1.4-0.7-1.9c0,0.1-0.1,0.2-0.1,0.3c-0.6,1.5-2.1,4.2-4.4,4.3
			c-4.2,0-4.4-6.5-4.4-6.5c-1.2,2.9-3.6,6.6-8,6.6c-4.4,0-5-1.6-5-1.9c0-0.2-0.1-0.5,0.4-1.2c0.5-0.7,0.9-1,1.3-1c0.4,0,1,0.5,1,0.5
			s1,0.9,2.1,0.9c1.4-0.1,1.7-1.2,1.8-2.3c0.1-1.1-0.7-2.4-1.8-3.4c-1.1-1-2-1.8-2-1.8c-1.6,2.7-2.8,4.5-3.7,6.1
			c-2.2,3.5-4.3,4-5.1,3.9c-1.1-0.2-2.2-1.3-2.3-4.7c-0.1-3.4,0.3-9.2,0.3-9.5c0-0.3-0.3-0.2-0.3-0.2c-4.3,4.5-5.5,13.8-5.5,14
			c0,0.2-0.4,0.4-0.8,0.4c-0.4,0,0.1,0-1.4-0.1C60.9,51,61,48.1,61,48.1l0.1-13.8c0-0.5,0.5-0.7,1.9-0.3c1.4,0.4,1.4,0.9,1.4,0.9
			l-0.1,8c3.7-11,6.5-9.3,8.2-8.4c1.7,0.8,1.5,2.1,1.5,2.1s-0.2,6-0.3,8.2c-0.1,2.1,0.2,3,0.7,3c1.2,0.3,5.4-7.9,5.4-7.9
			c-1.9-2-0.9-4.5,0.6-5.6c1-0.7,2.2-0.8,2.2-0.8s1.9-0.1,1.9,1.5c0,1.8-1.9,3.9-1.9,3.9c3.8,2.7,5.5,4.1,5.8,6.2
			c0.1,1-0.1,1.6-0.1,1.6c2.7-2.3,2.9-5,2.9-5l0.1-8.7l-4-0.1c0,0-0.3,0-0.4-0.8c0-1.4,0.7-2,0.7-2l3.8,0.1c0,0,0.1-3.9,0.2-4.6
			c0.1-0.9,0.7-1,2.4-0.6c1.7,0.4,1.7,0.8,1.7,0.8l-0.2,4.6c0,0,4.2,0.2,4.7,0.3c0.6,0.1,0.7,0.2,0.6,1.1c-0.1,0.9-0.7,1.2-0.7,1.2
			l-4.7,0.1l-0.3,10.1c0,1.6,0.1,5.3,1.5,5.3c2.1,0.1,3.3-4.5,3.3-4.5l0,0c0-0.7,0-1.6,0.1-2.5c0.4-3.7,2-8,5.8-8
			c0,0,2.3-0.1,3.5,2.2l0-0.8c0,0-0.1-1,1.5-0.8c1.6,0.3,2.1,0.9,2.1,1.4c0,0-0.3,6.4-0.1,10.2c0.2,2.2,0.6,3.5,1.7,3.4
			c1-0.1,1.7-1.5,2.1-2.6c-1.4-11.7,5-13.1,5-13.1s2.8-0.2,4.1,2.2l0-0.8c0,0-0.1-1,1.4-0.7c0,0,0.6,0.1,1.3,0.3
			c0.7,0.2,0.9,0.4,0.9,1c0,0.6-0.1,11.5-0.1,11.5s3.3-4.5,4.2-8.8c0,0-1.2-0.9-1.1-2.1c0.1-1.2,0.7-2.7,2.5-2.7
			c1.8,0,1.9,1.6,1.6,2.7c0,0,1.5-0.2,2.9-0.5c1.3-0.3,3.1-0.5,3.3,1.5c0.1,0.7-0.3,1.3-0.3,1.3s-1,4.6-0.9,6.5
			c0.2,1.9,0.7,4.7,2.1,4.4c1.5-0.3,2-2.4,2-2.4s-0.6-2.4-0.3-5.2c0.4-3.7,2-8,5.8-8c0,0,2.3-0.1,3.5,2.2l0-0.8c0,0-0.1-1,1.5-0.7
			c1.6,0.2,2.1,0.9,2.1,1.4c0,0-0.3,6.4-0.1,10.2c0.2,2.2,0.6,3.5,1.7,3.4c1.1,0,2-1.9,2.6-3.3l0-0.6l0-10.8
			c0.1-0.6,0.6-0.7,0.6-0.7l1.3,0.2c1.8,0.3,1.6,1,1.6,1V41c1.3-4.1,2-5.7,2.6-6.8c0.5-0.9,2.2-0.3,2.2-0.3s1.9,0.5,1.9,2.2
			c-0.1,2.8,0.3,7.4,0.3,7.4c0,0.1,0.1,0.1,0.1,0.1c0,0,0-0.1,0-0.1c0.4-2.9,2-7.8,2.7-9c0.7-1.3,2.6-0.4,2.6-0.4
			c2.3,0.8,2,2.2,2,2.2c-0.7,11.8,0.8,12.6,1.6,12.7c0.9,0.1,1.3-1,1.5-1.6c0.2-0.5,0.4-1.7,0.6-2.2c0.1-0.5,0.6-0.5,0.6-0.5
			S185.4,44.9,185.4,45.3z M106.9,36.2c-0.8,0-2.7,0.6-3.1,5.9c-0.3,5.3,1.1,6.7,2.3,6.9c1.2,0.2,3.3-1.8,3.4-7.4
			C109.6,35.9,106.9,36.2,106.9,36.2z M123.6,36.3c-0.8,0-2.9,0.8-3.4,5.9c-0.3,5.4,1.1,6.8,2.3,7c1.2,0.2,3.3-1.8,3.5-7.5
			C126.1,35.9,123.6,36.3,123.6,36.3z M126.4,52.8c-4.7,4.1-5.1,7-5.1,7s-0.5,2.4,1.8,2.5c2.7,0.3,3.2-3,3.3-5.9
			C126.3,55,126.4,52.8,126.4,52.8z M152.2,36.4c-0.8,0-2.7,0.6-3.1,5.9c-0.3,5.3,1.1,6.7,2.3,6.9c1.2,0.2,3.3-1.8,3.4-7.4
			C155,36.1,152.2,36.4,152.2,36.4z"/>
		<path fill="#0F0F38" d="M38.6,24.8H16.1c-1.9,0-3.5,1.6-3.5,3.5v22.6c0,1.9,1.6,3.5,3.5,3.5h22.6c1.9,0,3.5-1.6,3.5-3.5V28.3
			C42.1,26.3,40.6,24.8,38.6,24.8z M33.1,29c0-0.5,0.4-0.8,0.8-0.8h4c0.5,0,0.8,0.4,0.8,0.8v4c0,0.5-0.4,0.8-0.8,0.8h-4
			c-0.5,0-0.8-0.4-0.8-0.8V29z M27.4,33.9c3.1,0,5.7,2.5,5.7,5.7c0,3.1-2.5,5.7-5.7,5.7c-3.1,0-5.7-2.5-5.7-5.7
			C21.7,36.5,24.2,33.9,27.4,33.9z M38.8,50.1c0,0.5-0.4,0.8-0.8,0.8H16.8c-0.5,0-0.8-0.4-0.8-0.8V37.2h2.8
			c-0.2,0.8-0.3,1.6-0.3,2.4c0,5,4,9,9,9c5,0,9-4,9-9c0-0.8-0.1-1.6-0.3-2.4h2.8V50.1z"/>
	</g>
</g>
<g id="Layer_2" display="none">
</g>
</svg>
