<?xml version="1.0" encoding="utf-8"?>
<!-- Generator: Adobe Illustrator 18.1.1, SVG Export Plug-In . SVG Version: 6.00 Build 0)  -->
<svg version="1.1" xmlns="http://www.w3.org/2000/svg" xmlns:xlink="http://www.w3.org/1999/xlink" x="0px" y="0px"
	 viewBox="0 0 387.2 452.2" enable-background="new 0 0 387.2 452.2" xml:space="preserve">
<g id="Capa_1">
	<g>
		<g>
			<path fill-rule="evenodd" clip-rule="evenodd" fill="#ECECEC" d="M132.4,441.8c101.2,34.3,211.2-19,244.9-118.6
				c33.7-99.6-21.3-208.8-122.5-243C153.7,45.9,43.6,99.2,9.9,198.8C-23.8,298.4,31.2,407.6,132.4,441.8z"/>
			<g>
				<path fill-rule="evenodd" clip-rule="evenodd" fill="#DDDEDF" d="M356.8,311.3c6.3,3,4.5,20.1-4.1,38.2
					c-8.6,18.1-20.7,30.2-27.1,27.2c-6.3-3-4.5-20.1,4.1-38.2C338.4,320.5,350.5,308.3,356.8,311.3z"/>
				<path fill-rule="evenodd" clip-rule="evenodd" fill="#CACBCD" d="M355,311.3c6,2.9,4.3,19.1-3.9,36.3
					c-8.2,17.2-19.7,28.7-25.7,25.9c-6-2.9,8.6-6.8,20-29.3C356.8,321.6,349,308.5,355,311.3z"/>
			</g>
			<g>
				<path fill-rule="evenodd" clip-rule="evenodd" fill="#DDDEDF" d="M16.5,253.7c-6.1-0.7-9.4-15.5-7.4-32.9
					c2-17.5,8.7-31,14.8-30.3c6.1,0.7,9.4,15.5,7.4,32.9C29.3,240.8,22.7,254.4,16.5,253.7z"/>
				<path fill-rule="evenodd" clip-rule="evenodd" fill="#CACBCD" d="M18,253.1c-5.8-0.7-9-14.7-7-31.3c1.9-16.6,8.2-29.5,14-28.8
					c5.8,0.7-5.3,8.1-8.3,30.1C13.6,245.1,23.8,253.8,18,253.1z"/>
			</g>
			<path fill-rule="evenodd" clip-rule="evenodd" fill="#DADBDC" d="M78.5,127c-3.2-8,12.5-21.9,35.3-31.2
				c22.7-9.2,43.8-10.3,47-2.3c3.2,8-12.5,21.9-35.3,31.2C102.8,133.9,81.7,134.9,78.5,127z"/>
			<path fill-rule="evenodd" clip-rule="evenodd" fill="#CACBCD" d="M80.1,128.4c-3.1-7.6,11.9-20.8,33.5-29.6
				c21.6-8.8,41.6-9.8,44.7-2.2c3.1,7.6-13.4-1-42.4,10C87,117.6,83.2,135.9,80.1,128.4z"/>
			<g>
				<path fill-rule="evenodd" clip-rule="evenodd" fill="#DDDEDF" d="M206.6,94.3c2.3-8.3,23.3-9.7,47-3c23.6,6.6,40.9,18.7,38.6,27
					c-2.3,8.3-23.3,9.6-47,3C221.6,114.6,204.3,102.5,206.6,94.3z"/>
				<path fill-rule="evenodd" clip-rule="evenodd" fill="#CACBCD" d="M207,96.4c2.2-7.9,22.2-9.2,44.6-2.9
					c22.4,6.3,38.9,17.7,36.7,25.6c-2.2,7.9-10-9-39.6-18S204.8,104.2,207,96.4z"/>
			</g>
			<g>
				<path fill-rule="evenodd" clip-rule="evenodd" fill="#CFD0D2" d="M249.5,307.9c5.8,2.2,7.7,9,4.1,15.2c-3.6,6.2-11.2,9.5-17,7.3
					c-5.8-2.2-7.7-9-4.1-15.2C236.1,309,243.7,305.7,249.5,307.9z"/>
				<path fill-rule="evenodd" clip-rule="evenodd" fill="#A7A9AB" d="M248,307.6c5.5,2.1,7.3,8.5,3.9,14.4c-3.4,5.9-10.6,9-16.1,6.9
					c-5.5-2.1,5.8-1.5,10.8-9.2C251.5,312.1,242.5,305.6,248,307.6z"/>
			</g>
			<g>
				<path fill-rule="evenodd" clip-rule="evenodd" fill="#CFD0D2" d="M301,320.4c14.6,5.5,19.3,22.5,10.3,38.1
					c-8.9,15.6-28,23.8-42.6,18.3c-14.6-5.5-19.2-22.5-10.3-38.1C267.2,323.1,286.3,314.9,301,320.4z"/>
				<path fill-rule="evenodd" clip-rule="evenodd" fill="#A7A9AB" d="M297.3,319.8c13.9,5.2,18.3,21.4,9.8,36.2
					c-8.5,14.8-26.6,22.6-40.5,17.4c-13.9-5.2,14.6-3.8,27-23.1C306,331.1,283.4,314.6,297.3,319.8z"/>
			</g>
			<g>
				<path fill-rule="evenodd" clip-rule="evenodd" fill="#CFD0D2" d="M238.8,338.3c5.8,2.2,7.7,9,4.1,15.2c-3.6,6.2-11.2,9.5-17,7.3
					c-5.8-2.2-7.7-9-4.1-15.2C225.4,339.4,233,336.1,238.8,338.3z"/>
				<path fill-rule="evenodd" clip-rule="evenodd" fill="#A7A9AB" d="M237.4,338c5.5,2.1,7.3,8.5,3.9,14.4c-3.4,5.9-10.6,9-16.1,6.9
					c-5.5-2.1,5.8-1.5,10.8-9.2C240.9,342.5,231.8,335.9,237.4,338z"/>
			</g>
			<g>
				<path fill-rule="evenodd" clip-rule="evenodd" fill="#CFD0D2" d="M200.6,307.9c5.8,2.2,7.7,9,4.1,15.2c-3.6,6.2-11.2,9.5-17,7.3
					c-5.8-2.2-7.7-9-4.1-15.2C187.1,309,194.7,305.7,200.6,307.9z"/>
				<path fill-rule="evenodd" clip-rule="evenodd" fill="#A7A9AB" d="M199.1,307.7c5.5,2.1,7.3,8.5,3.9,14.4
					c-3.4,5.9-10.6,9-16.1,6.9c-5.5-2.1,5.8-1.5,10.8-9.2C202.6,312.2,193.6,305.6,199.1,307.7z"/>
			</g>
			<g>
				<path fill-rule="evenodd" clip-rule="evenodd" fill="#CFD0D2" d="M92.1,287.7c5,1.9,6.3,8.5,2.9,14.8c-3.4,6.3-10.1,9.9-15.1,8
					c-5-1.9-6.2-8.5-2.9-14.8C80.4,289.4,87.2,285.9,92.1,287.7z"/>
				<path fill-rule="evenodd" clip-rule="evenodd" fill="#A7A9AB" d="M90.9,287.6c4.7,1.8,5.9,8.1,2.7,14.1c-3.2,6-9.6,9.4-14.3,7.6
					c-4.7-1.8,5.1-1.8,9.8-9.6C93.7,291.9,86.2,285.8,90.9,287.6z"/>
			</g>
			<g>
				<path fill-rule="evenodd" clip-rule="evenodd" fill="#CFD0D2" d="M127,315c5,1.9,6.2,8.5,2.9,14.8c-3.4,6.3-10.1,9.9-15.1,8
					c-5-1.9-6.2-8.5-2.9-14.8C115.3,316.7,122.1,313.1,127,315z"/>
				<path fill-rule="evenodd" clip-rule="evenodd" fill="#A7A9AB" d="M125.8,314.8c4.7,1.8,5.9,8.1,2.7,14.1
					c-3.2,6-9.6,9.4-14.3,7.6c-4.7-1.8,5.1-1.8,9.8-9.6C128.6,319.1,121,313,125.8,314.8z"/>
			</g>
			<g>
				<path fill-rule="evenodd" clip-rule="evenodd" fill="#CFD0D2" d="M81.4,318.3c5,1.9,6.3,8.5,2.9,14.8c-3.4,6.3-10.1,9.9-15.1,8
					c-5-1.9-6.3-8.5-2.9-14.8C69.7,320,76.5,316.4,81.4,318.3z"/>
				<path fill-rule="evenodd" clip-rule="evenodd" fill="#A7A9AB" d="M80.2,318.1c4.7,1.8,5.9,8.1,2.7,14.1c-3.2,6-9.6,9.4-14.3,7.6
					c-4.7-1.8,5.1-1.8,9.8-9.6C83,322.4,75.5,316.3,80.2,318.1z"/>
			</g>
			<g>
				<path fill-rule="evenodd" clip-rule="evenodd" fill="#CFD0D2" d="M49.6,290c5,1.9,6.3,8.5,2.9,14.8c-3.4,6.3-10.1,9.9-15.1,8
					c-5-1.9-6.2-8.5-2.9-14.8C37.9,291.7,44.7,288.1,49.6,290z"/>
				<path fill-rule="evenodd" clip-rule="evenodd" fill="#A7A9AB" d="M48.4,289.9c4.7,1.8,5.9,8.1,2.7,14.1c-3.2,6-9.6,9.4-14.3,7.6
					c-4.7-1.8,5.1-1.8,9.8-9.6C51.2,294.2,43.7,288.1,48.4,289.9z"/>
			</g>
			<g>
				<path fill-rule="evenodd" clip-rule="evenodd" fill="#DDDEDF" d="M178.8,142.9c0-4.1,9.4-7.4,21.1-7.5
					c11.7-0.1,21.1,3.2,21.2,7.3c0,4.1-9.4,7.4-21.1,7.5C188.3,150.2,178.8,147,178.8,142.9z"/>
				<path fill-rule="evenodd" clip-rule="evenodd" fill="#CACBCD" d="M179.2,143.8c0-3.9,8.9-7.1,20-7.1c11.1-0.1,20.1,3.1,20.1,6.9
					c0,3.9-5.7-2.8-20.5-3.1C184.2,140.3,179.3,147.7,179.2,143.8z"/>
			</g>
			<g>
				<path fill-rule="evenodd" clip-rule="evenodd" fill="#DDDEDF" d="M158.5,124.8c-1.2-3.9,6.8-9.9,18-13.3
					c11.1-3.4,21.1-3.1,22.4,0.8c1.2,3.9-6.8,9.9-18,13.3C169.7,129.1,159.7,128.7,158.5,124.8z"/>
				<path fill-rule="evenodd" clip-rule="evenodd" fill="#CACBCD" d="M159.2,125.6c-1.2-3.7,6.5-9.4,17.1-12.7
					c10.6-3.3,20.1-2.9,21.2,0.8c1.1,3.7-6.3-1-20.5,3C162.9,120.8,160.4,129.3,159.2,125.6z"/>
			</g>
			<g>
				<path fill-rule="evenodd" clip-rule="evenodd" fill="#DDDEDF" d="M172.7,90.3c-0.6-2.6,5-6.2,12.4-8c7.5-1.8,14.1-1.1,14.7,1.6
					c0.6,2.6-5,6.2-12.4,8C179.9,93.7,173.3,93,172.7,90.3z"/>
				<path fill-rule="evenodd" clip-rule="evenodd" fill="#CACBCD" d="M173.1,90.8c-0.6-2.5,4.7-5.9,11.8-7.6c7.1-1.7,13.4-1,14,1.5
					c0.6,2.5-4.1-1-13.6,1.1C175.8,87.8,173.7,93.3,173.1,90.8z"/>
			</g>
			<g>
				<path fill-rule="evenodd" clip-rule="evenodd" fill="#DDDEDF" d="M143.7,146.2c-0.6-2.6,5-6.2,12.4-8c7.5-1.8,14.1-1.1,14.7,1.6
					c0.6,2.6-5,6.2-12.4,8C150.9,149.5,144.3,148.9,143.7,146.2z"/>
				<path fill-rule="evenodd" clip-rule="evenodd" fill="#CACBCD" d="M144.1,146.7c-0.6-2.5,4.7-5.9,11.8-7.6c7.1-1.7,13.4-1,14,1.5
					c0.6,2.5-4.1-1-13.6,1.1C146.8,143.7,144.7,149.2,144.1,146.7z"/>
			</g>
			<g>
				<path fill-rule="evenodd" clip-rule="evenodd" fill="#DDDEDF" d="M167.6,166.4c-0.5-2,3.8-4.7,9.5-6.1
					c5.7-1.4,10.8-0.8,11.2,1.2c0.5,2-3.8,4.7-9.5,6.1C173.1,168.9,168.1,168.4,167.6,166.4z"/>
				<path fill-rule="evenodd" clip-rule="evenodd" fill="#CACBCD" d="M168,166.8c-0.5-1.9,3.6-4.5,9-5.8c5.5-1.3,10.2-0.8,10.7,1.1
					c0.5,1.9-3.1-0.7-10.4,0.8C170,164.5,168.4,168.7,168,166.8z"/>
			</g>
			<g>
				<path fill-rule="evenodd" clip-rule="evenodd" fill="#DDDEDF" d="M182.7,181.8c-0.3-1.3,2.5-3.1,6.3-4c3.8-0.9,7.1-0.5,7.4,0.8
					c0.3,1.3-2.5,3.1-6.3,4C186.3,183.5,183,183.2,182.7,181.8z"/>
				<path fill-rule="evenodd" clip-rule="evenodd" fill="#CACBCD" d="M182.9,182.1c-0.3-1.3,2.4-3,6-3.8c3.6-0.9,6.8-0.5,7.1,0.7
					c0.3,1.3-2.1-0.5-6.9,0.5C184.2,180.6,183.2,183.4,182.9,182.1z"/>
			</g>
			<g>
				<path fill-rule="evenodd" clip-rule="evenodd" fill="#DDDEDF" d="M216.7,125.7c1.6-3.8,11.6-3,22.3,1.6
					c10.7,4.7,18,11.5,16.4,15.2c-1.6,3.8-11.6,3-22.3-1.6C222.4,136.3,215.1,129.5,216.7,125.7z"/>
				<path fill-rule="evenodd" clip-rule="evenodd" fill="#CACBCD" d="M216.7,126.8c1.5-3.6,11-2.9,21.2,1.6
					c10.2,4.4,17.1,10.9,15.6,14.5c-1.6,3.6-4.1-4.9-17.5-11.1C222.7,125.5,215.2,130.3,216.7,126.8z"/>
			</g>
			<g>
				<path fill-rule="evenodd" clip-rule="evenodd" fill="#DDDEDF" d="M300.3,122.5c6.7-5.4,24.6,5.6,40.2,24.6
					c15.5,19,22.7,38.8,16,44.3c-6.7,5.4-24.6-5.6-40.2-24.6C300.8,147.7,293.6,127.9,300.3,122.5z"/>
				<path fill-rule="evenodd" clip-rule="evenodd" fill="#CACBCD" d="M299.4,124.5c6.3-5.2,23.4,5.3,38.1,23.3
					c14.7,18.1,21.6,36.9,15.2,42c-6.3,5.2-3-13.1-22-37.5C311.7,127.9,293.1,129.6,299.4,124.5z"/>
			</g>
			<g>
				<path fill-rule="evenodd" clip-rule="evenodd" fill="#DDDEDF" d="M272.1,141.7c2.7-3,12,0.9,20.6,8.7
					c8.6,7.8,13.4,16.6,10.7,19.7c-2.8,3-12-0.9-20.6-8.7C274.2,153.6,269.4,144.7,272.1,141.7z"/>
				<path fill-rule="evenodd" clip-rule="evenodd" fill="#CACBCD" d="M271.9,142.7c2.6-2.9,11.4,0.8,19.6,8.3
					c8.2,7.5,12.7,15.8,10.1,18.7c-2.6,2.9-2.3-6-13-16.1C277.9,143.5,269.3,145.6,271.9,142.7z"/>
			</g>
			<g>
				<path fill-rule="evenodd" clip-rule="evenodd" fill="#DDDEDF" d="M79.7,365c-4,10,15.9,27.5,44.5,38.9
					c28.6,11.4,55.1,12.6,59.1,2.6c4-10-15.9-27.4-44.6-38.9C110.2,356.1,83.7,354.9,79.7,365z"/>
				<path fill-rule="evenodd" clip-rule="evenodd" fill="#CACBCD" d="M81.8,363.2c-3.8,9.5,15.1,26.1,42.3,36.9
					c27.2,10.9,52.3,11.9,56.1,2.4c3.8-9.5-16.9,1.4-53.3-12.3C90.5,376.6,85.6,353.7,81.8,363.2z"/>
			</g>
			<g>
				<path fill-rule="evenodd" clip-rule="evenodd" fill="#CFD0D2" d="M226.6,227c13,4.8,17.1,20,9.2,33.9
					c-7.9,13.8-24.9,21.1-37.9,16.3c-13-4.9-17.1-20-9.2-33.9C196.6,229.4,213.6,222.1,226.6,227z"/>
				<path fill-rule="evenodd" clip-rule="evenodd" fill="#A7A9AB" d="M223.3,226.4c12.4,4.6,16.3,19,8.7,32.2
					c-7.5,13.2-23.7,20.1-36,15.5c-12.4-4.6,13-3.4,24-20.5C231.1,236.5,211,221.8,223.3,226.4z"/>
			</g>
			<g>
				<path fill-rule="evenodd" clip-rule="evenodd" fill="#CFD0D2" d="M106.1,217.9c9,3.4,11.4,15.5,5.2,27
					c-6.2,11.5-18.5,18-27.5,14.6c-9-3.4-11.4-15.5-5.2-27C84.8,221,97.1,214.4,106.1,217.9z"/>
				<path fill-rule="evenodd" clip-rule="evenodd" fill="#A7A9AB" d="M103.9,217.6c8.6,3.3,10.8,14.8,5,25.7
					c-5.8,10.9-17.5,17.1-26.1,13.9c-8.6-3.3,9.3-3.3,17.8-17.5C109,225.4,95.3,214.3,103.9,217.6z"/>
			</g>
			<g>
				<path fill-rule="evenodd" clip-rule="evenodd" fill="#CFD0D2" d="M336.4,194.8c23.7,9,29.8,40.7,13.7,70.8
					c-16.1,30.1-48.4,47.2-72,38.2c-23.7-9-29.8-40.7-13.7-70.8C280.5,203,312.7,185.8,336.4,194.8z"/>
				<path fill-rule="evenodd" clip-rule="evenodd" fill="#A7A9AB" d="M330.4,194c22.5,8.5,28.3,38.6,13,67.2
					c-15.3,28.6-45.9,44.8-68.4,36.3c-22.5-8.5,24.4-8.5,46.6-45.8C343.8,214.5,307.9,185.5,330.4,194z"/>
			</g>
			<g>
				<path fill-rule="evenodd" clip-rule="evenodd" fill="#CFD0D2" d="M241.1,390.9c14,7.8,16.1,25.9,4.6,40.3
					c-11.5,14.5-32.1,19.9-46.2,12.1c-14-7.8-16.1-25.9-4.6-40.3C206.3,388.5,227,383.1,241.1,390.9z"/>
				<path fill-rule="evenodd" clip-rule="evenodd" fill="#A7A9AB" d="M237.5,389.7c13.3,7.4,15.3,24.6,4.4,38.3
					c-10.9,13.7-30.5,18.9-43.9,11.5c-13.3-7.4,15.4-1.7,31-19.3C244.6,402.5,224.1,382.3,237.5,389.7z"/>
			</g>
			<g>
				<path fill-rule="evenodd" clip-rule="evenodd" fill="#CFD0D2" d="M89.7,146.5c14.1,5.4,17.8,24.2,8.2,42.2
					c-9.6,17.9-28.8,28.1-42.9,22.8c-14.1-5.4-17.8-24.2-8.2-42.2C56.4,151.4,75.6,141.2,89.7,146.5z"/>
				<path fill-rule="evenodd" clip-rule="evenodd" fill="#A7A9AB" d="M86.2,146c13.4,5.1,16.9,23,7.8,40.1
					c-9.1,17-27.4,26.7-40.8,21.6c-13.4-5.1,14.6-5.1,27.8-27.3C94.2,158.2,72.8,140.9,86.2,146z"/>
			</g>
		</g>
		<path fill="#FFFFFF" d="M149,70.8c-0.1-0.1-0.2-0.2-0.2-0.2s-3.7-0.2-8.2-3.4c-4.5-3.2-6-6.2-6-6.2c-0.1,0-0.1-0.1-0.2-0.1
			c1.4-3.5,3.8-5.9,6-7.1c0,0,0,0.1,0,0.1c-0.1,0.3,0.4,0.8,0.4,0.8s2,2.4,6.7,3.6c4.7,1.2,6.6,0.3,6.6,0.3c0.1,0,0.2,0,0.3,0
			C154.3,64.6,151,69,149,70.8z"/>
		<path fill="#FFFFFF" d="M133.2,62.7c0,0,1.4,3.2,6.2,6.4c4.8,3.2,7.2,3.2,7.2,3.2c0.3,0.1,0.5,0.1,0.8,0.1
			c-2,2.5-7.2,5.5-10.1,6.5c-0.4-0.1-3.5-1-6.4-4.5c-2.7-3.2-3.3-5.9-3.5-6.5c1.2-1,2.4-2.2,3.3-3.6c0.3-0.4,0.5-0.7,0.8-1.1
			c0.5-0.3,1-0.6,1.5-0.9C133.1,62.5,133.2,62.7,133.2,62.7z"/>
		<path fill="#FFFFFF" d="M141.9,53.2c0,0-0.1,0-0.1,0c-1-0.5-1.9-2.1-2.3-4c-0.4-2.6,0.3-4.8,1.6-5c0.8-0.1,1.6,0.5,2.2,1.6
			c0.8-4.7,3.6-8.1,6.9-8.1c3.9,0,7.1,4.8,7.1,10.8c0,3.3-1,6.2-2.5,8.1c0,0,0,0,0,0c-0.9,0.3-3.6,0.8-7.1-0.2
			C143.4,55,141.9,53.2,141.9,53.2z"/>
		<path fill="#FFFFFF" d="M125.9,72.5L125.9,72.5L125.9,72.5l-3.6-1.6c1.2-0.5,2.4-1.1,3.5-1.8c0.1,0.8,0.8,3.5,3.6,6.7
			c2.6,3,4.5,3.9,5.2,4.1c-3.8,1.6-14.2,1.4-17.1-2.4c0,0,0-0.1-0.1-0.1C120.5,76.4,123.4,74.8,125.9,72.5z"/>
		<path fill="#E6E6E9" d="M137.3,78.9C137.3,78.9,137.3,78.9,137.3,78.9c0,0,0.5,0.5,0,1c0,0-1.1,0.9-2.4,0.2c0,0-0.1,0-0.3-0.1
			c0.5-0.2,0.9-0.4,1.1-0.7C136,79.3,136.6,79.1,137.3,78.9z"/>
		<path fill="#E6E6E9" d="M125.7,68.5c0-0.1,0.1-0.3,0.2-0.3l0.6-0.5c0,0,0.5-0.4,0.9,0c-0.1,0.2-0.2,0.4-0.3,0.6c0,0,0,0-0.1,0
			C126.5,68.3,126.1,68.3,125.7,68.5z"/>
		<path fill="#E6E6E9" d="M129.3,75.8c-2.8-3.1-3.5-5.9-3.6-6.7c0.4-0.3,0.8-0.6,1.2-0.9c0,0,0,0,0,0c0,0,0,0,0,0
			c0.1-0.1,0.3-0.2,0.4-0.4c0.1,0.6,0.8,3.3,3.5,6.5c2.9,3.5,6,4.4,6.4,4.5c-0.7,0.2-1.3,0.4-1.6,0.4c-0.2,0.3-0.6,0.5-1.1,0.7
			C133.9,79.7,132,78.8,129.3,75.8z"/>
		<path fill="#E6E6E9" d="M125.7,69.1c0-0.2,0-0.2,0-0.2s0-0.2,0-0.5c0.4-0.1,0.8-0.2,1.3-0.2C126.6,68.6,126.1,68.9,125.7,69.1z"/>
		<path fill="#E6E6E9" d="M149,71.6c0,0-0.5,0.8-1.7,0.8"/>
		<path fill="#E6E6E9" d="M133.1,62.3c0-0.2-0.1-0.3,0-0.5l0.4-0.6c0,0,0.3-0.5,0.9-0.2c-0.1,0.2-0.2,0.5-0.3,0.7
			C133.7,61.9,133.4,62.1,133.1,62.3z"/>
		<path fill="#E6E6E9" d="M140.5,67.2c4.5,3.2,8.2,3.4,8.2,3.4s0.1,0.1,0.2,0.2c-0.4,0.4-0.8,0.6-1.1,0.8c-0.1,0.3-0.3,0.5-0.5,0.8
			c-0.2,0-0.5,0-0.8-0.1c0,0-2.4,0-7.2-3.2c-4.8-3.2-6.2-6.4-6.2-6.4s-0.1-0.2-0.2-0.4c0.3-0.2,0.7-0.4,1-0.6
			c0.1-0.3,0.2-0.5,0.3-0.7c0.1,0,0.1,0.1,0.2,0.1C134.6,61.1,136.1,64,140.5,67.2z"/>
		<path fill="#E6E6E9" d="M154.9,56.5c0.2-0.1,0.4-0.1,0.4-0.1s0.6,0.2,0.5,0.8c0,0-0.3,1.1-1.5,1.4c0-0.2,0-0.4,0-0.6
			C154.5,57.6,154.7,57,154.9,56.5z"/>
		<path fill="#E6E6E9" d="M140.4,53.9c0.1-0.2,0.5-0.9,1.4-0.7c0,0,0.1,0,0.1,0C141.4,53.4,140.9,53.6,140.4,53.9z"/>
		<path fill="#E6E6E9" d="M147.4,58.4c-4.7-1.2-6.7-3.6-6.7-3.6s-0.4-0.4-0.4-0.8c0,0,0,0,0-0.1c0.5-0.3,1-0.5,1.5-0.7
			c0,0-0.1,0-0.1,0c0,0,0.1,0,0.1,0c0,0,1.5,1.7,5.9,3.1c3.5,1.1,6.2,0.5,7.1,0.2c-0.2,0.5-0.4,1-0.7,1.6c0,0.2,0,0.4,0,0.6
			c-0.1,0-0.2,0-0.3,0C153.9,58.7,152,59.6,147.4,58.4z"/>
		<path fill="none" d="M124,117.3L124,117.3c0.1,0,0.2,0,0.2-0.1c0,0,0,0,0,0C124.2,117.2,124.1,117.3,124,117.3z"/>
		<path fill="none" d="M124.7,117.1C124.7,117.1,124.8,117.1,124.7,117.1L124.7,117.1C124.8,117.1,124.7,117.1,124.7,117.1
			L124.7,117.1z"/>
		<path fill="none" d="M127.8,118.7c0,0.1,0.1,0.3,0.1,0.4l0,0C127.9,119,127.8,118.9,127.8,118.7z"/>
		<path fill="none" d="M111.4,132.4L111.4,132.4c1,1.3,2.2,2.6,3.6,3.9l0,0C113.6,135.1,112.4,133.8,111.4,132.4z"/>
		<path fill="none" d="M106.4,123.2L106.4,123.2c0.7,2.1,1.7,4.3,3.1,6.6l0,0C108.1,127.5,107.1,125.2,106.4,123.2z"/>
		<path fill="none" d="M104.6,114.1C104.6,114.1,104.6,114.1,104.6,114.1c0,0.9,0.2,3.1,0.8,6h0
			C104.8,117.3,104.6,115.1,104.6,114.1z"/>
		<path fill="none" d="M151.3,126.2c-1.1-0.1-2.5,0-4.2,0.4v0C148.8,126.2,150.1,126.1,151.3,126.2z"/>
		<path fill="none" d="M156.5,129.5c0,0,0-0.5-0.1-0.6C156.6,129,156.5,129.5,156.5,129.5z"/>
		<path fill="none" d="M137.2,85.9c-0.2-0.4-0.4-0.9-0.7-1.3h0C136.8,85,137,85.5,137.2,85.9z"/>
		<path fill="none" d="M138.5,89c1.6,4.6,1.5,9.3,0.3,13.6C140,98.3,140.1,93.6,138.5,89z"/>
		<path fill="#FFFFFF" d="M142.8,110.6c0.7,2.1,1.3,4.5,1.6,7.1c0.1,1.1,0.2,2.2,0.2,3.3c0,1.7-0.1,3.4-0.4,5.3
			c-0.1,0.4-0.1,0.8-0.2,1.2c0,0,0.1,0,0.1,0c0,0-0.1,0-0.1,0c2.7-13-3.5-22.7-5.2-24.9c0.6,0.8,1.8,2.6,2.9,5.1
			C142.1,108.6,142.5,109.5,142.8,110.6z"/>
		<path fill="#FFFFFF" d="M124.8,117c0.9-0.3,1.7-0.6,2.5-1C126.5,116.4,125.6,116.8,124.8,117C124.8,117,124.8,117,124.8,117z"/>
		<rect x="95.6" y="94.4" fill="#FFFFFF" width="0" height="0"/>
		<path fill="#FFFFFF" d="M121.9,117.8c0.4,0.5,0.9,1.5,1.4,2.9c0.2,0.6,0.4,1.2,0.7,1.9c0.4,1.2,0.8,2.6,1.2,4
			c0.2,0.7,0.4,1.5,0.6,2.2c1.3,4.7,2.4,9.2,2.5,9.5c0,0.1,0,0.1,0.1,0.2l0,0c0-0.1,0-0.1-0.1-0.2
			C128.2,137.7,124.1,120.3,121.9,117.8C121.9,117.8,121.9,117.8,121.9,117.8C121.9,117.8,121.9,117.8,121.9,117.8z"/>
		<path fill="#FFFFFF" d="M96.2,101.4c-0.4-1.6-0.6-3.3-0.6-4.9c0-0.7,0-1.4,0.1-2.1l0,0c-0.2,3,0.1,6,1.1,9c1,2.9,2.6,5.5,4.6,7.7
			c-2-2.2-3.5-4.7-4.6-7.7C96.5,102.7,96.4,102.1,96.2,101.4z"/>
		<path fill="#FFFFFF" d="M135.2,83.5c-3.2-0.2-6.9-2.2-9.8-5.6c-1.9-2.3-3.1-4.8-3.6-7.2c-3.2,2.5-6.9,4.5-10.9,5.9
			c-4.3,1.5-8.7,2.1-13,2.1c1.1,1.2,2,2.8,2.6,4.6c2,5.7-0.1,11.6-4.6,13.2c-0.1,0-0.2,0.1-0.4,0.1c0,1.6,0.2,3.3,0.6,4.9
			c4.9,9.6,16.3,14.4,26.8,10.8c10.7-3.7,16.7-14.7,14.4-25.5c0.4,0.8,0.7,1.6,1,2.4c4,11.5-2.1,24-13.6,28c0,0,0,0,0.1,0
			c0.9-0.3,1.7-0.6,2.5-1c0,0.6,0.2,1.5,0.5,2.7c0,0.1,0.1,0.3,0.1,0.4c0.3-0.1,3.8-0.8,8.1-4.2c4.6-3.6,5.6-7.3,5.6-7.3s0,0,0,0
			c-1.1-2.5-2.3-4.3-2.9-5.1c1.3-4.3,1.3-9-0.3-13.6c-0.4-1.1-0.8-2.1-1.3-3.1c-0.2-0.4-0.4-0.9-0.7-1.3
			C136,84.2,135.6,83.9,135.2,83.5z M113.9,80.5l5.3-1.8c0.8-0.3,1.6,0.1,1.9,0.8c0.2,0.7-0.2,1.5-1,1.8l-5.3,1.8
			c-0.8,0.3-1.6-0.1-1.9-0.8C112.6,81.6,113.1,80.8,113.9,80.5z M115.1,84.1l5.3-1.8c0.8-0.3,1.6,0.1,1.9,0.8c0.2,0.7-0.2,1.5-1,1.8
			l-5.3,1.8c-0.8,0.3-1.6-0.1-1.9-0.8C113.8,85.2,114.3,84.4,115.1,84.1z M111.4,81.5l-7.2,2.5L111.4,81.5z M111.8,82.5l-7.2,2.5
			L111.8,82.5z M112.1,83.5l-7.2,2.5L112.1,83.5z M112.4,84.4l-7.2,2.5L112.4,84.4z M112.8,85.4l-7.2,2.5L112.8,85.4z M113.1,86.4
			l-7.2,2.5L113.1,86.4z M113.4,87.3l-7.2,2.5L113.4,87.3z M123.2,89.2l-14.4,4.9l-2.7-1.2l18.5-6.3L123.2,89.2z"/>
		<path fill="#FFFFFF" d="M145.6,127C145.6,127,145.6,127,145.6,127C145.6,127,145.6,127,145.6,127z"/>
		<path fill="#FFFFFF" d="M105.5,120.1c0,0,3.2,2.3,9,2.3c5.5,0,8.6-1.5,8.9-1.7c-0.5-1.4-1-2.4-1.4-2.9c-6.2,1.3-12.4-0.2-17.3-3.7
			C104.6,115.1,104.8,117.3,105.5,120.1C105.5,120.1,105.5,120.1,105.5,120.1z"/>
		<path fill="#FFFFFF" d="M144.7,127.2c0.3-0.1,0.5-0.2,0.8-0.2C145.2,127.1,145,127.2,144.7,127.2z"/>
		<path fill="#FFFFFF" d="M156.2,128.1c0.1,0.2,0.2,0.3,0.2,0.5C156.4,128.4,156.3,128.3,156.2,128.1c-0.7-1.2-2.6-1.9-4.9-1.9
			C153.6,126.3,155.4,126.9,156.2,128.1z"/>
		<path fill="#FFFFFF" d="M124.3,117.2c-0.1,0-0.2,0-0.2,0.1C124.1,117.3,124.2,117.2,124.3,117.2z"/>
		<path fill="#C2C2CC" d="M147.1,126.6c-0.5,0.1-1,0.2-1.5,0.4C146.1,126.8,146.6,126.7,147.1,126.6L147.1,126.6z"/>
		<path fill="#C2C2CC" d="M144.1,127.5c0.2-0.1,0.5-0.2,0.7-0.2C144.5,127.3,144.3,127.4,144.1,127.5z"/>
		<path fill="#C2C2CC" d="M145.5,127c0,0,0.1,0,0.1,0C145.6,127,145.5,127,145.5,127z"/>
		<path fill="#E6E6E9" d="M124.3,117.2C124.3,117.2,124.3,117.2,124.3,117.2c0.2,0,0.3-0.1,0.5-0.1l0,0
			C124.6,117.1,124.4,117.2,124.3,117.2z"/>
		<path fill="#E6E6E9" d="M121.9,117.8L121.9,117.8c0.7-0.1,1.4-0.3,2.1-0.5l0,0C123.3,117.5,122.6,117.7,121.9,117.8z"/>
		<path fill="#E6E6E9" d="M104.6,114c-1.2-0.9-2.3-1.9-3.3-3C102.3,112.1,103.4,113.1,104.6,114c0,0,0,0.1,0,0.1c0,0,0,0,0,0
			C104.6,114.1,104.6,114,104.6,114z"/>
		<path fill="#E6E6E9" d="M124,117.3c0.1,0,0.2,0,0.2-0.1c0.2,0,0.3-0.1,0.5-0.1c11.5-4,17.6-16.5,13.6-28c-0.3-0.8-0.6-1.6-1-2.4
			c2.3,10.8-3.7,21.9-14.4,25.5c-10.5,3.6-21.9-1.2-26.8-10.8c0.2,0.6,0.3,1.3,0.6,1.9c1,2.9,2.6,5.5,4.6,7.7c1,1.1,2.1,2.1,3.3,3
			c0,0,0,0.1,0,0.1c4.9,3.5,11.1,5,17.3,3.7c0,0,0,0,0,0c0,0,0,0,0,0l0,0C122.6,117.7,123.3,117.5,124,117.3z"/>
		<path fill="#C2C2CC" d="M105.5,120.1L105.5,120.1c0.2,1,0.5,2,0.9,3.1l0,0C106,122.1,105.7,121,105.5,120.1z"/>
		<path fill="#C2C2CC" d="M114.4,122.4c-5.8,0-9-2.3-9-2.3s0,0,0,0c0.2,1,0.5,2,0.9,3.1c0.6,0.4,2.8,1.5,7.8,1.6
			c6,0.2,9.3-1.8,9.3-1.8s0.4-0.2,0.6-0.4c-0.2-0.7-0.5-1.3-0.7-1.9C123.1,120.9,120,122.4,114.4,122.4z"/>
		<path fill="#C2C2CC" d="M109.5,129.7L109.5,129.7c0.6,0.9,1.2,1.8,1.9,2.7l0,0C110.7,131.6,110,130.6,109.5,129.7z"/>
		<path fill="#C2C2CC" d="M128.3,120.5c0-0.1-0.1-0.2-0.1-0.4C128.2,120.3,128.3,120.4,128.3,120.5z"/>
		<path fill="#C2C2CC" d="M127.9,119.2c0,0.1,0.1,0.2,0.1,0.3C127.9,119.3,127.9,119.3,127.9,119.2L127.9,119.2z"/>
		<path fill="#C2C2CC" d="M129.2,121.1c0,0,3.8-0.5,8.4-4.4c3.8-3.2,4.9-5.4,5.1-6.1c-0.4-1.1-0.8-2.1-1.2-3c0,0,0,0,0,0
			s-1.1,3.8-5.6,7.3c-4.3,3.4-7.8,4.1-8.1,4.2c0,0.1,0.1,0.2,0.1,0.3c0.1,0.2,0.1,0.5,0.2,0.7c0,0.1,0.1,0.2,0.1,0.4
			c0.1,0.2,0.1,0.4,0.2,0.6C128.8,121.2,129.2,121.1,129.2,121.1z"/>
		<path fill="#C2C2CC" d="M95.6,94.4L95.6,94.4C95.7,94.3,95.7,94.3,95.6,94.4C95.7,94.3,95.7,94.3,95.6,94.4z"/>
		<path fill="#C2C2CC" d="M96.9,78.7c0,0,2.1,3.4,2.1,8.1c0,0.2,0,0.3,0,0.5c-0.2,4.6-2.9,6.8-3.2,7.1c0,0,0,0,0,0s0,0,0,0
			c0,0,0,0-0.1,0c-0.1,0.7-0.1,1.4-0.1,2.1c0.1,0,0.2-0.1,0.4-0.1c4.5-1.6,6.6-7.4,4.6-13.2c-0.6-1.8-1.5-3.3-2.6-4.6
			c-0.4,0-0.8,0-1.3,0C96.8,78.6,96.9,78.7,96.9,78.7z"/>
		<rect x="123.4" y="69.4" fill="#C2C2CC" width="0" height="0"/>
		<path fill="#C2C2CC" d="M131.7,79.8l-0.6-0.5c-0.1-0.1-0.1-0.2-0.1-0.4c-2.1-0.7-3.4-2.4-3.4-2.4s-5.1-5.4-4.2-7.1c0,0,0,0,0,0
			c-0.5,0.4-1,0.9-1.6,1.3c0.5,2.4,1.7,4.9,3.6,7.2c2.8,3.4,6.5,5.4,9.8,5.6c-1.1-1.1-1.9-2.2-2.6-3.6
			C132.2,80.2,131.7,79.8,131.7,79.8z"/>
		<path fill="#C2C2CC" d="M97.1,77.9L97.1,77.9c0.3-0.5,0.7-1,1-1.4h0C97.8,76.9,97.4,77.4,97.1,77.9z"/>
		<path fill="#C2C2CC" d="M121.6,68.8L121.6,68.8c-0.2-0.1-0.5-0.1-0.7-0.2l0,0C121.1,68.7,121.3,68.7,121.6,68.8z"/>
		<path fill="#C2C2CC" d="M120.9,68.6c-3.2,2.4-6.8,4.4-10.7,5.7c-4,1.4-8,2-12,2.1c-0.4,0.5-0.7,0.9-1,1.4c0.3,0.3,0.5,0.5,0.8,0.8
			c4.3,0.1,8.7-0.6,13-2.1c4-1.4,7.7-3.4,10.9-5.9c-0.1-0.6-0.2-1.3-0.2-1.9C121.3,68.7,121.1,68.7,120.9,68.6z"/>
		<path fill="#C2C2CC" d="M96.6,78.6L96.6,78.6c0.2-0.3,0.3-0.5,0.5-0.8l0,0C96.9,78.1,96.8,78.4,96.6,78.6z"/>
		<path fill="#C2C2CC" d="M96.6,78.6C96.6,78.6,96.6,78.6,96.6,78.6c0.4,0,0.9,0,1.3,0c-0.3-0.3-0.5-0.6-0.8-0.8
			C96.9,78.1,96.8,78.4,96.6,78.6z"/>
		<path fill="#C2C2CC" d="M123.4,69.4L123.4,69.4c-0.6-0.2-1.2-0.4-1.8-0.6l0,0C122.2,69,122.8,69.2,123.4,69.4z"/>
		<path fill="#C2C2CC" d="M121.6,68.8c0,0.6,0.1,1.2,0.2,1.9c0.5-0.4,1.1-0.8,1.6-1.3C122.8,69.2,122.2,69,121.6,68.8z"/>
		<path fill="#FFFFFF" d="M135.8,83.5c0.2,0.4,0.5,0.7,0.7,1.1h0C136.3,84.2,136.1,83.9,135.8,83.5L135.8,83.5z"/>
		<path fill="#FFFFFF" d="M136.5,84.6c-0.2-0.4-0.4-0.8-0.7-1.1c-0.2,0-0.4,0-0.7,0C135.6,83.9,136,84.2,136.5,84.6z"/>
		
			<rect x="127.7" y="75.5" transform="matrix(-0.9457 0.325 -0.325 -0.9457 276.8747 104.8087)" fill="#FFFFFF" width="4" height="0"/>
		<path fill="#FFFFFF" d="M135.8,83.5L135.8,83.5c-0.9-1.4-1.9-2.7-3.1-3.8l0,0C133.9,80.8,135,82.1,135.8,83.5z"/>
		<path fill="#FFFFFF" d="M131.6,74.9L131.6,74.9c-2.3-2.4-5.1-4.3-8.2-5.5l0,0C126.5,70.6,129.3,72.5,131.6,74.9z"/>
		<path fill="#FFFFFF" d="M131.1,78.3L131.1,78.3c-1-0.8-2.1-1.5-3.3-2.1l0,0C129,76.8,130.1,77.5,131.1,78.3z"/>
		<path fill="#FFFFFF" d="M127.6,76.5c0,0,1.4,1.7,3.4,2.4c0-0.2,0-0.5,0-0.5s0-0.1,0.1-0.2c-1-0.8-2.1-1.5-3.3-2.1l0,0l0,0l1.1-0.2
			c-2.3-2.4-2.4-5.4-5.5-6.5C122.5,71.1,127.6,76.5,127.6,76.5z"/>
		<path fill="#FFFFFF" d="M132.7,79.8c0,0-0.1,0.1-0.1,0.1c0.6,1.4,1.4,2.5,2.6,3.6c0.2,0,0.5,0,0.7,0c-0.9-1.4-1.9-2.7-3.1-3.8
			C132.7,79.8,132.7,79.8,132.7,79.8z"/>
		<path fill="#FFFFFF" d="M132.9,23.7c0.1,0.3,0.2,0.7,0.3,1c0.1,0.3,0.2,0.7,0.4,1c5.5,16-0.2,33.1-13,42.8c0.1,0,0.1,0,0.2,0.1
			c12.7-9.7,18.5-26.8,13-42.8c-0.5-1.3-1-2.6-1.6-3.9C132.5,22.5,132.7,23.1,132.9,23.7z"/>
		<path fill="#FFFFFF" d="M65.4,58.8C65.4,58.7,65.4,58.7,65.4,58.8L65.4,58.8"/>
		<path fill="#FFFFFF" d="M133.8,25.8c-2.4-6.9-6.5-12.6-11.7-16.9c4.2,3.5,7.7,7.9,10.1,13.1C132.9,23.2,133.4,24.5,133.8,25.8z"/>
		<path fill="#FFFFFF" d="M81,72.6c5.3,2.6,11.2,3.9,17.2,3.9c0,0,0-0.1,0.1-0.1C92.2,76.4,86.3,75.1,81,72.6z"/>
		<path fill="#FFFFFF" d="M80.2,72.2c0,0-0.1,0-0.1-0.1C80.1,72.1,80.2,72.2,80.2,72.2z"/>
		<path fill="#FFFFFF" d="M95.6,94.4C95.6,94.4,95.6,94.4,95.6,94.4c0.1-1.7,0.5-3.3,1-4.8C96.1,91.1,95.8,92.7,95.6,94.4z"/>
		<rect x="95.8" y="85" fill="#FFFFFF" width="0" height="4.4"/>
		<path fill="#FFFFFF" d="M97.8,86.5L97.8,86.5c-0.5,1-0.9,2-1.2,3C96.9,88.5,97.3,87.5,97.8,86.5z"/>
		<path fill="#FFFFFF" d="M95.8,94.3c0.3-0.3,3-2.5,3.2-7.1C98.8,91.8,96.1,94,95.8,94.3z"/>
		<path fill="#FFFFFF" d="M96.9,78.7c0,0,2.1,3.4,2.1,8.1C99,82,96.9,78.7,96.9,78.7c0,0-0.1,0-0.2-0.1c0,0,0,0,0,0
			C96.8,78.6,96.9,78.7,96.9,78.7z"/>
		<path fill="#FFFFFF" d="M120.6,68.6c0.1,0,0.1,0,0.2,0.1l0,0C120.8,68.6,120.7,68.6,120.6,68.6L120.6,68.6z"/>
		<path fill="#FFFFFF" d="M98.2,76.3C98.2,76.4,98.2,76.4,98.2,76.3L98.2,76.3C98.2,76.4,98.2,76.4,98.2,76.3L98.2,76.3z"/>
		<path fill="#FFFFFF" d="M98.2,76.3C98.2,76.4,98.2,76.4,98.2,76.3c3.9,0,8-0.6,11.9-2c4-1.4,7.6-3.3,10.7-5.7
			c-0.1,0-0.1,0-0.2-0.1c-3.2,2.4-6.7,4.3-10.7,5.7C106.1,75.6,102.1,76.3,98.2,76.3z"/>
		<rect x="96.6" y="78.6" fill="#FFFFFF" width="0" height="0"/>
		<rect x="96.6" y="78.6" fill="#FFFFFF" width="0" height="0"/>
		<polygon fill="#FFFFFF" points="96.6,78.6 96.6,78.6 96.6,78.6 96.6,78.6 		"/>
		<polygon fill="#FFFFFF" points="96.6,78.6 96.6,78.6 96.6,78.6 		"/>
		<path fill="#E5E6E7" d="M69.3,63.7L69.3,63.7c0.1,0.2,0.3,0.4,0.5,0.5C69.6,64.1,69.4,63.9,69.3,63.7z"/>
		<path fill="#E5E6E7" d="M69.2,63.8C69.2,63.8,69.2,63.8,69.2,63.8C69.2,63.8,69.2,63.8,69.2,63.8L69.2,63.8z"/>
		<path fill="#E5E6E7" d="M117.7,68.1c1,0.1,1.9,0.3,2.9,0.5c12.8-9.7,18.5-26.8,13-42.8c-0.1-0.3-0.2-0.7-0.4-1
			C138.5,41.3,131.7,58.9,117.7,68.1z"/>
		<path fill="#E5E6E7" d="M98.2,76.3c0.6-0.8,1.3-1.5,2-2.2C90,75.1,80,71.8,72.4,65.4c0,0,0,0,0,0l-0.6,0.9
			c2.5,2.3,5.3,4.3,8.3,5.8c0,0,0.1,0,0.1,0.1c0.2,0.1,0.5,0.2,0.7,0.4C86.3,75.1,92.2,76.4,98.2,76.3z"/>
		<path fill="#E5E6E7" d="M117.7,68.1c1,0.1,1.9,0.3,2.9,0.5l0,0C119.7,68.3,118.7,68.2,117.7,68.1L117.7,68.1z"/>
		<path fill="#E5E6E7" d="M98.2,76.3c0.6-0.8,1.3-1.5,2-2.2h0C99.5,74.8,98.8,75.6,98.2,76.3L98.2,76.3z"/>
		<path fill="#E5E6E7" d="M109.2,72.2c-3,1-6,1.7-9.1,1.9c-0.7,0.7-1.4,1.4-2,2.2c3.9-0.1,7.9-0.7,11.7-2.1c4-1.4,7.5-3.3,10.7-5.7
			c-1-0.2-1.9-0.4-2.9-0.5C115.2,69.8,112.3,71.2,109.2,72.2z"/>
		<path fill="#FFFFFF" d="M122.2,8.9c-6.6-5.5-15.1-8.7-23.8-8.9c0,0,0,0,0,0C107.1,0.2,115.5,3.3,122.2,8.9z"/>
		<path fill="#FFFFFF" d="M98.4,0c15.2,0.3,29.3,9.8,34.9,24.7c-0.1-0.3-0.2-0.7-0.3-1c-0.2-0.6-0.4-1.2-0.7-1.8
			c-2.4-5.2-5.9-9.6-10.1-13.1C115.5,3.3,107.1,0.2,98.4,0z"/>
		<path fill="#FFFFFF" d="M85.3,2.1C89.6,0.6,94-0.1,98.4,0c0,0,0,0,0,0C94-0.1,89.6,0.6,85.3,2.1C66.7,8.5,56.2,27.8,60.4,46.6l0,0
			C56.2,27.8,66.7,8.5,85.3,2.1z"/>
		<path fill="#FFFFFF" d="M108.3,69.2L108.3,69.2c2.8-1,5.7-1.3,8.5-1.2C114,67.8,111.1,68.2,108.3,69.2z"/>
		<path fill="#FFFFFF" d="M117.1,68C117.1,68,117.1,68,117.1,68C117.1,68,117.1,68,117.1,68z"/>
		<path fill="#FFFFFF" d="M108.3,69.2L108.3,69.2c-3.2,1.1-5.9,2.8-8.2,5h0C102.4,72,105.2,70.2,108.3,69.2z"/>
		<path fill="#FFFFFF" d="M116.8,68c0.1,0,0.2,0,0.3,0C117,68,116.9,68,116.8,68z"/>
		<path fill="#FFFFFF" d="M117.7,68.1c-0.2,0-0.4,0-0.6-0.1C117.4,68,117.5,68,117.7,68.1L117.7,68.1z"/>
		<path fill="#FFFFFF" d="M109.2,72.2c3.1-1.1,5.9-2.5,8.5-4.2c-0.2,0-0.4,0-0.6-0.1c0,0,0,0-0.1,0c-0.1,0-0.2,0-0.3,0
			c-2.8-0.2-5.7,0.2-8.5,1.2c-3.2,1.1-5.9,2.8-8.2,5C103.2,73.9,106.2,73.3,109.2,72.2z"/>
		<path fill="#FFFFFF" d="M61.8,51.3C61.8,51.3,61.8,51.3,61.8,51.3c0.9,2.5,2,4.8,3.4,7c0,0,0,0,0,0C63.9,56.1,62.7,53.8,61.8,51.3
			z"/>
		<rect x="65.4" y="58.7" fill="#FFFFFF" width="0" height="0"/>
		<path fill="#FFFFFF" d="M65.4,58.8c1.1,1.8,2.4,3.5,3.8,5l0,0c0,0,0,0,0-0.1c0,0,0,0,0,0l0,0C67.7,61.9,66.3,59.9,65.4,58.8
			L65.4,58.8L65.4,58.8L65.4,58.8C65.4,58.7,65.4,58.7,65.4,58.8z"/>
		<path fill="#FFFFFF" d="M61.6,50.6c-0.5-1.4-0.8-2.7-1.2-4.1l0,0C60.7,47.9,61.1,49.3,61.6,50.6c0.1,0.2,0.2,0.4,0.2,0.6
			c0,0,0,0,0,0C61.7,51.1,61.6,50.9,61.6,50.6z"/>
		
			<rect x="93.5" y="87.9" transform="matrix(-0.9457 0.3249 -0.3249 -0.9457 210.7241 140.6647)" fill="#E6E6E9" width="0.2" height="0"/>
		<path fill="#E6E6E9" d="M132.3,79.3C132.3,79.3,132.3,79.3,132.3,79.3C132.3,79.3,132.3,79.3,132.3,79.3
			C132.4,79.3,132.3,79.3,132.3,79.3z"/>
		<path fill="#E6E6E9" d="M132.4,79.3C132.4,79.3,132.4,79.3,132.4,79.3C132.3,79.3,132.3,79.3,132.4,79.3L132.4,79.3
			C132.3,79.3,132.3,79.3,132.4,79.3z"/>
		<path fill="#E6E6E9" d="M132.3,79.3L132.3,79.3c-0.4-0.3-0.8-0.7-1.2-1l0,0C131.5,78.6,131.9,78.9,132.3,79.3z"/>
		<path fill="#E6E6E9" d="M132.4,79.3c0.1,0.1,0.3,0.3,0.4,0.4l0,0C132.6,79.6,132.5,79.4,132.4,79.3
			C132.4,79.3,132.4,79.3,132.4,79.3z"/>
		<path fill="#E6E6E9" d="M132.7,79.8c0,0,0,0,0-0.1c-0.1-0.1-0.3-0.3-0.4-0.4c0.1,0.2,0.2,0.4,0.3,0.6
			C132.7,79.9,132.7,79.9,132.7,79.8z"/>
		<polygon fill="#706F86" points="128.4,138.4 128.4,138.4 128.4,138.4 		"/>
		<path fill="#706F86" d="M128.5,139.1c0-0.2,0-0.4-0.1-0.6L128.5,139.1L128.5,139.1z"/>
		<path fill="#706F86" d="M128.4,138.4L128.4,138.4c0,0.2,0.1,0.4,0.1,0.6C128.5,138.9,128.5,138.7,128.4,138.4z"/>
		<rect x="128.4" y="138.4" fill="#706F86" width="0" height="0"/>
		<rect x="128.5" y="138.4" fill="#706F86" width="0" height="0.6"/>
		<polygon fill="#C2C2CC" points="108.9,94.1 123.2,89.2 124.6,86.5 106.2,92.9 		"/>
		<path fill="#65C1C5" d="M114.7,83.1l5.3-1.8c0.8-0.3,1.2-1.1,1-1.8c-0.2-0.7-1.1-1.1-1.9-0.8l-5.3,1.8c-0.8,0.3-1.2,1.1-1,1.8
			C113.1,83,113.9,83.3,114.7,83.1z"/>
		<path fill="#EB6180" d="M116,86.7l5.3-1.8c0.8-0.3,1.2-1.1,1-1.8c-0.2-0.7-1.1-1.1-1.9-0.8l-5.3,1.8c-0.8,0.3-1.2,1.1-1,1.8
			C114.3,86.6,115.2,86.9,116,86.7z"/>
		<path fill="#585774" d="M126.9,25.3c5.7,16.5-3.1,34.5-19.6,40.2c-16.5,5.7-34.5-3.1-40.2-19.6c-1.1-3.2-1.7-6.5-1.7-9.8
			c-0.3,4,0.2,8.1,1.6,12.1c5.7,16.5,24.1,25.2,41,19.4c17-5.8,26.1-24,20.5-40.5c-1.4-4-3.5-7.6-6.2-10.5
			C124.2,19.1,125.8,22.1,126.9,25.3z"/>
		<path fill="#9D9DAD" d="M87.4,7.7c12.9-4.4,26.5-0.5,34.9,8.8C114.3,5.9,100,1.1,86.7,5.7c-13.3,4.6-21.6,17.1-21.4,30.4
			C66.2,23.6,74.6,12.2,87.4,7.7z"/>
		<path fill="#9D9DAD" d="M107.3,65.5c16.5-5.7,25.3-23.7,19.6-40.2c-1.1-3.2-2.7-6.2-4.6-8.8c-8.3-9.3-22-13.2-34.9-8.8
			c-12.9,4.4-21.2,15.9-22.1,28.4c0.1,3.2,0.6,6.5,1.7,9.8C72.8,62.4,90.8,71.2,107.3,65.5z M85.8,9.7c0.4-0.2,0.9-0.4,1.3-0.5
			c0.2-0.1,0.5-0.2,0.7-0.2c14.7-5.1,30.8,2.8,35.8,17.5c0.1,0.3,0.2,0.7,0.3,1c4.3,14.4-3.5,29.8-17.8,34.8
			c-0.2,0.1-0.5,0.2-0.7,0.2c-0.5,0.1-0.9,0.3-1.4,0.4C90,66.6,75.2,58.8,70.4,44.8C65.5,30.7,72.4,15.5,85.8,9.7z"/>
		<path fill="#585774" d="M70.4,44.7c0.1,0.3,0.2,0.7,0.4,1c-0.2-0.8-0.4-1.6-0.6-2.4C66,29.1,73.7,14,87.9,9.1
			c14.2-4.9,29.6,2.3,35.1,16.1c0.4,0.7,0.7,1.5,1,2.3c-0.1-0.3-0.2-0.7-0.3-1c-5.1-14.7-21.1-22.5-35.8-17.5
			c-0.2,0.1-0.5,0.2-0.7,0.2c-0.5,0.2-0.9,0.3-1.3,0.5C72.4,15.5,65.5,30.7,70.4,44.7z"/>
		<path fill="#585774" d="M104.1,62.9c-13.8,3.6-28.2-3.7-33.4-17.1c-0.1-0.3-0.3-0.7-0.4-1c-4.8-14,2.1-29.3,15.5-35
			c-13.4,5.8-20.3,21-15.5,35C75.2,58.8,90,66.6,104.1,62.9z"/>
		<path fill="#585774" d="M105.5,62.5c-0.5,0.1-0.9,0.3-1.4,0.4C104.5,62.7,105,62.6,105.5,62.5z"/>
		<path fill="#585774" d="M85.8,9.7c0.4-0.2,0.9-0.4,1.3-0.5C86.7,9.4,86.3,9.5,85.8,9.7z"/>
		<path fill="#585774" d="M88.6,11c13.6-4.7,28.3,1.6,34.4,14.2c-5.5-13.8-20.9-20.9-35.1-16.1C73.7,14,66,29.1,70.1,43.4
			C67.3,29.7,75,15.7,88.6,11z"/>
		<path fill="#1B1935" d="M123.5,26.5c5,14.6-2.8,30.5-17.4,35.6c-14.6,5-30.5-2.8-35.6-17.4c-0.2-0.4-0.3-0.9-0.4-1.3
			c0.2,0.8,0.4,1.6,0.6,2.4c5.2,13.4,19.6,20.7,33.4,17.1c0.5-0.1,0.9-0.3,1.4-0.4c0.2-0.1,0.5-0.1,0.7-0.2
			c14.4-4.9,22.2-20.3,17.8-34.8c-0.3-0.8-0.6-1.5-1-2.3C123.2,25.6,123.3,26.1,123.5,26.5z"/>
		<path fill="#1B1935" d="M106.1,62.1c14.6-5,22.4-20.9,17.4-35.6c-0.2-0.4-0.3-0.9-0.5-1.3C116.8,12.6,102.1,6.4,88.6,11
			C75,15.7,67.3,29.7,70.1,43.4c0.1,0.4,0.3,0.9,0.4,1.3C75.6,59.3,91.5,67.1,106.1,62.1z M87.1,14.8c7.3-2.5,15.3,1.4,17.9,8.8
			c2.5,7.4-1.3,15.4-8.7,18C89,44.2,81,40.2,78.5,32.8C75.9,25.4,79.8,17.4,87.1,14.8z M82.1,43.9c2.8-1,5.9,0.6,6.9,3.4
			c1,2.9-0.5,6-3.4,7c-2.8,1-5.9-0.6-6.9-3.4C77.7,48,79.2,44.9,82.1,43.9z"/>
		
			<ellipse transform="matrix(0.325 0.9457 -0.9457 0.325 103.0511 -46.1487)" fill="#FFFFFF" cx="83.9" cy="49.1" rx="5.5" ry="5.4"/>
		
			<ellipse transform="matrix(0.325 0.9457 -0.9457 0.325 88.6158 -67.6776)" fill="#FFFFFF" cx="91.7" cy="28.2" rx="14.2" ry="14"/>
		<path fill="#FFFFFF" d="M71.8,66.3L71.8,66.3c-0.7-0.7-1.4-1.3-2.1-2.1C70.4,65,71.1,65.8,71.8,66.3z"/>
		<path fill="#FFFFFF" d="M64.8,57.7c0,0,0.2,0.4,0.6,1c-0.1-0.1-0.2-0.3-0.2-0.4C65,58.1,64.9,57.9,64.8,57.7z"/>
		<path fill="#FFFFFF" d="M69.9,63.2c0.8,0.8,1.6,1.6,2.5,2.3C72.3,65.3,71.2,64.4,69.9,63.2L69.9,63.2z"/>
		<path fill="#FFFFFF" d="M65.2,58.3C65.2,58.3,65.2,58.3,65.2,58.3c0.1,0.1,0.2,0.3,0.2,0.4c0,0,0,0,0,0
			C65.4,58.5,65.3,58.4,65.2,58.3z"/>
		<path fill="#FFFFFF" d="M98.4,0C94-0.1,89.6,0.6,85.3,2.1C66.7,8.5,56.2,27.8,60.4,46.6c0.3,1.4,0.7,2.7,1.2,4.1
			c0.1,0.2,0.2,0.4,0.2,0.7c0.9,2.5,2,4.8,3.4,7c0.1,0.1,0.2,0.3,0.2,0.4c0.8,1.2,2.3,3.2,3.8,5c0.2,0.2,0.3,0.4,0.5,0.5
			c0.7,0.7,1.3,1.4,2.1,2l0.6-0.9c0,0,0,0,0,0c-0.9-0.7-1.7-1.5-2.5-2.3c0,0,0,0,0,0c0,0,0,0,0,0c1.3,1.2,2.4,2.2,2.5,2.3
			c7.6,6.4,17.6,9.6,27.8,8.7c2.3-2.2,5-3.9,8.2-5l0,0l0,0c2.8-1,5.7-1.3,8.5-1.2c0.1,0,0.2,0,0.3,0c0,0,0,0,0.1,0
			c0.2,0,0.4,0,0.6,0.1c14-9.1,20.7-26.7,15.5-43.3C127.7,9.8,113.6,0.3,98.4,0z M108,67.6c-17,5.8-35.4-2.8-41-19.4
			c-1.4-4-1.9-8.1-1.6-12.1c-0.2-13.3,8.1-25.9,21.4-30.4c13.3-4.6,27.5,0.2,35.6,10.9c2.7,3,4.8,6.5,6.2,10.5
			C134.1,43.6,125,61.8,108,67.6z"/>
		<path fill="#FFFFFF" d="M69.8,63.1C69.9,63.1,69.9,63.1,69.8,63.1L69.8,63.1C69.9,63.1,69.9,63.1,69.8,63.1z"/>
		<g>
			<path fill="#FFFFFF" d="M80.6,105.9c0.2,0,0.3,0,0.3,0s2.7-2.6,8.1-3.6c5.4-1,8.6,0,8.6,0c0.1,0,0.1,0,0.2-0.1
				c1.5,3.4,1.5,6.8,0.9,9.2c0,0,0-0.1,0-0.1c-0.2-0.3-0.8-0.3-0.8-0.3s-3.1-0.3-7.2,2.2c-4.1,2.5-4.8,4.5-4.8,4.5
				c-0.1,0.1-0.1,0.2-0.2,0.2C81.3,114.1,80.4,108.6,80.6,105.9z"/>
			<path fill="#FFFFFF" d="M97.4,100.3c0,0-3.3-1.2-8.9,0c-5.6,1.2-7.3,2.9-7.3,2.9c-0.2,0.1-0.4,0.3-0.6,0.5
				c-0.4-3.2,1.1-9,2.4-11.8c0.3-0.2,3.2-1.8,7.7-1.4c4.2,0.3,6.5,1.7,7.1,2.1c-0.1,1.6,0,3.3,0.2,4.9c0.1,0.4,0.2,0.9,0.2,1.3
				c-0.1,0.5-0.2,1.1-0.4,1.7C97.6,100.3,97.4,100.3,97.4,100.3z"/>
			<path fill="#FFFFFF" d="M98.1,113.1C98.1,113.1,98.2,113.1,98.1,113.1c1.2-0.4,2.9,0,4.6,1.1c2.1,1.5,3.3,3.5,2.5,4.6
				c-0.5,0.7-1.5,0.8-2.7,0.5c2.8,3.8,3.3,8.2,1,10.6c-2.8,2.8-8.4,1.8-12.7-2.4c-2.3-2.3-3.7-5-4.1-7.5c0,0,0,0,0,0
				c0.5-0.9,1.9-3.1,5.1-4.9C95.8,112.9,98.1,113.1,98.1,113.1z"/>
			<path fill="#FFFFFF" d="M95.4,88.2L95.4,88.2L95.4,88.2l3.7-1.5c-0.5,1.2-0.9,2.5-1.1,3.8c-0.7-0.5-3.1-1.9-7.3-2.1
				c-4-0.2-5.9,0.6-6.6,0.9c1.5-3.8,8.8-11.1,13.7-10.6c0,0,0.1,0,0.1,0C96.3,81.6,95.5,84.8,95.4,88.2z"/>
			<path fill="#FFFFFF" d="M98.1,98.7c-0.1-0.4-0.2-0.9-0.2-1.3c0.2-0.1,0.3-0.3,0.5-0.5C98.4,97.5,98.3,98.1,98.1,98.7z"/>
			<path fill="#FFFFFF" d="M99.4,86.8c0,0,0.1,2.2-0.9,4.1c-0.1-0.2-0.3-0.3-0.3-0.3s-0.1-0.1-0.2-0.1c0.2-1.3,0.6-2.5,1.1-3.8l0,0
				l0,0l-3.7,1.5c0.1-3.3,1-6.6,2.5-9.5C99.6,79.3,99.4,86.8,99.4,86.8z"/>
			<path fill="#FFFFFF" d="M97.8,92.6c0.1,0,0.1,0,0.1,0c0.4,1.4,0.6,2.8,0.5,4.4c-0.2,0.2-0.3,0.3-0.5,0.5
				c-0.3-1.6-0.3-3.3-0.2-4.9C97.8,92.6,97.8,92.6,97.8,92.6z"/>
			<path fill="#E6E6E9" d="M90.6,88.3c4.2,0.2,6.6,1.6,7.3,2.1c-0.1,0.5-0.2,1-0.2,1.5c0,0,0,0,0,0c0,0,0,0,0,0c0,0.2,0,0.4,0,0.6
				c-0.5-0.3-2.9-1.7-7.1-2.1c-4.5-0.4-7.3,1.2-7.7,1.4c0.3-0.7,0.6-1.2,0.9-1.4c0-0.4,0.1-0.8,0.3-1.3
				C84.7,88.9,86.7,88.2,90.6,88.3z"/>
			<path fill="#E6E6E9" d="M89,102.4c-5.4,1-8.1,3.6-8.1,3.6s-0.1,0-0.3,0c0-0.6,0.1-1,0.2-1.3c-0.1-0.3-0.1-0.6-0.2-0.9
				c0.2-0.2,0.4-0.3,0.6-0.5c0,0,1.7-1.7,7.3-2.9c5.6-1.2,8.9,0,8.9,0s0.2,0.1,0.4,0.2c-0.1,0.4-0.2,0.8-0.3,1.1
				c0.1,0.2,0.2,0.5,0.3,0.7c-0.1,0-0.1,0-0.2,0.1C97.6,102.4,94.4,101.4,89,102.4z"/>
			<path fill="#E6E6E9" d="M90.6,113.4c4.1-2.5,7.2-2.2,7.2-2.2s0.6,0,0.8,0.3c0,0,0,0,0,0.1c-0.2,0.6-0.3,1.1-0.6,1.5
				c0,0,0.1,0,0.1,0c0,0-0.1,0-0.1,0.1c0,0-2.3-0.2-6.3,2.1c-3.2,1.8-4.6,4.1-5.1,4.9c-0.2-0.5-0.5-1-0.7-1.6
				c-0.1-0.1-0.3-0.3-0.4-0.4c0-0.1,0.1-0.2,0.2-0.2C85.8,117.9,86.5,116,90.6,113.4z"/>
		</g>
		<g>
			<path fill="#FFFFFF" d="M131.3,122.7c4.6-2,8.9-4.2,12.9-6.5c-0.3-2.1-0.8-3.9-1.4-5.6c-0.3,0.7-1.3,2.9-5.1,6.1
				c-4.6,3.9-8.4,4.4-8.4,4.4s-0.4,0.1-0.7,0c0.3,0.8,0.6,1.6,0.9,2.4C130,123.2,130.6,123,131.3,122.7z"/>
			<path fill="#FFFFFF" d="M109.5,129.7c0.4,0.1,0.8,0.2,1.3,0.2c4.5-1.2,9.3-2.8,14.1-4.6c-0.3-0.9-0.6-1.9-0.9-2.7
				c-0.2,0.3-0.6,0.4-0.6,0.4s-3.3,2-9.3,1.8c-5-0.2-7.2-1.3-7.8-1.6C107.1,125.2,108.1,127.5,109.5,129.7z"/>
		</g>
	</g>
</g>
<g id="Layer_2" display="none">
</g>
</svg>
