<?xml version="1.0" encoding="utf-8"?>
<!-- Generator: Adobe Illustrator 18.1.1, SVG Export Plug-In . SVG Version: 6.00 Build 0)  -->
<svg version="1.1" xmlns="http://www.w3.org/2000/svg" xmlns:xlink="http://www.w3.org/1999/xlink" x="0px" y="0px"
	 viewBox="0 0 197.9 82.6" enable-background="new 0 0 197.9 82.6" xml:space="preserve">
<g id="Capa_1">
	<g opacity="0.4">
		<path fill="#0F0F38" d="M40.1,37.5c0-0.5,0.1-0.6,0.5-0.6c1.2,0,1.7,0,2.2,0c0.3,0,0.4-0.1,0.4-0.5c0-0.4-0.1-0.5-0.3-0.5
			c-0.2,0-0.4,0-0.7,0h-1.4c-0.5,0-0.6-0.1-0.6-0.6v-1.7c0-0.4-0.2-0.4-0.3-0.4c-0.2,0-0.3,0.2-0.4,0.3c-0.8,1.3-1.6,1.9-2.2,2.2
			l-0.7,0.3c-0.1,0-0.4,0.2-0.4,0.4c0,0.3,0.3,0.3,0.4,0.3c0.2,0,0.4,0,0.6,0c0.4,0,0.6,0.1,0.6,0.4v7.1c0,1.8,1.2,2.7,2.5,2.7
			c1.8,0,3.4-1.5,3.4-1.9c0-0.1-0.1-0.2-0.2-0.2c-0.1,0-0.2,0.1-0.3,0.1c-0.9,0.5-1.2,0.6-1.6,0.6c-1.3,0-1.4-1.1-1.4-2.2V37.5z
			 M53.1,39.5c0.4,0,0.7,0,0.7-0.4c0-0.8-0.8-3.6-4.5-3.6c-3.3,0-6.1,2.4-6.1,6c0,3.4,2.5,5.6,5.7,5.6c3.1,0,4.8-2.2,4.8-2.5
			c0-0.1,0-0.2-0.2-0.2c-0.1,0-0.2,0-0.5,0.4c-0.6,0.6-1.6,1-2.7,1c-2.5,0-4.4-2.1-4.4-4.9c0-1.3,0.2-1.3,0.6-1.3H53.1z M46.9,38.8
			c-0.6,0-0.7,0-0.7-0.3c0-0.4,0.8-2.4,3-2.4c0.4,0,2,0,2,1.5c0,0.6-0.6,1.2-1.7,1.2H46.9z M69.5,44.4c0,1.4,0,1.7-1,1.8
			c-0.5,0.1-0.7,0.2-0.7,0.4c0,0.3,0.2,0.3,0.4,0.3c0.4,0,1.1-0.1,2.5-0.1c1.3,0,2.1,0.1,2.5,0.1c0.2,0,0.4,0,0.4-0.3
			c0-0.2-0.1-0.3-0.7-0.4c-1-0.1-1-0.4-1-1.8v-5.9c0-0.8-0.3-3-3.5-3c-0.9,0-1.8,0.3-2.8,1.2c-0.1,0.1-0.7,0.7-0.9,0.7
			c-0.1,0-0.1,0-0.5-0.6c-0.8-1.3-2.3-1.3-2.6-1.3c-1.1,0-2,0.1-3.4,1.6c-0.1,0.1-0.3,0.3-0.3,0.3c-0.1,0-0.1-0.1-0.1-0.5v-1.2
			c0-0.2,0-0.4-0.3-0.4c-0.2,0-0.4,0.2-0.5,0.4c-0.8,0.9-2.3,1.5-2.5,1.6c-0.3,0.1-0.4,0.2-0.4,0.3c0,0.3,0.3,0.3,0.7,0.3
			c0.7,0,0.7,0.6,0.7,1.7v4.7c0,1.4,0,1.6-1.1,1.8c-0.5,0.1-0.8,0.2-0.8,0.4c0,0.3,0.3,0.3,0.5,0.3c0.4,0,1.4-0.1,2.5-0.1
			c1.3,0,2.2,0.1,2.5,0.1c0.2,0,0.5,0,0.5-0.3c0-0.2-0.1-0.3-0.7-0.4c-1-0.1-1-0.4-1-1.8v-5.2c0-0.6,0.1-1,0.4-1.4
			c0.5-0.5,1-0.8,2.1-0.8c1.7,0,2,1.4,2,2.6v4.8c0,1.4,0,1.7-1,1.8c-0.6,0.1-0.7,0.2-0.7,0.4c0,0.3,0.2,0.3,0.4,0.3
			c0.4,0,1.2-0.1,2.5-0.1c1.3,0,2.1,0.1,2.5,0.1c0.2,0,0.4,0,0.4-0.3c0-0.2-0.1-0.3-0.7-0.4c-1-0.1-1-0.4-1-1.8v-5.3
			c0-0.5,0-1,0.4-1.4c0.3-0.3,1-0.8,2.1-0.8c2.1,0,2.1,1.7,2.1,2.4V44.4z M79.2,39.8c0,0.4,0,0.6-0.6,0.9c-3.8,1.5-5.1,2.6-5.1,4.4
			c0,0.4,0.1,2.1,1.9,2.1c1.1,0,2.4-0.9,3.5-1.7c0,0,0.1-0.1,0.2-0.1c0.1,0,0.1,0,0.3,0.5c0.3,0.6,0.8,1.3,1.7,1.3
			c1.1,0,2.6-1.2,2.6-1.7c0-0.1-0.1-0.2-0.2-0.2c-0.1,0-0.1,0-0.4,0.2c-0.2,0.1-0.4,0.2-0.7,0.2c-0.7,0-0.8-0.6-0.8-1.4v-6.9
			c0-1-0.6-1.8-2.9-1.8c-3.7,0-5.3,2.5-5.3,3.4c0,0.3,0.3,0.5,0.5,0.5c0,0,1.5-0.1,1.8-1.2c0.2-0.6,0.7-2.1,2.2-2.1
			c1.2,0,1.2,1.2,1.2,2V39.8z M79.2,42.9c0,1.7-1,2.6-2.1,2.6c-0.5,0-1.1-0.4-1.1-1.6c0-0.5,0-1.4,1.5-2.2c0.4-0.2,1-0.5,1.4-0.5
			c0.1,0,0.3,0,0.3,0.3V42.9z M83.9,45.5c0,0.6,0,0.8,0.3,0.9c0.1,0.1,1.6,0.7,3.1,0.7c3.2,0,4.7-2.1,4.7-4c0-2.1-2.1-3-2.9-3.3
			c-2.5-1-3-1.3-3-2.2c0-0.9,0.9-1.5,2-1.5c1.6,0,2.3,1.3,2.5,1.8c0.1,0.5,0.3,0.5,0.4,0.5c0.2,0,0.3-0.3,0.3-0.4l0.1-1.4
			c0-0.4,0-0.7-0.6-0.7c-0.2,0-2-0.3-2.4-0.3c-3.3,0-4.4,2-4.4,3.4c0,1.8,1.7,2.5,3.2,3c1.7,0.7,2.8,1.2,2.8,2.5c0,1.3-1.3,2-2.4,2
			c-2,0-2.7-2.1-2.8-2.6c-0.1-0.5-0.2-0.7-0.5-0.7c-0.3,0-0.3,0.4-0.3,0.4L83.9,45.5z M109.2,33.3c0-0.4,0.1-2,0.1-2.4
			c0-0.1,0-0.5-0.3-0.5c-0.1,0-0.3,0.1-0.3,0.1c-1.3,0.7-2.3,0.9-2.8,1c-0.1,0-0.4,0.1-0.4,0.4c0,0.2,0.3,0.3,0.4,0.3
			c0.8,0.1,0.9,0.3,0.9,1v2.6c0,0.1-0.1,0.2-0.2,0.2c0,0-0.2,0-0.3-0.1c-0.4-0.2-1.3-0.4-2.1-0.4c-2.8,0-5.9,2.2-5.9,6
			c0,3.3,2.4,5.5,5.2,5.5c1.4,0,2.2-0.6,2.9-1.2c0.1-0.1,0.2-0.2,0.3-0.2c0.2,0,0.2,0.2,0.2,0.4c0.1,0.9,0.2,1,0.4,1
			c0.2,0,1.4-0.5,1.7-0.6c1.6-0.5,1.7-0.6,1.7-1.2c0-0.1,0-0.3-0.1-0.3c-0.2,0-0.8,0.6-1,0.6c-0.2,0-0.4-0.1-0.4-0.9V33.3z
			 M107,44.3c0,0.4,0,1.4-2.1,1.4c-2.4,0-3.9-2.1-3.9-4.9c0-3.2,1.8-4.8,3.5-4.8c2.5,0,2.5,2.2,2.5,3.3V44.3z M120.4,39.5
			c0.4,0,0.7,0,0.7-0.4c0-0.8-0.8-3.6-4.5-3.6c-3.3,0-6.1,2.4-6.1,6c0,3.4,2.5,5.6,5.7,5.6c3.1,0,4.8-2.2,4.8-2.5
			c0-0.1,0-0.2-0.2-0.2c-0.1,0-0.2,0-0.5,0.4c-0.6,0.6-1.6,1-2.7,1c-2.5,0-4.4-2.1-4.4-4.9c0-1.3,0.2-1.3,0.6-1.3H120.4z
			 M114.2,38.8c-0.6,0-0.7,0-0.7-0.3c0-0.4,0.8-2.4,3-2.4c0.4,0,2,0,2,1.5c0,0.6-0.6,1.2-1.7,1.2H114.2z M126.6,44.4
			c0,1.4,0,1.6-1.1,1.8c-0.6,0.1-0.7,0.2-0.7,0.4c0,0.3,0.2,0.3,0.4,0.3c0.4,0,1.6-0.1,2.6-0.1c1.1,0,2.2,0.1,2.6,0.1
			c0.2,0,0.4,0,0.4-0.3c0-0.2-0.1-0.3-0.7-0.4c-1.1-0.1-1.1-0.4-1.1-1.8v-5.1c0-2.5,2.7-2.5,2.9-2.5c2.2,0,2.2,1.9,2.2,2.7v4.9
			c0,1.4,0,1.6-1.1,1.8c-0.6,0.1-0.7,0.2-0.7,0.4c0,0.3,0.2,0.3,0.4,0.3c0.4,0,1.5-0.1,2.6-0.1c1.5,0,1.9,0.1,2.2,0.1
			c0.7,0,0.8,0,0.8-0.3c0-0.2-0.1-0.3-0.7-0.4c-1.1-0.1-1.1-0.4-1.1-1.8v-5.3c0-1,0-3.6-3.5-3.6c-1.1,0-2.2,0.3-3.7,1.8
			c0,0-0.1,0.1-0.2,0.1c-0.1,0-0.1-0.2-0.1-0.4v-4.6c0-1.4,0.1-1.5,0.1-1.6c0-0.1,0-0.4-0.3-0.4c-0.2,0-0.4,0.1-0.7,0.3
			c-0.7,0.4-1.4,0.7-2.6,0.9c-0.2,0-0.3,0.1-0.3,0.3c0,0.2,0.1,0.3,0.3,0.3c1.2,0.2,1.3,0.4,1.3,2.2V44.4z M149.3,41.1
			c0-3.7-3.1-5.6-5.9-5.6c-3.7,0-6,3-6,5.8c0,2.8,2.3,5.8,6.1,5.8C146.9,47.1,149.3,44.4,149.3,41.1 M140,40.9c0-3,1.4-4.8,3.2-4.8
			c2.7,0,3.6,3.5,3.6,5.2c0,2.9-1.6,5.2-3.3,5.2C141.5,46.5,140,43.9,140,40.9 M152.6,38.1c0-0.1-0.2-0.5-0.2-0.8
			c0-0.4,0.3-0.6,0.6-0.6c0.9-0.1,1-0.1,1-0.4c0-0.2-0.2-0.3-0.4-0.3c-0.4,0-0.9,0.1-2,0.1c-2,0-2.9-0.1-3.1-0.1
			c-0.3,0-0.7,0-0.7,0.3c0,0.3,0.3,0.3,0.4,0.3c1,0.1,1.2,0.1,1.7,1.5l3.2,7.8c0.1,0.1,0.3,1.1,0.3,1.2c0,0.1-0.1,0.4-0.2,0.7
			l-0.6,1.4c-0.4,0.8-0.7,0.9-1.1,0.9l-0.7,0c-0.9,0-1.1,0.6-1.1,1.2c0,0.3,0,1,1.4,1c1.3,0,1.4-0.4,1.7-1.4c0.5-1.5,1.6-4.3,2.3-6
			c1-2.6,1.9-4.4,2.9-6.5c0.6-1.2,0.8-1.7,1.4-1.7c0.8-0.1,0.9-0.1,0.9-0.4c0-0.3-0.3-0.3-0.4-0.3c-0.2,0-0.9,0.1-1.9,0.1
			c-0.9,0-1.7-0.1-2-0.1c-0.1,0-0.5,0-0.5,0.3c0,0.3,0.2,0.3,0.9,0.3c0.6,0,0.9,0.3,0.9,0.7c0,0.2-0.1,0.7-0.3,1.2l-2.2,5.2
			L152.6,38.1z"/>
		<path fill="#0F0F38" d="M97.1,35.6c0.6,0,0.8,0.1,0.8,0.6c0,0.8-0.9,1.9-1.5,2.4c-0.2,0.2-0.7,0.5-0.7,0.8c0,0.2,0.1,0.3,0.3,0.3
			c0.5,0,1.4-0.7,1.7-1c1.1-1,1.8-2.2,1.8-3.7c0-1.3-1-2.7-2.4-2.7c-1,0-1.9,0.7-1.9,1.8c0,0.6,0.2,1.1,0.8,1.4
			C96.4,35.6,96.7,35.6,97.1,35.6"/>
		<path fill="#0F0F38" d="M157.8,45.4c0-1.1,0.9-1.9,1.9-1.9c1.1,0,1.9,0.9,1.9,1.9s-0.9,1.9-1.9,1.9
			C158.7,47.3,157.8,46.5,157.8,45.4"/>
	</g>
</g>
<g id="Layer_2" display="none">
</g>
</svg>
