<?xml version="1.0" encoding="utf-8"?>
<!-- Generator: Adobe Illustrator 18.1.1, SVG Export Plug-In . SVG Version: 6.00 Build 0)  -->
<svg version="1.1" xmlns="http://www.w3.org/2000/svg" xmlns:xlink="http://www.w3.org/1999/xlink" x="0px" y="0px"
	 viewBox="0 0 197.9 82.6" enable-background="new 0 0 197.9 82.6" xml:space="preserve">
<g id="Capa_1">
	<g opacity="0.4">
		<g>
			<path fill="#0F0F38" d="M33.9,38.1v0.2c-0.4,0-0.6,0.1-0.7,0.2c-0.1,0.1-0.2,0.3-0.2,0.7v3c0,0.5,0.1,0.9,0.2,1.2
				c0.3,0.5,0.7,0.8,1.4,0.8c0.8,0,1.3-0.3,1.6-0.8c0.1-0.3,0.2-0.7,0.2-1.3v-2.5c0-0.5-0.1-0.8-0.2-1c-0.1-0.1-0.4-0.2-0.7-0.2
				v-0.2h2.2v0.2c-0.4,0-0.6,0.1-0.7,0.3c-0.1,0.1-0.2,0.5-0.2,0.9V42c0,0.7-0.1,1.2-0.3,1.5c-0.4,0.7-1.1,1-2.1,1
				c-1,0-1.7-0.3-2.1-1c-0.2-0.4-0.3-0.8-0.3-1.4v-3c0-0.3-0.1-0.6-0.2-0.7c-0.1-0.1-0.3-0.2-0.7-0.2v-0.2H33.9z"/>
			<path fill="#0F0F38" d="M38,44.2c0.4,0,0.6-0.1,0.8-0.3c0.1-0.1,0.2-0.5,0.2-1v-4.2l-0.1-0.2c-0.1-0.2-0.3-0.3-0.4-0.3
				c-0.1,0-0.2-0.1-0.4-0.1v-0.2h1.6l3.7,4.5v-3.1c0-0.5-0.1-0.9-0.2-1c-0.1-0.1-0.3-0.2-0.7-0.2v-0.2h2.2v0.2
				c-0.4,0-0.6,0.1-0.7,0.3c-0.1,0.1-0.2,0.5-0.2,1v5h-0.2l-4.2-5.2V43c0,0.5,0.1,0.9,0.2,1c0.1,0.1,0.3,0.2,0.7,0.2v0.2H38V44.2z"
				/>
			<path fill="#0F0F38" d="M44.9,44.2c0.4,0,0.6-0.1,0.7-0.2c0.1-0.1,0.2-0.3,0.2-0.7v-4.2c0-0.3-0.1-0.6-0.2-0.7
				c-0.1-0.1-0.4-0.2-0.7-0.2v-0.2h2.8v0.2c-0.4,0-0.6,0.1-0.7,0.2c-0.1,0.1-0.2,0.3-0.2,0.7v4.2c0,0.4,0.1,0.6,0.2,0.7
				c0.1,0.1,0.4,0.1,0.7,0.2v0.2h-2.8V44.2z"/>
			<path fill="#0F0F38" d="M50.6,38.1v0.2c-0.2,0-0.4,0-0.5,0c-0.2,0-0.2,0.2-0.2,0.3c0,0.1,0,0.2,0.1,0.3c0.1,0.1,0.2,0.4,0.3,0.7
				l1.5,3.3l1.3-3.6c0.1-0.2,0.1-0.3,0.1-0.4c0-0.1,0-0.2,0-0.3c0-0.2-0.1-0.3-0.2-0.4c-0.1,0-0.2-0.1-0.5-0.1v-0.2h1.9v0.2
				c-0.2,0-0.3,0.1-0.4,0.2c-0.1,0.1-0.3,0.4-0.4,0.7l-2.1,5.3h-0.1l-2.3-5.2c-0.2-0.4-0.4-0.7-0.5-0.8c-0.1-0.1-0.3-0.2-0.5-0.2
				v-0.2H50.6z"/>
			<path fill="#0F0F38" d="M54.9,44.2c0.3,0,0.6-0.1,0.7-0.2c0.1-0.1,0.2-0.3,0.2-0.7v-4.2c0-0.3,0-0.6-0.2-0.7
				c-0.1-0.1-0.3-0.2-0.7-0.2v-0.2h5l0,1.4h-0.2c-0.1-0.4-0.2-0.7-0.4-0.8c-0.2-0.1-0.5-0.2-1.1-0.2h-1.3c-0.1,0-0.2,0-0.3,0.1
				c0,0,0,0.1,0,0.3v2.1h1.5c0.4,0,0.7-0.1,0.8-0.2c0.1-0.1,0.2-0.4,0.3-0.7h0.2v2.2h-0.2c-0.1-0.4-0.2-0.6-0.3-0.7
				c-0.1-0.1-0.4-0.2-0.8-0.2h-1.5v2.3c0,0.2,0.1,0.3,0.2,0.3c0.1,0,0.5,0.1,1.1,0.1c0.6,0,1.1-0.1,1.4-0.2c0.3-0.1,0.6-0.5,0.8-1
				h0.3L60,44.4h-5.1V44.2z"/>
			<path fill="#0F0F38" d="M60.6,44.2c0.4,0,0.6-0.1,0.7-0.2c0.1-0.1,0.1-0.4,0.1-0.8v-4.1c0-0.3,0-0.5-0.2-0.7
				c-0.1-0.1-0.3-0.2-0.7-0.2v-0.2h2.6c0.5,0,1,0.1,1.4,0.2c0.7,0.3,1,0.7,1,1.4c0,0.5-0.2,0.8-0.5,1.1c-0.3,0.3-0.7,0.4-1.2,0.5
				l1.9,2.4c0.1,0.1,0.2,0.3,0.4,0.3c0.1,0.1,0.3,0.1,0.5,0.1v0.2h-1.5l-2.4-2.9l-0.4,0v1.9c0,0.3,0.1,0.6,0.2,0.7
				c0.1,0.1,0.3,0.2,0.7,0.2v0.2h-2.6V44.2z M63.9,40.9c0.5-0.2,0.8-0.6,0.8-1.2c0-0.5-0.2-0.9-0.7-1.1c-0.2-0.1-0.6-0.2-1-0.2
				c-0.3,0-0.4,0-0.5,0.1c-0.1,0-0.1,0.1-0.1,0.3v2.3C63.1,41.1,63.6,41,63.9,40.9z"/>
			<path fill="#0F0F38" d="M67.4,42.5c0.2,0.4,0.3,0.8,0.6,1c0.4,0.4,0.8,0.7,1.4,0.7c0.3,0,0.6-0.1,0.8-0.3
				c0.2-0.2,0.3-0.5,0.3-0.8c0-0.3-0.1-0.6-0.3-0.8c-0.1-0.1-0.4-0.4-0.9-0.7l-0.8-0.5c-0.2-0.2-0.4-0.3-0.6-0.5
				c-0.3-0.3-0.4-0.6-0.4-1c0-0.5,0.2-0.9,0.5-1.2c0.3-0.3,0.7-0.5,1.3-0.5c0.2,0,0.5,0.1,0.8,0.2c0.3,0.1,0.5,0.2,0.5,0.2
				c0.1,0,0.2,0,0.2-0.1c0-0.1,0.1-0.1,0.1-0.2H71l0.2,2H71c-0.2-0.6-0.4-1-0.7-1.3c-0.3-0.2-0.7-0.4-1-0.4c-0.3,0-0.5,0.1-0.7,0.2
				c-0.2,0.2-0.3,0.4-0.3,0.6c0,0.2,0.1,0.5,0.2,0.6c0.1,0.2,0.4,0.4,0.7,0.5l0.8,0.5c0.5,0.3,0.9,0.6,1.1,0.9
				c0.2,0.3,0.3,0.6,0.3,1c0,0.5-0.2,0.9-0.6,1.2c-0.4,0.3-0.9,0.5-1.4,0.5c-0.3,0-0.6-0.1-0.9-0.2c-0.3-0.1-0.5-0.2-0.5-0.2
				c-0.1,0-0.2,0-0.2,0.1c0,0.1-0.1,0.1-0.1,0.2h-0.2l-0.3-2H67.4z"/>
			<path fill="#0F0F38" d="M72.2,44.2c0.4,0,0.6-0.1,0.7-0.2c0.1-0.1,0.2-0.3,0.2-0.7v-4.2c0-0.3-0.1-0.6-0.2-0.7
				c-0.1-0.1-0.4-0.2-0.7-0.2v-0.2H75v0.2c-0.4,0-0.6,0.1-0.7,0.2c-0.1,0.1-0.2,0.3-0.2,0.7v4.2c0,0.4,0.1,0.6,0.2,0.7
				c0.1,0.1,0.4,0.1,0.7,0.2v0.2h-2.8V44.2z"/>
			<path fill="#0F0F38" d="M75.4,38.1h5.3l0.1,1.6h-0.2c-0.1-0.5-0.3-0.8-0.4-1c-0.2-0.2-0.5-0.2-1.1-0.2h-0.5v4.8
				c0,0.4,0.1,0.6,0.2,0.7c0.1,0.1,0.4,0.1,0.7,0.2v0.2h-2.8v-0.2c0.4,0,0.6-0.1,0.7-0.2c0.1-0.1,0.1-0.4,0.1-0.8v-4.7h-0.5
				c-0.5,0-0.9,0.1-1.1,0.2c-0.2,0.2-0.3,0.5-0.4,1h-0.2L75.4,38.1z"/>
		</g>
		<g>
			<path fill="#0F0F38" d="M80.4,44.4v-0.2c0.2,0,0.4-0.1,0.5-0.3c0.1-0.2,0.3-0.6,0.6-1.3l2-4.6h0.2l2.4,5.4
				c0.2,0.4,0.3,0.6,0.4,0.7c0.1,0.1,0.3,0.1,0.5,0.2v0.2h-2.4v-0.2c0.3,0,0.5-0.1,0.5-0.1c0.1,0,0.1-0.1,0.1-0.3c0,0,0-0.1,0-0.2
				c0-0.1-0.1-0.2-0.1-0.4l-0.4-0.9h-2.5c-0.2,0.6-0.4,1-0.4,1.1c0,0.1-0.1,0.2-0.1,0.3c0,0.2,0.1,0.3,0.2,0.3
				c0.1,0,0.2,0.1,0.5,0.1v0.2H80.4z M84.5,41.9l-1.1-2.6l-1.1,2.6H84.5z"/>
			<path fill="#0F0F38" d="M86.2,38.1h5.3l0,1.6h-0.2c-0.1-0.5-0.3-0.8-0.4-1c-0.2-0.2-0.5-0.2-1.1-0.2h-0.5v4.8
				c0,0.4,0.1,0.6,0.2,0.7c0.1,0.1,0.4,0.1,0.7,0.2v0.2h-2.8v-0.2c0.4,0,0.6-0.1,0.7-0.2c0.1-0.1,0.1-0.4,0.1-0.8v-4.7h-0.5
				c-0.5,0-0.9,0.1-1.1,0.2c-0.2,0.2-0.3,0.5-0.4,1h-0.2L86.2,38.1z"/>
		</g>
		<g>
			<path fill="#0F0F38" d="M94.2,44.2c0.3,0,0.6-0.1,0.7-0.2c0.1-0.1,0.2-0.3,0.2-0.7v-4.2c0-0.3-0.1-0.6-0.2-0.7
				c-0.1-0.1-0.3-0.2-0.7-0.2v-0.2h2.5c0.9,0,1.6,0.1,2.2,0.4c1.1,0.5,1.6,1.4,1.6,2.7c0,0.5-0.1,0.9-0.3,1.3
				c-0.2,0.4-0.5,0.8-0.9,1.1c-0.2,0.2-0.5,0.3-0.8,0.4c-0.5,0.2-1.1,0.3-1.8,0.3h-2.6V44.2z M96.1,43.9c0.1,0,0.2,0.1,0.5,0.1
				c0.7,0,1.3-0.1,1.8-0.4c0.7-0.5,1.1-1.2,1.1-2.3c0-1-0.3-1.7-0.9-2.2c-0.5-0.4-1.2-0.6-2.1-0.6c-0.2,0-0.4,0-0.4,0.1
				c-0.1,0-0.1,0.1-0.1,0.3v4.8C96,43.8,96,43.9,96.1,43.9z"/>
			<path fill="#0F0F38" d="M101,44.2c0.3,0,0.6-0.1,0.7-0.2c0.1-0.1,0.2-0.3,0.2-0.7v-4.2c0-0.3-0.1-0.6-0.2-0.7
				c-0.1-0.1-0.3-0.2-0.7-0.2v-0.2h5l0,1.4h-0.2c-0.1-0.4-0.2-0.7-0.4-0.8c-0.2-0.1-0.5-0.2-1.1-0.2H103c-0.1,0-0.2,0-0.3,0.1
				c0,0,0,0.1,0,0.3v2.1h1.5c0.4,0,0.7-0.1,0.8-0.2c0.1-0.1,0.2-0.4,0.3-0.7h0.2v2.2h-0.2c-0.1-0.4-0.2-0.6-0.3-0.7
				c-0.1-0.1-0.4-0.2-0.8-0.2h-1.5v2.3c0,0.2,0.1,0.3,0.2,0.3c0.1,0,0.5,0.1,1.1,0.1c0.6,0,1.1-0.1,1.4-0.2c0.3-0.1,0.6-0.5,0.8-1
				h0.3l-0.4,1.6H101V44.2z"/>
			<path fill="#0F0F38" d="M109.2,44.2c0.4,0,0.6-0.1,0.7-0.2c0.1-0.1,0.2-0.3,0.2-0.7v-4.2c0-0.3-0.1-0.6-0.2-0.7
				c-0.1-0.1-0.4-0.2-0.7-0.2v-0.2h2.6c0.8,0,1.4,0.1,1.8,0.4c0.4,0.2,0.7,0.7,0.7,1.3c0,0.4-0.2,0.8-0.5,1
				c-0.2,0.1-0.4,0.2-0.8,0.3c0.4,0.1,0.8,0.3,1.1,0.5c0.3,0.2,0.5,0.6,0.5,1c0,0.7-0.3,1.2-1,1.5c-0.4,0.1-0.8,0.2-1.3,0.2h-3.1
				V44.2z M112.7,40.7c0.4-0.2,0.6-0.5,0.6-1c0-0.6-0.2-0.9-0.7-1.1c-0.3-0.1-0.6-0.2-1.2-0.2c-0.2,0-0.3,0-0.4,0.1
				c0,0-0.1,0.1-0.1,0.3v2.1l0.9,0C112.2,40.9,112.5,40.8,112.7,40.7z M113,43.7c0.3-0.2,0.5-0.5,0.5-1.1c0-0.5-0.2-0.9-0.6-1.1
				c-0.4-0.2-0.9-0.3-1.5-0.3c-0.1,0-0.2,0-0.3,0c0,0-0.1,0-0.2,0v2.4c0,0.2,0,0.3,0.1,0.3c0.1,0,0.3,0.1,0.6,0.1
				C112.3,44,112.7,43.9,113,43.7z"/>
			<path fill="#0F0F38" d="M115.4,44.4v-0.2c0.2,0,0.4-0.1,0.5-0.3c0.1-0.2,0.3-0.6,0.6-1.3l2-4.6h0.2l2.4,5.4
				c0.2,0.4,0.3,0.6,0.4,0.7c0.1,0.1,0.3,0.1,0.5,0.2v0.2h-2.4v-0.2c0.3,0,0.5-0.1,0.5-0.1c0.1,0,0.1-0.1,0.1-0.3c0,0,0-0.1,0-0.2
				c0-0.1-0.1-0.2-0.1-0.4l-0.4-0.9h-2.5c-0.2,0.6-0.4,1-0.4,1.1c0,0.1-0.1,0.2-0.1,0.3c0,0.2,0.1,0.3,0.2,0.3
				c0.1,0,0.2,0.1,0.5,0.1v0.2H115.4z M119.5,41.9l-1.1-2.6l-1.1,2.6H119.5z"/>
			<path fill="#0F0F38" d="M122.2,44.2c0.4,0,0.6-0.1,0.7-0.2c0.1-0.1,0.1-0.4,0.1-0.8v-4.1c0-0.3,0-0.5-0.2-0.7
				c-0.1-0.1-0.3-0.2-0.7-0.2v-0.2h2.6c0.5,0,1,0.1,1.4,0.2c0.7,0.3,1,0.7,1,1.4c0,0.5-0.2,0.8-0.5,1.1c-0.3,0.3-0.7,0.4-1.2,0.5
				l1.9,2.4c0.1,0.1,0.2,0.3,0.4,0.3c0.1,0.1,0.3,0.1,0.5,0.1v0.2h-1.5l-2.4-2.9l-0.4,0v1.9c0,0.3,0.1,0.6,0.2,0.7
				c0.1,0.1,0.3,0.2,0.7,0.2v0.2h-2.6V44.2z M125.5,40.9c0.5-0.2,0.8-0.6,0.8-1.2c0-0.5-0.2-0.9-0.7-1.1c-0.2-0.1-0.6-0.2-1-0.2
				c-0.3,0-0.4,0-0.5,0.1c-0.1,0-0.1,0.1-0.1,0.3v2.3C124.7,41.1,125.2,41,125.5,40.9z"/>
			<path fill="#0F0F38" d="M133,38.1c0.4,0.1,0.6,0.2,0.6,0.2c0.1,0,0.2,0,0.3-0.1c0.1,0,0.1-0.1,0.2-0.2h0.2l0.1,2.1h-0.2
				c-0.1-0.4-0.3-0.8-0.5-1c-0.4-0.5-0.9-0.7-1.6-0.7c-0.7,0-1.2,0.3-1.6,0.8c-0.4,0.5-0.6,1.2-0.6,2.2c0,0.8,0.2,1.5,0.7,2
				c0.4,0.5,1,0.8,1.7,0.8c0.5,0,0.9-0.1,1.4-0.3c0.2-0.1,0.5-0.3,0.8-0.6l0.2,0.2c-0.2,0.3-0.5,0.5-0.8,0.7
				c-0.5,0.3-1.1,0.5-1.7,0.5c-1,0-1.8-0.3-2.4-1c-0.6-0.6-0.8-1.4-0.8-2.3c0-0.9,0.3-1.7,0.9-2.3c0.6-0.7,1.4-1,2.4-1
				C132.3,38,132.6,38,133,38.1z"/>
			<path fill="#0F0F38" d="M134.8,44.2c0.3,0,0.6-0.1,0.7-0.2c0.1-0.1,0.2-0.3,0.2-0.7v-4.2c0-0.3-0.1-0.6-0.2-0.7
				c-0.1-0.1-0.3-0.2-0.7-0.2v-0.2h5l0,1.4h-0.2c-0.1-0.4-0.2-0.7-0.4-0.8c-0.2-0.1-0.5-0.2-1.1-0.2h-1.3c-0.1,0-0.2,0-0.3,0.1
				c0,0,0,0.1,0,0.3v2.1h1.5c0.4,0,0.7-0.1,0.8-0.2c0.1-0.1,0.2-0.4,0.3-0.7h0.2v2.2h-0.2c-0.1-0.4-0.2-0.6-0.3-0.7
				c-0.1-0.1-0.4-0.2-0.8-0.2h-1.5v2.3c0,0.2,0.1,0.3,0.2,0.3c0.1,0,0.5,0.1,1.1,0.1c0.6,0,1.1-0.1,1.4-0.2c0.3-0.1,0.6-0.5,0.8-1
				h0.3l-0.4,1.6h-5.1V44.2z"/>
			<path fill="#0F0F38" d="M140.6,44.2c0.3,0,0.6-0.1,0.7-0.2c0.1-0.1,0.2-0.3,0.2-0.7v-4.2c0-0.3-0.1-0.6-0.2-0.7
				c-0.1-0.1-0.3-0.2-0.7-0.2v-0.2h2.7v0.2c-0.3,0-0.6,0.1-0.7,0.2c-0.1,0.1-0.2,0.3-0.2,0.6v4.5c0,0.1,0,0.2,0.1,0.2
				c0,0.1,0.1,0.1,0.2,0.1c0.1,0,0.1,0,0.2,0c0.1,0,0.2,0,0.4,0c0.8,0,1.4-0.1,1.7-0.2c0.3-0.1,0.6-0.5,0.9-1.1h0.2l-0.5,1.6h-5.1
				V44.2z"/>
			<path fill="#0F0F38" d="M147.5,38.8c0.6-0.6,1.3-0.8,2.1-0.8c0.9,0,1.6,0.3,2.2,0.8c0.6,0.6,0.9,1.4,0.9,2.4c0,1-0.3,1.8-1,2.4
				c-0.6,0.5-1.3,0.8-2.1,0.8c-0.9,0-1.6-0.3-2.2-0.9c-0.6-0.6-0.9-1.4-0.9-2.4C146.6,40.2,146.9,39.4,147.5,38.8z M148.2,43.4
				c0.4,0.5,0.9,0.7,1.4,0.7c0.6,0,1-0.2,1.4-0.7c0.4-0.5,0.6-1.2,0.6-2.2c0-1-0.2-1.8-0.6-2.2c-0.4-0.5-0.9-0.7-1.4-0.7
				c-0.6,0-1,0.2-1.4,0.7c-0.4,0.5-0.6,1.2-0.6,2.2C147.6,42.2,147.8,43,148.2,43.4z"/>
			<path fill="#0F0F38" d="M153.2,44.2c0.4,0,0.6-0.1,0.8-0.3c0.1-0.1,0.2-0.5,0.2-1v-4.2l-0.1-0.2c-0.1-0.2-0.3-0.3-0.4-0.3
				c-0.1,0-0.2-0.1-0.4-0.1v-0.2h1.6l3.7,4.5v-3.1c0-0.5-0.1-0.9-0.2-1c-0.1-0.1-0.3-0.2-0.7-0.2v-0.2h2.2v0.2
				c-0.4,0-0.6,0.1-0.7,0.3c-0.1,0.1-0.2,0.5-0.2,1v5h-0.2l-4.2-5.2V43c0,0.5,0.1,0.9,0.2,1c0.1,0.1,0.3,0.2,0.7,0.2v0.2h-2.2V44.2z
				"/>
			<path fill="#0F0F38" d="M160.1,44.4v-0.2c0.2,0,0.4-0.1,0.5-0.3c0.1-0.2,0.3-0.6,0.6-1.3l2-4.6h0.2l2.4,5.4
				c0.2,0.4,0.3,0.6,0.4,0.7c0.1,0.1,0.3,0.1,0.5,0.2v0.2h-2.4v-0.2c0.3,0,0.5-0.1,0.5-0.1c0.1,0,0.1-0.1,0.1-0.3c0,0,0-0.1,0-0.2
				c0-0.1-0.1-0.2-0.1-0.4l-0.4-0.9h-2.5c-0.2,0.6-0.4,1-0.4,1.1c0,0.1-0.1,0.2-0.1,0.3c0,0.2,0.1,0.3,0.2,0.3
				c0.1,0,0.2,0.1,0.5,0.1v0.2H160.1z M164.2,41.9l-1.1-2.6l-1.1,2.6H164.2z"/>
		</g>
		<path fill="#0F0F38" d="M86.5,22c0-7.2,5.8-13,13-13c7.2,0,13,5.8,13,13c0,7.2-5.8,13-13,13C92.3,34.9,86.5,29.1,86.5,22L86.5,22z
			"/>
		<g>
			<path fill="#FFFFFF" d="M98,15v0.4c-0.8,0.1-1.4,0.2-1.6,0.4c-0.2,0.2-0.4,0.7-0.4,1.5v7c0,1.1,0.2,2,0.5,2.7
				c0.6,1.2,1.7,1.7,3.3,1.7c1.8,0,3-0.6,3.6-1.8c0.3-0.7,0.5-1.7,0.5-3.1v-5.7c0-1.2-0.1-1.9-0.4-2.2c-0.3-0.3-0.8-0.5-1.6-0.6V15
				h5.1v0.4c-0.8,0.1-1.4,0.3-1.7,0.6c-0.3,0.3-0.4,1-0.4,2.2v5.7c0,1.5-0.2,2.7-0.7,3.5c-0.9,1.6-2.5,2.3-4.9,2.3
				c-2.4,0-4-0.8-4.8-2.3c-0.5-0.8-0.7-1.9-0.7-3.3v-6.8c0-0.8-0.1-1.3-0.4-1.5c-0.2-0.2-0.8-0.4-1.6-0.4V15H98z"/>
		</g>
		<path fill="#0F0F38" d="M86.5,60.6c0-7.2,5.8-13,13-13c7.2,0,13,5.8,13,13c0,7.2-5.8,13-13,13C92.3,73.6,86.5,67.8,86.5,60.6
			L86.5,60.6z"/>
		<g>
			<path fill="#FFFFFF" d="M93.4,66.8c0.9-0.1,1.4-0.2,1.7-0.4c0.3-0.2,0.4-0.7,0.4-1.6v-9.7c0-0.8-0.1-1.3-0.4-1.6
				c-0.3-0.2-0.8-0.4-1.7-0.4v-0.4h6.1c1.7,0,3.1,0.3,4.2,0.8c1,0.6,1.5,1.5,1.5,2.9c0,1-0.4,1.8-1.1,2.3c-0.4,0.3-1,0.6-1.8,0.8
				c1,0.2,1.9,0.6,2.6,1.2c0.7,0.6,1.1,1.4,1.1,2.4c0,1.7-0.8,2.9-2.4,3.5c-0.8,0.3-1.9,0.5-3.1,0.5h-7.1V66.8z M101.6,58.9
				c0.9-0.4,1.4-1.2,1.4-2.3c0-1.3-0.5-2.2-1.6-2.6c-0.6-0.2-1.5-0.4-2.7-0.4c-0.5,0-0.7,0-0.8,0.1c-0.1,0.1-0.2,0.3-0.2,0.6v4.9
				l2.1,0C100.6,59.2,101.2,59.1,101.6,58.9z M102.4,65.8c0.8-0.4,1.1-1.3,1.1-2.5c0-1.2-0.4-2.1-1.3-2.5c-0.9-0.4-2-0.7-3.4-0.7
				c-0.3,0-0.5,0-0.6,0c-0.1,0-0.2,0-0.4,0v5.4c0,0.4,0.1,0.6,0.3,0.7c0.2,0.1,0.7,0.2,1.5,0.2C100.7,66.4,101.6,66.2,102.4,65.8z"
				/>
		</g>
	</g>
</g>
<g id="Layer_2" display="none">
</g>
</svg>
