<?xml version="1.0" encoding="utf-8"?>
<!-- Generator: Adobe Illustrator 18.1.1, SVG Export Plug-In . SVG Version: 6.00 Build 0)  -->
<svg version="1.1" xmlns="http://www.w3.org/2000/svg" xmlns:xlink="http://www.w3.org/1999/xlink" x="0px" y="0px"
	 viewBox="0 0 197.9 82.6" enable-background="new 0 0 197.9 82.6" xml:space="preserve">
<g id="Capa_1">
	<g opacity="0.69">
		<path id="u_4_" fill="#0F0F38" d="M83.7,57.3h-4.5v-2.6c-1.7,2-3.2,3-4.8,3c-1.4,0-2.4-0.7-2.9-1.9C71.2,55,71,53.9,71,52.2V33.1
			h4.5V51c0,1,0,1.4,0,1.7c0.1,0.7,0.4,0.9,1,0.9c0.9,0,1.7-0.8,2.6-2.1V33.1h4.5V57.3z"/>
		<g>
			<path id="o_4_" fill="#0F0F38" d="M67.7,41c0-2.6-0.5-4.5-1.4-5.7c-1.2-1.7-3.1-2.3-5-2.3c-2.2,0-3.8,0.7-5,2.3
				c-0.9,1.2-1.4,3.2-1.4,5.8l0,8.6c0,2.6,0.4,4.3,1.4,5.6c1.2,1.6,3.2,2.5,5.1,2.5c1.9,0,3.9-0.9,5.1-2.5c0.9-1.2,1.3-3,1.3-5.6V41
				z M63.1,50.1c0.2,2.4-0.5,3.6-1.9,3.6c-1.4,0-2.2-1.2-1.9-3.6v-9.6c-0.2-2.4,0.5-3.5,1.9-3.5c1.4,0,2.2,1.1,1.9,3.5L63.1,50.1z"
				/>
			<path id="y_4_" fill="#0F0F38" d="M49.7,44.1v13.2h-4.8V44.1c0,0-5-16.1-6-19.1h5l3.4,12.6l3.3-12.6h5L49.7,44.1z"/>
			<g>
				<path fill="#0F0F38" d="M130.5,36.9c-0.7,0-1.5,0.4-2.3,1.1l0,14.5c0.7,0.7,1.5,1.1,2.3,1.1c1.2,0,1.8-0.9,1.8-3.3V40
					C132.3,37.6,131.7,36.9,130.5,36.9z"/>
				<path fill="#0F0F38" d="M148.3,39.8c0-2.2-0.6-2.9-2-2.9c-1.4,0-2.1,0.6-2.1,2.8v2.6l4.1,0V39.8z"/>
				<path fill="#0F0F38" d="M158.1,27.6c0,0-0.7-4.9-2.8-7.1c-2.7-2.8-5.8-2.8-7.2-3c-10-0.7-25-0.7-25-0.7h0c0,0-15,0-25,0.7
					c-1.4,0.2-4.4,0.2-7.2,3c-2.1,2.2-2.8,7.1-2.8,7.1s-0.7,5.8-0.7,11.5v5.4c0,5.8,0.7,11.5,0.7,11.5s0.7,4.9,2.8,7.1
					c2.7,2.8,6.3,2.7,7.9,3c5.7,0.5,24.3,0.7,24.3,0.7s15,0,25-0.7c1.4-0.2,4.4-0.2,7.2-3c2.1-2.2,2.8-7.1,2.8-7.1s0.7-5.8,0.7-11.5
					v-5.4C158.9,33.3,158.1,27.6,158.1,27.6z M103.1,57.3h-4.8V29.7h-5v-4.5l15.1,0v4.5h-5.3V57.3z M120.3,57.3h-4.5v-2.6
					c-1.7,2-3.2,3-4.8,3c-1.4,0-2.4-0.7-2.9-1.9c-0.3-0.7-0.5-1.9-0.5-3.5V33.3h4.5V51c0,1,0,1.4,0,1.7c0.1,0.7,0.4,0.9,1,0.9
					c0.9,0,1.7-0.8,2.6-2.1V33.3h4.5V57.3z M136.8,50.1c0,2.2-0.2,3.8-0.5,4.8c-0.6,1.8-1.8,2.7-3.6,2.7c-1.5,0-3.1-0.9-4.6-2.7
					l0,2.4h-4.3V25.2h4.3l0,10.5c1.4-1.7,3-2.7,4.6-2.7c1.7,0,2.9,1,3.5,2.8c0.3,1,0.6,2.5,0.6,4.8V50.1z M146.4,53.6
					c1.1,0,1.7-0.6,1.9-1.7c0-0.2,0-1.3,0-3h4.5v0.7c0,1.4-0.1,2.4-0.2,2.8c-0.1,1-0.5,1.8-1,2.6c-1.2,1.7-3,2.6-5.2,2.6
					c-2.3,0-4-0.8-5.2-2.4c-0.9-1.2-1.5-3-1.5-5.5v-8.4c0-2.6,0.5-4.5,1.5-5.7c1.3-1.6,3-2.5,5.2-2.5c2.2,0,3.9,0.9,5.1,2.5
					c0.9,1.2,1.4,3.1,1.4,5.6l0,4.9h-8.6v4.3C144.2,52.5,144.9,53.6,146.4,53.6z"/>
			</g>
		</g>
	</g>
</g>
<g id="Layer_2" display="none">
</g>
</svg>
