<?xml version="1.0" encoding="utf-8"?>
<!-- Generator: Adobe Illustrator 18.1.1, SVG Export Plug-In . SVG Version: 6.00 Build 0)  -->
<svg version="1.1" xmlns="http://www.w3.org/2000/svg" xmlns:xlink="http://www.w3.org/1999/xlink" x="0px" y="0px"
	 viewBox="0 0 30 30" enable-background="new 0 0 30 30" xml:space="preserve">
<g id="Capa_2">
	<g>
		<circle fill="#F7627F" cx="15" cy="15" r="14"/>
		<g>
			<g>
				
					<rect x="6.8" y="14.3" transform="matrix(0.7072 0.7071 -0.7071 0.7072 15.2531 -6.3844)" fill="#FFFFFF" width="17" height="1.9"/>
				<path fill="#FFFFFF" d="M20.7,22.7L7.8,9.9L10,7.7l12.8,12.8L20.7,22.7z M9.5,9.9l11.2,11.2l0.5-0.5L10,9.3L9.5,9.9z"/>
			</g>
			<g>
				
					<rect x="6.8" y="14.3" transform="matrix(-0.7072 0.7071 -0.7071 -0.7072 36.9398 15.1435)" fill="#FFFFFF" width="17" height="1.9"/>
				<path fill="#FFFFFF" d="M10,22.7l-2.1-2.1L20.7,7.7l2.1,2.1L10,22.7z M9.5,20.6l0.5,0.5L21.2,9.9l-0.5-0.5L9.5,20.6z"/>
			</g>
		</g>
	</g>
</g>
<g id="Capa_1" display="none">
</g>
</svg>
