<?xml version="1.0" encoding="utf-8"?>
<!-- Generator: Adobe Illustrator 18.1.1, SVG Export Plug-In . SVG Version: 6.00 Build 0)  -->
<svg version="1.1" xmlns="http://www.w3.org/2000/svg" xmlns:xlink="http://www.w3.org/1999/xlink" x="0px" y="0px"
	 viewBox="0 0 91.5 95.4" enable-background="new 0 0 91.5 95.4" xml:space="preserve">
<g id="Capa_2">
	<path fill="#2A2B4C" d="M88.7,4.3c0,0-22.7-5.4-41.9,14.2C32.5,33,28,44.9,22.2,59c4.2,4.2,8.7,8.7,12.9,12.9
		C49,65.8,60.9,61,75.2,46.4C94.5,26.9,88.7,4.3,88.7,4.3z M70.6,35c-3.3,3.4-8.8,3.4-12.1,0.1c-3.4-3.3-3.4-8.8-0.1-12.1
		c3.3-3.4,8.8-3.4,12.1-0.1C73.9,26.2,73.9,31.6,70.6,35z M24.2,38.6C7.3,33.1,2,51.7,2,51.7L17,54.5C19.2,49.1,21.4,43.9,24.2,38.6
		z M39.1,77.2L39.1,77.2l2.6,14.6c0,0,18.2-5.4,13.1-21.9C49.5,72.6,44.4,74.9,39.1,77.2z M24.7,80.1c-3.1,3.2-20.6,9.4-20.6,9.4
		s6-17.6,9.1-20.8c3.1-3.2,8.2-3.2,11.4-0.1C27.8,71.9,27.9,77,24.7,80.1z"/>
</g>
<g id="Capa_1" display="none">
</g>
</svg>
