<?xml version="1.0" encoding="utf-8"?>
<!-- Generator: Adobe Illustrator 18.1.1, SVG Export Plug-In . SVG Version: 6.00 Build 0)  -->
<svg version="1.1" xmlns="http://www.w3.org/2000/svg" xmlns:xlink="http://www.w3.org/1999/xlink" x="0px" y="0px"
	 viewBox="0 0 50 50" enable-background="new 0 0 50 50" xml:space="preserve">
<g id="Capa_2">
	<g>
		<polygon fill="#FFFFFF" points="49,19.9 40.6,19.9 40.6,28.3 36.5,28.3 36.5,19.9 28.1,19.9 28.1,15.7 36.5,15.7 36.5,7.3 
			40.6,7.3 40.6,15.7 49,15.7 		"/>
		<g>
			<path fill="#FFFFFF" d="M23.1,28.3c-1.2-0.9-3.5-2.9-3.5-4.1c0-1.4,0.4-2.1,2.6-3.8c2.2-1.7,3.8-4,3.8-6.8c0-3.3-1.5-6.5-4.3-7.5
				h4.2l3-2H15.5c-6,0-11.6,4.3-11.6,9.5c0,5.4,4.1,9.6,10.1,9.6l1.2-0.1c-0.4,0.8-0.7,1.6-0.7,2.5c0,1.5,0.8,2.7,1.8,3.7l-2.3,0
				C6.7,29.1,1,33.8,1,38.7c0,4.8,6.2,7.8,13.6,7.8c8.4,0,13.1-4.8,13.1-9.6C27.7,33.1,26.6,30.7,23.1,28.3z M16,21.6
				c-3.4-0.1-6.7-3.8-7.3-8.3c-0.6-4.5,1.7-8,5.1-7.9c3.4,0.1,6.7,3.7,7.3,8.2C21.7,18.1,19.4,21.7,16,21.6z M14.6,44.4
				c-5.1,0-8.8-3.2-8.8-7.1c0-3.8,4.6-7,9.7-6.9c1.2,0,2.3,0.2,3.3,0.5c2.8,1.9,4.8,3,5.3,5.2c0.1,0.4,0.2,0.9,0.2,1.4
				C24.3,41.3,21.8,44.4,14.6,44.4z"/>
		</g>
	</g>
</g>
<g id="Capa_1" display="none">
</g>
</svg>
