<?xml version="1.0" encoding="utf-8"?>
<!-- Generator: Adobe Illustrator 18.1.1, SVG Export Plug-In . SVG Version: 6.00 Build 0)  -->
<svg version="1.1" xmlns="http://www.w3.org/2000/svg" xmlns:xlink="http://www.w3.org/1999/xlink" x="0px" y="0px"
	 viewBox="0 0 50 50" enable-background="new 0 0 50 50" xml:space="preserve">
<g id="Capa_2">
	<g>
		<path fill="#FFFFFF" d="M37.8,2l-6.2,0C24.6,2,20,6.6,20,13.8v5.5h-6.3c-0.5,0-1,0.4-1,1v7.9c0,0.5,0.4,1,1,1H20V49
			c0,0.5,0.4,1,1,1h8.2c0.5,0,1-0.4,1-1V29.1h7.3c0.5,0,1-0.4,1-1l0-7.9c0-0.3-0.1-0.5-0.3-0.7c-0.2-0.2-0.4-0.3-0.7-0.3h-7.3v-4.6
			c0-2.2,0.5-3.3,3.4-3.3h4.2c0.5,0,1-0.4,1-1V3C38.8,2.4,38.3,2,37.8,2z"/>
	</g>
</g>
<g id="Capa_1" display="none">
</g>
</svg>
