<?xml version="1.0" encoding="utf-8"?>
<!-- Generator: Adobe Illustrator 18.1.1, SVG Export Plug-In . SVG Version: 6.00 Build 0)  -->
<svg version="1.1" id="Capa_1" xmlns="http://www.w3.org/2000/svg" xmlns:xlink="http://www.w3.org/1999/xlink" x="0px" y="0px"
	 viewBox="0 0 255 255" enable-background="new 0 0 255 255" xml:space="preserve">
<circle cx="127" cy="128.1" r="126"/>
<g>
	<g>
		<path fill="#DDDDDD" d="M31.1,24.7c0.8,0,2-1.3,0.7-1.3C31,23.5,29.8,24.7,31.1,24.7L31.1,24.7z"/>
	</g>
</g>
<g>
	<circle fill="none" cx="127" cy="128.1" r="126"/>
</g>
<path fill="#FFFFFF" d="M195.5,67.3c0.9-3.8,3.9-6.8,7.8-7.8c-3.8-0.9-6.8-3.9-7.8-7.8c-0.9,3.8-3.9,6.8-7.8,7.8
	C191.5,60.5,194.5,63.5,195.5,67.3z"/>
<path fill="#FFFFFF" d="M213.5,67.3c0.9-3.8,3.9-6.8,7.8-7.8c-3.8-0.9-6.8-3.9-7.8-7.8c-0.9,3.8-3.9,6.8-7.8,7.8
	C209.6,60.5,212.6,63.5,213.5,67.3z"/>
<path fill="#FFFFFF" d="M213.5,84.8c0.9-3.8,3.9-6.8,7.8-7.8c-3.8-0.9-6.8-3.9-7.8-7.8c-0.9,3.8-3.9,6.8-7.8,7.8
	C209.6,77.9,212.6,80.9,213.5,84.8z"/>
<path fill="#FFFFFF" d="M169.5,192.3c3.8,0.9,6.8,3.9,7.8,7.8c0.9-3.8,3.9-6.8,7.8-7.8c-3.8-0.9-6.8-3.9-7.8-7.8
	C176.3,188.3,173.3,191.3,169.5,192.3z"/>
<path fill="#FFFFFF" d="M169.5,210.3c3.8,0.9,6.8,3.9,7.8,7.8c0.9-3.8,3.9-6.8,7.8-7.8c-3.8-0.9-6.8-3.9-7.8-7.8
	C176.3,206.4,173.3,209.4,169.5,210.3z"/>
<path fill="#FFFFFF" d="M152,210.3c3.8,0.9,6.8,3.9,7.8,7.8c0.9-3.8,3.9-6.8,7.8-7.8c-3.8-0.9-6.8-3.9-7.8-7.8
	C158.9,206.4,155.9,209.4,152,210.3z"/>
<path fill="#FFFFFF" d="M40.5,137.3c-0.9-3.8-3.9-6.8-7.8-7.8c3.8-0.9,6.8-3.9,7.8-7.8c0.9,3.8,3.9,6.8,7.8,7.8
	C44.5,130.5,41.5,133.5,40.5,137.3z"/>
<path fill="#FFFFFF" d="M22.5,137.3c-0.9-3.8-3.9-6.8-7.8-7.8c3.8-0.9,6.8-3.9,7.8-7.8c0.9,3.8,3.9,6.8,7.8,7.8
	C26.4,130.5,23.4,133.5,22.5,137.3z"/>
<path fill="#FFFFFF" d="M22.5,154.8c-0.9-3.8-3.9-6.8-7.8-7.8c3.8-0.9,6.8-3.9,7.8-7.8c0.9,3.8,3.9,6.8,7.8,7.8
	C26.4,147.9,23.4,150.9,22.5,154.8z"/>
<path fill-rule="evenodd" clip-rule="evenodd" fill="#FFFBE4" d="M100.6,125.2c0,0-25,17.1-18,68.2c0,0,2.5-18.4,6.3-22.3
	c0,0,11.1,18.2-5.9,35.7c0,0,28.2-10.2,41.7-37.9c0,0,5.1,2.1,1.9,9.8c0,0,18.4-5.6,19.8-39.7L100.6,125.2z"/>
<g>
	<g>
		<g>
			<path fill-rule="evenodd" clip-rule="evenodd" fill="#EB6280" d="M150.7,149.6c-11.1-0.2-22.3-2.8-32.7-8.3
				c-10.4-5.5-19-13.2-25.4-22.2c2.3-2.7,4.7-5.2,7.2-7.4c10.5-0.8,21,1.1,30.6,6.1c9.6,5,17.1,12.6,22.3,21.7
				C152.3,142.8,151.6,146.2,150.7,149.6z"/>
			<g>
				<polygon fill-rule="evenodd" clip-rule="evenodd" fill="#65C1C4" points="167.4,114.3 176.7,133.3 156.5,171.7 154.2,170.4 
					157,143.8 146.8,134.1 				"/>
				<polygon fill-rule="evenodd" clip-rule="evenodd" fill="#65C1C4" points="112.3,85.3 91.4,88.4 71.2,126.8 73.5,128 93.8,110.6 
					107.6,113.5 				"/>
			</g>
			<g>
				<path fill-rule="evenodd" clip-rule="evenodd" fill="#FFFFFF" d="M99.9,111.6c1.4-10,4.6-20.3,9.9-30.3
					c14.5-27.5,39.8-44.1,62.7-43.5c13.5,18.5,14.2,48.7-0.3,76.3c-5.2,10-11.9,18.5-19.4,25.3c-10.5,0.8-21-1.1-30.6-6.1
					C112.6,128.3,105.1,120.7,99.9,111.6z"/>
				<path fill-rule="evenodd" clip-rule="evenodd" fill="#EB6280" d="M146.2,87.6c8.5,4.5,19.2,1.1,23.8-7.6
					c4.6-8.7,1.4-19.4-7.2-23.9c-8.5-4.5-19.2-1.1-23.8,7.6C134.5,72.4,137.7,83.2,146.2,87.6z"/>
				<path fill-rule="evenodd" clip-rule="evenodd" fill="#65C1C4" d="M153.9,40.9c6.2-2.1,12.4-3.2,18.5-3c3.6,4.9,6.3,10.7,8,17
					c-4.9-1-9.6-2.7-14.2-5.1C161.6,47.3,157.5,44.3,153.9,40.9z"/>
				<path fill-rule="evenodd" clip-rule="evenodd" fill="#97D6EE" d="M148.6,83.2c6.1,3.2,13.8,0.8,17.1-5.5c3.3-6.3,1-14-5.2-17.2
					c-6.1-3.2-13.8-0.8-17.1,5.5C140.1,72.3,142.4,80,148.6,83.2z"/>
				<path fill-rule="evenodd" clip-rule="evenodd" fill="#EEEEEF" d="M114.1,73.8c7,8.6,16.4,16.3,27.7,22.3
					c11.3,5.9,23,9.3,34,10.2c-1.1,2.6-2.3,5.3-3.7,7.9c-3.3,6.3-7.3,12.1-11.6,17.2c-10.9-0.1-22.2-2.8-32.8-8.4
					c-10.6-5.6-19.2-13.3-25.5-22.3c1.8-6.5,4.3-13,7.6-19.3C111.1,78.7,112.6,76.2,114.1,73.8z"/>
				<path fill-rule="evenodd" clip-rule="evenodd" fill="#A5A4A4" d="M121.9,82.1c3.5,3.3,7.4,6.3,11.7,9.2c-0.4,0.7-0.7,1.4-1.1,2
					c-4.6,8.8-8.7,17.4-12,25.3c-3.9-2.6-7.4-5.6-10.6-8.8c2.3-7.6,5.6-15.5,9.7-23.4C120.3,85,121.1,83.5,121.9,82.1L121.9,82.1z
					 M150.4,100.1c4.7,1.9,9.5,3.4,14.2,4.5c-0.7,1.5-1.5,3-2.2,4.4c-4.1,7.8-8.8,15-13.8,21.2c-4.5-0.8-8.9-2.1-13.3-3.8
					c4.7-7.3,9.4-15.5,14-24.3C149.7,101.5,150.1,100.8,150.4,100.1z"/>
				<path fill-rule="evenodd" clip-rule="evenodd" fill="#A5A4A4" d="M171.2,115.9c-1.6,2.9-3.4,5.8-5.2,8.4
					c-11.4-0.3-23.2-3.3-34.2-9.1c-11-5.8-20.1-13.8-26.9-23c1.2-3,2.5-6.1,4-9.1c7.3,8.4,16.9,16.1,28.2,22
					C148.4,111.1,160,114.6,171.2,115.9z"/>
				<path fill-rule="evenodd" clip-rule="evenodd" fill="#EEEEEF" d="M128.9,100.3c-1.7,3.5-3.4,6.9-4.9,10.2
					c-4.1-2.8-7.9-5.9-11.3-9.3c1.3-3.3,2.7-6.6,4.3-10C120.7,94.6,124.6,97.6,128.9,100.3L128.9,100.3z M153.9,123
					c-4.7-0.9-9.4-2.2-14-4c1.9-3.2,3.8-6.4,5.7-9.8c4.7,2,9.4,3.5,14.1,4.7C157.9,117,155.9,120.1,153.9,123z"/>
			</g>
		</g>
		<path fill-rule="evenodd" clip-rule="evenodd" fill="#65C1C4" d="M107.9,163.1c10.1-12.9,19.9-27.1,23.7-34.2
			c4.2-8,5.8-16.3,4.9-22.4c-5.6,2.7-11.5,8.7-15.7,16.7c-3.7,7.1-9.9,23.3-14.8,38.9L107.9,163.1z"/>
	</g>
	<path opacity="0.1" fill-rule="evenodd" clip-rule="evenodd" fill="#000100" d="M106.8,162.5l1,0.5c5.1-6.6,10.2-13.5,14.5-19.7
		c9.2,4.1,18.8,6.1,28.4,6.2c0.9-3.3,1.5-6.6,2-9.9l4.3,4.1l-2.9,26.6l2.4,1.2l20.2-38.4l-7.1-14.6c0.9-1.5,1.7-3,2.6-4.6
		c14.5-27.5,13.8-57.8,0.3-76.3L106.8,162.5z"/>
</g>
</svg>
