<?xml version="1.0" encoding="utf-8"?>
<!-- Generator: Adobe Illustrator 18.1.1, SVG Export Plug-In . SVG Version: 6.00 Build 0)  -->
<svg version="1.1" xmlns="http://www.w3.org/2000/svg" xmlns:xlink="http://www.w3.org/1999/xlink" x="0px" y="0px"
	 viewBox="0 0 114 172" enable-background="new 0 0 114 172" xml:space="preserve">
<g id="Capa_1">
	<g>
		<rect x="75.1" y="139" fill="#AFAFAF" width="19.9" height="7.7"/>
		<rect x="75.1" y="139" fill="#969696" width="19.8" height="3.8"/>
		<path fill="#AFAFAF" d="M18.6,76.9v-0.4v48.3h19.8V77c0-1.9,0.2-3.9-0.8-5.4l-6.1-9.7c-0.8-0.8-2-1.2-3-1.2c-1.3,0-2.2,0.4-3,1.2
			l-6.2,9.7c-0.8,1.3-0.7,3-0.8,4.9"/>
		<path fill="#969696" d="M37.6,71.6l-6.1-9.4c-0.8-0.8-2-1-3-1h-0.1v63.6h9.9V77C38.4,75.1,38.6,73.1,37.6,71.6"/>
		<path fill="#AFAFAF" d="M74.8,76.9v-0.4v48.3h20.7V77c0-1.9-0.2-3.9-1.2-5.4l-6.3-9.7c-0.8-0.8-2.1-1.2-3.1-1.2
			c-1.3,0-2.3,0.4-3.1,1.2l-6.2,9.7c-0.8,1.3-0.7,3-0.8,4.9"/>
		<path fill="#969696" d="M94.2,71.6l-6.3-9.4c-0.8-0.8-2.2-1-3.2-1h-0.9v63.6h11.6V77C95.4,75.1,95.2,73.1,94.2,71.6"/>
		<path fill="#E3E2E1" d="M31.8,98.5c0,0-19.8,9.8-19.8,37.1h26.7l0.1-49.3L31.8,98.5z"/>
		<path fill="#666667" d="M38.8,86.1l-0.1,49.4H12.1c0-27.3,19.8-37.3,19.8-37.3L38.8,86.1 M42.1,74l-6,10.5l-6.6,11.4
			c-1.8,1.1-6,3.8-10.1,8.8c-4.8,5.8-10.7,15.9-10.7,30.9v3.3h3.4h26.7h3.2l0-3.3l0.1-49.4L42.1,74z"/>
		<path fill="#C9C8C8" d="M81.7,99.1c0,0,19.8,10,19.8,37.2H74.8L74.7,87L81.7,99.1z"/>
		<path fill="#666667" d="M74.7,86.8l7,12.2c0,0,19.8,10.1,19.8,37.4H74.8L74.7,86.8 M71.4,74.5l0,12.1l0.1,49.7l0,3.4h3.2h26.7h3.9
			V136c0-15-6.1-25.1-11-30.9c-4.1-4.9-8.4-7.7-10.2-8.8L77.6,85L71.4,74.5z"/>
		<path fill="#E05B62" d="M44.2,29.8v0.3v61.6h25.6v-61c0-2.4-0.1-5-1.3-6.8l-7.9-12.3c-1.1-1.1-2.6-1.6-3.9-1.5
			c-1.6,0-2.8,0.5-3.9,1.5L45.1,24c-1.1,1.6-0.9,3.5-0.9,6"/>
		<path fill="#DE4849" d="M68.5,23.9l-7.9-12.4C59.6,10.5,58,10,56.7,10h-0.1v81.8h13.2v-61C69.8,28.3,69.7,25.8,68.5,23.9"/>
		<path fill="#EFEEED" d="M73.7,49L62.4,31.3c-1.5-1.5-3.8-2.3-5.6-2.2c-2.3-0.1-4.1,0.7-5.6,2.2L39.9,49.2
			c-1.5,2.3-1.8,4.6-1.8,8.7h0.3v-0.3v0.2v89.3h37.2V58.7C75.6,55.4,75.4,51.6,73.7,49"/>
		<path fill="#E3E2E1" d="M73.7,49L62.4,31.3c-1.5-1.5-3.8-2.3-5.6-2.2c0,0-0.1,0-0.1,0v118h19V58.7C75.6,55.4,75.4,51.6,73.7,49"/>
		<rect x="55" y="111.3" fill="#666667" width="3.5" height="35.4"/>
		<rect x="69.6" y="71.6" fill="#DE4849" width="5.5" height="16.3"/>
		<rect x="69.6" y="87.9" fill="#5CB6BF" width="5.5" height="16.3"/>
		<rect x="18.3" y="139" fill="#AFAFAF" width="19.9" height="7.7"/>
		<rect x="18.3" y="139" fill="#969696" width="19.8" height="3.8"/>
		<rect x="27.6" y="124" fill="#AFAFAF" width="10.6" height="6.7"/>
		<rect x="75" y="124" fill="#AFAFAF" width="10.6" height="6.7"/>
		<rect x="38.3" y="146.6" fill="#AFAFAF" width="36.7" height="3.8"/>
		<rect x="38.3" y="150.5" fill="#969696" width="36.7" height="3.8"/>
		<rect x="38.3" y="154.3" fill="#808080" width="36.7" height="3.8"/>
		<rect x="38.3" y="158.2" fill="#666667" width="36.7" height="3.8"/>
		<path fill="#666666" d="M45.8,51.5c-0.8,0.8-2,2.2-2,3.8c0,1.6,1.1,2.9,2,3.8V51.5z"/>
		<path fill="#666666" d="M66.5,51.1c0.8,0.8,2,2.2,2,3.8c0,1.6-1.1,2.9-2,3.8V51.1z"/>
		<polygon fill="#666666" points="66.5,51.2 56.3,37.8 45.8,51.5 45.8,59.1 46.1,59.1 56.4,45.5 66.5,58.8 		"/>
	</g>
</g>
<g id="Layer_2" display="none">
</g>
</svg>
