<?xml version="1.0" encoding="utf-8"?>
<!-- Generator: Adobe Illustrator 18.1.1, SVG Export Plug-In . SVG Version: 6.00 Build 0)  -->
<svg version="1.1" xmlns="http://www.w3.org/2000/svg" xmlns:xlink="http://www.w3.org/1999/xlink" x="0px" y="0px"
	 viewBox="0 0 200 172" enable-background="new 0 0 200 172" xml:space="preserve">
<g id="Capa_1">
	<g>
		<g>
			<path fill="#B3B3B3" d="M110,77.8c-0.1,0.4-0.5,0.6-0.9,0.4l-6.5-2.2c-0.4-0.1-0.6-0.5-0.4-0.9l4.9-14.2c0.1-0.4,0.5-0.6,0.9-0.4
				l6.5,2.2c0.4,0.1,0.6,0.5,0.4,0.9L110,77.8z"/>
		</g>
		<g>
			<g>
				<path fill="#98A8A7" d="M81.9,92.6C81.7,93,81.4,93.1,81,93l-8.5-2.9c-0.4-0.1-0.6-0.5-0.4-0.9l1-2.8c0.1-0.4,0.5-0.6,0.9-0.4
					l8.5,2.9c0.4,0.1,0.6,0.5,0.4,0.9L81.9,92.6z"/>
			</g>
			<g>
				<path fill="#EFEEED" d="M66.4,105.8c-0.1,0.4-0.5,0.6-0.9,0.4L15.2,89c-0.4-0.1-0.6-0.5-0.4-0.9L28,49.5
					c0.1-0.4,0.5-0.6,0.9-0.4l50.3,17.3c0.4,0.1,0.6,0.5,0.4,0.9L66.4,105.8z"/>
			</g>
			<g>
				<g>
					
						<rect x="21.4" y="47.8" transform="matrix(0.9458 0.3248 -0.3248 0.9458 23.5489 -3.2999)" fill="#797C7C" width="0.5" height="42.2"/>
				</g>
				<g>
					
						<rect x="26.5" y="49.5" transform="matrix(0.9458 0.3248 -0.3248 0.9458 24.3892 -4.8632)" fill="#797C7C" width="0.5" height="42.2"/>
				</g>
				<g>
					
						<rect x="31.6" y="51.3" transform="matrix(0.9459 0.3246 -0.3246 0.9459 25.2218 -6.4256)" fill="#797C7C" width="0.5" height="42.2"/>
				</g>
				<g>
					
						<rect x="36.7" y="53" transform="matrix(0.9458 0.3248 -0.3248 0.9458 26.0883 -7.9908)" fill="#797C7C" width="0.5" height="42.2"/>
				</g>
				<g>
					
						<rect x="41.8" y="54.8" transform="matrix(0.9458 0.3249 -0.3249 0.9458 26.9395 -9.5554)" fill="#797C7C" width="0.5" height="42.2"/>
				</g>
				<g>
					
						<rect x="46.9" y="56.5" transform="matrix(0.9459 0.3246 -0.3246 0.9459 27.7579 -11.1133)" fill="#797C7C" width="0.5" height="42.2"/>
				</g>
				<g>
					
						<rect x="52" y="58.3" transform="matrix(0.9458 0.3247 -0.3247 0.9458 28.6099 -12.6777)" fill="#797C7C" width="0.5" height="42.2"/>
				</g>
				<g>
					
						<rect x="57.1" y="60" transform="matrix(0.9458 0.3248 -0.3248 0.9458 29.4669 -14.2437)" fill="#797C7C" width="0.5" height="42.2"/>
				</g>
				<g>
					
						<rect x="62.2" y="61.8" transform="matrix(0.9459 0.3246 -0.3246 0.9459 30.2952 -15.8015)" fill="#797C7C" width="0.5" height="42.2"/>
				</g>
				<g>
					
						<rect x="67.4" y="63.5" transform="matrix(0.9459 0.3246 -0.3246 0.9459 31.1411 -17.3639)" fill="#797C7C" width="0.5" height="42.2"/>
				</g>
				<g>
					
						<rect x="23.3" y="67.3" transform="matrix(0.9453 0.3263 -0.3263 0.9453 24.8157 -12.8313)" fill="#797C7C" width="54.6" height="0.4"/>
				</g>
				<g>
					<polygon fill="#797C7C" points="72.5,88 21,70 21.1,69.6 72.6,87.7 					"/>
				</g>
				<g>
					
						<rect x="15.8" y="90.2" transform="matrix(0.9453 0.3263 -0.3263 0.9453 31.8461 -9.0727)" fill="#797C7C" width="54.4" height="0.4"/>
				</g>
			</g>
		</g>
		<g>
			<g>
				<path fill="#98A8A7" d="M126.1,107.8c-0.1,0.4-0.5,0.6-0.9,0.4l-8.5-2.9c-0.4-0.1-0.6-0.5-0.4-0.9l1-2.8
					c0.1-0.4,0.5-0.6,0.9-0.4l8.5,2.9c0.4,0.1,0.6,0.5,0.4,0.9L126.1,107.8z"/>
			</g>
			<g>
				<path fill="#EFEEED" d="M171.5,141.9c-0.1,0.4-0.5,0.6-0.9,0.4l-49.8-17.1c-0.4-0.1-0.6-0.5-0.4-0.9l13.3-38.6
					c0.1-0.4,0.5-0.6,0.9-0.4l49.8,17.1c0.4,0.1,0.6,0.5,0.4,0.9L171.5,141.9z"/>
			</g>
			<g>
				<g>
					
						<rect x="132.1" y="85.8" transform="matrix(0.9458 0.3247 -0.3247 0.9458 41.8747 -37.1882)" fill="#797C7C" width="0.5" height="42.2"/>
				</g>
				<g>
					
						<rect x="137.2" y="87.5" transform="matrix(0.9458 0.3248 -0.3248 0.9458 42.7467 -38.7683)" fill="#797C7C" width="0.5" height="42.2"/>
				</g>
				<g>
					
						<rect x="142.3" y="89.3" transform="matrix(0.9459 0.3246 -0.3246 0.9459 43.5582 -40.3089)" fill="#797C7C" width="0.5" height="42.2"/>
				</g>
				<g>
					
						<rect x="147.4" y="91" transform="matrix(0.9458 0.3248 -0.3248 0.9458 44.4299 -41.889)" fill="#797C7C" width="0.5" height="42.2"/>
				</g>
				<g>
					
						<rect x="152.5" y="92.8" transform="matrix(0.9458 0.3248 -0.3248 0.9458 45.2843 -43.4583)" fill="#797C7C" width="0.5" height="42.2"/>
				</g>
				<g>
					
						<rect x="157.7" y="94.5" transform="matrix(0.9458 0.3248 -0.3248 0.9458 46.1326 -45.0231)" fill="#797C7C" width="0.5" height="42.2"/>
				</g>
				<g>
					
						<rect x="162.8" y="96.3" transform="matrix(0.9458 0.3247 -0.3247 0.9458 46.9493 -46.5656)" fill="#797C7C" width="0.5" height="42.2"/>
				</g>
				<g>
					
						<rect x="167.9" y="98.1" transform="matrix(0.9458 0.3247 -0.3247 0.9458 47.7951 -48.1286)" fill="#797C7C" width="0.5" height="42.2"/>
				</g>
				<g>
					
						<rect x="173" y="99.8" transform="matrix(0.9458 0.3248 -0.3248 0.9458 48.6715 -49.7141)" fill="#797C7C" width="0.5" height="42.2"/>
				</g>
				<g>
					
						<rect x="178.1" y="101.6" transform="matrix(0.9458 0.3249 -0.3249 0.9458 49.5287 -51.2857)" fill="#797C7C" width="0.5" height="42.2"/>
				</g>
				<g>
					
						<rect x="129" y="103.4" transform="matrix(0.9466 0.3223 -0.3223 0.9466 41.7252 -44.77)" fill="#797C7C" width="54.1" height="0.4"/>
				</g>
				<g>
					
						<rect x="125.1" y="114.9" transform="matrix(0.9452 0.3264 -0.3264 0.9452 45.903 -43.342)" fill="#797C7C" width="54.1" height="0.4"/>
				</g>
				<g>
					
						<rect x="121.2" y="126.3" transform="matrix(0.9452 0.3264 -0.3264 0.9452 49.3948 -41.4146)" fill="#797C7C" width="53.9" height="0.4"/>
				</g>
			</g>
		</g>
		<g>
			<path fill="#EFEEED" d="M107.4,130.3c-0.1,0.4-0.5,0.6-0.9,0.4l-34.1-11.7c-0.4-0.1-0.6-0.5-0.4-0.9l16.5-48
				c0.1-0.4,0.5-0.6,0.9-0.4l34.1,11.7c0.4,0.1,0.6,0.5,0.4,0.9L107.4,130.3z"/>
		</g>
		<g>
			<g>
				<path fill="#999999" d="M92.3,131.7c-0.2,0.2-0.5,0.2-0.7,0.2l-8.6-2.9c-0.2-0.1-0.4-0.3-0.4-0.6l-0.3-5.5
					c0-0.2,0.2-0.4,0.4-0.3l13.6,4.7c0.2,0.1,0.3,0.3,0.1,0.4L92.3,131.7z"/>
			</g>
			<polyline fill="#888989" points="82.2,122.4 82.3,124.2 95.4,128.7 96.6,127.4 			"/>
		</g>
		<polygon fill="#999999" points="106.6,75.7 110.3,77 115.1,63 111.1,61.6 		"/>
		<path fill="#888989" d="M106.4,62.8c0,0,4.1,2.4,7.9,2.5l-0.3,1c0,0-3.5,0.7-8-2.2L106.4,62.8z"/>
		<g>
			<path fill="#CCCCCC" d="M136.7,51.1c-3.8,11.1-15.9,17-27,13.2c-11.1-3.8-17-15.9-13.2-27L136.7,51.1z"/>
			
				<ellipse transform="matrix(0.9458 0.3247 -0.3247 0.9458 20.6569 -35.4685)" fill="#999999" cx="116.6" cy="44.2" rx="21.2" ry="5.3"/>
			<g>
				<path fill="#808080" d="M111.7,48c0,0,6.2-4.8,8.3-15.7l2.1,0.7c0,0-5.3,12.2-2.9,17.5C119.1,50.5,115.7,49.5,111.7,48z"/>
				<circle fill="#E05B62" cx="121.6" cy="31.4" r="2.1"/>
			</g>
		</g>
		
			<rect x="97.7" y="77.3" transform="matrix(0.9462 0.3236 -0.3236 0.9462 39.1771 -28.9821)" fill="#E3E2E1" width="18.1" height="52.1"/>
		<polygon fill="#969696" points="116.7,83.6 104.1,79.4 91.6,75.2 91.9,75.1 84.9,95.4 77.9,115.7 77.8,115.4 90.3,119.8 
			102.7,124.2 90.2,120 77.6,115.8 77.4,115.7 77.5,115.5 84.4,95.2 91.4,74.9 91.5,74.7 91.7,74.8 104.2,79.2 		"/>
		<g>
			
				<rect x="93.4" y="79.8" transform="matrix(0.9458 0.3247 -0.3247 0.9458 31.5045 -26.3661)" fill="#5CB6BF" width="2.8" height="2.8"/>
			
				<rect x="91.4" y="85.7" transform="matrix(0.9459 0.3245 -0.3245 0.9459 33.2705 -25.3844)" fill="#5CB6BF" width="2.8" height="2.8"/>
			
				<rect x="98.8" y="81.7" transform="matrix(0.9458 0.3247 -0.3247 0.9458 32.4067 -28.0301)" fill="#5CB6BF" width="2.8" height="2.8"/>
			
				<rect x="96.8" y="87.5" transform="matrix(0.9458 0.3248 -0.3248 0.9458 34.2065 -27.0664)" fill="#5CB6BF" width="2.8" height="2.8"/>
			
				<rect x="104.2" y="83.6" transform="matrix(0.9458 0.3249 -0.3249 0.9458 33.3282 -29.7062)" fill="#5CB6BF" width="2.8" height="2.8"/>
			
				<rect x="102.2" y="89.4" transform="matrix(0.9459 0.3246 -0.3246 0.9459 35.0798 -28.714)" fill="#5CB6BF" width="2.8" height="2.8"/>
			
				<rect x="109.7" y="85.4" transform="matrix(0.9458 0.3248 -0.3248 0.9458 34.2216 -31.3652)" fill="#5CB6BF" width="2.8" height="2.8"/>
			
				<rect x="107.7" y="91.3" transform="matrix(0.9458 0.3249 -0.3249 0.9458 36.02 -30.4)" fill="#5CB6BF" width="2.8" height="2.8"/>
		</g>
	</g>
</g>
<g id="Layer_2" display="none">
</g>
</svg>
