<?xml version="1.0" encoding="utf-8"?>
<!-- Generator: Adobe Illustrator 18.1.1, SVG Export Plug-In . SVG Version: 6.00 Build 0)  -->
<svg version="1.1" xmlns="http://www.w3.org/2000/svg" xmlns:xlink="http://www.w3.org/1999/xlink" x="0px" y="0px"
	 viewBox="0 0 142 172" enable-background="new 0 0 142 172" xml:space="preserve">
<g id="Capa_1">
	<g>
		<g>
			<path fill-rule="evenodd" clip-rule="evenodd" fill="#6B6B6B" d="M15.2,102c38-5,75.9-10,113.9-15c3.3-0.4,6.3,1.9,6.7,5.1
				c0.2,1.5,0.4,3.1,0.6,4.6c0.4,3.3-1.9,6.3-5.1,6.7c-38,5-75.9,10-113.9,15c-3.3,0.4-6.3-1.9-6.7-5.1c-0.2-1.5-0.4-3.1-0.6-4.6
				C9.6,105.5,11.9,102.5,15.2,102z"/>
			<path fill-rule="evenodd" clip-rule="evenodd" fill="#696969" d="M15.2,102c38-5,75.9-10,113.9-15c3.3-0.4,6.3,1.9,6.7,5.1
				c0.2,1.5,0.4,3.1,0.6,4.6c0.4,3.3-1.9,6.3-5.1,6.7c-38,5-75.9,10-113.9,15c-3.3,0.4-6.3-1.9-6.7-5.1c-0.2-1.5-0.4-3.1-0.6-4.6
				C9.6,105.5,11.9,102.5,15.2,102z"/>
			<path fill-rule="evenodd" clip-rule="evenodd" fill="#686868" d="M15.2,102c38-5,75.9-10,113.9-15c3.3-0.4,6.3,1.9,6.7,5.1
				c0.2,1.5,0.4,3.1,0.6,4.6c0.4,3.3-1.9,6.3-5.1,6.7c-38,5-75.9,10-113.9,15c-3.3,0.4-6.3-1.9-6.7-5.1c-0.2-1.5-0.4-3.1-0.6-4.6
				C9.6,105.5,11.9,102.5,15.2,102z"/>
			<path fill-rule="evenodd" clip-rule="evenodd" fill="#666666" d="M15.2,102L129.1,87c3.3-0.4,6.3,1.9,6.7,5.1l0.6,4.6
				c0.4,3.3-1.9,6.3-5.1,6.7L17.4,118.5c-3.3,0.4-6.3-1.9-6.7-5.1l-0.6-4.6C9.6,105.5,11.9,102.5,15.2,102z"/>
		</g>
		<path fill-rule="evenodd" clip-rule="evenodd" fill="#5CB6BF" d="M10.7,68.6l113.9-15.1c3.3-0.4,6.3,1.9,6.7,5.1l5,38.1
			c0.4,3.3-1.9,6.3-5.1,6.7L17.4,118.5c-3.3,0.4-6.3-1.9-6.7-5.1l-5-38.1C5.2,72,7.5,69,10.7,68.6z"/>
		
			<rect x="7.6" y="66.8" transform="matrix(-0.9913 0.1313 -0.1313 -0.9913 152.6638 161.9261)" fill-rule="evenodd" clip-rule="evenodd" fill="#FFFFFF" width="126.8" height="38.4"/>
		
			<rect x="107" y="68.9" transform="matrix(-0.9913 0.1313 -0.1313 -0.9913 245.4933 124.6563)" fill-rule="evenodd" clip-rule="evenodd" fill="#A2DDE0" width="23.3" height="3.1"/>
		
			<rect x="107.6" y="74" transform="matrix(-0.9913 0.1313 -0.1313 -0.9913 247.5193 134.7782)" fill-rule="evenodd" clip-rule="evenodd" fill="#A2DDE0" width="23.3" height="3.1"/>
		
			<rect x="108.3" y="79.1" transform="matrix(-0.9913 0.1313 -0.1313 -0.9913 249.5462 144.8987)" fill-rule="evenodd" clip-rule="evenodd" fill="#A2DDE0" width="23.3" height="3.1"/>
		
			<rect x="106.3" y="84.4" transform="matrix(-0.9913 0.1313 -0.1313 -0.9913 248.9021 155.5551)" fill-rule="evenodd" clip-rule="evenodd" fill="#A2DDE0" width="26.1" height="3.1"/>
		<path fill="#FFFFFF" d="M48.7,65.9c0.2,0,0.3,0.1,0.3,0.3c0,0.2,0,0.3-0.1,0.4c-0.1,0.1-0.2,0.1-0.3,0.1l-0.2,0v-0.3l0.1,0
			c0.1,0,0.1,0,0.1-0.1c0,0,0-0.1,0-0.1c0-0.1,0-0.1-0.1-0.1c0,0-0.1,0-0.1,0l-0.1,0v-0.3l0,0c0.1,0,0.1,0,0.1-0.1c0,0,0-0.1,0-0.1
			c0-0.1,0-0.1-0.1-0.1c0,0-0.1,0-0.1,0v-0.3c0.1,0,0.2,0,0.2,0c0.1,0,0.1,0,0.2,0.1c0.1,0.1,0.1,0.1,0.1,0.3c0,0.1,0,0.1,0,0.2
			c0,0.1,0,0.1-0.1,0.1C48.8,65.9,48.7,65.9,48.7,65.9z M48.4,66.7l-0.4,0.1l0-0.2c0,0,0.1,0,0.1,0c0,0,0-0.1,0-0.1l-0.1-0.7
			c0-0.1,0-0.1,0-0.1c0,0,0,0-0.1,0l0-0.2l0.6-0.1l0,0v0.3c0,0,0,0,0,0l-0.1,0l0,0.3l0.1,0v0.3l-0.1,0l0,0.4l0.1,0V66.7z"/>
		<path fill="#FFFFFF" d="M50,65.4l0.1,0.7c0,0.1,0,0.1,0,0.2c0,0.1-0.1,0.2-0.1,0.2c-0.1,0.1-0.2,0.1-0.3,0.1c0,0-0.1,0-0.1,0v-0.3
			c0,0,0,0,0.1,0c0.1,0,0.2-0.1,0.1-0.2l-0.1-0.6c0,0,0-0.1,0-0.1c0,0-0.1,0-0.1-0.1V65c0.2,0,0.3,0,0.4,0.1
			C50,65.2,50,65.3,50,65.4z M49.6,66.6c-0.2,0-0.3,0-0.4-0.1c0,0-0.1-0.1-0.1-0.2L49,65.5c0-0.3,0.1-0.4,0.5-0.5c0,0,0.1,0,0.1,0
			v0.3c0,0,0,0-0.1,0c-0.1,0-0.2,0.1-0.1,0.2l0.1,0.6c0,0.1,0,0.1,0,0.1c0,0,0,0,0.1,0V66.6z"/>
		<path fill="#FFFFFF" d="M50.9,64.9l0.4,1.1c0,0,0,0.1,0,0.1c0,0,0,0,0.1,0l0,0.2l-0.5,0.1l0-0.2c0.1,0,0.1,0,0.1-0.1c0,0,0,0,0,0
			l0-0.1l-0.2,0v-0.2l0.1,0l-0.1-0.3v-0.6L50.9,64.9L50.9,64.9z M50.7,66.4L50.7,66.4L50.7,66.4L50.7,66.4z M50.7,66l-0.1,0l0,0.1
			c0,0,0,0,0,0c0,0,0,0.1,0.1,0.1l0,0.2v0l-0.5,0.1l0-0.2c0,0,0,0,0-0.1c0,0,0-0.1,0-0.1l0.1-1.1l0.3,0v0.6l-0.1-0.2l0,0.5l0.1,0V66
			z"/>
		<path fill="#FFFFFF" d="M52.6,65.9l0,0.2l-0.4,0c0,0,0-0.1-0.1-0.2l0-0.1l0-0.1c0-0.1,0-0.1-0.1-0.1c0,0-0.1,0-0.1,0l0,0v-0.3l0,0
			c0.1,0,0.1,0,0.1,0c0,0,0-0.1,0-0.2c0-0.1,0-0.1-0.1-0.1c0,0-0.1,0-0.1,0v-0.3c0.1,0,0.2,0,0.3,0c0.1,0.1,0.2,0.2,0.2,0.3
			c0,0.1,0,0.2,0,0.2c0,0.1-0.1,0.1-0.2,0.1c0.1,0,0.1,0,0.2,0.1c0,0,0.1,0.1,0.1,0.1c0,0,0,0,0,0.1c0,0,0,0,0,0
			C52.5,65.8,52.5,65.9,52.6,65.9C52.6,65.9,52.6,65.9,52.6,65.9L52.6,65.9z M52,66C52,66,52,66,52,66l0.1,0.2l-0.1,0V66z M52,65.6
			L52,65.6l-0.1,0.2c0,0.1,0,0.1,0,0.1c0,0,0,0,0,0v0.3l-0.4,0.1l0-0.2c0,0,0.1,0,0.1,0c0,0,0-0.1,0-0.1l-0.1-0.7c0-0.1,0-0.1,0-0.1
			c0,0,0,0-0.1,0l0-0.2l0.6-0.1l0,0V65c0,0,0,0-0.1,0l-0.1,0l0,0.4l0.1,0V65.6z"/>
		<path fill="#FFFFFF" d="M53.3,64.6c0,0,0.1,0,0.1,0c0.1,0,0.1,0,0.1,0c0.1,0.1,0.2,0.2,0.2,0.3l0.1,0.5c0,0.1,0,0.2,0,0.2
			c0,0,0,0.1,0,0.1c0,0.1-0.1,0.2-0.3,0.2c0,0-0.1,0-0.2,0l0,0v-0.3l0,0c0.1,0,0.1,0,0.2-0.1c0,0,0-0.1,0-0.2L53.4,65
			c0-0.1,0-0.1-0.1-0.1c0,0,0,0-0.1,0V64.6z M52.8,65.7L52.7,65c0-0.1,0-0.1,0-0.1c0,0,0,0-0.1,0l0-0.2l0.6-0.1c0,0,0.1,0,0.1,0v0.3
			c0,0-0.1,0-0.1,0l-0.1,0l0.1,0.9l0.1,0v0.3l-0.5,0.1l0-0.2c0,0,0.1,0,0.1,0C52.8,65.8,52.8,65.8,52.8,65.7z"/>
		<path fill="#FFFFFF" d="M54.1,65.6L54,64.9c0-0.1,0-0.1,0-0.1c0,0,0,0-0.1,0l0-0.2l0.5-0.1l0,0.2c0,0-0.1,0-0.1,0c0,0,0,0.1,0,0.1
			l0.1,0.7c0,0.1,0,0.1,0,0.1c0,0,0,0,0.1,0l0,0.2L54,66l0-0.2c0,0,0.1,0,0.1,0C54.1,65.7,54.1,65.6,54.1,65.6z"/>
		<path fill="#FFFFFF" d="M55.5,65.8L55,65l0,0.4c0,0.1,0,0.1,0,0.1c0,0,0,0,0.1,0l0,0.2l-0.5,0.1l0-0.2c0,0,0.1,0,0.1,0
			c0,0,0-0.1,0-0.1l-0.1-0.7c0-0.1,0-0.1,0-0.1c0,0,0,0-0.1,0l0-0.2l0.4,0l0.5,0.7l0-0.4c0-0.1,0-0.1,0-0.1c0,0,0,0-0.1,0l0-0.2
			l0.5-0.1l0,0.2c0,0-0.1,0-0.1,0c0,0,0,0.1,0,0.1l0.1,1.1L55.5,65.8z"/>
		<path fill="#FFFFFF" d="M56.8,64.2l0,0.4l-0.3,0c0,0,0,0,0,0c0-0.1-0.1-0.2-0.2-0.2c-0.1,0-0.1,0-0.1,0.1c0,0,0,0.1,0,0.2l0.1,0.6
			c0,0.1,0,0.1,0,0.1c0,0,0,0,0.1,0.1c0,0,0.1,0,0.1,0c0.1,0,0.1-0.1,0.1-0.2l0-0.1l-0.1,0l0-0.2l0.5-0.1l0.1,0.7
			c-0.1,0.1-0.3,0.2-0.5,0.2c-0.2,0-0.3,0-0.4-0.1c0,0-0.1-0.1-0.1-0.1c0,0,0-0.1,0-0.2l-0.1-0.8c0-0.1,0-0.1,0-0.2c0,0,0-0.1,0-0.1
			c0.1-0.1,0.2-0.2,0.4-0.2C56.5,64.1,56.7,64.1,56.8,64.2z"/>
		<path fill="#FFFFFF" d="M58.2,65.2C58.2,65.2,58.2,65.2,58.2,65.2l0.1,0.3l-0.1,0V65.2L58.2,65.2z M58.2,63.9c0.1,0,0.2,0,0.3,0
			c0.1,0,0.1,0.1,0.2,0.1c0,0.1,0.1,0.2,0.1,0.3c0,0.1,0,0.2,0,0.3c0,0.1-0.1,0.1-0.1,0.2c-0.1,0-0.1,0.1-0.3,0.1l-0.1,0v-0.3
			c0.1,0,0.1,0,0.2-0.1c0,0,0-0.1,0-0.2c0-0.1,0-0.1-0.1-0.1c0,0-0.1,0-0.1,0V63.9z M58.1,65L58.1,65c0,0.1,0,0.2,0,0.2
			c0,0,0,0,0.1,0v0.3l-0.5,0.1l0-0.2c0,0,0.1,0,0.1,0c0,0,0-0.1,0-0.1l-0.1-0.7c0-0.1,0-0.1,0-0.1c0,0,0,0-0.1,0l0-0.2l0.6-0.1l0,0
			v0.3c0,0,0,0,0,0l-0.2,0l0,0.4l0.1,0l0,0L58.1,65L58.1,65z"/>
		<path fill="#FFFFFF" d="M59.5,63.7l0.4,1.1c0,0,0,0.1,0,0.1c0,0,0,0,0.1,0l0,0.2l-0.5,0.1l0-0.2c0.1,0,0.1,0,0.1-0.1c0,0,0,0,0,0
			l0-0.1l-0.2,0v-0.2l0.1,0l-0.1-0.3v-0.6L59.5,63.7L59.5,63.7z M59.3,65.3L59.3,65.3L59.3,65.3L59.3,65.3z M59.3,64.8l-0.1,0l0,0.1
			c0,0,0,0,0,0c0,0,0,0.1,0.1,0.1l0,0.2v0l-0.5,0.1l0-0.2c0,0,0,0,0-0.1c0,0,0-0.1,0-0.1l0.1-1.1l0.3,0v0.6l-0.1-0.2l0,0.5l0.1,0
			V64.8z"/>
		<path fill="#FFFFFF" d="M60.9,63.7l0,0.4l-0.3,0c0,0,0,0,0-0.1c0-0.1,0-0.1,0-0.1c0,0-0.1,0-0.1,0c0,0-0.1,0-0.1,0.1
			c0,0,0,0.1,0,0.1c0,0,0,0.1,0.1,0.1c0,0,0.1,0,0.3,0.1c0.1,0,0.2,0.1,0.3,0.1c0.1,0.1,0.1,0.1,0.1,0.3c0,0.1,0,0.2-0.1,0.3
			c-0.1,0.1-0.2,0.2-0.4,0.2c-0.2,0-0.4,0-0.5-0.1l0-0.4l0.3,0c0,0,0,0,0,0.1c0,0.1,0.1,0.2,0.2,0.2c0,0,0.1,0,0.1-0.1
			c0,0,0-0.1,0-0.1c0,0,0-0.1-0.1-0.1c0,0-0.1,0-0.2-0.1c-0.1,0-0.2,0-0.2-0.1c0,0-0.1,0-0.1-0.1c-0.1-0.1-0.1-0.2-0.2-0.3
			c0-0.2,0-0.3,0.2-0.4c0.1-0.1,0.2-0.1,0.3-0.1C60.6,63.5,60.8,63.6,60.9,63.7z"/>
		<path fill="#FFFFFF" d="M62.1,63.5l0,0.4l-0.3,0c0,0,0,0,0-0.1c0-0.1,0-0.1,0-0.1c0,0-0.1,0-0.1,0c0,0-0.1,0-0.1,0.1
			c0,0,0,0.1,0,0.1c0,0,0,0.1,0.1,0.1c0,0,0.1,0,0.3,0.1c0.1,0,0.2,0.1,0.3,0.1c0.1,0.1,0.1,0.1,0.1,0.3c0,0.1,0,0.2-0.1,0.3
			c-0.1,0.1-0.2,0.2-0.4,0.2c-0.2,0-0.4,0-0.5-0.1l0-0.4l0.3,0c0,0,0,0,0,0.1c0,0.1,0.1,0.2,0.2,0.2c0,0,0.1,0,0.1-0.1
			c0,0,0-0.1,0-0.1c0,0,0-0.1-0.1-0.1c0,0-0.1,0-0.2-0.1c-0.1,0-0.2,0-0.2-0.1c0,0-0.1,0-0.1-0.1c-0.1-0.1-0.1-0.2-0.2-0.3
			c0-0.2,0-0.3,0.2-0.4c0.1-0.1,0.2-0.1,0.3-0.1C61.8,63.4,61.9,63.4,62.1,63.5z"/>
		
			<rect x="63.5" y="63.8" transform="matrix(-0.1212 -0.9926 0.9926 -0.1212 7.725 134.9965)" fill="#FFFFFF" width="0.2" height="0.5"/>
		<path fill="#FFFFFF" d="M66.1,63.8l0.1,0.5c-0.2,0.1-0.3,0.2-0.5,0.2c-0.1,0-0.2,0-0.3,0c-0.1,0-0.1-0.1-0.2-0.1
			c0,0,0-0.1-0.1-0.1c0,0,0-0.1,0-0.2L65,63.4c0-0.1,0-0.1,0-0.2c0,0,0-0.1,0.1-0.1c0.1-0.1,0.2-0.2,0.4-0.2c0.2,0,0.3,0,0.5,0
			l0.1,0.4l-0.3,0l0,0c0-0.1-0.1-0.2-0.2-0.2c-0.1,0-0.1,0-0.1,0.1c0,0,0,0.1,0,0.2l0.1,0.5c0,0.1,0,0.1,0.1,0.2c0,0,0.1,0,0.1,0
			c0.1,0,0.1,0,0.1-0.1c0,0,0-0.1,0-0.2l0-0.1L66.1,63.8z"/>
		<path fill="#FFFFFF" d="M66.9,62.7l0.4,1.1c0,0,0,0.1,0,0.1c0,0,0,0,0.1,0l0,0.2l-0.5,0.1l0-0.2c0.1,0,0.1,0,0.1-0.1c0,0,0,0,0,0
			l0-0.1l-0.2,0v-0.2l0.1,0l-0.1-0.3v-0.6L66.9,62.7L66.9,62.7z M66.7,64.3L66.7,64.3L66.7,64.3L66.7,64.3z M66.7,63.9l-0.1,0l0,0.1
			c0,0,0,0,0,0c0,0,0,0.1,0.1,0.1l0,0.2v0l-0.5,0.1l0-0.2c0,0,0,0,0-0.1c0,0,0-0.1,0-0.1l0.1-1.1l0.3,0v0.6l-0.1-0.2l0,0.5l0.1,0
			V63.9z"/>
		<path fill="#FFFFFF" d="M68.6,63.8l0,0.2l-0.4,0c0,0,0-0.1-0.1-0.2l0-0.1l0-0.1c0-0.1,0-0.1-0.1-0.1c0,0-0.1,0-0.1,0l0,0v-0.3l0,0
			c0.1,0,0.1,0,0.1,0c0,0,0-0.1,0-0.2c0-0.1,0-0.1-0.1-0.1c0,0-0.1,0-0.1,0v-0.3c0.1,0,0.2,0,0.3,0c0.1,0.1,0.2,0.2,0.2,0.3
			c0,0.1,0,0.2,0,0.2c0,0.1-0.1,0.1-0.2,0.1c0.1,0,0.1,0,0.2,0.1c0,0,0.1,0.1,0.1,0.2c0,0,0,0,0,0.1c0,0,0,0,0,0
			C68.5,63.7,68.5,63.8,68.6,63.8C68.5,63.8,68.5,63.8,68.6,63.8L68.6,63.8z M67.9,63.9C67.9,63.9,68,63.9,67.9,63.9l0.1,0.2l-0.1,0
			V63.9z M67.9,63.5L67.9,63.5l-0.1,0.2c0,0.1,0,0.1,0,0.1c0,0,0,0,0,0v0.3l-0.4,0.1l0-0.2c0,0,0.1,0,0.1,0c0,0,0-0.1,0-0.1
			l-0.1-0.7c0-0.1,0-0.1,0-0.1c0,0,0,0-0.1,0l0-0.2l0.6-0.1l0,0v0.3c0,0,0,0-0.1,0l-0.1,0l0,0.4l0.1,0V63.5z"/>
		<path fill="#FFFFFF" d="M69.7,62.4l0.1,0.6l-0.3,0l0-0.2c0-0.1,0-0.1,0-0.1c0,0-0.1,0-0.1,0l0.1,0.8c0,0.1,0,0.1,0,0.1
			c0,0,0,0,0.1,0l0,0.2L69,64l0-0.2c0,0,0.1,0,0.1,0c0,0,0-0.1,0-0.1L69,62.8c0,0-0.1,0-0.1,0.1c0,0,0,0.1,0,0.1l0,0.2l-0.3,0
			l-0.1-0.6L69.7,62.4z"/>
		<path fill="#FFFFFF" d="M70.9,62.2l0.1,0.5l-0.3,0c0,0,0,0,0,0c0-0.1,0-0.1,0-0.1c0,0-0.1,0-0.1,0l-0.2,0l0,0.3l0.4-0.1l0,0.3
			l-0.4,0.1l0,0.4l0.1,0c0.1,0,0.1,0,0.1,0c0,0,0-0.1,0-0.2c0,0,0,0,0,0l0.3,0l0.1,0.5L70,63.9l0-0.2c0,0,0.1,0,0.1,0
			c0,0,0-0.1,0-0.1l-0.1-0.7c0-0.1,0-0.1,0-0.1c0,0,0,0-0.1,0l0-0.2L70.9,62.2z"/>
		<path fill="#FFFFFF" d="M72.3,62c0,0,0.1,0,0.1,0c0,0,0.1,0,0.1,0c0.1,0.1,0.2,0.2,0.2,0.3l0.1,0.5c0,0.1,0,0.2,0,0.2
			c0,0,0,0.1,0,0.1c0,0.1-0.1,0.2-0.3,0.2c0,0-0.1,0-0.2,0l0,0v-0.3l0,0c0.1,0,0.1,0,0.2-0.1c0,0,0-0.1,0-0.2l-0.1-0.5
			c0-0.1,0-0.1-0.1-0.1c0,0,0,0-0.1,0V62z M71.8,63.2l-0.1-0.7c0-0.1,0-0.1,0-0.1c0,0,0,0-0.1,0l0-0.2l0.6-0.1c0,0,0.1,0,0.1,0v0.3
			c0,0-0.1,0-0.1,0l-0.1,0l0.1,0.9l0.1,0v0.3l-0.5,0.1l0-0.2c0,0,0.1,0,0.1,0C71.8,63.3,71.8,63.3,71.8,63.2z"/>
		<path fill="#FFFFFF" d="M73.1,62.5l-0.1,0l-0.1-0.4c0-0.1,0-0.1,0-0.1c0-0.1,0-0.1,0.1-0.1c0.1,0,0.2,0,0.2,0.1c0,0,0,0.1,0,0.1
			L73.1,62.5z"/>
		<path fill="#FFFFFF" d="M74.3,61.8l0.1,0.5l-0.3,0c0,0,0,0,0,0c0-0.1,0-0.1,0-0.1c0,0-0.1,0-0.1,0l-0.2,0l0,0.3l0.4-0.1l0,0.3
			l-0.4,0.1l0,0.4l0.1,0c0.1,0,0.1,0,0.1-0.1c0,0,0-0.1,0-0.2c0,0,0,0,0,0l0.3,0l0.1,0.5l-1.1,0.1l0-0.2c0,0,0.1,0,0.1,0
			c0,0,0-0.1,0-0.1l-0.1-0.7c0-0.1,0-0.1,0-0.1c0,0,0,0-0.1,0l0-0.2L74.3,61.8z"/>
		<path fill="#FFFFFF" d="M75.3,62.4l0.1-0.7l0.5-0.1l0,0.2c0,0-0.1,0-0.1,0c0,0,0,0.1,0,0.1l0.1,0.7c0,0.1,0,0.1,0,0.1
			c0,0,0,0,0.1,0l0,0.2l-0.5,0.1l0-0.2c0,0,0.1,0,0.1,0c0,0,0-0.1,0-0.1l-0.1-0.6l-0.1,1l-0.2,0l-0.4-0.9l0.1,0.6c0,0.1,0,0.1,0,0.1
			c0,0,0,0,0.1,0l0,0.2l-0.4,0.1l0-0.2c0,0,0.1,0,0.1,0c0,0,0-0.1,0-0.1l-0.1-0.7c0-0.1,0-0.1,0-0.1c0,0,0,0-0.1,0l0-0.2l0.6-0.1
			L75.3,62.4z"/>
		<path fill="#FFFFFF" d="M77.1,62.1c0.2,0,0.3,0.1,0.3,0.3c0,0.2,0,0.3-0.1,0.4c-0.1,0.1-0.2,0.1-0.3,0.1l-0.2,0v-0.3l0.1,0
			c0.1,0,0.1,0,0.1-0.1c0,0,0-0.1,0-0.1c0-0.1,0-0.1-0.1-0.1c0,0-0.1,0-0.1,0l-0.1,0V62l0,0c0.1,0,0.1,0,0.1-0.1c0,0,0-0.1,0-0.1
			c0-0.1,0-0.1-0.1-0.1c0,0-0.1,0-0.1,0v-0.3c0.1,0,0.2,0,0.2,0c0.1,0,0.1,0,0.2,0.1c0.1,0.1,0.1,0.1,0.1,0.3c0,0.1,0,0.1,0,0.2
			c0,0.1,0,0.1-0.1,0.1C77.2,62.1,77.1,62.1,77.1,62.1z M76.8,63L76.3,63l0-0.2c0,0,0.1,0,0.1,0c0,0,0-0.1,0-0.1l-0.1-0.7
			c0-0.1,0-0.1,0-0.1c0,0,0,0-0.1,0l0-0.2l0.6-0.1l0,0v0.3c0,0,0,0,0,0l-0.1,0l0,0.3l0.1,0v0.3l-0.1,0l0,0.4l0.1,0V63z"/>
		<path fill="#FFFFFF" d="M78.1,61.3l0.4,1.1c0,0,0,0.1,0,0.1c0,0,0,0,0.1,0l0,0.2l-0.5,0.1l0-0.2c0.1,0,0.1,0,0.1-0.1c0,0,0,0,0,0
			l0-0.1l-0.2,0v-0.2l0.1,0L78,61.9v-0.6L78.1,61.3L78.1,61.3z M78,62.8L78,62.8L78,62.8L78,62.8z M78,62.4l-0.1,0l0,0.1
			c0,0,0,0,0,0c0,0,0,0.1,0.1,0.1l0,0.2v0l-0.5,0.1l0-0.2c0,0,0,0,0.1-0.1c0,0,0-0.1,0-0.1l0.1-1.1l0.3,0v0.6l-0.1-0.2l0,0.5l0.1,0
			V62.4z"/>
		<path fill="#FFFFFF" d="M79.8,62.3l0,0.2l-0.4,0c0,0,0-0.1-0.1-0.2l0-0.1l0-0.1c0-0.1,0-0.1-0.1-0.1c0,0-0.1,0-0.1,0l0,0v-0.3l0,0
			c0.1,0,0.1,0,0.1,0c0,0,0-0.1,0-0.2c0-0.1,0-0.1-0.1-0.1c0,0-0.1,0-0.1,0v-0.3c0.1,0,0.2,0,0.3,0c0.1,0.1,0.2,0.2,0.2,0.3
			c0,0.1,0,0.2,0,0.2c0,0.1-0.1,0.1-0.2,0.1c0.1,0,0.1,0,0.2,0.1c0,0,0.1,0.1,0.1,0.2c0,0,0,0,0,0.1c0,0,0,0,0,0
			C79.7,62.2,79.8,62.3,79.8,62.3C79.8,62.3,79.8,62.3,79.8,62.3L79.8,62.3z M79.2,62.4C79.2,62.4,79.2,62.4,79.2,62.4l0.1,0.2
			l-0.1,0V62.4z M79.2,62L79.2,62l-0.1,0.2c0,0.1,0,0.1,0,0.1c0,0,0,0,0,0v0.3l-0.4,0.1l0-0.2c0,0,0.1,0,0.1,0c0,0,0-0.1,0-0.1
			l-0.1-0.7c0-0.1,0-0.1,0-0.1c0,0,0,0-0.1,0l0-0.2l0.6-0.1l0,0v0.3c0,0,0,0-0.1,0l-0.1,0l0,0.4l0.1,0V62z"/>
		<path fill="#FFFFFF" d="M81,62.4l-0.1,0.2c-0.1,0-0.1,0-0.2-0.1c-0.1,0-0.1,0-0.1-0.1c0,0-0.1,0-0.1,0c0,0-0.1,0-0.1,0v-0.3
			c0,0,0,0,0.1,0c0.1,0,0.1,0,0.1-0.1c0,0,0-0.1,0-0.1l-0.1-0.6c0-0.1-0.1-0.2-0.1-0.2v-0.3c0.2,0,0.3,0,0.4,0.1c0,0,0,0.1,0.1,0.1
			c0,0,0,0.1,0,0.1L81,62c0,0.1,0,0.1,0,0.2c0,0,0,0.1,0,0.1C80.9,62.3,80.9,62.3,81,62.4C81,62.3,81,62.3,81,62.4z M80.4,62.5
			c-0.1,0-0.3,0-0.4-0.1c-0.1,0-0.1-0.1-0.1-0.2l-0.1-0.8c0-0.1,0-0.2,0-0.2c0.1-0.1,0.2-0.2,0.4-0.2c0,0,0.1,0,0.1,0v0.3
			c0,0,0,0-0.1,0c-0.1,0-0.2,0.1-0.1,0.2l0.1,0.6c0,0.1,0,0.1,0,0.1c0,0,0.1,0.1,0.1,0.1V62.5z"/>
		<path fill="#FFFFFF" d="M82.1,61.1l0.1,0.6c0,0.1,0,0.1,0,0.2c0,0,0,0.1,0,0.1c0,0.1-0.1,0.1-0.1,0.2c-0.1,0-0.2,0.1-0.3,0.1
			c-0.2,0-0.4,0-0.4-0.1c0-0.1-0.1-0.1-0.1-0.2l0-0.1l-0.1-0.6c0-0.1,0-0.1,0-0.1c0,0,0,0-0.1,0l0-0.2l0.5-0.1l0,0.2
			c0,0-0.1,0-0.1,0c0,0,0,0.1,0,0.1l0.1,0.6c0,0.1,0,0.1,0,0.1c0,0,0.1,0.1,0.2,0c0.1,0,0.1,0,0.1-0.1c0,0,0-0.1,0-0.2l-0.1-0.6
			c0-0.1,0-0.1,0-0.1c0,0,0,0-0.1,0l0-0.2l0.5-0.1l0,0.2c0,0-0.1,0-0.1,0C82,61,82,61.1,82.1,61.1z"/>
		<path fill="#FFFFFF" d="M83.3,60.6l0.1,0.5l-0.3,0c0,0,0,0,0,0c0-0.1,0-0.1,0-0.1c0,0-0.1,0-0.1,0l-0.2,0l0,0.3l0.4-0.1l0,0.3
			l-0.4,0.1l0,0.4l0.1,0c0.1,0,0.1,0,0.1,0c0,0,0-0.1,0-0.2c0,0,0,0,0,0l0.3,0l0.1,0.5l-1.1,0.1l0-0.2c0,0,0.1,0,0.1,0
			c0,0,0-0.1,0-0.1l-0.1-0.7c0-0.1,0-0.1,0-0.1c0,0,0,0-0.1,0l0-0.2L83.3,60.6z"/>
		<path fill="#FFFFFF" d="M84.3,61.2l0.1-0.7l0.5-0.1l0,0.2c0,0-0.1,0-0.1,0c0,0,0,0.1,0,0.1l0.1,0.7c0,0.1,0,0.1,0,0.1
			c0,0,0,0,0.1,0l0,0.2l-0.5,0.1l0-0.2c0,0,0.1,0,0.1,0c0,0,0-0.1,0-0.1l-0.1-0.6l-0.1,1l-0.2,0L83.9,61l0.1,0.6c0,0.1,0,0.1,0,0.1
			c0,0,0,0,0.1,0l0,0.2L83.6,62l0-0.2c0,0,0.1,0,0.1,0c0,0,0-0.1,0-0.1l-0.1-0.7c0-0.1,0-0.1,0-0.1c0,0,0,0-0.1,0l0-0.2l0.6-0.1
			L84.3,61.2z"/>
		<path fill="#FFFFFF" d="M86.1,60.2l0.1,0.5l-0.3,0c0,0,0,0,0,0c0-0.1,0-0.1,0-0.1c0,0-0.1,0-0.1,0l-0.2,0l0,0.3l0.4-0.1l0,0.3
			l-0.4,0.1l0,0.4l0.1,0c0.1,0,0.1,0,0.1,0c0,0,0-0.1,0-0.2c0,0,0,0,0,0l0.3,0l0.1,0.5l-1.1,0.1l0-0.2c0,0,0.1,0,0.1,0
			c0,0,0-0.1,0-0.1l-0.1-0.7c0-0.1,0-0.1,0-0.1c0,0,0,0-0.1,0l0-0.2L86.1,60.2z"/>
		<path fill="#FFFFFF" d="M87.3,61.6l-0.5-0.7l0,0.4c0,0.1,0,0.1,0,0.1c0,0,0,0,0.1,0l0,0.2l-0.5,0.1l0-0.2c0,0,0.1,0,0.1,0
			c0,0,0-0.1,0-0.1l-0.1-0.7c0-0.1,0-0.1,0-0.1c0,0,0,0-0.1,0l0-0.2l0.4,0l0.5,0.7l0-0.4c0-0.1,0-0.1,0-0.1c0,0,0,0-0.1,0l0-0.2
			l0.5-0.1l0,0.2c0,0-0.1,0-0.1,0c0,0,0,0.1,0,0.1l0.1,1.1L87.3,61.6z"/>
		<path fill="#FFFFFF" d="M88.7,59.9l0.1,0.6l-0.3,0l0-0.2c0-0.1,0-0.1,0-0.1c0,0-0.1,0-0.1,0l0.1,0.8c0,0.1,0,0.1,0,0.1
			c0,0,0,0,0.1,0l0,0.2l-0.5,0.1l0-0.2c0,0,0.1,0,0.1,0c0,0,0-0.1,0-0.1L88,60.2c0,0-0.1,0-0.1,0.1c0,0,0,0.1,0,0.1l0,0.2l-0.3,0
			L87.6,60L88.7,59.9z"/>
		<path fill="#FFFFFF" d="M51.2,67.5c0.1,0,0.2,0.1,0.2,0.2c0,0.1,0,0.2-0.1,0.2c0,0-0.1,0.1-0.2,0.1L51,68v-0.2l0.1,0
			c0,0,0.1,0,0.1,0c0,0,0-0.1,0-0.1c0,0,0-0.1,0-0.1c0,0-0.1,0-0.1,0l0,0v-0.2l0,0c0,0,0.1,0,0.1,0c0,0,0,0,0-0.1c0,0,0-0.1,0-0.1
			c0,0,0,0-0.1,0V67c0.1,0,0.1,0,0.2,0c0,0,0.1,0,0.1,0.1c0,0,0.1,0.1,0.1,0.2c0,0,0,0.1,0,0.1C51.3,67.4,51.3,67.4,51.2,67.5
			C51.3,67.4,51.3,67.4,51.2,67.5z M51,68l-0.3,0l0-0.2c0,0,0,0,0,0c0,0,0,0,0-0.1l-0.1-0.5c0,0,0-0.1,0-0.1c0,0,0,0,0,0l0-0.2
			l0.4,0l0,0v0.2l0,0l-0.1,0l0,0.2l0.1,0v0.2l-0.1,0l0,0.2l0,0V68z"/>
		<path fill="#FFFFFF" d="M52.1,67.1l0.1,0.5c0,0,0,0.1,0,0.1c0,0.1,0,0.1-0.1,0.1c-0.1,0-0.1,0.1-0.2,0.1c0,0,0,0-0.1,0v-0.2
			c0,0,0,0,0,0c0.1,0,0.1-0.1,0.1-0.1l0-0.4c0,0,0-0.1,0-0.1c0,0,0,0-0.1,0v-0.2c0.1,0,0.2,0,0.2,0.1C52.1,67,52.1,67,52.1,67.1z
			 M51.8,67.9c-0.1,0-0.2,0-0.3-0.1c0,0,0-0.1,0-0.1l-0.1-0.5c0-0.2,0.1-0.3,0.3-0.3c0,0,0,0,0.1,0v0.2c0,0,0,0,0,0
			c-0.1,0-0.1,0.1-0.1,0.1l0,0.4c0,0,0,0.1,0,0.1c0,0,0,0,0.1,0V67.9z"/>
		<path fill="#FFFFFF" d="M52.7,66.8l0.2,0.7c0,0,0,0,0,0.1c0,0,0,0,0,0l0,0.2l-0.3,0l0-0.2c0,0,0,0,0-0.1c0,0,0,0,0,0l0,0l-0.1,0
			v-0.1l0.1,0l-0.1-0.2v-0.4L52.7,66.8L52.7,66.8z M52.6,67.8L52.6,67.8L52.6,67.8L52.6,67.8z M52.6,67.5L52.6,67.5L52.6,67.5
			C52.5,67.6,52.5,67.6,52.6,67.5c-0.1,0.1-0.1,0.1,0,0.1l0,0.2v0l-0.3,0l0-0.2c0,0,0,0,0,0c0,0,0,0,0-0.1l0.1-0.8l0.2,0v0.4l0-0.1
			l0,0.3l0.1,0V67.5z"/>
		<path fill="#FFFFFF" d="M53.9,67.5l0,0.2l-0.3,0c0,0,0-0.1,0-0.1l0-0.1l0,0c0,0,0-0.1,0-0.1c0,0,0,0-0.1,0l0,0v-0.2l0,0
			c0,0,0.1,0,0.1,0c0,0,0-0.1,0-0.1c0,0,0-0.1,0-0.1c0,0,0,0-0.1,0v-0.2c0.1,0,0.2,0,0.2,0c0.1,0,0.1,0.1,0.1,0.2c0,0.1,0,0.1,0,0.2
			c0,0-0.1,0.1-0.1,0.1c0,0,0.1,0,0.1,0c0,0,0,0.1,0,0.1C53.8,67.3,53.8,67.3,53.9,67.5C53.8,67.4,53.8,67.4,53.9,67.5
			C53.8,67.4,53.8,67.4,53.9,67.5C53.8,67.4,53.8,67.5,53.9,67.5L53.9,67.5z M53.4,67.5C53.4,67.5,53.4,67.5,53.4,67.5l0,0.2l0,0
			V67.5z M53.4,67.3L53.4,67.3l0,0.1c0,0,0,0.1,0,0.1c0,0,0,0,0,0v0.2l-0.3,0l0-0.2c0,0,0,0,0,0c0,0,0,0,0-0.1L53.1,67
			c0,0,0-0.1,0-0.1c0,0,0,0,0,0l0-0.2l0.4-0.1l0,0v0.2c0,0,0,0,0,0l-0.1,0l0,0.2l0.1,0V67.3z"/>
		<path fill="#FFFFFF" d="M54.3,66.5C54.3,66.5,54.4,66.5,54.3,66.5c0.1,0,0.1,0,0.2,0c0.1,0,0.1,0.1,0.1,0.2l0,0.3
			c0,0.1,0,0.1,0,0.1c0,0,0,0.1,0,0.1c0,0.1-0.1,0.1-0.2,0.2c0,0-0.1,0-0.2,0l0,0v-0.2l0,0c0.1,0,0.1,0,0.1,0c0,0,0-0.1,0-0.1l0-0.3
			c0-0.1,0-0.1,0-0.1c0,0,0,0,0,0V66.5z M54,67.3l-0.1-0.5c0,0,0-0.1,0-0.1c0,0,0,0,0,0l0-0.2l0.4,0c0,0,0,0,0.1,0v0.2
			c0,0,0,0-0.1,0l-0.1,0l0.1,0.6l0.1,0v0.2l-0.3,0l0-0.2C54,67.4,54,67.4,54,67.3C54,67.4,54,67.4,54,67.3z"/>
		<path fill="#FFFFFF" d="M55.2,66.9l0.2,0.3c0,0,0,0.1,0,0.1c0,0,0,0,0,0l0,0.2l-0.3,0l0-0.1c0,0,0-0.1,0-0.1c0,0,0,0-0.1-0.1
			L55,67l0,0.2c0,0,0,0.1,0,0.1c0,0,0,0,0,0l0,0.2l-0.3,0l0-0.2c0,0,0,0,0,0c0,0,0,0,0-0.1l-0.1-0.5c0,0,0-0.1,0-0.1c0,0,0,0,0,0
			l0-0.2l0.3,0l0,0.2c0,0,0,0,0,0c0,0,0,0,0,0.1l0,0.2l0.1-0.2c0,0,0-0.1,0-0.1c0,0,0,0,0-0.1l0-0.1l0.3,0l0,0.2c0,0,0,0,0,0
			c0,0,0,0,0,0.1L55.2,66.9z"/>
		<path fill="#FFFFFF" d="M56,66.3l0.2,0.7c0,0,0,0,0,0.1c0,0,0,0,0,0l0,0.2l-0.3,0l0-0.2c0,0,0,0,0-0.1c0,0,0,0,0,0l0,0l-0.1,0
			v-0.1l0.1,0l-0.1-0.2v-0.4L56,66.3L56,66.3z M55.9,67.3L55.9,67.3L55.9,67.3L55.9,67.3z M55.9,67.1L55.9,67.1L55.9,67.1
			C55.8,67.1,55.8,67.1,55.9,67.1c-0.1,0.1-0.1,0.1,0,0.1l0,0.2v0l-0.3,0l0-0.2c0,0,0,0,0,0c0,0,0,0,0-0.1l0.1-0.8l0.2,0v0.4l0-0.1
			l0,0.3l0.1,0V67.1z"/>
		<path fill="#FFFFFF" d="M57.1,67l0,0.2l-0.3,0c0,0,0-0.1,0-0.1l0-0.1l0,0c0,0,0-0.1,0-0.1c0,0,0,0-0.1,0l0,0v-0.2l0,0
			c0,0,0.1,0,0.1,0c0,0,0-0.1,0-0.1c0,0,0-0.1,0-0.1c0,0,0,0-0.1,0v-0.2c0.1,0,0.2,0,0.2,0c0.1,0,0.1,0.1,0.1,0.2c0,0.1,0,0.1,0,0.2
			c0,0-0.1,0.1-0.1,0.1c0,0,0.1,0,0.1,0c0,0,0,0.1,0,0.1C57.1,66.9,57.1,66.9,57.1,67C57.1,66.9,57.1,66.9,57.1,67
			C57.1,67,57.1,67,57.1,67C57.1,67,57.1,67,57.1,67L57.1,67z M56.7,67.1C56.7,67.1,56.7,67.1,56.7,67.1l0,0.2l0,0V67.1z M56.7,66.8
			L56.7,66.8l0,0.1c0,0,0,0.1,0,0.1c0,0,0,0,0,0v0.2l-0.3,0l0-0.2c0,0,0,0,0,0c0,0,0,0,0-0.1l-0.1-0.5c0,0,0-0.1,0-0.1c0,0,0,0,0,0
			l0-0.2l0.4-0.1l0,0v0.2c0,0,0,0,0,0l-0.1,0l0,0.2l0.1,0V66.8z"/>
		<path fill="#FFFFFF" d="M57.9,66.1l0.1,0.4l-0.2,0l0-0.1c0,0,0-0.1,0-0.1c0,0,0,0-0.1,0l0.1,0.6c0,0,0,0.1,0,0.1c0,0,0,0,0,0
			l0,0.2l-0.3,0l0-0.2c0,0,0,0,0,0c0,0,0,0,0-0.1l-0.1-0.6c0,0-0.1,0-0.1,0c0,0,0,0,0,0.1l0,0.1l-0.2,0l-0.1-0.4L57.9,66.1z"/>
		<path fill="#FFFFFF" d="M58.7,66l0,0.3l-0.2,0c0,0,0,0,0,0c0,0,0-0.1,0-0.1c0,0,0,0-0.1,0l-0.1,0l0,0.2l0.3,0l0,0.2l-0.3,0l0,0.2
			l0.1,0c0,0,0.1,0,0.1,0c0,0,0-0.1,0-0.1c0,0,0,0,0,0l0.2,0l0,0.3l-0.7,0.1l0-0.2c0,0,0,0,0,0c0,0,0,0,0-0.1l-0.1-0.5
			c0,0,0-0.1,0-0.1c0,0,0,0,0,0l0-0.2L58.7,66z"/>
		
			<rect x="59.3" y="66.3" transform="matrix(-0.121 -0.9927 0.9927 -0.121 0.5305 133.4318)" fill="#FFFFFF" width="0.2" height="0.3"/>
		<path fill="#FFFFFF" d="M60.6,66.3l0,0.3c-0.1,0.1-0.2,0.1-0.3,0.1c-0.1,0-0.1,0-0.2,0c-0.1,0-0.1,0-0.1-0.1c0,0,0,0,0-0.1
			c0,0,0-0.1,0-0.1l-0.1-0.5c0,0,0-0.1,0-0.1c0,0,0-0.1,0-0.1c0-0.1,0.1-0.1,0.3-0.1c0.1,0,0.2,0,0.3,0l0,0.3l-0.2,0l0,0
			c0-0.1-0.1-0.1-0.1-0.1c0,0-0.1,0-0.1,0c0,0,0,0.1,0,0.1l0,0.4c0,0,0,0.1,0,0.1c0,0,0,0,0.1,0c0,0,0.1,0,0.1,0c0,0,0-0.1,0-0.1
			l0-0.1L60.6,66.3z"/>
		<path fill="#FFFFFF" d="M61.2,65.6l0.2,0.7c0,0,0,0,0,0.1c0,0,0,0,0,0l0,0.2l-0.3,0l0-0.2c0,0,0,0,0-0.1c0,0,0,0,0,0l0,0l-0.1,0
			v-0.1l0.1,0L61,66v-0.4L61.2,65.6L61.2,65.6z M61,66.7L61,66.7L61,66.7L61,66.7z M61,66.4L61,66.4L61,66.4
			C61,66.4,61,66.5,61,66.4c-0.1,0.1-0.1,0.1,0,0.1l0,0.2v0l-0.3,0l0-0.2c0,0,0,0,0,0c0,0,0,0,0-0.1l0.1-0.8l0.2,0V66l0-0.1l0,0.3
			l0.1,0V66.4z"/>
		<path fill="#FFFFFF" d="M62.3,66.3l0,0.2l-0.3,0c0,0,0-0.1,0-0.1l0-0.1l0,0c0,0,0-0.1,0-0.1c0,0,0,0-0.1,0l0,0V66l0,0
			c0,0,0.1,0,0.1,0c0,0,0-0.1,0-0.1c0,0,0-0.1,0-0.1c0,0,0,0-0.1,0v-0.2c0.1,0,0.2,0,0.2,0c0.1,0,0.1,0.1,0.1,0.2c0,0.1,0,0.1,0,0.2
			c0,0-0.1,0.1-0.1,0.1c0,0,0.1,0,0.1,0c0,0,0,0.1,0,0.1C62.2,66.2,62.2,66.2,62.3,66.3C62.2,66.3,62.2,66.3,62.3,66.3
			C62.2,66.3,62.2,66.3,62.3,66.3C62.3,66.3,62.3,66.3,62.3,66.3L62.3,66.3z M61.9,66.4C61.9,66.4,61.9,66.4,61.9,66.4l0,0.2l0,0
			V66.4z M61.9,66.2L61.9,66.2l0,0.1c0,0,0,0.1,0,0.1c0,0,0,0,0,0v0.2l-0.3,0l0-0.2c0,0,0,0,0,0c0,0,0,0,0-0.1l-0.1-0.5
			c0,0,0-0.1,0-0.1c0,0,0,0,0,0l0-0.2l0.4-0.1l0,0v0.2c0,0,0,0,0,0l-0.1,0l0,0.2l0.1,0V66.2z"/>
		<path fill="#FFFFFF" d="M63,65.4l0.1,0.4l-0.2,0l0-0.1c0,0,0-0.1,0-0.1c0,0,0,0-0.1,0l0.1,0.6c0,0,0,0.1,0,0.1s0,0,0,0l0,0.2
			l-0.3,0l0-0.2c0,0,0,0,0,0c0,0,0,0,0-0.1l-0.1-0.6c0,0-0.1,0-0.1,0c0,0,0,0,0,0.1l0,0.1l-0.2,0l-0.1-0.4L63,65.4z"/>
		<path fill="#FFFFFF" d="M63.6,65.3l0.2,0.7c0,0,0,0,0,0.1c0,0,0,0,0,0l0,0.2l-0.3,0l0-0.2c0,0,0,0,0-0.1c0,0,0,0,0,0l0,0l-0.1,0
			v-0.1l0.1,0l-0.1-0.2v-0.4L63.6,65.3L63.6,65.3z M63.5,66.3L63.5,66.3L63.5,66.3L63.5,66.3z M63.5,66.1L63.5,66.1L63.5,66.1
			C63.4,66.1,63.4,66.1,63.5,66.1c-0.1,0.1-0.1,0.1,0,0.1l0,0.2v0l-0.3,0l0-0.2c0,0,0,0,0,0c0,0,0,0,0-0.1l0.1-0.8l0.2,0v0.4l0-0.1
			l0,0.3l0.1,0V66.1z"/>
		<path fill="#FFFFFF" d="M64.7,65.2C64.7,65.2,64.7,65.2,64.7,65.2c0.1,0,0.1,0,0.2,0c0.1,0,0.1,0.1,0.1,0.2l0,0.3
			c0,0.1,0,0.1,0,0.1c0,0,0,0.1,0,0.1c0,0.1-0.1,0.1-0.2,0.2c0,0-0.1,0-0.2,0l0,0V66l0,0c0.1,0,0.1,0,0.1,0c0,0,0-0.1,0-0.1l0-0.3
			c0-0.1,0-0.1,0-0.1c0,0,0,0,0,0V65.2z M64.4,66l-0.1-0.5c0,0,0-0.1,0-0.1c0,0,0,0,0,0l0-0.2l0.4,0c0,0,0,0,0.1,0v0.2
			c0,0,0,0-0.1,0l-0.1,0l0.1,0.6l0.1,0v0.2l-0.3,0l0-0.2C64.4,66.1,64.4,66,64.4,66C64.4,66,64.4,66,64.4,66z"/>
		<path fill="#FFFFFF" d="M65.3,65.5L65.3,65.5l-0.2-0.2c0,0,0-0.1,0-0.1c0-0.1,0-0.1,0.1-0.1c0.1,0,0.1,0,0.1,0.1c0,0,0,0,0,0.1
			L65.3,65.5z"/>
		<path fill="#FFFFFF" d="M65.5,65.8l-0.1-0.5c0,0,0-0.1,0-0.1c0,0,0,0,0,0l0-0.2l0.3,0l0,0.2c0,0,0,0,0,0c0,0,0,0,0,0.1l0.1,0.5
			c0,0,0,0.1,0,0.1c0,0,0,0,0,0l0,0.2l-0.3,0l0-0.2C65.5,65.9,65.5,65.9,65.5,65.8C65.5,65.9,65.5,65.8,65.5,65.8z"/>
		<path fill="#FFFFFF" d="M66.4,65.4l0.1-0.5l0.4,0l0,0.2c0,0,0,0,0,0c0,0,0,0,0,0.1l0.1,0.5c0,0,0,0.1,0,0.1c0,0,0,0,0,0l0,0.2
			l-0.3,0l0-0.2c0,0,0,0,0,0c0,0,0,0,0-0.1l0-0.4L66.5,66l-0.1,0l-0.2-0.6l0,0.4c0,0,0,0.1,0,0.1c0,0,0,0,0,0l0,0.2L66,66l0-0.2
			c0,0,0,0,0,0c0,0,0,0,0-0.1l-0.1-0.5c0,0,0-0.1,0-0.1c0,0,0,0,0,0l0-0.2l0.4,0L66.4,65.4z"/>
		<path fill="#FFFFFF" d="M67.6,65.3c0.1,0,0.2,0.1,0.2,0.2c0,0.1,0,0.2-0.1,0.2c0,0-0.1,0.1-0.2,0.1l-0.1,0v-0.2l0.1,0
			c0,0,0.1,0,0.1,0c0,0,0-0.1,0-0.1c0,0,0-0.1,0-0.1c0,0-0.1,0-0.1,0l0,0v-0.2l0,0c0,0,0.1,0,0.1,0c0,0,0,0,0-0.1c0,0,0-0.1,0-0.1
			c0,0,0,0-0.1,0v-0.2c0.1,0,0.1,0,0.2,0c0,0,0.1,0,0.1,0.1c0,0,0.1,0.1,0.1,0.2c0,0,0,0.1,0,0.1C67.7,65.2,67.6,65.2,67.6,65.3
			C67.6,65.3,67.6,65.3,67.6,65.3z M67.3,65.8l-0.3,0l0-0.2c0,0,0,0,0,0c0,0,0,0,0-0.1L67,65.1c0,0,0-0.1,0-0.1c0,0,0,0,0,0l0-0.2
			l0.4,0l0,0V65l0,0l-0.1,0l0,0.2l0.1,0v0.2l-0.1,0l0,0.2l0,0V65.8z"/>
		<path fill="#FFFFFF" d="M68.3,64.7l0.2,0.7c0,0,0,0,0,0.1c0,0,0,0,0,0l0,0.2l-0.3,0l0-0.2c0,0,0,0,0-0.1c0,0,0,0,0,0l0,0l-0.1,0
			v-0.1l0.1,0l-0.1-0.2v-0.4L68.3,64.7L68.3,64.7z M68.1,65.7L68.1,65.7L68.1,65.7L68.1,65.7z M68.1,65.4L68.1,65.4L68.1,65.4
			C68.1,65.5,68.1,65.5,68.1,65.4c-0.1,0.1-0.1,0.1,0,0.1l0,0.2v0l-0.3,0l0-0.2c0,0,0,0,0,0c0,0,0,0,0-0.1l0.1-0.8l0.2,0v0.4l0-0.1
			l0,0.3l0.1,0V65.4z"/>
		<path fill="#FFFFFF" d="M69.4,65.4l0,0.2l-0.3,0c0,0,0-0.1,0-0.1l0-0.1l0,0c0,0,0-0.1,0-0.1c0,0,0,0-0.1,0l0,0V65l0,0
			c0,0,0.1,0,0.1,0c0,0,0-0.1,0-0.1c0,0,0-0.1,0-0.1c0,0,0,0-0.1,0v-0.2c0.1,0,0.2,0,0.2,0c0.1,0,0.1,0.1,0.1,0.2c0,0.1,0,0.1,0,0.2
			c0,0-0.1,0.1-0.1,0.1c0,0,0.1,0,0.1,0c0,0,0,0.1,0,0.1C69.3,65.2,69.3,65.3,69.4,65.4C69.3,65.3,69.3,65.3,69.4,65.4
			C69.3,65.4,69.3,65.4,69.4,65.4C69.4,65.4,69.4,65.4,69.4,65.4L69.4,65.4z M69,65.5C69,65.5,69,65.5,69,65.5l0,0.2l0,0V65.5z
			 M69,65.2L69,65.2l0,0.1c0,0,0,0.1,0,0.1c0,0,0,0,0,0v0.2l-0.3,0l0-0.2c0,0,0,0,0,0c0,0,0,0,0-0.1l-0.1-0.5c0,0,0-0.1,0-0.1
			c0,0,0,0,0,0l0-0.2l0.4-0.1l0,0v0.2c0,0,0,0,0,0l-0.1,0l0,0.2l0.1,0V65.2z"/>
		<path fill="#FFFFFF" d="M70.1,65.1l0,0.3c-0.1,0.1-0.2,0.1-0.3,0.1c-0.1,0-0.1,0-0.2,0c-0.1,0-0.1,0-0.1-0.1c0,0,0,0,0-0.1
			c0,0,0-0.1,0-0.1l-0.1-0.5c0,0,0-0.1,0-0.1c0,0,0-0.1,0-0.1c0-0.1,0.1-0.1,0.3-0.1c0.1,0,0.2,0,0.3,0l0,0.3l-0.2,0l0,0
			c0-0.1-0.1-0.1-0.1-0.1c0,0-0.1,0-0.1,0c0,0,0,0.1,0,0.1l0,0.4c0,0,0,0.1,0,0.1c0,0,0,0,0.1,0c0,0,0.1,0,0.1,0c0,0,0-0.1,0-0.1
			l0-0.1L70.1,65.1z"/>
		<path fill="#FFFFFF" d="M70.9,64.6l0.1,0.5c0,0,0,0.1,0,0.1c0,0.1,0,0.1-0.1,0.1c-0.1,0-0.1,0.1-0.2,0.1c0,0,0,0-0.1,0v-0.2
			c0,0,0,0,0,0c0.1,0,0.1-0.1,0.1-0.1l0-0.4c0,0,0-0.1,0-0.1c0,0,0,0-0.1,0v-0.2c0.1,0,0.2,0,0.2,0.1C70.8,64.5,70.8,64.5,70.9,64.6
			z M70.5,65.4c-0.1,0-0.2,0-0.3-0.1c0,0,0-0.1,0-0.1l-0.1-0.5c0-0.2,0.1-0.3,0.3-0.3c0,0,0,0,0.1,0v0.2c0,0,0,0,0,0
			c-0.1,0-0.1,0.1-0.1,0.1l0,0.4c0,0,0,0.1,0,0.1c0,0,0,0,0.1,0V65.4z"/>
		
			<rect x="71.4" y="64.7" transform="matrix(-0.1223 -0.9925 0.9925 -0.1223 15.8415 143.7542)" fill="#FFFFFF" width="0.2" height="0.3"/>
		<path fill="#FFFFFF" d="M72.8,64.1l0.1,0.4l-0.2,0l0-0.1c0,0,0-0.1,0-0.1c0,0,0,0-0.1,0l0.1,0.6c0,0,0,0.1,0,0.1c0,0,0,0,0,0
			l0,0.2l-0.3,0l0-0.2c0,0,0,0,0,0c0,0,0,0,0-0.1l-0.1-0.6c0,0-0.1,0-0.1,0c0,0,0,0,0,0.1l0,0.1l-0.2,0L72,64.2L72.8,64.1z"/>
		<path fill="#FFFFFF" d="M73.3,64l0.2,0.7c0,0,0,0,0,0.1c0,0,0,0,0,0l0,0.2l-0.3,0l0-0.2c0,0,0,0,0-0.1c0,0,0,0,0,0l0,0l-0.1,0
			v-0.1l0.1,0l-0.1-0.2V64L73.3,64L73.3,64z M73.2,65.1L73.2,65.1L73.2,65.1L73.2,65.1z M73.2,64.8L73.2,64.8L73.2,64.8
			C73.1,64.8,73.1,64.8,73.2,64.8c-0.1,0.1-0.1,0.1,0,0.1l0,0.2v0l-0.3,0l0-0.2c0,0,0,0,0,0c0,0,0,0,0-0.1l0.1-0.8l0.2,0v0.4l0-0.1
			l0,0.3l0.1,0V64.8z"/>
		<path fill="#FFFFFF" d="M74.4,64.7l0,0.2l-0.3,0c0,0,0-0.1,0-0.1l0-0.1l0,0c0,0,0-0.1,0-0.1c0,0,0,0-0.1,0l0,0v-0.2l0,0
			c0,0,0.1,0,0.1,0c0,0,0-0.1,0-0.1c0,0,0-0.1,0-0.1c0,0,0,0-0.1,0v-0.2c0.1,0,0.2,0,0.2,0c0.1,0,0.1,0.1,0.1,0.2c0,0.1,0,0.1,0,0.2
			c0,0-0.1,0.1-0.1,0.1c0,0,0.1,0,0.1,0c0,0,0,0.1,0,0.1C74.4,64.6,74.4,64.6,74.4,64.7C74.4,64.7,74.4,64.7,74.4,64.7
			C74.4,64.7,74.4,64.7,74.4,64.7C74.4,64.7,74.4,64.7,74.4,64.7L74.4,64.7z M74,64.8C74,64.8,74,64.8,74,64.8l0,0.2l0,0V64.8z
			 M74,64.6L74,64.6l0,0.1c0,0,0,0.1,0,0.1c0,0,0,0,0,0V65l-0.3,0l0-0.2c0,0,0,0,0,0c0,0,0,0,0-0.1l-0.1-0.5c0,0,0-0.1,0-0.1
			s0,0,0,0l0-0.2l0.4-0.1l0,0v0.2c0,0,0,0,0,0l-0.1,0l0,0.2l0.1,0V64.6z"/>
		<path fill="#FFFFFF" d="M74.5,64.9l0-0.2c0,0,0,0,0.1,0c0,0,0,0,0,0c0,0,0,0,0,0c0,0,0,0,0-0.1l-0.1-0.5c0,0,0-0.1,0-0.1
			c0,0,0,0,0,0l0-0.2l0.3,0l0,0.2c0,0,0,0,0,0c0,0,0,0,0,0.1l0.1,0.5c0,0,0,0.1,0,0.1c0,0,0,0,0,0.1c0,0.1-0.1,0.1-0.2,0.1
			C74.6,64.9,74.6,64.9,74.5,64.9z"/>
		<path fill="#FFFFFF" d="M75.6,63.7l0,0.3l-0.2,0c0,0,0,0,0,0c0,0,0-0.1,0-0.1c0,0,0,0-0.1,0l-0.1,0l0,0.2l0.3,0l0,0.2l-0.3,0
			l0,0.2l0.1,0c0,0,0.1,0,0.1,0c0,0,0-0.1,0-0.1c0,0,0,0,0,0l0.2,0l0,0.3L75,64.8l0-0.2c0,0,0,0,0,0c0,0,0,0,0-0.1L75,64.1
			c0,0,0-0.1,0-0.1c0,0,0,0,0,0l0-0.2L75.6,63.7z"/>
		<path fill="#FFFFFF" d="M76.5,63.6l0.1,0.4l-0.2,0l0-0.1c0,0,0-0.1,0-0.1c0,0,0,0-0.1,0l0.1,0.6c0,0,0,0.1,0,0.1c0,0,0,0,0,0
			l0,0.2l-0.3,0l0-0.2c0,0,0,0,0,0s0,0,0-0.1L76,63.9c0,0-0.1,0-0.1,0c0,0,0,0,0,0.1l0,0.1l-0.2,0l-0.1-0.4L76.5,63.6z"/>
		<path fill="#FFFFFF" d="M77,63.5l0.2,0.7c0,0,0,0,0,0.1c0,0,0,0,0,0l0,0.2l-0.3,0l0-0.2c0,0,0,0,0-0.1c0,0,0,0,0,0l0,0l-0.1,0
			v-0.1l0.1,0l-0.1-0.2v-0.4L77,63.5L77,63.5z M76.9,64.6L76.9,64.6L76.9,64.6L76.9,64.6z M76.9,64.3L76.9,64.3L76.9,64.3
			C76.8,64.3,76.8,64.4,76.9,64.3c-0.1,0.1-0.1,0.1,0,0.1l0,0.2v0l-0.3,0l0-0.2c0,0,0,0,0,0c0,0,0,0,0-0.1l0.1-0.8l0.2,0v0.4l0-0.1
			l0,0.3l0.1,0V64.3z"/>
		<path fill="#FFFFFF" d="M78.1,63.4C78.1,63.4,78.2,63.4,78.1,63.4c0.1,0,0.1,0,0.2,0c0.1,0,0.1,0.1,0.1,0.2l0,0.3
			c0,0.1,0,0.1,0,0.1c0,0,0,0.1,0,0.1c0,0.1-0.1,0.1-0.2,0.2c0,0-0.1,0-0.2,0l0,0v-0.2l0,0c0.1,0,0.1,0,0.1,0c0,0,0-0.1,0-0.1l0-0.3
			c0-0.1,0-0.1,0-0.1c0,0,0,0-0.1,0V63.4z M77.8,64.2l-0.1-0.5c0,0,0-0.1,0-0.1c0,0,0,0,0,0l0-0.2l0.4,0c0,0,0,0,0.1,0v0.2
			c0,0,0,0-0.1,0l-0.1,0l0.1,0.6l0.1,0v0.2l-0.3,0l0-0.2C77.8,64.3,77.8,64.3,77.8,64.2C77.8,64.2,77.8,64.2,77.8,64.2z"/>
		<path fill="#FFFFFF" d="M79.2,63.2l0,0.3l-0.2,0c0,0,0,0,0,0c0,0,0-0.1,0-0.1c0,0,0,0-0.1,0l-0.1,0l0,0.2l0.3,0l0,0.2l-0.3,0
			l0,0.2l0.1,0c0,0,0.1,0,0.1,0c0,0,0-0.1,0-0.1c0,0,0,0,0,0l0.2,0l0,0.3l-0.7,0.1l0-0.2c0,0,0,0,0,0c0,0,0,0,0-0.1l-0.1-0.5
			c0,0,0-0.1,0-0.1c0,0,0,0,0,0l0-0.2L79.2,63.2z"/>
		<path fill="#FFFFFF" d="M80.4,63.1l0,0.3l-0.2,0c0,0,0,0,0,0c0,0,0-0.1,0-0.1c0,0,0,0-0.1,0l-0.1,0l0,0.2l0.3,0l0,0.2l-0.3,0
			l0,0.2l0.1,0c0,0,0.1,0,0.1,0c0,0,0-0.1,0-0.1c0,0,0,0,0,0l0.2,0l0,0.3l-0.7,0.1l0-0.2c0,0,0,0,0,0c0,0,0,0,0-0.1l-0.1-0.5
			c0,0,0-0.1,0-0.1c0,0,0,0,0,0l0-0.2L80.4,63.1z"/>
		<path fill="#FFFFFF" d="M81.1,63.5l0.1-0.5l0.4,0l0,0.2c0,0,0,0,0,0c0,0,0,0,0,0.1l0.1,0.5c0,0,0,0.1,0,0.1c0,0,0,0,0,0l0,0.2
			l-0.3,0l0-0.2c0,0,0,0,0,0c0,0,0,0,0-0.1l0-0.4L81.1,64L81,64l-0.2-0.6l0,0.4c0,0,0,0.1,0,0.1c0,0,0,0,0,0l0,0.2l-0.3,0l0-0.2
			c0,0,0,0,0,0c0,0,0,0,0-0.1l-0.1-0.5c0,0,0-0.1,0-0.1c0,0,0,0,0,0l0-0.2l0.4,0L81.1,63.5z"/>
		<path fill="#FFFFFF" d="M82.2,63.3c0.1,0,0.2,0.1,0.2,0.2c0,0.1,0,0.2-0.1,0.2c0,0-0.1,0.1-0.2,0.1l-0.1,0v-0.2l0.1,0
			c0,0,0.1,0,0.1,0c0,0,0-0.1,0-0.1c0,0,0-0.1,0-0.1c0,0-0.1,0-0.1,0l0,0v-0.2l0,0c0,0,0.1,0,0.1,0c0,0,0,0,0-0.1c0,0,0-0.1,0-0.1
			c0,0,0,0-0.1,0v-0.2c0.1,0,0.1,0,0.2,0c0,0,0.1,0,0.1,0.1c0,0,0.1,0.1,0.1,0.2c0,0,0,0.1,0,0.1C82.3,63.3,82.3,63.3,82.2,63.3
			C82.3,63.3,82.3,63.3,82.2,63.3z M82,63.9l-0.3,0l0-0.2c0,0,0,0,0,0c0,0,0,0,0-0.1l-0.1-0.5c0,0,0-0.1,0-0.1c0,0,0,0,0,0l0-0.2
			l0.4,0l0,0v0.2c0,0,0,0,0,0l-0.1,0l0,0.2l0.1,0v0.2l-0.1,0l0,0.2l0,0V63.9z"/>
		<path fill="#FFFFFF" d="M82.9,62.8l0.2,0.7c0,0,0,0,0,0.1c0,0,0,0,0,0l0,0.2l-0.3,0l0-0.2c0,0,0,0,0-0.1c0,0,0,0,0,0l0,0l-0.1,0
			v-0.1l0.1,0l-0.1-0.2v-0.4L82.9,62.8L82.9,62.8z M82.8,63.8L82.8,63.8L82.8,63.8L82.8,63.8z M82.8,63.5L82.8,63.5L82.8,63.5
			C82.7,63.6,82.7,63.6,82.8,63.5c-0.1,0.1-0.1,0.1,0,0.1l0,0.2v0l-0.3,0l0-0.2c0,0,0,0,0,0c0,0,0,0,0-0.1l0.1-0.8l0.2,0v0.4l0-0.1
			l0,0.3l0.1,0V63.5z"/>
		<path fill="#FFFFFF" d="M84.1,63.5l0,0.2l-0.3,0c0,0,0-0.1,0-0.1l0-0.1l0,0c0,0,0-0.1,0-0.1c0,0,0,0-0.1,0l0,0v-0.2l0,0
			c0,0,0.1,0,0.1,0c0,0,0-0.1,0-0.1c0,0,0-0.1,0-0.1c0,0,0,0-0.1,0v-0.2c0.1,0,0.2,0,0.2,0c0.1,0,0.1,0.1,0.1,0.2c0,0.1,0,0.1,0,0.2
			c0,0-0.1,0.1-0.1,0.1c0,0,0.1,0,0.1,0c0,0,0,0.1,0,0.1C84,63.3,84,63.3,84.1,63.5C84,63.4,84,63.4,84.1,63.5
			C84,63.4,84,63.4,84.1,63.5C84,63.4,84.1,63.5,84.1,63.5L84.1,63.5z M83.6,63.5C83.6,63.5,83.7,63.5,83.6,63.5l0,0.2l0,0V63.5z
			 M83.6,63.3L83.6,63.3l0,0.1c0,0,0,0.1,0,0.1c0,0,0,0,0,0v0.2l-0.3,0l0-0.2c0,0,0,0,0,0c0,0,0,0,0-0.1L83.3,63c0,0,0-0.1,0-0.1
			c0,0,0,0,0,0l0-0.2l0.4-0.1l0,0v0.2c0,0,0,0,0,0l-0.1,0l0,0.2l0.1,0V63.3z"/>
		<path fill="#FFFFFF" d="M84.9,63.5l-0.1,0.2c0,0-0.1,0-0.1,0c0,0-0.1,0-0.1,0c0,0-0.1,0-0.1,0c0,0,0,0-0.1,0v-0.2c0,0,0,0,0,0
			c0,0,0.1,0,0.1-0.1c0,0,0-0.1,0-0.1l0-0.4c0-0.1,0-0.1-0.1-0.1v-0.2c0.1,0,0.2,0,0.2,0.1c0,0,0,0,0,0.1c0,0,0,0.1,0,0.1l0.1,0.5
			c0,0,0,0.1,0,0.1C84.8,63.4,84.8,63.4,84.9,63.5C84.8,63.5,84.8,63.5,84.9,63.5C84.8,63.5,84.9,63.5,84.9,63.5z M84.5,63.6
			c-0.1,0-0.2,0-0.2-0.1c0,0-0.1-0.1-0.1-0.2l-0.1-0.5c0-0.1,0-0.1,0-0.2c0-0.1,0.1-0.1,0.3-0.2c0,0,0,0,0.1,0v0.2c0,0,0,0,0,0
			c-0.1,0-0.1,0.1-0.1,0.1l0,0.4c0,0,0,0.1,0,0.1c0,0,0,0,0.1,0V63.6z"/>
		<path fill="#FFFFFF" d="M85.6,62.7l0.1,0.4c0,0.1,0,0.1,0,0.1c0,0,0,0.1,0,0.1c0,0,0,0.1-0.1,0.1c0,0-0.1,0.1-0.2,0.1
			c-0.1,0-0.2,0-0.3-0.1c0,0-0.1-0.1-0.1-0.2l0-0.1l-0.1-0.4c0,0,0-0.1,0-0.1c0,0,0,0,0,0l0-0.2l0.3,0l0,0.2c0,0,0,0,0,0
			c0,0,0,0,0,0.1l0.1,0.4c0,0,0,0.1,0,0.1c0,0,0.1,0,0.1,0c0,0,0.1,0,0.1,0c0,0,0-0.1,0-0.1l-0.1-0.4c0,0,0-0.1,0-0.1c0,0,0,0,0,0
			l0-0.2l0.3,0l0,0.2C85.6,62.6,85.6,62.6,85.6,62.7C85.6,62.6,85.6,62.6,85.6,62.7z"/>
		<path fill="#FFFFFF" d="M86.4,62.3l0,0.3l-0.2,0c0,0,0,0,0,0c0,0,0-0.1,0-0.1c0,0,0,0-0.1,0l-0.1,0l0,0.2l0.3,0l0,0.2l-0.3,0
			l0,0.2l0.1,0c0,0,0.1,0,0.1,0c0,0,0-0.1,0-0.1c0,0,0,0,0,0l0.2,0l0,0.3l-0.7,0.1l0-0.2c0,0,0,0,0,0c0,0,0,0,0-0.1l-0.1-0.5
			c0,0,0-0.1,0-0.1c0,0,0,0,0,0l0-0.2L86.4,62.3z"/>
		<path fill="#13393B" d="M101.7,73.5l-0.5-0.8l0.1,0.4c0,0.1,0,0.1,0,0.1c0,0,0,0,0.1,0l0,0.3l-0.5,0.1l0-0.3c0,0,0.1,0,0.1-0.1
			c0,0,0-0.1,0-0.1l-0.1-0.8c0-0.1,0-0.1,0-0.1c0,0,0,0-0.1,0l0-0.3l0.4-0.1l0.5,0.8l-0.1-0.4c0-0.1,0-0.1,0-0.1c0,0,0,0-0.1,0
			l0-0.3l0.5-0.1l0,0.3c0,0-0.1,0-0.1,0.1c0,0,0,0.1,0,0.1l0.2,1.2L101.7,73.5z"/>
		<path fill="#13393B" d="M102.9,71.7l0.4,1.2c0,0,0,0.1,0,0.1c0,0,0,0,0.1,0l0,0.3l-0.6,0.1l0-0.3c0.1,0,0.1,0,0.1-0.1
			c0,0,0,0,0-0.1l0-0.1l-0.2,0v-0.2l0.1,0l-0.1-0.3v-0.6L102.9,71.7L102.9,71.7z M102.7,73.4L102.7,73.4L102.7,73.4L102.7,73.4z
			 M102.7,72.9l-0.1,0l0,0.1c0,0,0,0,0,0c0,0.1,0,0.1,0.1,0.1l0,0.3v0l-0.5,0.1l0-0.3c0,0,0,0,0.1-0.1c0,0,0-0.1,0-0.1l0.1-1.3
			l0.4,0v0.6l-0.1-0.2l0,0.6l0.1,0V72.9z"/>
		<path fill="#13393B" d="M104.3,72.3l0.1-0.8l0.6-0.1l0,0.3c0,0-0.1,0-0.1,0.1c0,0,0,0.1,0,0.1l0.1,0.8c0,0.1,0,0.1,0,0.1
			c0,0,0,0,0.1,0l0,0.3l-0.6,0.1l0-0.3c0,0,0.1,0,0.1-0.1c0,0,0-0.1,0-0.1l-0.1-0.7l-0.2,1.1l-0.2,0l-0.4-1l0.1,0.6
			c0,0.1,0,0.1,0,0.1c0,0,0,0,0.1,0l0,0.3l-0.5,0.1l0-0.3c0,0,0.1,0,0.1-0.1c0,0,0-0.1,0-0.1l-0.1-0.8c0-0.1,0-0.1,0-0.1
			c0,0,0,0-0.1,0l0-0.3l0.6-0.1L104.3,72.3z"/>
		<path fill="#13393B" d="M106.3,71.2l0.1,0.5l-0.4,0c0,0,0,0,0,0c0-0.1,0-0.1-0.1-0.1c0,0-0.1,0-0.1,0l-0.2,0l0,0.3l0.5-0.1l0,0.3
			l-0.5,0.1l0,0.4l0.2,0c0.1,0,0.1,0,0.2-0.1c0,0,0-0.1,0-0.2c0,0,0,0,0,0l0.4,0l0.1,0.6l-1.2,0.1l0-0.3c0,0,0.1,0,0.1-0.1
			c0,0,0-0.1,0-0.1l-0.1-0.8c0-0.1,0-0.1,0-0.1c0,0,0,0-0.1,0l0-0.3L106.3,71.2z"/>
		<path fill="#13393B" d="M102.4,77.1l0,0.4l-0.4,0c0,0,0,0,0-0.1c0-0.1,0-0.1-0.1-0.1c0,0-0.1,0-0.2,0c-0.1,0-0.1,0-0.1,0.1
			c0,0,0,0.1,0,0.1c0,0,0,0.1,0.1,0.1c0,0,0.1,0,0.3,0.1c0.1,0,0.2,0.1,0.3,0.1c0.1,0.1,0.1,0.2,0.1,0.3c0,0.1,0,0.3-0.1,0.4
			c-0.1,0.1-0.2,0.2-0.4,0.2c-0.2,0-0.4,0-0.6-0.1l-0.1-0.4l0.4,0c0,0,0,0,0,0.1c0,0.1,0.1,0.2,0.2,0.2c0.1,0,0.1,0,0.1-0.1
			c0,0,0-0.1,0-0.1c0-0.1,0-0.1-0.1-0.1c0,0-0.1-0.1-0.2-0.1c-0.1,0-0.2-0.1-0.2-0.1c0,0-0.1,0-0.1-0.1c-0.1-0.1-0.1-0.2-0.2-0.3
			c0-0.2,0-0.3,0.2-0.4c0.1-0.1,0.2-0.1,0.3-0.1C102,77,102.2,77,102.4,77.1z"/>
		<path fill="#13393B" d="M103.7,76.8l0.1,0.5l-0.4,0c0,0,0,0,0,0c0-0.1,0-0.1-0.1-0.1c0,0-0.1,0-0.1,0l-0.2,0l0,0.3l0.5-0.1l0,0.3
			l-0.5,0.1l0,0.4l0.2,0c0.1,0,0.1,0,0.2-0.1c0,0,0-0.1,0-0.2c0,0,0,0,0,0l0.4,0l0.1,0.6l-1.2,0.1l0-0.3c0,0,0.1,0,0.1-0.1
			c0,0,0-0.1,0-0.1l-0.1-0.8c0-0.1,0-0.1,0-0.1c0,0,0,0-0.1,0l0-0.3L103.7,76.8z"/>
		<path fill="#13393B" d="M104.8,76.6l0.4,1.2c0,0,0,0.1,0,0.1c0,0,0,0,0.1,0l0,0.3l-0.6,0.1l0-0.3c0.1,0,0.1,0,0.1-0.1
			c0,0,0,0,0-0.1l0-0.1l-0.2,0v-0.2l0.1,0l-0.1-0.3v-0.6L104.8,76.6L104.8,76.6z M104.6,78.3L104.6,78.3L104.6,78.3L104.6,78.3z
			 M104.6,77.9l-0.1,0l0,0.1c0,0,0,0,0,0c0,0.1,0,0.1,0.1,0.1l0,0.3v0l-0.5,0.1l0-0.3c0,0,0,0,0.1-0.1c0,0,0-0.1,0-0.1l0.1-1.3
			l0.4,0v0.6l-0.1-0.2l0,0.6l0.1,0V77.9z"/>
		<path fill="#13393B" d="M106.4,76.4l0.1,0.7l-0.3,0l0-0.2c0-0.1,0-0.1-0.1-0.1c0,0-0.1,0-0.1,0l0.1,0.9c0,0.1,0,0.1,0,0.1
			c0,0,0,0,0.1,0l0,0.3l-0.6,0.1l0-0.3c0,0,0.1,0,0.1-0.1c0,0,0-0.1,0-0.1l-0.1-0.9c-0.1,0-0.1,0-0.1,0.1c0,0,0,0.1,0,0.1l0,0.2
			l-0.3,0l-0.1-0.7L106.4,76.4z"/>
		<path fill="#13393B" d="M103.1,82.1l0.1,0.5l-0.3,0c0,0,0,0,0,0c0-0.1,0-0.1-0.1-0.1c0,0-0.1,0-0.1,0l-0.2,0l0,0.3l0.4-0.1l0,0.3
			l-0.4,0.1l0,0.3c0,0.1,0,0.1,0,0.1c0,0,0,0,0.1,0l0,0.3l-0.6,0.1l0-0.3c0,0,0.1,0,0.1-0.1c0,0,0-0.1,0-0.1l-0.1-0.8
			c0-0.1,0-0.1,0-0.1c0,0,0,0,0,0l0,0c0,0,0,0,0,0l0-0.3L103.1,82.1z"/>
		<path fill="#13393B" d="M104.6,83.3l0,0.3l-0.4,0.1c0-0.1,0-0.1-0.1-0.2l0-0.2l0-0.1c0-0.1,0-0.1-0.1-0.1c0,0-0.1,0-0.1,0l0,0
			v-0.3l0,0c0.1,0,0.1,0,0.1,0c0,0,0.1-0.1,0-0.2c0-0.1,0-0.1-0.1-0.1c0,0-0.1,0-0.1,0V82c0.1,0,0.3,0,0.3,0
			c0.1,0.1,0.2,0.2,0.2,0.4c0,0.1,0,0.2,0,0.3c0,0.1-0.1,0.1-0.2,0.2c0.1,0,0.1,0,0.2,0.1c0,0,0.1,0.1,0.1,0.2c0,0,0,0,0,0.1
			c0,0,0,0,0,0C104.6,83.2,104.6,83.2,104.6,83.3C104.6,83.3,104.6,83.3,104.6,83.3L104.6,83.3z M103.9,83.4
			C103.9,83.4,104,83.4,103.9,83.4l0.1,0.3l-0.1,0V83.4z M103.9,83l-0.1,0l0,0.2c0,0.1,0,0.1,0,0.1c0,0,0,0,0,0v0.3l-0.5,0.1l0-0.3
			c0,0,0.1,0,0.1-0.1c0,0,0-0.1,0-0.1l-0.1-0.8c0-0.1,0-0.1,0-0.1c0,0,0,0-0.1,0l0-0.3l0.7-0.1l0,0v0.3c0,0,0,0-0.1,0l-0.1,0l0,0.4
			l0.1,0V83z"/>
		<path fill="#13393B" d="M105.8,82.1l0.1,0.8c0,0.1,0,0.1,0,0.2c0,0.1-0.1,0.2-0.2,0.2c-0.1,0.1-0.2,0.1-0.4,0.1c0,0-0.1,0-0.1,0
			v-0.3c0,0,0,0,0.1,0c0.1,0,0.2-0.1,0.2-0.2l-0.1-0.6c0-0.1,0-0.1,0-0.1c0,0-0.1-0.1-0.1-0.1v-0.3c0.2,0,0.3,0,0.4,0.1
			C105.8,81.9,105.8,82,105.8,82.1z M105.3,83.5c-0.2,0-0.3,0-0.4-0.1c0,0-0.1-0.1-0.1-0.2l-0.1-0.9c0-0.3,0.1-0.5,0.5-0.5
			c0,0,0.1,0,0.1,0v0.3c0,0,0,0-0.1,0c-0.1,0-0.2,0.1-0.2,0.2l0.1,0.6c0,0.1,0,0.1,0.1,0.2c0,0,0.1,0,0.1,0V83.5z"/>
		<path fill="#13393B" d="M106.8,82.4l0.1-0.8l0.6-0.1l0,0.3c0,0-0.1,0-0.1,0.1c0,0,0,0.1,0,0.1l0.1,0.8c0,0.1,0,0.1,0,0.1
			c0,0,0,0,0.1,0l0,0.3l-0.6,0.1l0-0.3c0,0,0.1,0,0.1-0.1c0,0,0-0.1,0-0.1l-0.1-0.7l-0.2,1.1l-0.2,0l-0.4-1l0.1,0.6
			c0,0.1,0,0.1,0,0.1c0,0,0,0,0.1,0l0,0.3l-0.5,0.1l0-0.3c0,0,0.1,0,0.1-0.1c0,0,0-0.1,0-0.1l-0.1-0.8c0-0.1,0-0.1,0-0.1
			c0,0,0,0-0.1,0l0-0.3l0.6-0.1L106.8,82.4z"/>
		<path fill="#13393B" d="M103.9,87.2l0.1,0.7l-0.3,0l0-0.2c0-0.1,0-0.1-0.1-0.1c0,0-0.1,0-0.1,0l0.1,0.9c0,0.1,0,0.1,0,0.1
			c0,0,0,0,0.1,0l0,0.3l-0.6,0.1l0-0.3c0,0,0.1,0,0.1-0.1c0,0,0-0.1,0-0.1l-0.1-0.9c-0.1,0-0.1,0-0.1,0.1c0,0,0,0.1,0,0.1l0,0.2
			l-0.3,0l-0.1-0.7L103.9,87.2z"/>
		<path fill="#13393B" d="M105.2,87.4l0.1,0.8c0,0.1,0,0.1,0,0.2c0,0.1-0.1,0.2-0.2,0.2c-0.1,0.1-0.2,0.1-0.4,0.1c0,0-0.1,0-0.1,0
			v-0.3c0,0,0,0,0.1,0c0.1,0,0.2-0.1,0.2-0.2l-0.1-0.6c0-0.1,0-0.1,0-0.1c0,0-0.1-0.1-0.1-0.1v-0.3c0.2,0,0.3,0,0.4,0.1
			C105.1,87.2,105.2,87.3,105.2,87.4z M104.7,88.8c-0.2,0-0.3,0-0.4-0.1c0,0-0.1-0.1-0.1-0.2l-0.1-0.9c0-0.3,0.1-0.5,0.5-0.5
			c0,0,0.1,0,0.1,0v0.3c0,0,0,0-0.1,0c-0.1,0-0.2,0.1-0.2,0.2l0.1,0.6c0,0.1,0,0.1,0.1,0.2c0,0,0.1,0,0.1,0V88.8z"/>
		<path fill="#13393B" d="M104.5,92.3l0.1,0.5l-0.3,0c0,0,0,0,0,0c0-0.1,0-0.1-0.1-0.1c0,0-0.1,0-0.1,0l-0.2,0l0,0.3l0.4-0.1l0,0.3
			l-0.4,0.1l0,0.3c0,0.1,0,0.1,0,0.1c0,0,0,0,0.1,0l0,0.3l-0.6,0.1l0-0.3c0,0,0.1,0,0.1-0.1c0,0,0-0.1,0-0.1l-0.1-0.8
			c0-0.1,0-0.1,0-0.1c0,0,0,0,0,0l0,0c0,0,0,0,0,0l0-0.3L104.5,92.3z"/>
		<path fill="#13393B" d="M105.8,93.1l0.1,0.7l-1.1,0.1l0-0.3c0,0,0.1,0,0.1-0.1c0,0,0-0.1,0-0.1l-0.1-0.8c0-0.1,0-0.1,0-0.1
			c0,0,0,0-0.1,0l0-0.3l0.6-0.1l0,0.3c0,0-0.1,0-0.1,0.1c0,0,0,0.1,0,0.1l0.1,0.9l0.1,0l0,0c0.1,0,0.1,0,0.2,0c0,0,0-0.1,0-0.1
			l0-0.3L105.8,93.1z"/>
		<path fill="#13393B" d="M106.1,93.4l-0.1-0.8c0-0.1,0-0.1,0-0.1c0,0,0,0-0.1,0l0-0.3l0.6-0.1l0,0.3c0,0-0.1,0-0.1,0.1
			c0,0,0,0.1,0,0.1l0.1,0.8c0,0.1,0,0.1,0,0.1c0,0,0,0,0.1,0l0,0.3l-0.6,0.1l0-0.3c0,0,0.1,0,0.1-0.1
			C106.1,93.5,106.1,93.4,106.1,93.4z"/>
		<path fill="#13393B" d="M107.7,92l0.1,0.4l-0.4,0c0,0,0,0,0,0c0-0.1-0.1-0.2-0.2-0.2c-0.1,0-0.1,0-0.1,0.1c0,0,0,0.1,0,0.2
			l0.1,0.6c0,0.1,0,0.1,0,0.1c0,0,0,0,0.1,0.1c0,0,0.1,0,0.1,0c0.1,0,0.2-0.1,0.1-0.2l0-0.1l-0.1,0l0-0.3l0.5-0.1l0.1,0.8
			c-0.1,0.1-0.3,0.2-0.5,0.2c-0.2,0-0.3,0-0.4-0.1c0,0-0.1-0.1-0.1-0.1c0,0,0-0.1,0-0.2l-0.1-0.8c0-0.1,0-0.1,0-0.2
			c0,0,0-0.1,0.1-0.1c0.1-0.1,0.2-0.2,0.5-0.2C107.4,91.9,107.6,91.9,107.7,92z"/>
		<path fill="#13393B" d="M108.5,92.5l0.4,0l0-0.2c0-0.1,0-0.1,0-0.1c0,0,0,0-0.1,0l0-0.3l0.6-0.1l0,0.3c0,0-0.1,0-0.1,0.1
			c0,0,0,0.1,0,0.1l0.1,0.8c0,0.1,0,0.1,0,0.1c0,0,0,0,0.1,0l0,0.3l-0.6,0.1l0-0.3c0,0,0.1,0,0.1-0.1c0,0,0-0.1,0-0.1l0-0.3l-0.4,0
			l0,0.3c0,0.1,0,0.1,0,0.1c0,0,0,0,0.1,0l0,0.3l-0.6,0.1l0-0.3c0,0,0.1,0,0.1-0.1c0,0,0-0.1,0-0.1l-0.1-0.8c0-0.1,0-0.1,0-0.1
			c0,0,0,0-0.1,0l0-0.3l0.6-0.1l0,0.3c0,0-0.1,0-0.1,0.1c0,0,0,0.1,0,0.1L108.5,92.5z"/>
		<path fill="#13393B" d="M110.6,91.5l0.1,0.7l-0.3,0l0-0.2c0-0.1,0-0.1,0-0.1c0,0-0.1,0-0.1,0l0.1,0.9c0,0.1,0,0.1,0,0.1
			c0,0,0,0,0.1,0l0,0.3l-0.6,0.1l0-0.3c0,0,0.1,0,0.1-0.1c0,0,0-0.1,0-0.1l-0.1-0.9c-0.1,0-0.1,0-0.1,0.1c0,0,0,0.1,0,0.1l0,0.2
			l-0.3,0l-0.1-0.7L110.6,91.5z"/>
		<polygon fill="#13393B" points="111.6,91.4 111.2,93.6 110.9,93.6 111.3,91.4 		"/>
		<path fill="#13393B" d="M112.5,91.3c0.1,0,0.1,0,0.1,0c0.1,0,0.1,0,0.2,0c0.1,0.1,0.2,0.2,0.2,0.4l0.1,0.6c0,0.1,0,0.2,0,0.2
			c0,0.1,0,0.1,0,0.1c-0.1,0.1-0.2,0.2-0.3,0.3c0,0-0.1,0-0.3,0l0,0v-0.3l0,0c0.1,0,0.1,0,0.2-0.1c0,0,0-0.1,0-0.2l-0.1-0.6
			c0-0.1,0-0.1-0.1-0.2c0,0,0,0-0.1,0V91.3z M112,92.6l-0.1-0.8c0-0.1,0-0.1,0-0.1s0,0-0.1,0l0-0.3l0.6-0.1c0,0,0.1,0,0.1,0v0.3
			c0,0-0.1,0-0.1,0l-0.1,0l0.1,1l0.1,0V93L112,93l0-0.3c0,0,0.1,0,0.1-0.1C112,92.7,112,92.6,112,92.6z"/>
		<path fill="#13393B" d="M114,91.1l0.4,1.2c0,0,0,0.1,0,0.1c0,0,0,0,0.1,0l0,0.3l-0.6,0.1l0-0.3c0.1,0,0.1,0,0.1-0.1c0,0,0,0,0-0.1
			l0-0.1l-0.2,0v-0.2l0.1,0l-0.1-0.3v-0.6L114,91.1L114,91.1z M113.8,92.8L113.8,92.8L113.8,92.8L113.8,92.8z M113.8,92.3l-0.1,0
			l0,0.1c0,0,0,0,0,0c0,0.1,0,0.1,0.1,0.1l0,0.3v0l-0.5,0.1l0-0.3c0,0,0,0,0.1-0.1c0,0,0-0.1,0-0.1l0.1-1.3l0.4,0v0.6l-0.1-0.2
			l0,0.6l0.1,0V92.3z"/>
		<path fill="#13393B" d="M115.6,90.9l0.1,0.7l-0.3,0l0-0.2c0-0.1,0-0.1-0.1-0.1c0,0-0.1,0-0.1,0l0.1,0.9c0,0.1,0,0.1,0,0.1
			c0,0,0,0,0.1,0l0,0.3l-0.6,0.1l0-0.3c0,0,0.1,0,0.1-0.1c0,0,0-0.1,0-0.1l-0.1-0.9c-0.1,0-0.1,0-0.1,0.1c0,0,0,0.1,0,0.1l0,0.2
			l-0.3,0l-0.1-0.7L115.6,90.9z"/>
		<path fill="#13393B" d="M116.9,90.7l0.1,0.5l-0.4,0c0,0,0,0,0,0c0-0.1,0-0.1-0.1-0.1c0,0-0.1,0-0.1,0l-0.2,0l0,0.3l0.5-0.1l0,0.3
			l-0.5,0.1l0,0.4l0.2,0c0.1,0,0.1,0,0.2-0.1c0,0,0-0.1,0-0.2c0,0,0,0,0,0l0.4,0l0.1,0.6l-1.2,0.1l0-0.3c0,0,0.1,0,0.1-0.1
			c0,0,0-0.1,0-0.1l-0.1-0.8c0-0.1,0-0.1,0-0.1c0,0,0,0-0.1,0l0-0.3L116.9,90.7z"/>
		<polygon fill="#13393B" points="118,90.5 117.5,92.7 117.3,92.8 117.7,90.6 		"/>
		<path fill="#13393B" d="M119.4,90.4l0.1,0.7l-0.3,0l0-0.2c0-0.1,0-0.1-0.1-0.1c0,0-0.1,0-0.1,0l0.1,0.9c0,0.1,0,0.1,0,0.1
			c0,0,0,0,0.1,0l0,0.3l-0.6,0.1l0-0.3c0,0,0.1,0,0.1-0.1c0,0,0-0.1,0-0.1l-0.1-0.9c-0.1,0-0.1,0-0.1,0.1c0,0,0,0.1,0,0.1l0,0.2
			l-0.3,0l-0.1-0.7L119.4,90.4z"/>
		<path fill="#13393B" d="M119.7,91.6l-0.1-0.8c0-0.1,0-0.1,0-0.1c0,0,0,0-0.1,0l0-0.3l0.6-0.1l0,0.3c0,0-0.1,0-0.1,0.1
			c0,0,0,0.1,0,0.1l0.1,0.8c0,0.1,0,0.1,0,0.1c0,0,0,0,0.1,0l0,0.3l-0.6,0.1l0-0.3c0,0,0.1,0,0.1-0.1
			C119.7,91.7,119.7,91.6,119.7,91.6z"/>
		<path fill="#13393B" d="M121.2,90.9l0.1-0.8l0.6-0.1l0,0.3c0,0-0.1,0-0.1,0.1c0,0,0,0.1,0,0.1l0.1,0.8c0,0.1,0,0.1,0,0.1
			c0,0,0,0,0.1,0l0,0.3l-0.6,0.1l0-0.3c0,0,0.1,0,0.1-0.1c0,0,0-0.1,0-0.1l-0.1-0.7l-0.2,1.1l-0.2,0l-0.4-1l0.1,0.6
			c0,0.1,0,0.1,0,0.1c0,0,0,0,0.1,0l0,0.3l-0.5,0.1l0-0.3c0,0,0.1,0,0.1-0.1c0,0,0-0.1,0-0.1l-0.1-0.8c0-0.1,0-0.1,0-0.1
			c0,0,0,0-0.1,0l0-0.3l0.6-0.1L121.2,90.9z"/>
		<path fill="#13393B" d="M123.2,89.9l0.1,0.5l-0.4,0c0,0,0,0,0,0c0-0.1,0-0.1-0.1-0.1c0,0-0.1,0-0.1,0l-0.2,0l0,0.3l0.5-0.1l0,0.3
			l-0.5,0.1l0,0.4l0.2,0c0.1,0,0.1,0,0.2-0.1c0,0,0-0.1,0-0.2c0,0,0,0,0,0l0.4,0l0.1,0.6l-1.2,0.1l0-0.3c0,0,0.1,0,0.1-0.1
			c0,0,0-0.1,0-0.1l-0.1-0.8c0-0.1,0-0.1,0-0.1c0,0,0,0-0.1,0l0-0.3L123.2,89.9z"/>
		<g>
			
				<rect x="88.7" y="99.8" transform="matrix(-0.9913 0.1313 -0.1313 -0.9913 199.3812 186.8411)" fill-rule="evenodd" clip-rule="evenodd" fill="#13393B" width="9.6" height="0.4"/>
			
				<rect x="88.6" y="98.7" transform="matrix(-0.9913 0.1313 -0.1313 -0.9913 199.0267 185.0709)" fill-rule="evenodd" clip-rule="evenodd" fill="#13393B" width="9.6" height="0.7"/>
			
				<rect x="88.5" y="98" transform="matrix(-0.9913 0.1314 -0.1314 -0.9913 198.6743 183.2995)" fill-rule="evenodd" clip-rule="evenodd" fill="#13393B" width="9.6" height="0.3"/>
			
				<rect x="88.3" y="96.9" transform="matrix(-0.9913 0.1313 -0.1313 -0.9913 198.317 181.5342)" fill-rule="evenodd" clip-rule="evenodd" fill="#13393B" width="9.6" height="0.7"/>
			
				<rect x="88.2" y="96.2" transform="matrix(-0.9913 0.1313 -0.1313 -0.9913 197.9632 179.7644)" fill-rule="evenodd" clip-rule="evenodd" fill="#13393B" width="9.6" height="0.3"/>
			
				<rect x="88.1" y="95.1" transform="matrix(-0.9913 0.1313 -0.1313 -0.9913 197.6101 177.9939)" fill-rule="evenodd" clip-rule="evenodd" fill="#13393B" width="9.6" height="0.7"/>
			
				<rect x="88" y="94.1" transform="matrix(-0.9913 0.1313 -0.1313 -0.9913 197.1791 175.841)" fill-rule="evenodd" clip-rule="evenodd" fill="#13393B" width="9.6" height="0.7"/>
			
				<rect x="87.8" y="93.4" transform="matrix(-0.9913 0.1314 -0.1314 -0.9913 196.8257 174.0705)" fill-rule="evenodd" clip-rule="evenodd" fill="#13393B" width="9.6" height="0.3"/>
			
				<rect x="87.7" y="92.3" transform="matrix(-0.9913 0.1313 -0.1313 -0.9913 196.4693 172.3042)" fill-rule="evenodd" clip-rule="evenodd" fill="#13393B" width="9.6" height="0.7"/>
			
				<rect x="87.6" y="91.6" transform="matrix(-0.9913 0.1313 -0.1313 -0.9913 196.1156 170.5342)" fill-rule="evenodd" clip-rule="evenodd" fill="#13393B" width="9.6" height="0.3"/>
			
				<rect x="87.5" y="90.9" transform="matrix(-0.9913 0.1313 -0.1313 -0.9913 195.8382 169.1488)" fill-rule="evenodd" clip-rule="evenodd" fill="#13393B" width="9.6" height="0.3"/>
			
				<rect x="87.4" y="90.2" transform="matrix(-0.9913 0.1313 -0.1313 -0.9913 195.5616 167.7625)" fill-rule="evenodd" clip-rule="evenodd" fill="#13393B" width="9.6" height="0.3"/>
			
				<rect x="87.3" y="88.5" transform="matrix(-0.9913 0.1313 -0.1313 -0.9913 195.0928 165.424)" fill-rule="evenodd" clip-rule="evenodd" fill="#13393B" width="9.6" height="1.3"/>
			
				<rect x="87.1" y="87.8" transform="matrix(-0.9913 0.1313 -0.1313 -0.9913 194.6251 163.0834)" fill-rule="evenodd" clip-rule="evenodd" fill="#13393B" width="9.6" height="0.3"/>
			
				<rect x="87" y="87.1" transform="matrix(-0.9913 0.1313 -0.1313 -0.9913 194.3471 161.6987)" fill-rule="evenodd" clip-rule="evenodd" fill="#13393B" width="9.6" height="0.3"/>
			
				<rect x="86.9" y="86.4" transform="matrix(-0.9913 0.1313 -0.1313 -0.9913 194.0703 160.313)" fill-rule="evenodd" clip-rule="evenodd" fill="#13393B" width="9.6" height="0.3"/>
			
				<rect x="86.8" y="85.7" transform="matrix(-0.9913 0.1313 -0.1313 -0.9913 193.793 158.9267)" fill-rule="evenodd" clip-rule="evenodd" fill="#13393B" width="9.6" height="0.4"/>
			
				<rect x="86.7" y="84.6" transform="matrix(-0.9913 0.1313 -0.1313 -0.9913 193.4367 157.1585)" fill-rule="evenodd" clip-rule="evenodd" fill="#13393B" width="9.6" height="0.7"/>
			
				<rect x="86.6" y="83.9" transform="matrix(-0.9913 0.1313 -0.1313 -0.9913 193.0835 155.388)" fill-rule="evenodd" clip-rule="evenodd" fill="#13393B" width="9.6" height="0.3"/>
			
				<rect x="86.5" y="82.8" transform="matrix(-0.9913 0.1313 -0.1313 -0.9913 192.7294 153.6189)" fill-rule="evenodd" clip-rule="evenodd" fill="#13393B" width="9.6" height="0.7"/>
			
				<rect x="86.4" y="82.1" transform="matrix(-0.9913 0.1313 -0.1313 -0.9913 192.375 151.8498)" fill-rule="evenodd" clip-rule="evenodd" fill="#13393B" width="9.6" height="0.3"/>
			
				<rect x="86.2" y="81" transform="matrix(-0.9913 0.1314 -0.1314 -0.9913 192.0222 150.0785)" fill-rule="evenodd" clip-rule="evenodd" fill="#13393B" width="9.6" height="0.7"/>
			
				<rect x="86.1" y="79.9" transform="matrix(-0.9913 0.1314 -0.1314 -0.9913 191.5913 147.9252)" fill-rule="evenodd" clip-rule="evenodd" fill="#13393B" width="9.6" height="0.7"/>
			
				<rect x="86" y="79.2" transform="matrix(-0.9913 0.1313 -0.1313 -0.9913 191.2359 146.1579)" fill-rule="evenodd" clip-rule="evenodd" fill="#13393B" width="9.6" height="0.3"/>
			
				<rect x="85.9" y="78.1" transform="matrix(-0.9913 0.1313 -0.1313 -0.9913 190.8817 144.3887)" fill-rule="evenodd" clip-rule="evenodd" fill="#13393B" width="9.6" height="0.7"/>
			
				<rect x="85.7" y="77.4" transform="matrix(-0.9913 0.1313 -0.1313 -0.9913 190.5273 142.6194)" fill-rule="evenodd" clip-rule="evenodd" fill="#13393B" width="9.6" height="0.3"/>
			
				<rect x="85.6" y="76.7" transform="matrix(-0.9913 0.1313 -0.1313 -0.9913 190.25 141.2344)" fill-rule="evenodd" clip-rule="evenodd" fill="#13393B" width="9.6" height="0.3"/>
			
				<rect x="85.6" y="76" transform="matrix(-0.9913 0.1313 -0.1313 -0.9913 189.9728 139.8491)" fill-rule="evenodd" clip-rule="evenodd" fill="#13393B" width="9.6" height="0.3"/>
			
				<rect x="85.4" y="74.3" transform="matrix(-0.9913 0.1313 -0.1313 -0.9913 189.5036 137.5105)" fill-rule="evenodd" clip-rule="evenodd" fill="#13393B" width="9.6" height="1.3"/>
			
				<rect x="85.2" y="73.6" transform="matrix(-0.9913 0.1314 -0.1314 -0.9913 189.0378 135.1668)" fill-rule="evenodd" clip-rule="evenodd" fill="#13393B" width="9.6" height="0.3"/>
			
				<rect x="85.1" y="72.9" transform="matrix(-0.9913 0.1313 -0.1313 -0.9913 188.7585 133.7846)" fill-rule="evenodd" clip-rule="evenodd" fill="#13393B" width="9.6" height="0.3"/>
			
				<rect x="85.1" y="72.2" transform="matrix(-0.9913 0.1313 -0.1313 -0.9913 188.4813 132.3992)" fill-rule="evenodd" clip-rule="evenodd" fill="#13393B" width="9.6" height="0.3"/>
			
				<rect x="85" y="71.5" transform="matrix(-0.9913 0.1313 -0.1313 -0.9913 188.2031 131.0139)" fill-rule="evenodd" clip-rule="evenodd" fill="#13393B" width="9.6" height="0.4"/>
			
				<rect x="84.8" y="70.4" transform="matrix(-0.9913 0.1313 -0.1313 -0.9913 187.8496 129.2424)" fill-rule="evenodd" clip-rule="evenodd" fill="#13393B" width="9.6" height="0.7"/>
			
				<rect x="84.7" y="69.7" transform="matrix(-0.9913 0.1314 -0.1314 -0.9913 187.4965 127.4715)" fill-rule="evenodd" clip-rule="evenodd" fill="#13393B" width="9.6" height="0.3"/>
			
				<rect x="84.6" y="68.7" transform="matrix(-0.9913 0.1313 -0.1313 -0.9913 187.1405 125.7052)" fill-rule="evenodd" clip-rule="evenodd" fill="#13393B" width="9.6" height="0.7"/>
			
				<rect x="84.5" y="68" transform="matrix(-0.9913 0.1313 -0.1313 -0.9913 186.787 123.9351)" fill-rule="evenodd" clip-rule="evenodd" fill="#13393B" width="9.6" height="0.3"/>
			
				<rect x="84.4" y="66.9" transform="matrix(-0.9913 0.1313 -0.1313 -0.9913 186.4325 122.1659)" fill-rule="evenodd" clip-rule="evenodd" fill="#13393B" width="9.6" height="0.7"/>
		</g>
		
			<rect x="54.9" y="75.4" transform="matrix(-0.9913 0.1313 -0.1313 -0.9913 147.4116 144.2912)" fill-rule="evenodd" clip-rule="evenodd" fill="#A2DDE0" width="28" height="3.1"/>
		
			<rect x="19.1" y="85.7" transform="matrix(-0.9913 0.1313 -0.1313 -0.9913 72.5188 169.8117)" fill-rule="evenodd" clip-rule="evenodd" fill="#A2DDE0" width="23.1" height="3.1"/>
		
			<rect x="18.3" y="91.6" transform="matrix(-0.9913 0.1313 -0.1313 -0.9913 63.6352 182.1173)" fill-rule="evenodd" clip-rule="evenodd" fill="#A2DDE0" width="15" height="3.1"/>
		
			<rect x="62.6" y="90.5" transform="matrix(-0.9913 0.1313 -0.1313 -0.9913 159.0003 173.5525)" fill-rule="evenodd" clip-rule="evenodd" fill="#A2DDE0" width="22.4" height="3.1"/>
		<path fill="#13393B" d="M10.8,84.9l0.1,0.6c-0.2,0.1-0.4,0.2-0.5,0.2c-0.1,0-0.2,0-0.3,0c-0.1,0-0.2-0.1-0.2-0.1
			c0,0-0.1-0.1-0.1-0.1c0,0,0-0.1,0-0.2l-0.1-0.8c0-0.1,0-0.1,0-0.2c0,0,0-0.1,0.1-0.1c0.1-0.1,0.2-0.2,0.4-0.2c0.2,0,0.4,0,0.6,0.1
			l0.1,0.5l-0.4,0l0,0c0-0.1-0.1-0.2-0.2-0.2c-0.1,0-0.1,0-0.1,0.1c0,0,0,0.1,0,0.2l0.1,0.6c0,0.1,0,0.1,0.1,0.2c0,0,0.1,0,0.1,0
			c0.1,0,0.1,0,0.1-0.1c0,0,0-0.1,0-0.2l0-0.1L10.8,84.9z"/>
		<path fill="#13393B" d="M12.2,84.6l0.1,0.7l-1.1,0.1l0-0.3c0,0,0.1,0,0.1-0.1c0,0,0-0.1,0-0.1l-0.1-0.8c0-0.1,0-0.1,0-0.1
			c0,0,0,0-0.1,0l0-0.3l0.6-0.1l0,0.3c0,0-0.1,0-0.1,0.1c0,0,0,0.1,0,0.1l0.1,0.9l0.1,0l0,0c0.1,0,0.1,0,0.2,0c0,0,0-0.1,0-0.1
			l0-0.3L12.2,84.6z"/>
		<path fill="#13393B" d="M13,83.6l0.4,1.2c0,0,0,0.1,0,0.1c0,0,0,0,0.1,0l0,0.3L13,85.3l0-0.3c0.1,0,0.1,0,0.1-0.1c0,0,0,0,0-0.1
			l0-0.1l-0.2,0v-0.2l0.1,0l-0.1-0.3v-0.6L13,83.6L13,83.6z M12.8,85.3L12.8,85.3L12.8,85.3L12.8,85.3z M12.8,84.8l-0.1,0l0,0.1
			c0,0,0,0,0,0c0,0.1,0,0.1,0.1,0.1l0,0.3v0l-0.5,0.1l0-0.3c0,0,0,0,0.1-0.1c0,0,0-0.1,0-0.1l0.1-1.3l0.4,0v0.6L12.7,84l0,0.6l0.1,0
			V84.8z"/>
		<path fill="#13393B" d="M14.6,83.5l0,0.4l-0.4,0c0,0,0,0,0-0.1c0-0.1,0-0.1-0.1-0.1c0,0-0.1,0-0.2,0c-0.1,0-0.1,0-0.1,0.1
			c0,0,0,0.1,0,0.1c0,0,0,0.1,0.1,0.1c0,0,0.1,0,0.3,0.1c0.1,0,0.2,0.1,0.3,0.1c0.1,0.1,0.1,0.2,0.1,0.3c0,0.1,0,0.3-0.1,0.4
			c-0.1,0.1-0.2,0.2-0.4,0.2c-0.2,0-0.4,0-0.6-0.1l-0.1-0.4l0.4,0c0,0,0,0,0,0.1c0,0.1,0.1,0.2,0.2,0.2c0.1,0,0.1,0,0.1-0.1
			c0,0,0-0.1,0-0.1c0-0.1,0-0.1-0.1-0.1c0,0-0.1-0.1-0.2-0.1c-0.1,0-0.2-0.1-0.2-0.1c0,0-0.1,0-0.1-0.1c-0.1-0.1-0.1-0.2-0.2-0.3
			c0-0.2,0-0.3,0.2-0.4c0.1-0.1,0.2-0.1,0.3-0.1C14.2,83.4,14.4,83.4,14.6,83.5z"/>
		<path fill="#13393B" d="M15.9,83.4l0,0.4l-0.4,0c0,0,0,0,0-0.1c0-0.1,0-0.1-0.1-0.1c0,0-0.1,0-0.2,0c-0.1,0-0.1,0-0.1,0.1
			c0,0,0,0.1,0,0.1c0,0,0,0.1,0.1,0.1c0,0,0.1,0,0.3,0.1c0.1,0,0.2,0.1,0.3,0.1c0.1,0.1,0.1,0.2,0.1,0.3c0,0.1,0,0.3-0.1,0.4
			c-0.1,0.1-0.2,0.2-0.4,0.2c-0.2,0-0.4,0-0.6-0.1l-0.1-0.4l0.4,0c0,0,0,0,0,0.1c0,0.1,0.1,0.2,0.2,0.2c0.1,0,0.1,0,0.1-0.1
			c0,0,0-0.1,0-0.1c0-0.1,0-0.1-0.1-0.1c0,0-0.1-0.1-0.2-0.1c-0.1,0-0.2-0.1-0.2-0.1c0,0-0.1,0-0.1-0.1c-0.1-0.1-0.1-0.2-0.2-0.3
			c0-0.2,0-0.3,0.2-0.4c0.1-0.1,0.2-0.1,0.3-0.1C15.5,83.2,15.7,83.3,15.9,83.4z"/>
		<path fill="#13393B" d="M11.5,89l0.1,0.5l-0.3,0c0,0,0,0,0,0c0-0.1,0-0.1-0.1-0.1c0,0-0.1,0-0.1,0l-0.2,0l0,0.3l0.4-0.1l0,0.3
			L10.9,90l0,0.3c0,0.1,0,0.1,0,0.1c0,0,0,0,0.1,0l0,0.3l-0.6,0.1l0-0.3c0,0,0.1,0,0.1-0.1c0,0,0-0.1,0-0.1l-0.1-0.8
			c0-0.1,0-0.1,0-0.1c0,0,0,0,0,0l0,0c0,0,0,0,0,0l0-0.3L11.5,89z"/>
		<path fill="#13393B" d="M12.8,89.8l0.1,0.7l-1.1,0.1l0-0.3c0,0,0.1,0,0.1-0.1c0,0,0-0.1,0-0.1l-0.1-0.8c0-0.1,0-0.1,0-0.1
			c0,0,0,0-0.1,0l0-0.3l0.6-0.1l0,0.3c0,0-0.1,0-0.1,0.1c0,0,0,0.1,0,0.1l0.1,0.9l0.1,0l0,0c0.1,0,0.1,0,0.2,0c0,0,0-0.1,0-0.1
			l0-0.3L12.8,89.8z"/>
		<path fill="#13393B" d="M13.1,90L13,89.2c0-0.1,0-0.1,0-0.1c0,0,0,0-0.1,0l0-0.3l0.6-0.1l0,0.3c0,0-0.1,0-0.1,0.1c0,0,0,0.1,0,0.1
			l0.1,0.8c0,0.1,0,0.1,0,0.1c0,0,0,0,0.1,0l0,0.3l-0.6,0.1l0-0.3c0,0,0.1,0,0.1-0.1C13.1,90.1,13.1,90.1,13.1,90z"/>
		<path fill="#13393B" d="M14.7,88.7l0.1,0.4l-0.4,0c0,0,0,0,0,0c0-0.1-0.1-0.2-0.2-0.2c-0.1,0-0.1,0-0.1,0.1c0,0,0,0.1,0,0.2
			l0.1,0.6c0,0.1,0,0.1,0,0.1c0,0,0,0,0.1,0.1c0,0,0.1,0,0.1,0c0.1,0,0.2-0.1,0.1-0.2l0-0.1l-0.1,0l0-0.3l0.5-0.1l0.1,0.8
			c-0.1,0.1-0.3,0.2-0.5,0.2c-0.2,0-0.3,0-0.4-0.1c0,0-0.1-0.1-0.1-0.1c0,0,0-0.1,0-0.2l-0.1-0.8c0-0.1,0-0.1,0-0.2
			c0,0,0-0.1,0.1-0.1c0.1-0.1,0.2-0.2,0.5-0.2C14.4,88.6,14.5,88.6,14.7,88.7z"/>
		<path fill="#13393B" d="M15.4,89.1l0.4,0l0-0.2c0-0.1,0-0.1,0-0.1c0,0,0,0-0.1,0l0-0.3l0.6-0.1l0,0.3c0,0-0.1,0-0.1,0.1
			c0,0,0,0.1,0,0.1l0.1,0.8c0,0.1,0,0.1,0,0.1c0,0,0,0,0.1,0l0,0.3l-0.6,0.1l0-0.3c0,0,0.1,0,0.1-0.1c0,0,0-0.1,0-0.1l0-0.3l-0.4,0
			l0,0.3c0,0.1,0,0.1,0,0.1c0,0,0,0,0.1,0l0,0.3l-0.6,0.1l0-0.3c0,0,0.1,0,0.1-0.1c0,0,0-0.1,0-0.1L15,89c0-0.1,0-0.1,0-0.1
			s0,0-0.1,0l0-0.3l0.6-0.1l0,0.3c0,0-0.1,0-0.1,0.1c0,0,0,0.1,0,0.1L15.4,89.1z"/>
		<path fill="#13393B" d="M17.6,88.2l0.1,0.7l-0.3,0l0-0.2c0-0.1,0-0.1-0.1-0.1c0,0-0.1,0-0.1,0l0.1,0.9c0,0.1,0,0.1,0,0.1
			c0,0,0,0,0.1,0l0,0.3L16.9,90l0-0.3c0,0,0.1,0,0.1-0.1c0,0,0-0.1,0-0.1l-0.1-0.9c-0.1,0-0.1,0-0.1,0.1c0,0,0,0.1,0,0.1l0,0.2
			l-0.3,0l-0.1-0.7L17.6,88.2z"/>
		<path fill="#13393B" d="M44.9,84.6c0.1,0,0.1,0,0.1,0c0.1,0,0.1,0,0.2,0c0.1,0.1,0.2,0.2,0.2,0.4l0.1,0.6c0,0.1,0,0.2,0,0.2
			c0,0.1,0,0.1,0,0.1c-0.1,0.1-0.2,0.2-0.3,0.3c0,0-0.1,0-0.3,0l0,0v-0.3l0,0c0.1,0,0.1,0,0.2-0.1c0,0,0-0.1,0-0.2L45,85.1
			c0-0.1,0-0.1-0.1-0.2c0,0,0,0-0.1,0V84.6z M44.4,85.9l-0.1-0.8c0-0.1,0-0.1,0-0.1c0,0,0,0-0.1,0l0-0.3l0.6-0.1c0,0,0.1,0,0.1,0
			v0.3c0,0-0.1,0-0.1,0l-0.1,0l0.1,1l0.1,0v0.3l-0.5,0.1l0-0.3c0,0,0.1,0,0.1-0.1C44.4,86,44.4,85.9,44.4,85.9z"/>
		<path fill="#13393B" d="M46.4,84.4l0.4,1.2c0,0,0,0.1,0,0.1c0,0,0,0,0.1,0l0,0.3l-0.6,0.1l0-0.3c0.1,0,0.1,0,0.1-0.1
			c0,0,0,0,0-0.1l0-0.1l-0.2,0v-0.2l0.1,0L46.2,85v-0.6L46.4,84.4L46.4,84.4z M46.2,86.1L46.2,86.1L46.2,86.1L46.2,86.1z M46.2,85.6
			l-0.1,0l0,0.1c0,0,0,0,0,0c0,0.1,0,0.1,0.1,0.1l0,0.3v0l-0.5,0.1l0-0.3c0,0,0,0,0.1-0.1c0,0,0-0.1,0-0.1l0.1-1.3l0.4,0V85
			l-0.1-0.2l0,0.6l0.1,0V85.6z"/>
		<path fill="#13393B" d="M48,84.2l0.1,0.7l-0.3,0l0-0.2c0-0.1,0-0.1-0.1-0.1c0,0-0.1,0-0.1,0l0.1,0.9c0,0.1,0,0.1,0,0.1
			c0,0,0,0,0.1,0l0,0.3l-0.6,0.1l0-0.3c0,0,0.1,0,0.1-0.1c0,0,0-0.1,0-0.1l-0.1-0.9c-0.1,0-0.1,0-0.1,0.1c0,0,0,0.1,0,0.1l0,0.2
			l-0.3,0l-0.1-0.7L48,84.2z"/>
		<path fill="#13393B" d="M49.3,84l0.1,0.5l-0.4,0c0,0,0,0,0,0c0-0.1,0-0.1-0.1-0.1c0,0-0.1,0-0.1,0l-0.2,0l0,0.3l0.5-0.1l0,0.3
			L48.7,85l0,0.4l0.2,0c0.1,0,0.1,0,0.2-0.1c0,0,0-0.1,0-0.2c0,0,0,0,0,0l0.4,0l0.1,0.6l-1.2,0.1l0-0.3c0,0,0.1,0,0.1-0.1
			c0,0,0-0.1,0-0.1l-0.1-0.8c0-0.1,0-0.1,0-0.1c0,0,0,0-0.1,0l0-0.3L49.3,84z"/>
		<path fill="#13393B" d="M12.1,94.2l0.1,0.4l-0.4,0c0,0,0,0,0,0c0-0.1-0.1-0.2-0.2-0.2c-0.1,0-0.1,0-0.1,0.1c0,0,0,0.1,0,0.2
			l0.1,0.6c0,0.1,0,0.1,0,0.1c0,0,0,0,0.1,0.1c0,0,0.1,0,0.1,0c0.1,0,0.2-0.1,0.1-0.2l0-0.1l-0.1,0l0-0.3l0.5-0.1l0.1,0.8
			c-0.1,0.1-0.3,0.2-0.5,0.2c-0.2,0-0.3,0-0.4-0.1c0,0-0.1-0.1-0.1-0.1c0,0,0-0.1,0-0.2L11,94.7c0-0.1,0-0.1,0-0.2
			c0,0,0-0.1,0.1-0.1c0.1-0.1,0.2-0.2,0.5-0.2C11.7,94.1,11.9,94.2,12.1,94.2z"/>
		<path fill="#13393B" d="M13.1,94l0.4,1.2c0,0,0,0.1,0,0.1c0,0,0,0,0.1,0l0,0.3l-0.6,0.1l0-0.3c0.1,0,0.1,0,0.1-0.1c0,0,0,0,0-0.1
			l0-0.1l-0.2,0V95l0.1,0l-0.1-0.3V94L13.1,94L13.1,94z M12.9,95.7L12.9,95.7L12.9,95.7L12.9,95.7z M12.9,95.2l-0.1,0l0,0.1
			c0,0,0,0,0,0c0,0.1,0,0.1,0.1,0.1l0,0.3v0l-0.5,0.1l0-0.3c0,0,0,0,0.1-0.1c0,0,0-0.1,0-0.1l0.1-1.3l0.4,0v0.6l-0.1-0.2l0,0.6
			l0.1,0V95.2z"/>
		<path fill="#13393B" d="M14.8,93.8l0.1,0.7l-0.3,0l0-0.2c0-0.1,0-0.1-0.1-0.1c0,0-0.1,0-0.1,0l0.1,0.9c0,0.1,0,0.1,0,0.1
			c0,0,0,0,0.1,0l0,0.3l-0.6,0.1l0-0.3c0,0,0.1,0,0.1-0.1c0,0,0-0.1,0-0.1L14,94.2c-0.1,0-0.1,0-0.1,0.1c0,0,0,0.1,0,0.1l0,0.2
			l-0.3,0l-0.1-0.7L14.8,93.8z"/>
		<path fill="#13393B" d="M16.1,93.6l0.1,0.5l-0.4,0c0,0,0,0,0,0c0-0.1,0-0.1-0.1-0.1c0,0-0.1,0-0.1,0l-0.2,0l0,0.3l0.5-0.1l0,0.3
			l-0.5,0.1l0,0.4l0.2,0c0.1,0,0.1,0,0.2-0.1c0,0,0-0.1,0-0.2c0,0,0,0,0,0l0.4,0l0.1,0.6l-1.2,0.1l0-0.3c0,0,0.1,0,0.1-0.1
			c0,0,0-0.1,0-0.1L15,94.2c0-0.1,0-0.1,0-0.1c0,0,0,0-0.1,0l0-0.3L16.1,93.6z"/>
		<path fill="#13393B" d="M37.5,90.9l0,0.4l-0.4,0c0,0,0,0,0-0.1c0-0.1,0-0.1-0.1-0.1c0,0-0.1,0-0.2,0c-0.1,0-0.1,0-0.1,0.1
			c0,0,0,0.1,0,0.1c0,0,0,0.1,0.1,0.1c0,0,0.1,0,0.3,0.1c0.1,0,0.2,0.1,0.3,0.1c0.1,0.1,0.1,0.2,0.1,0.3c0,0.1,0,0.3-0.1,0.4
			c-0.1,0.1-0.2,0.2-0.4,0.2c-0.2,0-0.4,0-0.6-0.1L36.5,92l0.4,0c0,0,0,0,0,0.1c0,0.1,0.1,0.2,0.2,0.2c0.1,0,0.1,0,0.1-0.1
			c0,0,0-0.1,0-0.1c0-0.1,0-0.1-0.1-0.1c0,0-0.1-0.1-0.2-0.1c-0.1,0-0.2-0.1-0.2-0.1c0,0-0.1,0-0.1-0.1c-0.1-0.1-0.1-0.2-0.2-0.3
			c0-0.2,0-0.3,0.2-0.4c0.1-0.1,0.2-0.1,0.3-0.1C37.1,90.8,37.3,90.8,37.5,90.9z"/>
		<path fill="#13393B" d="M38.9,90.6l0.1,0.5l-0.4,0c0,0,0,0,0,0c0-0.1,0-0.1-0.1-0.1c0,0-0.1,0-0.1,0l-0.2,0l0,0.3l0.5-0.1l0,0.3
			l-0.5,0.1l0,0.4l0.2,0c0.1,0,0.1,0,0.2-0.1c0,0,0-0.1,0-0.2c0,0,0,0,0,0l0.4,0l0.1,0.6l-1.2,0.1l0-0.3c0,0,0.1,0,0.1-0.1
			c0,0,0-0.1,0-0.1l-0.1-0.8c0-0.1,0-0.1,0-0.1c0,0,0,0-0.1,0l0-0.3L38.9,90.6z"/>
		<path fill="#13393B" d="M39.9,90.5l0.4,1.2c0,0,0,0.1,0,0.1c0,0,0,0,0.1,0l0,0.3l-0.6,0.1l0-0.3c0.1,0,0.1,0,0.1-0.1
			c0,0,0,0,0-0.1l0-0.1l-0.2,0v-0.2l0.1,0l-0.1-0.3v-0.6L39.9,90.5L39.9,90.5z M39.7,92.2L39.7,92.2L39.7,92.2L39.7,92.2z
			 M39.7,91.7l-0.1,0l0,0.1c0,0,0,0,0,0c0,0.1,0,0.1,0.1,0.1l0,0.3v0l-0.5,0.1l0-0.3c0,0,0,0,0.1-0.1c0,0,0-0.1,0-0.1l0.1-1.3l0.4,0
			v0.6l-0.1-0.2l0,0.6l0.1,0V91.7z"/>
		<path fill="#13393B" d="M41.5,90.2l0.1,0.7l-0.3,0l0-0.2c0-0.1,0-0.1-0.1-0.1c0,0-0.1,0-0.1,0l0.1,0.9c0,0.1,0,0.1,0,0.1
			c0,0,0,0,0.1,0l0,0.3L40.8,92l0-0.3c0,0,0.1,0,0.1-0.1c0,0,0-0.1,0-0.1l-0.1-0.9c-0.1,0-0.1,0-0.1,0.1c0,0,0,0.1,0,0.1l0,0.2
			l-0.3,0l-0.1-0.7L41.5,90.2z"/>
		<path fill="#13393B" d="M12.8,99.3l0.1,0.5l-0.3,0c0,0,0,0,0,0c0-0.1,0-0.1-0.1-0.1c0,0-0.1,0-0.1,0l-0.2,0l0,0.3l0.4-0.1l0,0.3
			l-0.4,0.1l0,0.3c0,0.1,0,0.1,0,0.1c0,0,0,0,0.1,0l0,0.3l-0.6,0.1l0-0.3c0,0,0.1,0,0.1-0.1c0,0,0-0.1,0-0.1l-0.1-0.8
			c0-0.1,0-0.1,0-0.1c0,0,0,0,0,0l0,0c0,0,0,0,0,0l0-0.3L12.8,99.3z"/>
		<path fill="#13393B" d="M14.4,100.5l0,0.3l-0.4,0.1c0-0.1,0-0.1-0.1-0.2l0-0.2l0-0.1c0-0.1,0-0.1-0.1-0.1c0,0-0.1,0-0.1,0l0,0
			v-0.3l0,0c0.1,0,0.1,0,0.1,0c0,0,0.1-0.1,0-0.2c0-0.1,0-0.1-0.1-0.1c0,0-0.1,0-0.1,0v-0.3c0.1,0,0.3,0,0.3,0
			c0.1,0.1,0.2,0.2,0.2,0.4c0,0.1,0,0.2,0,0.3c0,0.1-0.1,0.1-0.2,0.2c0.1,0,0.1,0,0.2,0.1c0,0,0.1,0.1,0.1,0.2c0,0,0,0,0,0.1
			c0,0,0,0,0,0C14.3,100.4,14.3,100.4,14.4,100.5C14.3,100.5,14.3,100.5,14.4,100.5L14.4,100.5z M13.6,100.6
			C13.7,100.6,13.7,100.6,13.6,100.6l0.1,0.3l-0.1,0V100.6z M13.6,100.2l-0.1,0l0,0.2c0,0.1,0,0.1,0,0.1c0,0,0,0,0,0v0.3l-0.5,0.1
			l0-0.3c0,0,0.1,0,0.1-0.1c0,0,0-0.1,0-0.1l-0.1-0.8c0-0.1,0-0.1,0-0.1c0,0,0,0-0.1,0l0-0.3l0.7-0.1l0,0v0.3c0,0,0,0-0.1,0l-0.1,0
			l0,0.4l0.1,0V100.2z"/>
		<path fill="#13393B" d="M15.5,99.3l0.1,0.8c0,0.1,0,0.1,0,0.2c0,0.1-0.1,0.2-0.2,0.2c-0.1,0.1-0.2,0.1-0.4,0.1c0,0-0.1,0-0.1,0
			v-0.3c0,0,0,0,0.1,0c0.1,0,0.2-0.1,0.2-0.2l-0.1-0.6c0-0.1,0-0.1,0-0.1c0,0-0.1-0.1-0.1-0.1v-0.3c0.2,0,0.3,0,0.4,0.1
			C15.5,99.1,15.5,99.2,15.5,99.3z M15,100.7c-0.2,0-0.3,0-0.4-0.1c0,0-0.1-0.1-0.1-0.2l-0.1-0.9c0-0.3,0.1-0.5,0.5-0.5
			c0,0,0.1,0,0.1,0v0.3c0,0,0,0-0.1,0c-0.1,0-0.2,0.1-0.2,0.2l0.1,0.6c0,0.1,0,0.1,0.1,0.2c0,0,0.1,0,0.1,0V100.7z"/>
		<path fill="#13393B" d="M16.5,99.6l0.1-0.8l0.6-0.1l0,0.3c0,0-0.1,0-0.1,0.1c0,0,0,0.1,0,0.1l0.1,0.8c0,0.1,0,0.1,0,0.1
			c0,0,0,0,0.1,0l0,0.3l-0.6,0.1l0-0.3c0,0,0.1,0,0.1-0.1c0,0,0-0.1,0-0.1l-0.1-0.7l-0.2,1.1l-0.2,0l-0.4-1l0.1,0.6
			c0,0.1,0,0.1,0,0.1c0,0,0,0,0.1,0l0,0.3l-0.5,0.1l0-0.3c0,0,0.1,0,0.1-0.1c0,0,0-0.1,0-0.1l-0.1-0.8c0-0.1,0-0.1,0-0.1
			c0,0,0,0-0.1,0l0-0.3l0.6-0.1L16.5,99.6z"/>
		<path fill="#13393B" d="M61.3,92.8l0.1,0.7l-0.3,0l0-0.2c0-0.1,0-0.1-0.1-0.1c0,0-0.1,0-0.1,0l0.1,0.9c0,0.1,0,0.1,0,0.1
			c0,0,0,0,0.1,0l0,0.3l-0.6,0.1l0-0.3c0,0,0.1,0,0.1-0.1c0,0,0-0.1,0-0.1l-0.1-0.9c-0.1,0-0.1,0-0.1,0.1c0,0,0,0.1,0,0.1l0,0.2
			l-0.3,0L60,93L61.3,92.8z"/>
		<path fill="#13393B" d="M62.6,93.1l0.1,0.8c0,0.1,0,0.1,0,0.2c0,0.1-0.1,0.2-0.2,0.2c-0.1,0.1-0.2,0.1-0.4,0.1c0,0-0.1,0-0.1,0
			v-0.3c0,0,0,0,0.1,0c0.1,0,0.2-0.1,0.2-0.2l-0.1-0.6c0-0.1,0-0.1,0-0.1c0,0-0.1-0.1-0.1-0.1v-0.3c0.2,0,0.3,0,0.4,0.1
			C62.6,92.9,62.6,93,62.6,93.1z M62.1,94.4c-0.2,0-0.3,0-0.4-0.1c0,0-0.1-0.1-0.1-0.2l-0.1-0.9c0-0.3,0.1-0.5,0.5-0.5
			c0,0,0.1,0,0.1,0V93c0,0,0,0-0.1,0c-0.1,0-0.2,0.1-0.2,0.2l0.1,0.6c0,0.1,0,0.1,0.1,0.2c0,0,0.1,0,0.1,0V94.4z"/>
		<path fill="#13393B" d="M13.4,106.1l-0.5-0.8l0.1,0.4c0,0.1,0,0.1,0,0.1c0,0,0,0,0.1,0l0,0.3l-0.5,0.1l0-0.3c0,0,0.1,0,0.1-0.1
			c0,0,0-0.1,0-0.1l-0.1-0.8c0-0.1,0-0.1,0-0.1c0,0,0,0-0.1,0l0-0.3l0.4-0.1l0.5,0.8l-0.1-0.4c0-0.1,0-0.1,0-0.1c0,0,0,0-0.1,0
			l0-0.3l0.5-0.1l0,0.3c0,0-0.1,0-0.1,0.1c0,0,0,0.1,0,0.1l0.2,1.2L13.4,106.1z"/>
		<path fill="#13393B" d="M14.7,104.2l0.4,1.2c0,0,0,0.1,0,0.1c0,0,0,0,0.1,0l0,0.3l-0.6,0.1l0-0.3c0.1,0,0.1,0,0.1-0.1
			c0,0,0,0,0-0.1l0-0.1l-0.2,0v-0.2l0.1,0l-0.1-0.3v-0.6L14.7,104.2L14.7,104.2z M14.5,105.9L14.5,105.9L14.5,105.9L14.5,105.9z
			 M14.5,105.5l-0.1,0l0,0.1c0,0,0,0,0,0c0,0.1,0,0.1,0.1,0.1l0,0.3v0l-0.5,0.1l0-0.3c0,0,0,0,0.1-0.1c0,0,0-0.1,0-0.1l0.1-1.3
			l0.4,0v0.6l-0.1-0.2l0,0.6l0.1,0V105.5z"/>
		<path fill="#13393B" d="M16,104.9l0.1-0.8l0.6-0.1l0,0.3c0,0-0.1,0-0.1,0.1c0,0,0,0.1,0,0.1l0.1,0.8c0,0.1,0,0.1,0,0.1
			c0,0,0,0,0.1,0l0,0.3l-0.6,0.1l0-0.3c0,0,0.1,0,0.1-0.1c0,0,0-0.1,0-0.1l-0.1-0.7l-0.2,1.1l-0.2,0l-0.4-1l0.1,0.6
			c0,0.1,0,0.1,0,0.1c0,0,0,0,0.1,0l0,0.3l-0.5,0.1l0-0.3c0,0,0.1,0,0.1-0.1c0,0,0-0.1,0-0.1l-0.1-0.8c0-0.1,0-0.1,0-0.1
			c0,0,0,0-0.1,0l0-0.3l0.6-0.1L16,104.9z"/>
		<path fill="#13393B" d="M18.1,103.8l0.1,0.5l-0.4,0c0,0,0,0,0,0c0-0.1,0-0.1-0.1-0.1c0,0-0.1,0-0.1,0l-0.2,0l0,0.3l0.5-0.1l0,0.3
			l-0.5,0.1l0,0.4l0.2,0c0.1,0,0.1,0,0.2-0.1c0,0,0-0.1,0-0.2c0,0,0,0,0,0l0.4,0l0.1,0.6l-1.2,0.1l0-0.3c0,0,0.1,0,0.1-0.1
			c0,0,0-0.1,0-0.1l-0.1-0.8c0-0.1,0-0.1,0-0.1c0,0,0,0-0.1,0l0-0.3L18.1,103.8z"/>
		<path fill="#13393B" d="M20,103.9l0.1,0.8c0,0.1,0,0.1,0,0.2c0,0.1-0.1,0.2-0.2,0.2c-0.1,0.1-0.2,0.1-0.4,0.1c0,0-0.1,0-0.1,0V105
			c0,0,0,0,0.1,0c0.1,0,0.2-0.1,0.2-0.2l-0.1-0.6c0-0.1,0-0.1,0-0.1c0,0-0.1-0.1-0.1-0.1v-0.3c0.2,0,0.3,0,0.4,0.1
			C20,103.7,20,103.8,20,103.9z M19.5,105.3c-0.2,0-0.3,0-0.4-0.1c0,0-0.1-0.1-0.1-0.2l-0.1-0.9c0-0.3,0.1-0.5,0.5-0.5
			c0,0,0.1,0,0.1,0v0.3c0,0,0,0-0.1,0c-0.1,0-0.2,0.1-0.2,0.2l0.1,0.6c0,0.1,0,0.1,0.1,0.2c0,0,0.1,0,0.1,0V105.3z"/>
		<path fill="#13393B" d="M21.3,103.4l0.1,0.5l-0.3,0c0,0,0,0,0,0c0-0.1,0-0.1-0.1-0.1c0,0-0.1,0-0.1,0l-0.2,0l0,0.3l0.4-0.1l0,0.3
			l-0.4,0.1l0,0.3c0,0.1,0,0.1,0,0.1c0,0,0,0,0.1,0l0,0.3l-0.6,0.1l0-0.3c0,0,0.1,0,0.1-0.1c0,0,0-0.1,0-0.1l-0.1-0.8
			c0-0.1,0-0.1,0-0.1c0,0,0,0,0,0l0,0c0,0,0,0,0,0l0-0.3L21.3,103.4z"/>
		<path fill="#13393B" d="M22.8,104.6C22.8,104.6,22.8,104.6,22.8,104.6l0.1,0.3l-0.1,0V104.6L22.8,104.6z M22.8,103.2
			c0.1,0,0.2,0,0.3,0c0.1,0,0.1,0.1,0.2,0.2c0,0.1,0.1,0.2,0.1,0.3c0,0.1,0,0.3,0,0.3c0,0.1-0.1,0.1-0.1,0.2
			c-0.1,0.1-0.2,0.1-0.3,0.1l-0.1,0V104c0.1,0,0.1,0,0.2-0.1c0,0,0-0.1,0-0.2c0-0.1,0-0.1-0.1-0.2c0,0-0.1,0-0.1,0V103.2z
			 M22.7,104.3L22.7,104.3c0,0.1,0,0.2,0,0.2c0,0,0,0,0.1,0v0.3l-0.5,0.1l0-0.3c0,0,0.1,0,0.1-0.1c0,0,0-0.1,0-0.1l-0.1-0.8
			c0-0.1,0-0.1,0-0.1c0,0,0,0-0.1,0l0-0.3l0.7-0.1l0,0v0.4l0,0l-0.2,0l0.1,0.4l0.1,0l0,0L22.7,104.3L22.7,104.3z"/>
		<path fill="#13393B" d="M24.2,103l0.4,1.2c0,0,0,0.1,0,0.1c0,0,0,0,0.1,0l0,0.3l-0.6,0.1l0-0.3c0.1,0,0.1,0,0.1-0.1c0,0,0,0,0-0.1
			l0-0.1l-0.2,0V104l0.1,0l-0.1-0.3V103L24.2,103L24.2,103z M24,104.7L24,104.7L24,104.7L24,104.7z M24,104.2l-0.1,0l0,0.1
			c0,0,0,0,0,0c0,0.1,0,0.1,0.1,0.1l0,0.3v0l-0.5,0.1l0-0.3c0,0,0,0,0.1-0.1c0,0,0-0.1,0-0.1l0.1-1.3l0.4,0v0.6l-0.1-0.2l0,0.6
			l0.1,0V104.2z"/>
		<path fill="#13393B" d="M25.8,102.9l0,0.4l-0.4,0c0,0,0,0,0-0.1c0-0.1,0-0.1-0.1-0.1c0,0-0.1,0-0.2,0c-0.1,0-0.1,0-0.1,0.1
			c0,0,0,0.1,0,0.1c0,0,0,0.1,0.1,0.1c0,0,0.1,0,0.3,0.1c0.1,0,0.2,0.1,0.3,0.1c0.1,0.1,0.1,0.2,0.1,0.3c0,0.1,0,0.3-0.1,0.4
			c-0.1,0.1-0.2,0.2-0.4,0.2c-0.2,0-0.4,0-0.6-0.1l-0.1-0.4l0.4,0c0,0,0,0,0,0.1c0,0.1,0.1,0.2,0.2,0.2c0.1,0,0.1,0,0.1-0.1
			c0,0,0-0.1,0-0.1c0-0.1,0-0.1-0.1-0.1c0,0-0.1-0.1-0.2-0.1c-0.1,0-0.2-0.1-0.2-0.1c0,0-0.1,0-0.1-0.1c-0.1-0.1-0.1-0.2-0.2-0.3
			c0-0.2,0-0.3,0.2-0.4c0.1-0.1,0.2-0.1,0.3-0.1C25.4,102.8,25.6,102.8,25.8,102.9z"/>
		<path fill="#13393B" d="M27.1,102.8l0,0.4l-0.4,0c0,0,0,0,0-0.1c0-0.1,0-0.1-0.1-0.1c0,0-0.1,0-0.2,0c-0.1,0-0.1,0-0.1,0.1
			c0,0,0,0.1,0,0.1c0,0,0,0.1,0.1,0.1c0,0,0.1,0,0.3,0.1c0.1,0,0.2,0.1,0.3,0.1c0.1,0.1,0.1,0.2,0.1,0.3c0,0.1,0,0.3-0.1,0.4
			c-0.1,0.1-0.2,0.2-0.4,0.2c-0.2,0-0.4,0-0.6-0.1l-0.1-0.4l0.4,0c0,0,0,0,0,0.1c0,0.1,0.1,0.2,0.2,0.2c0.1,0,0.1,0,0.1-0.1
			c0,0,0-0.1,0-0.1c0-0.1,0-0.1-0.1-0.1c0,0-0.1-0.1-0.2-0.1c-0.1,0-0.2-0.1-0.2-0.1c0,0-0.1,0-0.1-0.1c-0.1-0.1-0.1-0.2-0.2-0.3
			c0-0.2,0-0.3,0.2-0.4c0.1-0.1,0.2-0.1,0.3-0.1C26.7,102.6,26.9,102.6,27.1,102.8z"/>
		<path fill="#13393B" d="M28.4,102.4l0.1,0.5l-0.4,0c0,0,0,0,0,0c0-0.1,0-0.1-0.1-0.1c0,0-0.1,0-0.1,0l-0.2,0l0,0.3l0.5-0.1l0,0.3
			l-0.5,0.1l0,0.4l0.2,0c0.1,0,0.1,0,0.2-0.1c0,0,0-0.1,0-0.2c0,0,0,0,0,0l0.4,0l0.1,0.6l-1.2,0.1l0-0.3c0,0,0.1,0,0.1-0.1
			c0,0,0-0.1,0-0.1l-0.1-0.8c0-0.1,0-0.1,0-0.1c0,0,0,0-0.1,0l0-0.3L28.4,102.4z"/>
		<path fill="#13393B" d="M29.7,103.9l-0.5-0.8l0.1,0.4c0,0.1,0,0.1,0,0.1c0,0,0,0,0.1,0l0,0.3l-0.5,0.1l0-0.3c0,0,0.1,0,0.1-0.1
			c0,0,0-0.1,0-0.1l-0.1-0.8c0-0.1,0-0.1,0-0.1c0,0,0,0-0.1,0l0-0.3l0.4-0.1l0.5,0.8l-0.1-0.4c0-0.1,0-0.1,0-0.1c0,0,0,0-0.1,0
			l0-0.3l0.5-0.1l0,0.3c0,0-0.1,0-0.1,0.1c0,0,0,0.1,0,0.1l0.2,1.2L29.7,103.9z"/>
		<path fill="#13393B" d="M31.2,102.1l0.1,0.4l-0.4,0c0,0,0,0,0,0c0-0.1-0.1-0.2-0.2-0.2c-0.1,0-0.1,0-0.1,0.1c0,0,0,0.1,0,0.2
			l0.1,0.6c0,0.1,0,0.1,0,0.1c0,0,0,0,0.1,0.1c0,0,0.1,0,0.1,0c0.1,0,0.2-0.1,0.1-0.2l0-0.1l-0.1,0l0-0.3l0.5-0.1l0.1,0.8
			c-0.1,0.1-0.3,0.2-0.5,0.2c-0.2,0-0.3,0-0.4-0.1c0,0-0.1-0.1-0.1-0.1c0,0,0-0.1,0-0.2l-0.1-0.8c0-0.1,0-0.1,0-0.2
			c0,0,0-0.1,0.1-0.1c0.1-0.1,0.2-0.2,0.5-0.2C30.8,102.1,31,102.1,31.2,102.1z"/>
		<path fill="#13393B" d="M32.5,101.9l0.1,0.5l-0.4,0c0,0,0,0,0,0c0-0.1,0-0.1-0.1-0.1c0,0-0.1,0-0.1,0l-0.2,0l0,0.3l0.5-0.1l0,0.3
			l-0.5,0.1l0,0.4l0.2,0c0.1,0,0.1,0,0.2-0.1c0,0,0-0.1,0-0.2c0,0,0,0,0,0l0.4,0l0.1,0.6l-1.2,0.1l0-0.3c0,0,0.1,0,0.1-0.1
			c0,0,0-0.1,0-0.1l-0.1-0.8c0-0.1,0-0.1,0-0.1c0,0,0,0-0.1,0l0-0.3L32.5,101.9z"/>
		<path fill="#13393B" d="M34.1,103.1l0,0.3l-0.4,0.1c0-0.1,0-0.1-0.1-0.2l0-0.2l0-0.1c0-0.1,0-0.1-0.1-0.1c0,0-0.1,0-0.1,0l0,0
			v-0.3l0,0c0.1,0,0.1,0,0.1,0c0,0,0.1-0.1,0-0.2c0-0.1,0-0.1-0.1-0.1c0,0-0.1,0-0.1,0v-0.3c0.1,0,0.3,0,0.3,0
			c0.1,0.1,0.2,0.2,0.2,0.4c0,0.1,0,0.2,0,0.3c0,0.1-0.1,0.1-0.2,0.2c0.1,0,0.1,0,0.2,0.1c0,0,0.1,0.1,0.1,0.2c0,0,0,0,0,0.1
			c0,0,0,0,0,0C34,103,34,103,34.1,103.1C34.1,103.1,34.1,103.1,34.1,103.1L34.1,103.1z M33.4,103.2
			C33.4,103.2,33.4,103.2,33.4,103.2l0.1,0.3l-0.1,0V103.2z M33.4,102.8l-0.1,0l0,0.2c0,0.1,0,0.1,0,0.1c0,0,0,0,0,0v0.3l-0.5,0.1
			l0-0.3c0,0,0.1,0,0.1-0.1c0,0,0-0.1,0-0.1l-0.1-0.8c0-0.1,0-0.1,0-0.1c0,0,0,0-0.1,0l0-0.3l0.7-0.1l0,0v0.3c0,0,0,0-0.1,0l-0.1,0
			l0,0.4l0.1,0V102.8z"/>
		<path fill="#13393B" d="M38.7,81c0.2,0,0.3,0.1,0.3,0.4c0,0.2,0,0.3-0.1,0.4c-0.1,0.1-0.2,0.1-0.3,0.1l-0.2,0v-0.3l0.1,0
			c0.1,0,0.1,0,0.2-0.1c0,0,0-0.1,0-0.2c0-0.1,0-0.1-0.1-0.1c0,0-0.1,0-0.2,0l-0.1,0v-0.3l0,0c0.1,0,0.1,0,0.1-0.1c0,0,0-0.1,0-0.1
			c0-0.1,0-0.1-0.1-0.1c0,0-0.1,0-0.1,0v-0.3c0.1,0,0.2,0,0.3,0c0.1,0,0.1,0,0.2,0.1c0.1,0.1,0.1,0.2,0.1,0.3c0,0.1,0,0.1,0,0.2
			c0,0.1,0,0.1-0.1,0.1C38.8,81,38.8,81,38.7,81z M38.4,81.9L37.9,82l0-0.3c0,0,0.1,0,0.1-0.1c0,0,0-0.1,0-0.1l-0.1-0.8
			c0-0.1,0-0.1,0-0.1c0,0,0,0-0.1,0l0-0.3l0.7-0.1l0,0v0.3c0,0,0,0,0,0l-0.2,0l0,0.3l0.1,0v0.3l-0.1,0l0,0.4l0.1,0V81.9z"/>
		<path fill="#13393B" d="M40.2,80.4l0.1,0.8c0,0.1,0,0.1,0,0.2c0,0.1-0.1,0.2-0.2,0.2c-0.1,0.1-0.2,0.1-0.4,0.1c0,0-0.1,0-0.1,0
			v-0.3c0,0,0,0,0.1,0c0.1,0,0.2-0.1,0.2-0.2l-0.1-0.6c0-0.1,0-0.1,0-0.1c0,0-0.1-0.1-0.1-0.1V80c0.2,0,0.3,0,0.4,0.1
			C40.2,80.2,40.2,80.3,40.2,80.4z M39.7,81.8c-0.2,0-0.3,0-0.4-0.1c0,0-0.1-0.1-0.1-0.2l-0.1-0.9c0-0.3,0.1-0.5,0.5-0.5
			c0,0,0.1,0,0.1,0v0.3c0,0,0,0-0.1,0c-0.1,0-0.2,0.1-0.2,0.2l0.1,0.6c0,0.1,0,0.1,0.1,0.2c0,0,0.1,0,0.1,0V81.8z"/>
		<path fill="#13393B" d="M41.2,79.8l0.4,1.2c0,0,0,0.1,0,0.1c0,0,0,0,0.1,0l0,0.3l-0.6,0.1l0-0.3c0.1,0,0.1,0,0.1-0.1
			c0,0,0,0,0-0.1l0-0.1l-0.2,0v-0.2l0.1,0L41,80.5v-0.6L41.2,79.8L41.2,79.8z M41,81.5L41,81.5L41,81.5L41,81.5z M41,81.1l-0.1,0
			l0,0.1c0,0,0,0,0,0c0,0.1,0,0.1,0.1,0.1l0,0.3v0l-0.5,0.1l0-0.3c0,0,0,0,0.1-0.1c0,0,0-0.1,0-0.1l0.1-1.3l0.4,0v0.6L41,80.3l0,0.6
			l0.1,0V81.1z"/>
		<path fill="#13393B" d="M43.1,81l0,0.3l-0.4,0.1c0-0.1,0-0.1-0.1-0.2l0-0.2l0-0.1c0-0.1,0-0.1-0.1-0.1c0,0-0.1,0-0.1,0l0,0v-0.3
			l0,0c0.1,0,0.1,0,0.1,0c0,0,0.1-0.1,0-0.2c0-0.1,0-0.1-0.1-0.1c0,0-0.1,0-0.1,0v-0.3c0.1,0,0.3,0,0.3,0c0.1,0.1,0.2,0.2,0.2,0.4
			c0,0.1,0,0.2,0,0.3c0,0.1-0.1,0.1-0.2,0.2c0.1,0,0.1,0,0.2,0.1c0,0,0.1,0.1,0.1,0.2c0,0,0,0,0,0.1c0,0,0,0,0,0
			C43,80.9,43,81,43.1,81C43,81,43.1,81,43.1,81L43.1,81z M42.4,81.1C42.4,81.1,42.4,81.1,42.4,81.1l0.1,0.3l-0.1,0V81.1z
			 M42.4,80.7l-0.1,0l0,0.2c0,0.1,0,0.1,0,0.1c0,0,0,0,0,0v0.3l-0.5,0.1l0-0.3c0,0,0.1,0,0.1-0.1c0,0,0-0.1,0-0.1l-0.1-0.8
			c0-0.1,0-0.1,0-0.1c0,0,0,0-0.1,0l0-0.3l0.7-0.1l0,0V80c0,0,0,0-0.1,0l-0.1,0l0,0.4l0.1,0V80.7z"/>
		<path fill="#13393B" d="M43.8,79.5c0.1,0,0.1,0,0.1,0c0.1,0,0.1,0,0.2,0c0.1,0.1,0.2,0.2,0.2,0.4l0.1,0.6c0,0.1,0,0.2,0,0.2
			c0,0.1,0,0.1,0,0.1c-0.1,0.1-0.2,0.2-0.3,0.3c0,0-0.1,0-0.3,0l0,0v-0.3l0,0c0.1,0,0.1,0,0.2-0.1c0,0,0-0.1,0-0.2L44,80
			c0-0.1,0-0.1-0.1-0.2c0,0,0,0-0.1,0V79.5z M43.3,80.8L43.2,80c0-0.1,0-0.1,0-0.1c0,0,0,0-0.1,0l0-0.3l0.6-0.1c0,0,0.1,0,0.1,0v0.3
			c0,0-0.1,0-0.1,0l-0.1,0l0.1,1l0.1,0v0.3l-0.5,0.1l0-0.3c0,0,0.1,0,0.1-0.1C43.3,80.9,43.3,80.9,43.3,80.8z"/>
		<path fill="#13393B" d="M44.7,80.6l-0.1-0.8c0-0.1,0-0.1,0-0.1c0,0,0,0-0.1,0l0-0.3l0.6-0.1l0,0.3c0,0-0.1,0-0.1,0.1
			c0,0,0,0.1,0,0.1l0.1,0.8c0,0.1,0,0.1,0,0.1c0,0,0,0,0.1,0l0,0.3l-0.6,0.1l0-0.3c0,0,0.1,0,0.1-0.1C44.7,80.7,44.7,80.7,44.7,80.6
			z"/>
		<path fill="#13393B" d="M46.3,80.9L45.7,80l0.1,0.4c0,0.1,0,0.1,0,0.1c0,0,0,0,0.1,0l0,0.3L45.4,81l0-0.3c0,0,0.1,0,0.1-0.1
			c0,0,0-0.1,0-0.1l-0.1-0.8c0-0.1,0-0.1,0-0.1c0,0,0,0-0.1,0l0-0.3l0.4-0.1l0.5,0.8l-0.1-0.4c0-0.1,0-0.1,0-0.1c0,0,0,0-0.1,0
			l0-0.3l0.5-0.1l0,0.3c0,0-0.1,0-0.1,0.1c0,0,0,0.1,0,0.1l0.2,1.2L46.3,80.9z"/>
		<path fill="#13393B" d="M47.8,79.1l0.1,0.4l-0.4,0c0,0,0,0,0,0c0-0.1-0.1-0.2-0.2-0.2c-0.1,0-0.1,0-0.1,0.1c0,0,0,0.1,0,0.2
			l0.1,0.6c0,0.1,0,0.1,0,0.1c0,0,0,0,0.1,0.1c0,0,0.1,0,0.1,0c0.1,0,0.2-0.1,0.1-0.2l0-0.1l-0.1,0l0-0.3l0.5-0.1l0.1,0.8
			c-0.1,0.1-0.3,0.2-0.5,0.2c-0.2,0-0.3,0-0.4-0.1c0,0-0.1-0.1-0.1-0.1c0,0,0-0.1,0-0.2l-0.1-0.8c0-0.1,0-0.1,0-0.2
			c0,0,0-0.1,0.1-0.1c0.1-0.1,0.2-0.2,0.5-0.2C47.4,79,47.6,79,47.8,79.1z"/>
		<path fill="#13393B" d="M49.8,78.7l0.1,0.7l-0.3,0l0-0.2c0-0.1,0-0.1-0.1-0.1c0,0-0.1,0-0.1,0l0.1,0.9c0,0.1,0,0.1,0,0.1
			c0,0,0,0,0.1,0l0,0.3l-0.6,0.1l0-0.3c0,0,0.1,0,0.1-0.1c0,0,0-0.1,0-0.1L49,79.1c-0.1,0-0.1,0-0.1,0.1c0,0,0,0.1,0,0.1l0,0.2
			l-0.3,0l-0.1-0.7L49.8,78.7z"/>
		<path fill="#13393B" d="M50.2,79.9l-0.1-0.8c0-0.1,0-0.1,0-0.1c0,0,0,0-0.1,0l0-0.3l0.6-0.1l0,0.3c0,0-0.1,0-0.1,0.1
			c0,0,0,0.1,0,0.1l0.1,0.8c0,0.1,0,0.1,0,0.1c0,0,0,0,0.1,0l0,0.3l-0.6,0.1l0-0.3c0,0,0.1,0,0.1-0.1C50.2,80,50.2,80,50.2,79.9z"/>
		<path fill="#13393B" d="M51.6,79.3l0.1-0.8l0.6-0.1l0,0.3c0,0-0.1,0-0.1,0.1c0,0,0,0.1,0,0.1l0.1,0.8c0,0.1,0,0.1,0,0.1
			c0,0,0,0,0.1,0l0,0.3L52,80.1l0-0.3c0,0,0.1,0,0.1-0.1c0,0,0-0.1,0-0.1L51.9,79l-0.2,1.1l-0.2,0l-0.4-1l0.1,0.6c0,0.1,0,0.1,0,0.1
			c0,0,0,0,0.1,0l0,0.3l-0.5,0.1l0-0.3c0,0,0.1,0,0.1-0.1c0,0,0-0.1,0-0.1L50.9,79c0-0.1,0-0.1,0-0.1c0,0,0,0-0.1,0l0-0.3l0.6-0.1
			L51.6,79.3z"/>
		<path fill="#13393B" d="M53.7,78.2l0.1,0.5l-0.4,0c0,0,0,0,0,0c0-0.1,0-0.1-0.1-0.1c0,0-0.1,0-0.1,0l-0.2,0l0,0.3l0.5-0.1l0,0.3
			l-0.5,0.1l0,0.4l0.2,0c0.1,0,0.1,0,0.2-0.1c0,0,0-0.1,0-0.2c0,0,0,0,0,0l0.4,0l0.1,0.6L52.7,80l0-0.3c0,0,0.1,0,0.1-0.1
			c0,0,0-0.1,0-0.1l-0.1-0.8c0-0.1,0-0.1,0-0.1c0,0,0,0-0.1,0l0-0.3L53.7,78.2z"/>
		
			<rect x="16.9" y="81.2" transform="matrix(-0.9913 0.1313 -0.1313 -0.9913 62.2284 161.3445)" fill-rule="evenodd" clip-rule="evenodd" fill="#A2DDE0" width="17.7" height="3.1"/>
		
			<rect x="51.4" y="80.8" transform="matrix(-0.9913 0.1313 -0.1313 -0.9913 145.2987 155.2414)" fill-rule="evenodd" clip-rule="evenodd" fill="#A2DDE0" width="32.3" height="3.1"/>
		
			<rect x="43.4" y="88.3" transform="matrix(-0.9913 0.1313 -0.1313 -0.9913 113.222 172.1903)" fill-rule="evenodd" clip-rule="evenodd" fill="#A2DDE0" width="15" height="3.1"/>
		
			<rect x="18.9" y="95.1" transform="matrix(-0.9913 0.1313 -0.1313 -0.9913 90.4557 187.2747)" fill-rule="evenodd" clip-rule="evenodd" fill="#A2DDE0" width="40.4" height="3.1"/>
		
			<rect x="103.7" y="93.9" transform="matrix(-0.9913 0.1313 -0.1313 -0.9913 248.8603 174.5895)" fill-rule="evenodd" clip-rule="evenodd" fill="#A2DDE0" width="29.9" height="3.1"/>
		
			<rect x="12.6" y="103.1" transform="matrix(-0.9913 0.1313 -0.1313 -0.9913 112.3188 201.9245)" fill-rule="evenodd" clip-rule="evenodd" fill="#A2DDE0" width="73.8" height="3.1"/>
		<path fill="#FFFFFF" d="M105.7,59.2c0.2,0,0.3,0.1,0.3,0.3c0,0.2,0,0.3-0.1,0.4c-0.1,0.1-0.2,0.1-0.3,0.1l-0.2,0v-0.3l0.1,0
			c0.1,0,0.1,0,0.1-0.1c0,0,0-0.1,0-0.1c0-0.1,0-0.1-0.1-0.1c0,0-0.1,0-0.1,0l-0.1,0v-0.3l0,0c0.1,0,0.1,0,0.1-0.1c0,0,0-0.1,0-0.1
			c0-0.1,0-0.1-0.1-0.1c0,0-0.1,0-0.1,0v-0.3c0.1,0,0.2,0,0.2,0c0.1,0,0.1,0,0.2,0.1c0.1,0.1,0.1,0.1,0.1,0.3c0,0.1,0,0.1,0,0.2
			c0,0.1,0,0.1-0.1,0.1C105.8,59.2,105.8,59.2,105.7,59.2z M105.4,60l-0.4,0.1l0-0.2c0,0,0.1,0,0.1,0c0,0,0-0.1,0-0.1l-0.1-0.7
			c0-0.1,0-0.1,0-0.1c0,0,0,0-0.1,0l0-0.2l0.6-0.1l0,0v0.3c0,0,0,0,0,0l-0.1,0l0,0.3l0.1,0v0.3l-0.1,0l0,0.4l0.1,0V60z"/>
		<path fill="#FFFFFF" d="M107.1,58.7l0.1,0.7c0,0.1,0,0.1,0,0.2c0,0.1-0.1,0.2-0.1,0.2c-0.1,0.1-0.2,0.1-0.3,0.1c0,0-0.1,0-0.1,0
			v-0.3c0,0,0,0,0.1,0c0.1,0,0.2-0.1,0.1-0.2l-0.1-0.6c0,0,0-0.1,0-0.1c0,0-0.1,0-0.1-0.1v-0.3c0.2,0,0.3,0,0.4,0.1
			C107,58.5,107.1,58.6,107.1,58.7z M106.6,59.9c-0.2,0-0.3,0-0.4-0.1c0,0-0.1-0.1-0.1-0.2l-0.1-0.8c0-0.3,0.1-0.4,0.5-0.5
			c0,0,0.1,0,0.1,0v0.3c0,0,0,0-0.1,0c-0.1,0-0.2,0.1-0.1,0.2l0.1,0.6c0,0.1,0,0.1,0,0.1c0,0,0,0,0.1,0V59.9z"/>
		<path fill="#FFFFFF" d="M108,58.2l0.4,1.1c0,0,0,0.1,0,0.1c0,0,0,0,0.1,0l0,0.2l-0.5,0.1l0-0.2c0.1,0,0.1,0,0.1-0.1c0,0,0,0,0,0
			l0-0.1l-0.2,0v-0.2l0.1,0l-0.1-0.3v-0.6L108,58.2L108,58.2z M107.8,59.7L107.8,59.7L107.8,59.7L107.8,59.7z M107.8,59.3l-0.1,0
			l0,0.1c0,0,0,0,0,0c0,0,0,0.1,0.1,0.1l0,0.2v0l-0.5,0.1l0-0.2c0,0,0,0,0-0.1c0,0,0-0.1,0-0.1l0.1-1.1l0.3,0v0.6l-0.1-0.2l0,0.5
			l0.1,0V59.3z"/>
		<path fill="#FFFFFF" d="M109.7,59.2l0,0.2l-0.4,0c0,0,0-0.1-0.1-0.2l0-0.1l0-0.1c0-0.1,0-0.1-0.1-0.1c0,0-0.1,0-0.1,0l0,0v-0.3
			l0,0c0.1,0,0.1,0,0.1,0c0,0,0-0.1,0-0.2c0-0.1,0-0.1-0.1-0.1c0,0-0.1,0-0.1,0V58c0.1,0,0.2,0,0.3,0c0.1,0.1,0.2,0.2,0.2,0.3
			c0,0.1,0,0.2,0,0.2c0,0.1-0.1,0.1-0.2,0.1c0.1,0,0.1,0,0.2,0.1c0,0,0.1,0.1,0.1,0.1c0,0,0,0,0,0.1c0,0,0,0,0,0
			C109.6,59.2,109.6,59.2,109.7,59.2C109.6,59.2,109.6,59.2,109.7,59.2L109.7,59.2z M109,59.3C109,59.3,109,59.3,109,59.3l0.1,0.2
			l-0.1,0V59.3z M109,59L109,59l-0.1,0.2c0,0.1,0,0.1,0,0.1c0,0,0,0,0,0v0.3l-0.4,0.1l0-0.2c0,0,0.1,0,0.1,0c0,0,0-0.1,0-0.1
			l-0.1-0.7c0-0.1,0-0.1,0-0.1c0,0,0,0-0.1,0l0-0.2L109,58l0,0v0.3c0,0,0,0-0.1,0l-0.1,0l0,0.4l0.1,0V59z"/>
		<path fill="#FFFFFF" d="M110.3,57.9c0,0,0.1,0,0.1,0c0.1,0,0.1,0,0.1,0c0.1,0.1,0.2,0.2,0.2,0.3l0.1,0.5c0,0.1,0,0.2,0,0.2
			c0,0,0,0.1,0,0.1c0,0.1-0.1,0.2-0.3,0.2c0,0-0.1,0-0.2,0l0,0v-0.3l0,0c0.1,0,0.1,0,0.2-0.1c0,0,0-0.1,0-0.2l-0.1-0.5
			c0-0.1,0-0.1-0.1-0.1c0,0,0,0-0.1,0V57.9z M109.9,59l-0.1-0.7c0-0.1,0-0.1,0-0.1c0,0,0,0-0.1,0l0-0.2l0.6-0.1c0,0,0.1,0,0.1,0v0.3
			c0,0-0.1,0-0.1,0l-0.1,0l0.1,0.9l0.1,0v0.3l-0.5,0.1l0-0.2c0,0,0.1,0,0.1,0C109.9,59.1,109.9,59.1,109.9,59z"/>
		<path fill="#13393B" d="M96,58.6l-0.5,0.1l-0.1-1l0.5-0.1L96,58.6L96,58.6z M102.4,106.9l-0.5,0.1l-0.1-1l0.5-0.1L102.4,106.9
			L102.4,106.9z M102.1,104.5l-0.5,0.1l-0.1-1l0.5-0.1L102.1,104.5L102.1,104.5z M101.7,102.1l-0.5,0.1l-0.1-1l0.5-0.1L101.7,102.1
			L101.7,102.1z M101.4,99.7l-0.5,0.1l-0.1-1l0.5-0.1L101.4,99.7L101.4,99.7z M101.1,97.3l-0.5,0.1l-0.1-1l0.5-0.1L101.1,97.3
			L101.1,97.3z M100.8,94.8l-0.5,0.1l-0.1-1l0.5-0.1L100.8,94.8L100.8,94.8z M100.5,92.4l-0.5,0.1l-0.1-1l0.5-0.1L100.5,92.4
			L100.5,92.4z M100.1,90l-0.5,0.1l-0.1-1L100,89L100.1,90L100.1,90z M99.8,87.6l-0.5,0.1l-0.1-1l0.5-0.1L99.8,87.6L99.8,87.6z
			 M99.5,85.2L99,85.2l-0.1-1l0.5-0.1L99.5,85.2L99.5,85.2z M99.2,82.8l-0.5,0.1l-0.1-1l0.5-0.1L99.2,82.8L99.2,82.8z M98.9,80.3
			l-0.5,0.1l-0.1-1l0.5-0.1L98.9,80.3L98.9,80.3z M98.5,77.9L98,78l-0.1-1l0.5-0.1L98.5,77.9L98.5,77.9z M98.2,75.5l-0.5,0.1l-0.1-1
			l0.5-0.1L98.2,75.5L98.2,75.5z M97.9,73.1l-0.5,0.1l-0.1-1l0.5-0.1L97.9,73.1L97.9,73.1z M97.6,70.7l-0.5,0.1l-0.1-1l0.5-0.1
			L97.6,70.7L97.6,70.7z M97.2,68.2l-0.5,0.1l-0.1-1l0.5-0.1L97.2,68.2L97.2,68.2z M96.9,65.8l-0.5,0.1l-0.1-1l0.5-0.1L96.9,65.8
			L96.9,65.8z M96.6,63.4l-0.5,0.1l-0.1-1l0.5-0.1L96.6,63.4L96.6,63.4z M96.3,61l-0.5,0.1l-0.1-1l0.5-0.1L96.3,61z"/>
		<g>
			<circle fill="#100F22" cx="11.2" cy="77.3" r="1.2"/>
			<circle fill="#100F22" cx="16.5" cy="72.6" r="3.2"/>
		</g>
	</g>
</g>
<g id="Layer_2" display="none">
</g>
</svg>
