<?xml version="1.0" encoding="utf-8"?>
<!-- Generator: Adobe Illustrator 18.1.1, SVG Export Plug-In . SVG Version: 6.00 Build 0)  -->
<svg version="1.1" id="Capa_1" xmlns="http://www.w3.org/2000/svg" xmlns:xlink="http://www.w3.org/1999/xlink" x="0px" y="0px"
	 viewBox="0 0 280 280" enable-background="new 0 0 280 280" xml:space="preserve">
<circle cx="140" cy="140" r="126"/>
<ellipse fill="#C3C3C3" cx="138.9" cy="217.3" rx="55.8" ry="20.1"/>
<rect x="98" y="13.7" fill="#DDDDDD" width="67" height="81.3"/>
<path fill="#C3C3C3" d="M164.9,117.9l0-16h0.1v-21H98V95l0,0v35.6c0,3.8,3.2,6.8,7,6.8s7-3.1,7-6.9v6c0,3.8,2.7,6.8,6.5,6.8
	s6.5-3.1,6.5-6.9v4.2c0,3.8,2.7,6.8,6.5,6.8s6.5-3.1,6.5-6.9v26.2c0,3.8,2.7,6.8,6.5,6.8s6.5-3.1,6.5-6.9v-33.6
	C158.8,132.3,164.9,125.8,164.9,117.9z"/>
<path fill="#909090" d="M151,114.1v18.6c7.8-0.4,13.9-6.9,13.9-14.7l0-15.9L151,114.1z"/>
<path fill="#DF4547" d="M175.8,214.4c0,7.4-16.4,13-36.9,13s-36.9-6.3-36.9-13.6v-13.9h73.7L175.8,214.4z"/>
<ellipse fill="#B22432" cx="138.9" cy="200.3" rx="36.9" ry="13.3"/>
<rect x="125.3" y="13.7" fill="#C3C3C3" width="39.7" height="60.2"/>
<polygon fill="#FFFFFF" points="146.5,201.1 113.2,202.1 117.2,195.4 146.5,196.4 "/>
<ellipse fill="#FFFFFF" cx="157.9" cy="198.3" rx="7.9" ry="2.9"/>
<path fill="#DDDDDD" d="M98,95v35.6c0,3.8,3.2,6.8,7,6.8s7-3.1,7-6.9v6c0,3.8,2.9,6.8,6.7,6.8c3,0,5.3-2,6.3-4.7V85.9H98V95z"/>
<g>
	<g>
		<path fill="#DDDDDD" d="M44.1,36.6c0.8,0,2-1.3,0.7-1.3C44,35.4,42.8,36.6,44.1,36.6L44.1,36.6z"/>
	</g>
</g>
<rect x="98" y="73.8" fill="#909090" width="67" height="12.2"/>
<rect x="98" y="45.8" fill="#909090" width="67" height="12.2"/>
<rect x="98" y="17.8" fill="#909090" width="67" height="12.2"/>
<g>
	<path fill="#FFFFFF" d="M140,14c69.6,0,126,56.4,126,126s-56.4,126-126,126S14,209.6,14,140S70.4,14,140,14 M140,0
		c-37.4,0-72.6,14.6-99,41C14.6,67.4,0,102.6,0,140s14.6,72.6,41,99c26.4,26.4,61.6,41,99,41s72.6-14.6,99-41
		c26.4-26.4,41-61.6,41-99s-14.6-72.6-41-99C212.6,14.6,177.4,0,140,0L140,0z"/>
</g>
<path fill="#FFFFFF" d="M219.5,105.2c3.8,0.9,6.8,3.9,7.8,7.8c0.9-3.8,3.9-6.8,7.8-7.8c-3.8-0.9-6.8-3.9-7.8-7.8
	C226.3,101.2,223.3,104.2,219.5,105.2z"/>
<path fill="#FFFFFF" d="M219.5,123.2c3.8,0.9,6.8,3.9,7.8,7.8c0.9-3.8,3.9-6.8,7.8-7.8c-3.8-0.9-6.8-3.9-7.8-7.8
	C226.3,119.3,223.3,122.3,219.5,123.2z"/>
<path fill="#FFFFFF" d="M202,123.2c3.8,0.9,6.8,3.9,7.8,7.8c0.9-3.8,3.9-6.8,7.8-7.8c-3.8-0.9-6.8-3.9-7.8-7.8
	C208.9,119.3,205.9,122.3,202,123.2z"/>
<path fill="#FFFFFF" d="M71.5,159.2c-0.9-3.8-3.9-6.8-7.8-7.8c3.8-0.9,6.8-3.9,7.8-7.8c0.9,3.8,3.9,6.8,7.8,7.8
	C75.5,152.4,72.5,155.4,71.5,159.2z"/>
<path fill="#FFFFFF" d="M53.5,159.2c-0.9-3.8-3.9-6.8-7.8-7.8c3.8-0.9,6.8-3.9,7.8-7.8c0.9,3.8,3.9,6.8,7.8,7.8
	C57.4,152.4,54.4,155.4,53.5,159.2z"/>
<path fill="#FFFFFF" d="M53.5,176.7c-0.9-3.8-3.9-6.8-7.8-7.8c3.8-0.9,6.8-3.9,7.8-7.8c0.9,3.8,3.9,6.8,7.8,7.8
	C57.4,169.8,54.4,172.8,53.5,176.7z"/>
</svg>
