<?xml version="1.0" encoding="UTF-8" standalone="no"?>
<svg
   xmlns:dc="http://purl.org/dc/elements/1.1/"
   xmlns:cc="http://creativecommons.org/ns#"
   xmlns:rdf="http://www.w3.org/1999/02/22-rdf-syntax-ns#"
   xmlns:svg="http://www.w3.org/2000/svg"
   xmlns="http://www.w3.org/2000/svg"
   viewBox="0 0 37.5 37.5"
   height="37.5"
   width="37.5"
   xml:space="preserve"
   version="1.1"
   id="svg2"><metadata
     id="metadata8"><rdf:RDF><cc:Work
         rdf:about=""><dc:format>image/svg+xml</dc:format><dc:type
           rdf:resource="http://purl.org/dc/dcmitype/StillImage" /></cc:Work></rdf:RDF></metadata><defs
     id="defs6" /><g
     transform="matrix(1.25,0,0,-1.25,0,37.5)"
     id="g10"><g
       transform="scale(0.1,0.1)"
       id="g12"><path
         id="path14"
         style="fill:#ffffff;fill-opacity:1;fill-rule:nonzero;stroke:none"
         d="m 151.824,124.363 c -12.094,0 -21.633,9.555 -21.633,21.653 0,12.097 9.539,21.617 21.633,21.617 12.102,0 21.637,-9.52 21.637,-21.617 0,-12.098 -9.535,-21.653 -21.637,-21.653 z m -0.261,3.383 c -10.258,0 -18.364,8.067 -18.364,18.371 0,10.262 8.106,18.328 18.364,18.328 10.261,0 18.371,-8.066 18.371,-18.328 0,-10.304 -8.11,-18.371 -18.371,-18.371 z m 0,57.266 c -21.469,0 -38.891,-17.422 -38.891,-38.895 0,-21.476 17.422,-38.894 38.891,-38.894 21.472,0 38.875,17.418 38.875,38.894 0,21.473 -17.403,38.895 -38.875,38.895 z m 0,-57.266 c -10.258,0 -18.364,8.067 -18.364,18.371 0,10.262 8.106,18.328 18.364,18.328 10.261,0 18.371,-8.066 18.371,-18.328 0,-10.304 -8.11,-18.371 -18.371,-18.371 z m 0,57.266 c -21.469,0 -38.891,-17.422 -38.891,-38.895 0,-21.476 17.422,-38.894 38.891,-38.894 21.472,0 38.875,17.418 38.875,38.894 0,21.473 -17.403,38.895 -38.875,38.895 z m -1.567,-95.8557 c -78.0976,0 -119.5077,57.5467 -119.5077,57.5467 0,0 41.4101,57.582 119.5077,57.582 78.086,0 119.539,-57.582 119.539,-57.582 0,0 -41.453,-57.5467 -119.539,-57.5467 z m 0.016,197.5547 C 72.8477,286.711 10,224.188 10,146.703 10,69.2344 72.8477,6.73047 150.012,6.73047 227.156,6.73047 290,69.2344 290,146.703 c 0,77.485 -62.844,140.008 -139.988,140.008 z m 1.551,-158.965 c -10.258,0 -18.364,8.067 -18.364,18.371 0,10.262 8.106,18.328 18.364,18.328 10.261,0 18.371,-8.066 18.371,-18.328 0,-10.304 -8.11,-18.371 -18.371,-18.371 z m 0,57.266 c -21.469,0 -38.891,-17.422 -38.891,-38.895 0,-21.476 17.422,-38.894 38.891,-38.894 21.472,0 38.875,17.418 38.875,38.894 0,21.473 -17.403,38.895 -38.875,38.895 z m 0,-57.266 c -10.258,0 -18.364,8.067 -18.364,18.371 0,10.262 8.106,18.328 18.364,18.328 10.261,0 18.371,-8.066 18.371,-18.328 0,-10.304 -8.11,-18.371 -18.371,-18.371 z m 0,57.266 c -21.469,0 -38.891,-17.422 -38.891,-38.895 0,-21.476 17.422,-38.894 38.891,-38.894 21.472,0 38.875,17.418 38.875,38.894 0,21.473 -17.403,38.895 -38.875,38.895 z m 0,-57.266 c -10.258,0 -18.364,8.067 -18.364,18.371 0,10.262 8.106,18.328 18.364,18.328 10.261,0 18.371,-8.066 18.371,-18.328 0,-10.304 -8.11,-18.371 -18.371,-18.371 z m 0,57.266 c -21.469,0 -38.891,-17.422 -38.891,-38.895 0,-21.476 17.422,-38.894 38.891,-38.894 21.472,0 38.875,17.418 38.875,38.894 0,21.473 -17.403,38.895 -38.875,38.895 z m 0,-57.266 c -10.258,0 -18.364,8.067 -18.364,18.371 0,10.262 8.106,18.328 18.364,18.328 10.261,0 18.371,-8.066 18.371,-18.328 0,-10.304 -8.11,-18.371 -18.371,-18.371 z m 0,57.266 c -21.469,0 -38.891,-17.422 -38.891,-38.895 0,-21.476 17.422,-38.894 38.891,-38.894 21.472,0 38.875,17.418 38.875,38.894 0,21.473 -17.403,38.895 -38.875,38.895" /></g></g></svg>