<?xml version="1.0" encoding="UTF-8" standalone="no"?>
<svg
   xmlns:dc="http://purl.org/dc/elements/1.1/"
   xmlns:cc="http://creativecommons.org/ns#"
   xmlns:rdf="http://www.w3.org/1999/02/22-rdf-syntax-ns#"
   xmlns:svg="http://www.w3.org/2000/svg"
   xmlns="http://www.w3.org/2000/svg"
   viewBox="0 0 318.75 318.75"
   height="318.75"
   width="318.75"
   xml:space="preserve"
   version="1.1"
   id="svg2"><metadata
     id="metadata8"><rdf:RDF><cc:Work
         rdf:about=""><dc:format>image/svg+xml</dc:format><dc:type
           rdf:resource="http://purl.org/dc/dcmitype/StillImage" /></cc:Work></rdf:RDF></metadata><defs
     id="defs6" /><g
     transform="matrix(1.25,0,0,-1.25,0,318.75)"
     id="g10"><g
       transform="scale(0.1,0.1)"
       id="g12"><path
         id="path14"
         style="fill:#040606;fill-opacity:1;fill-rule:nonzero;stroke:none"
         d="M 2530,1269.07 C 2530,573.191 1965.88,9.07031 1270,9.07031 574.121,9.07031 10,573.191 10,1269.07 c 0,695.88 564.121,1260 1260,1260 695.88,0 1260,-564.12 1260,-1260" /><path
         id="path16"
         style="fill:#b7b9b8;fill-opacity:1;fill-rule:nonzero;stroke:none"
         d="m 1816.25,495.648 c 0,-110.949 -249.69,-200.886 -557.71,-200.886 -308.013,0 -557.708,89.937 -557.708,200.886 0,110.954 249.695,200.891 557.708,200.891 308.02,0 557.71,-89.937 557.71,-200.891" /><path
         id="path18"
         style="fill:#d5d7d4;fill-opacity:1;fill-rule:nonzero;stroke:none"
         d="m 850,1719.07 669.969,0 0,813.305 -669.969,0 0,-813.305 z" /><path
         id="path20"
         style="fill:#b7b9b8;fill-opacity:1;fill-rule:nonzero;stroke:none"
         d="m 1519.22,1487.66 -0.47,157.34 1.25,0 0,210 -670,0 0,-492.24 c 0,-37.74 32.262,-67.52 70,-67.52 37.738,0 70,31.41 70,69.15 l 0,-60.2 c 0,-37.74 27.26,-67.52 65,-67.52 37.74,0 65,31.41 65,69.15 l 0,-41.63 c 0,-37.74 27.26,-67.52 65,-67.52 37.74,0 65,31.41 65,69.15 l 0,-261.63 c 0,-37.741 27.26,-67.518 65,-67.518 37.74,0 65,31.406 65,69.148 l 0,336.44 c 77.84,3.82 139.22,66.48 139.22,145.4" /><path
         id="path22"
         style="fill:#808384;fill-opacity:1;fill-rule:nonzero;stroke:none"
         d="m 1380,1527.82 0,-185.56 c 77.84,3.82 139.22,68.51 139.22,147.44 l -0.47,159.37 L 1380,1527.82" /><path
         id="path24"
         style="fill:#e43749;fill-opacity:1;fill-rule:nonzero;stroke:none"
         d="m 1627.5,522.551 c 0,-73.61 -164.4,-129.063 -368.75,-129.063 C 1054.4,393.488 890,457.371 890,530.98 l 0,134.02 737.08,0 0.42,-142.449" /><path
         id="path26"
         style="fill:#b01f39;fill-opacity:1;fill-rule:nonzero;stroke:none"
         d="m 1627.08,665.648 c 0,-73.316 -165,-132.75 -368.54,-132.75 -203.54,0 -368.54,59.434 -368.54,132.75 0,73.321 165,132.75 368.54,132.75 203.54,0 368.54,-59.429 368.54,-132.75" /><path
         id="path28"
         style="fill:#b7b9b8;fill-opacity:1;fill-rule:nonzero;stroke:none"
         d="m 1123.44,1930.87 396.527,0 0,601.508 -396.527,0 0,-601.508 z" /><path
         id="path30"
         style="fill:#ffffff;fill-opacity:1;fill-rule:nonzero;stroke:none"
         d="m 1335,658.238 -333.34,-10 40.01,66.672 293.33,-10 0,-46.672" /><path
         id="path32"
         style="fill:#ffffff;fill-opacity:1;fill-rule:nonzero;stroke:none"
         d="m 1527.88,685.648 c 0,-15.777 -35.52,-28.578 -79.34,-28.578 -43.82,0 -79.34,12.801 -79.34,28.578 0,15.782 35.52,28.582 79.34,28.582 43.82,0 79.34,-12.8 79.34,-28.582" /><path
         id="path34"
         style="fill:#d5d7d4;fill-opacity:1;fill-rule:nonzero;stroke:none"
         d="m 850,1719.07 0,-356.31 c 0,-37.74 32.262,-67.52 70,-67.52 37.738,0 70,31.41 70,69.15 l 0,-60.2 c 0,-37.74 28.93,-67.52 66.67,-67.52 30.02,0 53.33,19.9 63.33,47.03 l 0,521.3 -270,0 0,-85.93" /><path
         id="path36"
         style="fill:#d5d7d4;fill-opacity:1;fill-rule:nonzero;stroke:none"
         d="m 311.477,2302.72 c 8.363,0 20.117,12.7 7.046,12.7 -8.363,0 -20.117,-12.7 -7.046,-12.7" /><path
         id="path38"
         style="fill:#808384;fill-opacity:1;fill-rule:nonzero;stroke:none"
         d="m 850,1809.91 669.969,0 0,121.652 -669.969,0 0,-121.652 z" /><path
         id="path40"
         style="fill:#808384;fill-opacity:1;fill-rule:nonzero;stroke:none"
         d="m 850,2089.91 669.969,0 0,121.652 -669.969,0 0,-121.652 z" /><path
         id="path42"
         style="fill:#808384;fill-opacity:1;fill-rule:nonzero;stroke:none"
         d="m 850,2369.91 669.969,0 0,121.652 -669.969,0 0,-121.652 z" /><path
         id="path44"
         style="fill:#ffffff;fill-opacity:1;fill-rule:nonzero;stroke:none"
         d="m 1270,2669.07 c -373.953,0 -725.523,-145.62 -989.949,-410.05 C 15.625,1994.6 -130,1643.03 -130,1269.07 -130,895.121 15.625,543.551 280.051,279.121 544.477,14.6992 896.047,-130.93 1270,-130.93 c 373.95,0 725.52,145.6292 989.95,410.051 264.42,264.43 410.05,616 410.05,989.949 0,373.96 -145.63,725.53 -410.05,989.95 -264.43,264.43 -616,410.05 -989.95,410.05 z m 0,-140 c 695.88,0 1260,-564.12 1260,-1260 C 2530,573.191 1965.88,9.07031 1270,9.07031 574.121,9.07031 10,573.191 10,1269.07 c 0,695.88 564.121,1260 1260,1260" /><path
         id="path46"
         style="fill:#ffffff;fill-opacity:1;fill-rule:nonzero;stroke:none"
         d="m 2064.5,1617.41 c 38.26,-9.31 68.3,-39.36 77.61,-77.61 9.32,38.25 39.36,68.3 77.62,77.61 -38.26,9.31 -68.3,39.36 -77.62,77.61 -9.31,-38.25 -39.35,-68.3 -77.61,-77.61" /><path
         id="path48"
         style="fill:#ffffff;fill-opacity:1;fill-rule:nonzero;stroke:none"
         d="m 2064.5,1436.96 c 38.26,-9.31 68.3,-39.36 77.61,-77.61 9.32,38.25 39.36,68.3 77.62,77.61 -38.26,9.31 -68.3,39.35 -77.62,77.61 -9.31,-38.26 -39.35,-68.3 -77.61,-77.61" /><path
         id="path50"
         style="fill:#ffffff;fill-opacity:1;fill-rule:nonzero;stroke:none"
         d="m 1890.27,1436.96 c 38.26,-9.31 68.3,-39.36 77.61,-77.61 9.32,38.25 39.36,68.3 77.62,77.61 -38.26,9.31 -68.3,39.35 -77.62,77.61 -9.31,-38.26 -39.35,-68.3 -77.61,-77.61" /><path
         id="path52"
         style="fill:#ffffff;fill-opacity:1;fill-rule:nonzero;stroke:none"
         d="m 585.227,1076.69 c -9.313,38.25 -39.356,68.3 -77.614,77.61 38.258,9.31 68.301,39.35 77.614,77.61 9.312,-38.26 39.355,-68.3 77.613,-77.61 -38.258,-9.31 -68.301,-39.36 -77.613,-77.61" /><path
         id="path54"
         style="fill:#ffffff;fill-opacity:1;fill-rule:nonzero;stroke:none"
         d="m 404.773,1076.69 c -9.312,38.25 -39.355,68.3 -77.613,77.61 38.258,9.31 68.301,39.35 77.613,77.61 9.313,-38.26 39.356,-68.3 77.614,-77.61 -38.258,-9.31 -68.301,-39.36 -77.614,-77.61" /><path
         id="path56"
         style="fill:#ffffff;fill-opacity:1;fill-rule:nonzero;stroke:none"
         d="m 404.773,902.461 c -9.312,38.25 -39.355,68.301 -77.613,77.609 38.258,9.309 68.301,39.35 77.613,77.61 9.313,-38.26 39.356,-68.301 77.614,-77.61 -38.258,-9.308 -68.301,-39.359 -77.614,-77.609" /></g></g></svg>