<?xml version="1.0" encoding="UTF-8" standalone="no"?>
<svg
   xmlns:dc="http://purl.org/dc/elements/1.1/"
   xmlns:cc="http://creativecommons.org/ns#"
   xmlns:rdf="http://www.w3.org/1999/02/22-rdf-syntax-ns#"
   xmlns:svg="http://www.w3.org/2000/svg"
   xmlns="http://www.w3.org/2000/svg"
   viewBox="0 0 62.5 62.5"
   height="62.5"
   width="62.5"
   xml:space="preserve"
   version="1.1"
   id="svg2"><metadata
     id="metadata8"><rdf:RDF><cc:Work
         rdf:about=""><dc:format>image/svg+xml</dc:format><dc:type
           rdf:resource="http://purl.org/dc/dcmitype/StillImage" /></cc:Work></rdf:RDF></metadata><defs
     id="defs6" /><g
     transform="matrix(1.25,0,0,-1.25,0,62.5)"
     id="g10"><g
       transform="scale(0.1,0.1)"
       id="g12"><path
         id="path14"
         style="fill:#ffffff;fill-opacity:1;fill-rule:nonzero;stroke:none"
         d="m 253.16,214.598 c -20.726,0 -37.125,16.39 -37.125,37.136 0,20.731 16.399,37.043 37.125,37.043 20.754,0 37.059,-16.312 37.059,-37.043 0,-20.746 -16.305,-37.136 -37.059,-37.136 z m -0.484,5.793 c -17.535,0 -31.434,13.836 -31.434,31.543 0,17.574 13.899,31.398 31.434,31.398 17.629,0 31.5,-13.824 31.5,-31.398 0,-17.707 -13.871,-31.543 -31.5,-31.543 z m 0,98.183 c -36.762,0 -66.629,-29.859 -66.629,-66.64 0,-36.852 29.867,-66.711 66.629,-66.711 36.824,0 66.664,29.859 66.664,66.711 0,36.781 -29.84,66.64 -66.664,66.64 z m 0,-98.183 c -17.535,0 -31.434,13.836 -31.434,31.543 0,17.574 13.899,31.398 31.434,31.398 17.629,0 31.5,-13.824 31.5,-31.398 0,-17.707 -13.871,-31.543 -31.5,-31.543 z m 0,98.183 c -36.762,0 -66.629,-29.859 -66.629,-66.64 0,-36.852 29.867,-66.711 66.629,-66.711 36.824,0 66.664,29.859 66.664,66.711 0,36.781 -29.84,66.64 -66.664,66.64 z M 250,154.223 c -133.867,0 -204.8633,98.687 -204.8633,98.687 0,0 70.9963,98.723 204.8633,98.723 133.898,0 204.984,-98.723 204.984,-98.723 0,0 -71.086,-98.687 -204.984,-98.687 z m 0.059,338.726 C 117.695,492.949 10,385.785 10,252.91 10,120.086 117.695,12.9258 250.059,12.9258 382.336,12.9258 490,120.086 490,252.91 490,385.785 382.336,492.949 250.059,492.949 Z m 2.617,-272.558 c -17.535,0 -31.434,13.836 -31.434,31.543 0,17.574 13.899,31.398 31.434,31.398 17.629,0 31.5,-13.824 31.5,-31.398 0,-17.707 -13.871,-31.543 -31.5,-31.543 z m 0,98.183 c -36.762,0 -66.629,-29.859 -66.629,-66.64 0,-36.852 29.867,-66.711 66.629,-66.711 36.824,0 66.664,29.859 66.664,66.711 0,36.781 -29.84,66.64 -66.664,66.64 z m 0,-98.183 c -17.535,0 -31.434,13.836 -31.434,31.543 0,17.574 13.899,31.398 31.434,31.398 17.629,0 31.5,-13.824 31.5,-31.398 0,-17.707 -13.871,-31.543 -31.5,-31.543 z m 0,98.183 c -36.762,0 -66.629,-29.859 -66.629,-66.64 0,-36.852 29.867,-66.711 66.629,-66.711 36.824,0 66.664,29.859 66.664,66.711 0,36.781 -29.84,66.64 -66.664,66.64 z m 0,-98.183 c -17.535,0 -31.434,13.836 -31.434,31.543 0,17.574 13.899,31.398 31.434,31.398 17.629,0 31.5,-13.824 31.5,-31.398 0,-17.707 -13.871,-31.543 -31.5,-31.543 z m 0,98.183 c -36.762,0 -66.629,-29.859 -66.629,-66.64 0,-36.852 29.867,-66.711 66.629,-66.711 36.824,0 66.664,29.859 66.664,66.711 0,36.781 -29.84,66.64 -66.664,66.64 z m 0,-98.183 c -17.535,0 -31.434,13.836 -31.434,31.543 0,17.574 13.899,31.398 31.434,31.398 17.629,0 31.5,-13.824 31.5,-31.398 0,-17.707 -13.871,-31.543 -31.5,-31.543 z m 0,98.183 c -36.762,0 -66.629,-29.859 -66.629,-66.64 0,-36.852 29.867,-66.711 66.629,-66.711 36.824,0 66.664,29.859 66.664,66.711 0,36.781 -29.84,66.64 -66.664,66.64" /></g></g></svg>