<?xml version="1.0" encoding="UTF-8" standalone="no"?>
<svg
   xmlns:dc="http://purl.org/dc/elements/1.1/"
   xmlns:cc="http://creativecommons.org/ns#"
   xmlns:rdf="http://www.w3.org/1999/02/22-rdf-syntax-ns#"
   xmlns:svg="http://www.w3.org/2000/svg"
   xmlns="http://www.w3.org/2000/svg"
   viewBox="0 0 62.5 62.5"
   height="62.5"
   width="62.5"
   xml:space="preserve"
   version="1.1"
   id="svg2"><metadata
     id="metadata8"><rdf:RDF><cc:Work
         rdf:about=""><dc:format>image/svg+xml</dc:format><dc:type
           rdf:resource="http://purl.org/dc/dcmitype/StillImage" /></cc:Work></rdf:RDF></metadata><defs
     id="defs6" /><g
     transform="matrix(1.25,0,0,-1.25,0,62.5)"
     id="g10"><g
       transform="scale(0.1,0.1)"
       id="g12"><path
         id="path14"
         style="fill:#3c61a9;fill-opacity:1;fill-rule:nonzero;stroke:none"
         d="m 301.41,249.918 -33.625,0 c 0,-53.742 0,-119.914 0,-119.914 l -49.832,0 c 0,0 0,65.508 0,119.914 l -23.707,0 0,42.363 23.707,0 0,27.422 c 0,19.621 9.317,50.293 50.281,50.293 l 36.914,-0.148 0,-41.114 c 0,0 -22.437,0 -26.789,0 -4.371,0 -10.574,-2.187 -10.574,-11.566 l 0,-24.887 37.996,0 -4.371,-42.363 z M 250,490 C 117.461,490 10,382.551 10,249.988 10,117.434 117.461,10 250,10 382.551,10 490,117.434 490,249.988 490,382.551 382.551,490 250,490" /></g></g></svg>