<?xml version="1.0" encoding="UTF-8" standalone="no"?>
<svg
   xmlns:dc="http://purl.org/dc/elements/1.1/"
   xmlns:cc="http://creativecommons.org/ns#"
   xmlns:rdf="http://www.w3.org/1999/02/22-rdf-syntax-ns#"
   xmlns:svg="http://www.w3.org/2000/svg"
   xmlns="http://www.w3.org/2000/svg"
   viewBox="0 0 62.5 62.5"
   height="62.5"
   width="62.5"
   xml:space="preserve"
   version="1.1"
   id="svg2"><metadata
     id="metadata8"><rdf:RDF><cc:Work
         rdf:about=""><dc:format>image/svg+xml</dc:format><dc:type
           rdf:resource="http://purl.org/dc/dcmitype/StillImage" /></cc:Work></rdf:RDF></metadata><defs
     id="defs6" /><g
     transform="matrix(1.25,0,0,-1.25,0,62.5)"
     id="g10"><g
       transform="scale(0.1,0.1)"
       id="g12"><path
         id="path14"
         style="fill:#dd4742;fill-opacity:1;fill-rule:nonzero;stroke:none"
         d="m 201.262,358.473 c -19.055,0.566 -31.86,-18.59 -28.543,-43.614 3.281,-25.039 21.398,-42.523 40.472,-43.125 19.051,-0.543 30.012,15.575 26.723,40.621 -3.281,25.004 -19.59,45.54 -38.652,46.118" /><path
         id="path16"
         style="fill:#dd4742;fill-opacity:1;fill-rule:nonzero;stroke:none"
         d="m 209.285,220.504 c -28.426,0.324 -52.492,-17.953 -52.492,-39.109 0,-21.586 20.523,-39.579 48.93,-39.579 39.941,0 53.863,16.868 53.863,38.493 0,2.597 -0.336,5.16 -0.918,7.613 -3.125,12.211 -15.555,18.918 -30.992,29.637 -5.598,1.82 -11.778,2.871 -18.391,2.945" /><path
         id="path18"
         style="fill:#dd4742;fill-opacity:1;fill-rule:nonzero;stroke:none"
         d="m 369.902,317.77 -32.629,0 0,-32.602 -16.316,0 0,32.602 -32.621,0 0,16.316 32.621,0 0,32.637 16.316,0 0,-32.637 32.629,0 0,-16.316 z m -101.566,-4.368 c 0,-15.644 -8.652,-28.234 -20.883,-37.797 -11.957,-9.339 -14.211,-13.234 -14.211,-21.171 0,-6.778 14.27,-16.844 20.828,-21.77 22.844,-17.137 27.469,-27.934 27.469,-49.34 0,-26.754 -28.812,-53.32 -75.664,-53.32 -41.105,0 -75.789,16.68 -75.789,43.434 0,27.132 28.769,55.429 69.875,55.429 4.488,0 8.586,0.125 12.84,0.125 -5.633,5.449 -10.18,10.156 -10.18,18.426 0,4.926 1.563,9.613 3.754,13.793 -2.227,-0.141 -4.516,-0.289 -6.859,-0.289 -33.766,0 -53.418,23.73 -53.418,53.469 0,29.125 29.922,55.605 65.812,55.605 18.508,0 70.746,0 70.746,0 l -15.808,-16.605 -18.575,0 c 13.114,-7.512 20.063,-22.942 20.063,-39.989 z M 250,490.012 C 117.457,490.012 10,382.535 10,250 10,117.426 117.457,9.98828 250,9.98828 382.555,9.98828 490,117.426 490,250 490,382.535 382.555,490.012 250,490.012" /></g></g></svg>