<?xml version="1.0" encoding="UTF-8" standalone="no"?>
<svg
   xmlns:dc="http://purl.org/dc/elements/1.1/"
   xmlns:cc="http://creativecommons.org/ns#"
   xmlns:rdf="http://www.w3.org/1999/02/22-rdf-syntax-ns#"
   xmlns:svg="http://www.w3.org/2000/svg"
   xmlns="http://www.w3.org/2000/svg"
   viewBox="0 0 187.5 75"
   height="75"
   width="187.5"
   xml:space="preserve"
   version="1.1"
   id="svg2"><metadata
     id="metadata8"><rdf:RDF><cc:Work
         rdf:about=""><dc:format>image/svg+xml</dc:format><dc:type
           rdf:resource="http://purl.org/dc/dcmitype/StillImage" /></cc:Work></rdf:RDF></metadata><defs
     id="defs6" /><g
     transform="matrix(1.25,0,0,-1.25,0,75)"
     id="g10"><g
       transform="scale(0.1,0.1)"
       id="g12"><path
         id="path14"
         style="fill:#abe1d6;fill-opacity:1;fill-rule:nonzero;stroke:none"
         d="m 1175.31,362.684 c -6.51,-0.25 -21.8,-4.508 -24.55,-47.016 -2.76,-42.496 8.51,-53.5 18.04,-54.758 9.51,-1.246 26.3,14 27.3,59.266 1.01,45.254 -20.79,42.508 -20.79,42.508 z M 968.828,231.969 c -37.66,-32.551 -40.906,-55.801 -40.906,-55.801 0,0 -3.731,-19.059 14.402,-19.992 21.797,-2.203 25.457,24.258 26.043,47.426 0.278,10.941 0.461,28.367 0.461,28.367 z M 946.516,364 c -6.61,-0.25 -23.246,-6.051 -27.008,-47.195 -2.793,-43.071 8.644,-54.215 18.316,-55.489 9.668,-1.257 26.707,14.192 27.715,60.043 C 966.563,367.227 946.516,364 946.516,364 Z m -133.278,0.184 c -6.511,-0.243 -21.797,-4.496 -24.554,-47.004 -2.75,-42.512 8.519,-53.512 18.043,-54.758 9.523,-1.246 26.3,13.996 27.304,59.262 1.008,45.254 -20.793,42.5 -20.793,42.5 z m 626.422,-72.293 c 0,-48.274 -29.25,-47.508 -29.25,-47.508 -27.83,-0.992 -34.96,28.43 -36.71,58.332 -1.33,22.48 0,47.504 0,47.504 0,0 -0.19,1.164 -0.96,0 -9.31,-16.899 -15.63,-42.531 -18.74,-62.379 -2.25,-14.406 -2.48,-26.461 -2.48,-26.461 0,0 0.38,-2.711 -1.92,-4.242 -15.1,-6.965 -24.85,2.886 -28.29,13.902 -4.59,10.426 -7.26,73.199 -7.26,76.484 0,3.286 -2.68,0.766 -2.68,0.766 -20.84,-34.961 -21.04,-86.336 -21.04,-96.762 0,-10.425 -17.78,-7.144 -17.78,-7.144 -15.1,1.152 -14.53,8.5 -14.53,8.5 l -0.68,12.461 c -5.25,-9.684 -15,-22.254 -30.01,-21.285 -22.71,1.476 -27.11,24.988 -27.44,28.957 0,0 -11.31,-29.282 -42.42,-28.957 -21.11,0.336 -29.6,22.171 -29.6,22.171 0,0 -8.48,-22.828 -29.27,-22.003 -20.79,0.828 -37.92,24.82 -36.59,55.921 1.33,31.098 6.15,46.657 6.15,46.657 0,0 1.66,3.14 -1.16,3.308 -2.83,0.168 -20.79,-0.336 -20.79,-0.336 0,0 -10.15,-40.699 -53.058,-91.324 0,0 0.348,-15.82 0.336,-33.41 -0.023,-33.285 -4.16,-77.926 -49.234,-81.57 -38.992,2.636 -36.793,32.695 -36.793,32.695 -0.934,8.832 4.652,25.105 27.891,46.953 23.25,21.863 32.55,30.227 32.55,30.227 l -0.929,13.953 c -14.879,-24.645 -37.66,-23.254 -37.66,-23.254 0,0 -17.594,-3.57 -32.383,22.605 -4.352,-8.976 -14.239,-24.269 -30.407,-22.484 -22.718,2.492 -27.23,25.168 -27.562,29.172 0,0 -11.359,-29.508 -42.594,-29.172 -21.215,0.336 -29.73,22.34 -29.73,22.34 -2.457,4.445 -4.356,11.219 -5.34,15.195 -0.25,-0.812 -0.551,-1.699 -0.953,-2.73 -4.805,-12.309 -16.723,-33.774 -35,-34.051 -33.582,0 -34.992,52.086 -34.992,52.086 -9.711,-23.106 -28.731,-52.695 -64.133,-52.492 -35.403,0.203 -39.649,12.976 -39.649,14.8 0,1.821 -0.605,3.848 3.438,9.731 4.047,5.875 7.484,8.305 10.312,8.305 2.84,0 7.899,-4.254 7.899,-4.254 0,0 7.683,-7.5 16.383,-7.5 11.128,0.406 13.554,9.324 14.363,18.445 0.808,9.117 -5.66,18.852 -14.567,26.949 -8.906,8.113 -15.777,14.192 -15.777,14.192 -12.746,-21.489 -22.453,-36.075 -29.535,-48.645 -17.199,-27.961 -34.266,-32.301 -40.867,-31.414 -9.106,1.215 -17.797,10.535 -18.207,37.703 -0.407,27.16 2.023,73.563 2.023,76.008 0,2.422 -2.226,1.211 -2.226,1.211 -33.989,-36.086 -44.102,-110.258 -44.102,-111.684 0,-1.414 -3.031,-3.035 -6.066,-3.035 -3.032,0 1.007,0.207 -11.125,0.602 -12.137,0.41 -11.332,23.515 -11.332,23.515 l 0.812,110.461 c 0.203,3.657 3.645,5.274 15.176,2.231 11.527,-3.035 11.121,-6.895 11.121,-6.895 l -0.402,-64.043 c 29.738,87.762 52.191,73.981 65.742,67.293 13.558,-6.687 11.738,-16.422 11.738,-16.422 0,0 -1.422,-48.234 -2.019,-65.265 -0.614,-17.02 1.816,-23.707 5.656,-24.317 9.515,-2.23 43.301,63.028 43.301,63.028 -14.977,16.226 -6.801,36.011 4.851,44.593 7.918,5.836 17.602,6.485 17.602,6.485 0,0 15.172,0.812 14.769,-11.961 0.395,-13.977 -15.172,-31.004 -15.172,-31.004 30.133,-21.488 44.293,-32.84 46.524,-49.461 0.996,-7.957 -0.809,-12.969 -0.809,-12.969 21.446,18.649 23.067,39.528 23.067,39.528 l 0.402,69.726 -31.762,0.406 c 0,0 -2.426,0.192 -2.836,6.075 0,11.148 5.875,15.808 5.875,15.808 l 30.336,-0.406 c 0,0 1.016,31.426 1.219,36.492 1.008,7.301 5.664,8.305 19.012,4.856 13.359,-3.442 13.359,-6.485 13.359,-6.485 l -1.625,-36.683 c 0,0 33.383,-1.618 37.828,-2.028 4.461,-0.406 5.875,-1.617 4.86,-9.121 -1.012,-7.5 -5.465,-9.324 -5.465,-9.324 l -37.625,-0.813 -2.629,-80.871 c 0,-12.562 0.605,-42.152 12.336,-41.949 16.387,-0.812 26.105,35.871 26.105,35.871 l 0.18,0.301 c -0.188,5.715 -0.066,12.57 0.742,20.266 3.11,29.468 16.25,64.007 46.43,64.007 0,0 18.383,0.672 28.066,-17.664 l 0.336,6.664 c 0,0 -0.672,8.004 12.02,6.004 12.703,-2.004 17.043,-7 16.707,-11.004 0,0 -2.336,-51.339 -1,-81.683 1.703,-17.633 4.726,-28.047 13.691,-27.336 7.731,1.125 13.219,11.695 16.539,20.695 -11.222,93.36 39.871,104.684 39.871,104.684 0,0 22.617,1.656 32.93,-17.207 l 0.328,6.277 c 0,0 -0.992,8.281 10.984,5.969 0,0 4.985,-0.668 10.313,-2.649 5.32,-1.988 6.98,-3.32 6.98,-8.281 0,-4.961 -1,-92.183 -1,-92.183 0,0 26.612,35.738 33.272,70.468 0,0 -9.32,6.95 -8.65,16.887 0.67,9.922 5.65,21.836 20.29,21.836 14.63,0 15.3,-12.91 12.97,-21.836 0,0 12.31,1.652 22.95,4.301 10.65,2.637 24.96,4.293 25.95,-12.246 0.66,-5.957 -2,-10.598 -2,-10.598 0,0 -8.32,-36.719 -6.99,-51.605 1.34,-14.895 5.34,-37.391 16.97,-34.754 11.65,2.648 15.64,19.199 15.64,19.199 0,0 -4.68,19.141 -2.33,41.359 3.09,29.254 16.18,63.528 46.23,63.528 0,0 18.3,0.664 27.95,-17.532 l 0.33,6.618 c 0,0 -0.67,7.945 11.98,5.957 12.63,-1.993 16.96,-6.953 16.63,-10.922 0,0 -2.33,-50.957 -1,-81.074 1.69,-17.485 4.71,-27.829 13.64,-27.133 8.61,0.261 15.86,14.812 20.36,26.676 l -0.05,4.398 0.28,86.039 c 0.71,4.926 5.16,5.215 5.16,5.215 l 10.32,-1.598 c 14.49,-2.168 12.48,-7.668 12.48,-7.668 l 0,-48.683 c 10.76,33.031 15.92,45.64 20.79,54.039 4.16,7.156 17.78,2.457 17.78,2.457 0,0 14.77,-3.906 15.06,-17.52 -0.43,-22.461 2.73,-59.039 2.73,-59.039 l 0.83,-0.5 0.24,0.801 c 2.94,23.539 16.32,62.164 21.68,72.211 5.35,10.039 20.84,2.898 20.84,2.898 18.54,-6.379 16.06,-17.379 16.06,-17.379 -5.55,-94.449 6.11,-100.632 13,-101.211 6.88,-0.585 10.51,8.309 12.04,12.551 1.53,4.254 3.44,13.516 4.59,17.196 1.14,3.668 4.78,3.859 4.78,3.859 0,0 4.21,-0.969 4.21,-4.445 z M 362.895,435.348 c 20.914,20.515 33.867,21.14 33.867,21.14 0,0 4.078,0.598 13.976,-2.867 9.887,-3.461 10.293,-8.781 10.293,-8.781 l 0,-150.133 c 1.27,-42.027 -9.179,-58.184 -21.726,-69.402 -7.125,-5.801 -12.856,-6.543 -13.555,-6.543 -1.738,0 -3.062,0.215 -3.367,2.551 -0.313,2.347 1.832,8.472 1.832,8.472 6.328,16.024 5.812,43.793 5.812,43.793 l 0.614,161.77 c 0,0 0.507,2.957 -2.039,2.047 -24.68,-21.223 -27.743,-51.137 -28.559,-65.637 -0.41,-21.742 9.023,-32.961 9.023,-32.961 0,0 2.45,-2.145 2.145,-5.199 0,-4.149 -3.82,-3.836 -3.82,-3.836 -9.286,0.863 -24.075,11.386 -29.375,24.043 -4.399,9.347 -4.286,19.437 -4.286,19.437 0.305,12.703 8.262,41.586 29.165,62.106" /><path
         id="path16"
         style="fill:#abe1d6;fill-opacity:1;fill-rule:nonzero;stroke:none"
         d="m 270.109,253.602 c 0,-3.633 -2.961,-6.582 -6.601,-6.582 l -169.5705,0 c -3.6562,0 -6.6094,2.949 -6.6094,6.582 l 0,102.718 22.0939,0 c -1.656,-6.039 -2.555,-12.39 -2.555,-18.949 0,-39.523 32.235,-71.68 71.848,-71.68 39.621,0 71.848,32.157 71.848,71.68 0,6.559 -0.887,12.91 -2.551,18.949 l 22.097,0 0,-102.718 z m -91.394,129.086 c 25.086,0 45.422,-20.293 45.422,-45.317 0,-25.035 -20.336,-45.312 -45.422,-45.312 -25.082,0 -45.422,20.277 -45.422,45.312 0,25.024 20.34,45.317 45.422,45.317 z m 45.699,39.546 c 0,3.633 2.957,6.594 6.602,6.594 l 31.937,0 c 3.645,0 6.606,-2.961 6.606,-6.594 l 0,-31.867 c 0,-3.629 -2.961,-6.578 -6.606,-6.578 l -31.937,0 c -3.645,0 -6.602,2.949 -6.602,6.578 l 0,31.867 z m 44.043,33.496 -180.0351,0 c -15.5078,0 -28.0781,-12.535 -28.0781,-28.007 l 0,-180.164 c 0,-15.473 12.5703,-28.008 28.0781,-28.008 l 180.0351,0 c 15.508,0 28.078,12.535 28.078,28.008 l 0,180.164 c 0,15.472 -12.57,28.007 -28.078,28.007" /></g></g></svg>