<?xml version="1.0" encoding="UTF-8" standalone="no"?>
<svg
   xmlns:dc="http://purl.org/dc/elements/1.1/"
   xmlns:cc="http://creativecommons.org/ns#"
   xmlns:rdf="http://www.w3.org/1999/02/22-rdf-syntax-ns#"
   xmlns:svg="http://www.w3.org/2000/svg"
   xmlns="http://www.w3.org/2000/svg"
   viewBox="0 0 62.5 62.5"
   height="62.5"
   width="62.5"
   xml:space="preserve"
   version="1.1"
   id="svg2"><metadata
     id="metadata8"><rdf:RDF><cc:Work
         rdf:about=""><dc:format>image/svg+xml</dc:format><dc:type
           rdf:resource="http://purl.org/dc/dcmitype/StillImage" /></cc:Work></rdf:RDF></metadata><defs
     id="defs6" /><g
     transform="matrix(1.25,0,0,-1.25,0,62.5)"
     id="g10"><g
       transform="scale(0.1,0.1)"
       id="g12"><path
         id="path14"
         style="fill:#ffffff;fill-opacity:1;fill-rule:nonzero;stroke:none"
         d="m 469.121,318.086 -132.187,12.496 c -8.34,0.758 -15.508,6.066 -18.969,14.031 l -47.336,114.754 c -7.559,18.93 -34.418,18.93 -42.035,0 L 181.648,344.613 C 178.641,336.648 171.02,331.34 162.711,330.582 L 30.5234,318.086 C 10.8281,316.211 2.84766,291.563 17.6328,278.328 l 99.6092,-87.5 c 6.442,-5.699 9.094,-14.023 7.196,-22.336 L 94.5391,45.7969 C 89.9922,26.457 110.828,10.543 128.23,20.7734 l 110.211,64.7618 c 7.227,4.1718 15.926,4.1718 23.125,0 L 371.773,20.7734 c 17.434,-10.2304 38.27,5.293 33.723,25.0235 L 375.957,168.492 c -1.926,8.313 0.723,16.637 7.168,22.336 l 99.605,87.5 c 14.426,13.235 6.083,37.883 -13.609,39.758" /></g></g></svg>