<?xml version="1.0" encoding="UTF-8" standalone="no"?>
<svg
   xmlns:dc="http://purl.org/dc/elements/1.1/"
   xmlns:cc="http://creativecommons.org/ns#"
   xmlns:rdf="http://www.w3.org/1999/02/22-rdf-syntax-ns#"
   xmlns:svg="http://www.w3.org/2000/svg"
   xmlns="http://www.w3.org/2000/svg"
   viewBox="0 0 62.5 62.5"
   height="62.5"
   width="62.5"
   xml:space="preserve"
   version="1.1"
   id="svg2"><metadata
     id="metadata8"><rdf:RDF><cc:Work
         rdf:about=""><dc:format>image/svg+xml</dc:format><dc:type
           rdf:resource="http://purl.org/dc/dcmitype/StillImage" /></cc:Work></rdf:RDF></metadata><defs
     id="defs6" /><g
     transform="matrix(1.25,0,0,-1.25,0,62.5)"
     id="g10"><g
       transform="scale(0.1,0.1)"
       id="g12"><path
         id="path14"
         style="fill:#4dade4;fill-opacity:1;fill-rule:nonzero;stroke:none"
         d="m 345.438,298.918 c 0.097,-2.117 0.144,-4.227 0.144,-6.336 0,-65.086 -49.527,-140.117 -140.094,-140.117 -27.812,0 -53.679,8.16 -75.484,22.113 3.871,-0.422 7.781,-0.676 11.754,-0.676 23.086,0 44.289,7.875 61.137,21.078 -21.536,0.395 -39.723,14.637 -45.977,34.18 3.004,-0.539 6.074,-0.859 9.258,-0.859 4.492,0 8.84,0.609 12.957,1.719 -22.496,4.546 -39.485,24.445 -39.485,48.281 l 0,0.609 c 6.649,-3.683 14.235,-5.867 22.297,-6.156 -13.207,8.84 -21.886,23.906 -21.886,40.996 0,9.02 2.425,17.48 6.656,24.746 24.273,-29.773 60.574,-49.391 101.48,-51.426 -0.832,3.578 -1.269,7.332 -1.269,11.2 0,27.199 22.047,49.23 49.246,49.23 14.156,0 26.961,-5.977 35.933,-15.531 11.211,2.203 21.75,6.297 31.282,11.953 -3.696,-11.512 -11.489,-21.152 -21.653,-27.258 9.957,1.184 19.45,3.848 28.274,7.734 -6.598,-9.863 -14.945,-18.539 -24.57,-25.48 z M 250.004,489.996 C 117.465,489.996 10,382.539 10,249.988 10,117.426 117.465,10.0039 250.004,10.0039 382.543,10.0039 490,117.426 490,249.988 490,382.539 382.543,489.996 250.004,489.996" /></g></g></svg>