<?xml version="1.0" encoding="UTF-8" standalone="no"?>
<!-- Created with Inkscape (http://www.inkscape.org/) -->

<svg
   xmlns:dc="http://purl.org/dc/elements/1.1/"
   xmlns:cc="http://creativecommons.org/ns#"
   xmlns:rdf="http://www.w3.org/1999/02/22-rdf-syntax-ns#"
   xmlns:svg="http://www.w3.org/2000/svg"
   xmlns="http://www.w3.org/2000/svg"
   xmlns:inkscape="http://www.inkscape.org/namespaces/inkscape"
   version="1.1"
   width="187.5"
   height="75"
   id="svg2"
   xml:space="preserve"><metadata
     id="metadata8"><rdf:RDF><cc:Work
         rdf:about=""><dc:format>image/svg+xml</dc:format><dc:type
           rdf:resource="http://purl.org/dc/dcmitype/StillImage" /></cc:Work></rdf:RDF></metadata><defs
     id="defs6" /><g
     transform="matrix(1.25,0,0,-1.25,0,75)"
     id="g10"><g
       transform="scale(0.1,0.1)"
       id="g12"><path
         d="m 552.82,369.035 c 10.77,0 20.086,3.758 27.95,11.289 6.992,6.656 10.625,13.614 10.918,20.856 0.281,4.925 -1.61,9.769 -5.676,14.55 -4.086,4.766 -9.18,7.168 -15.289,7.168 -10.489,0 -20.024,-3.472 -28.606,-10.429 -8.586,-6.949 -13.027,-14.199 -13.308,-21.719 -0.59,-14.492 7.421,-21.715 24.011,-21.715"
         inkscape:connector-curvature="0"
         id="path14"
         style="fill:#abe1d6;fill-opacity:1;fill-rule:nonzero;stroke:none" /><path
         d="m 1135.25,277.273 c -0.59,-13.992 -4.8,-27.402 -12.66,-40.23 -9.31,-15.469 -20.53,-23.188 -33.62,-23.188 -5.83,0 -10.35,3.196 -13.54,9.61 -2.91,5.547 -4.22,11.965 -3.93,19.258 0.57,14.863 4.94,28.867 13.11,41.992 9.59,16.035 21.81,24.062 36.67,24.062 4.64,0 8.21,-3.289 10.69,-9.839 2.47,-6.567 3.57,-13.793 3.28,-21.665 z M 916.812,245.469 c -0.164,3.761 -0.164,5.652 0,5.652 0.286,10.996 4.942,22.512 13.946,34.531 9.015,12.012 17.867,18.028 26.594,18.028 6.687,0 9.875,-3.922 9.597,-11.727 -0.297,-5.793 -4.656,-13.332 -13.082,-22.598 -10.461,-10.722 -22.816,-18.679 -37.055,-23.886 z m 254.238,78.543 c -10.49,13.652 -25.92,20.488 -46.28,20.488 -31.73,0 -58.06,-11.617 -79.02,-34.863 -19.52,-20.926 -28.54,-43.895 -27.07,-68.887 0.1,-1.832 0.26,-3.633 0.45,-5.398 -1.09,-0.481 -2.16,-0.957 -3.27,-1.426 -24.758,-10.676 -47.61,-15.988 -68.563,-15.988 -10.488,0 -18.344,3.624 -23.578,10.878 28.222,4.649 51.66,15.528 70.301,32.668 17.46,15.684 25.61,30.926 24.45,45.731 -1.75,23.223 -16.88,34.847 -45.408,34.847 -30.859,0 -57.636,-11.652 -80.335,-34.925 -20.668,-21.258 -31.157,-43.672 -31.442,-67.227 -0.078,-3.953 0.137,-7.75 0.594,-11.414 -4.879,-3.211 -8.582,-4.844 -11.067,-4.844 -5.542,0 -9.019,1.141 -10.472,3.465 -1.457,2.324 -2.047,6.528 -1.75,12.617 0,2.328 1.808,11.231 5.461,26.75 3.633,15.516 5.597,27.332 5.89,35.457 0.575,11.875 -1.761,21.02 -6.992,27.395 -6.105,7.832 -16.156,11.16 -30.121,10.008 -11.64,-0.887 -22.855,-5.254 -33.621,-13.102 -6.406,-4.66 -12.949,-10.918 -19.641,-18.773 -2.332,-2.051 -4.511,-3.946 -6.558,-5.684 0.281,11.934 -2.039,21.106 -6.977,27.512 -6.121,7.863 -16.308,11.199 -30.574,10.047 -16.582,-1.461 -31.578,-8.016 -44.961,-19.645 -5.832,-4.965 -10.926,-10.793 -15.285,-17.484 0.57,2.621 0.863,5.39 0.863,8.305 0,9.019 -2.336,16.949 -6.988,23.796 -4.66,6.836 -10.77,9.961 -18.336,9.375 -4.367,-0.293 -12.656,-6.113 -24.883,-17.449 -16.894,-15.722 -26.055,-24.172 -27.512,-25.324 l 10.481,-11.785 c 8.152,5.875 13.105,8.828 14.852,8.828 3.183,0 4.503,-2.621 3.925,-7.836 -0.277,-7.559 -1.621,-18.063 -4.019,-31.563 -1.489,-8.367 -2.559,-15.582 -3.227,-21.66 l -0.39,-0.328 c -10.489,-8.625 -17.758,-12.922 -21.825,-12.922 -9.316,0 -13.836,6.219 -13.543,18.703 4.368,27.254 8.45,49.723 12.239,67.418 1.148,10.442 -0.524,18.907 -5.024,25.442 -4.523,6.531 -11.574,9.355 -21.172,8.484 -6.125,-0.582 -15.441,-6.406 -27.957,-17.457 -4.343,-3.949 -8.695,-7.883 -13.039,-11.816 -0.859,20.594 -10.254,31.191 -28.25,31.719 -26.945,0.867 -45.207,-14.348 -54.758,-45.657 4.93,2.117 9.731,3.192 14.387,3.192 9.891,0 14.254,-5.563 13.094,-16.668 -0.586,-6.719 -4.953,-16.516 -13.094,-29.367 -8.152,-12.872 -14.262,-19.297 -18.332,-19.297 -5.246,0 -10.039,9.902 -14.406,29.726 -1.465,5.821 -4.082,20.684 -7.859,44.59 -3.497,22.148 -12.813,32.492 -27.946,31.035 -6.402,-0.582 -16.012,-6.406 -28.808,-17.457 -9.313,-8.449 -18.786,-16.887 -28.375,-25.324 l 9.14,-11.785 c 8.723,6.09 13.809,9.156 15.266,9.156 6.672,0 12.91,-10.465 18.73,-31.394 5.235,-19.192 10.461,-38.379 15.692,-57.571 7.836,-20.933 17.433,-31.406 28.761,-31.406 18.301,0 40.664,17.187 67.106,51.562 18.57,23.907 30.594,44.106 36.137,60.645 7.332,5.41 11.863,8.164 13.504,8.164 5.234,0 7.863,-3.789 7.863,-11.336 0,-1.457 -2.844,-12.226 -8.528,-32.293 -5.671,-20.082 -8.66,-34.914 -8.937,-44.515 -0.301,-9.305 1.965,-16.864 6.762,-22.672 4.793,-5.825 11.707,-8.735 20.742,-8.735 19.5,0 38.992,8.43 58.504,25.305 1.738,1.516 3.429,3.066 5.07,4.629 1.543,-6.531 4.188,-11.914 8.027,-16.067 8.399,-9 22.582,-13.222 42.567,-12.632 -2.668,6.402 -3.719,17.754 -3.129,34.058 0.863,18.039 5.535,35.371 13.984,51.953 8.446,16.582 16.317,24.895 23.618,24.895 8.449,0 12.394,-5.383 11.8,-16.152 -0.293,-7.286 -1.722,-15.579 -4.285,-24.891 -2.574,-9.316 -4.008,-18.637 -4.289,-27.953 -0.586,-14.84 2.746,-25.457 10.016,-31.863 8.117,-7.278 22.343,-10.637 42.656,-10.047 -3.035,6.687 -4.258,16.297 -3.672,28.824 0.871,17.754 6.867,36.086 17.965,55.012 10.512,18.035 19.559,27.07 27.152,27.07 7.012,0 10.371,-5.539 10.078,-16.594 -0.293,-7.265 -2.117,-17.449 -5.457,-30.535 -3.347,-13.098 -5.172,-24.289 -5.449,-33.605 -0.586,-20.946 8.574,-31.407 27.508,-31.407 19.492,0 38.996,8.43 58.5,25.305 l 0.945,0.859 c 0.672,-1.152 1.356,-2.304 2.11,-3.418 10.175,-15.703 27.07,-23.566 50.652,-23.566 31.719,0 63.02,8.859 93.872,26.594 3.46,1.953 6.74,3.894 9.89,5.847 1.94,-3.921 4.21,-7.617 6.9,-11.011 11.93,-14.828 29.4,-22.246 52.39,-22.246 27.65,0 50.8,9.746 69.43,29.207 18.62,19.472 28.51,42.578 29.69,69.324 0.87,19.75 -3.64,35.879 -13.54,48.379"
         inkscape:connector-curvature="0"
         id="path16"
         style="fill:#abe1d6;fill-opacity:1;fill-rule:nonzero;stroke:none" /></g></g></svg>