<?xml version="1.0" encoding="UTF-8" standalone="no"?>
<svg
   xmlns:dc="http://purl.org/dc/elements/1.1/"
   xmlns:cc="http://creativecommons.org/ns#"
   xmlns:rdf="http://www.w3.org/1999/02/22-rdf-syntax-ns#"
   xmlns:svg="http://www.w3.org/2000/svg"
   xmlns="http://www.w3.org/2000/svg"
   viewBox="0 0 187.5 75"
   height="75"
   width="187.5"
   xml:space="preserve"
   version="1.1"
   id="svg2"><metadata
     id="metadata8"><rdf:RDF><cc:Work
         rdf:about=""><dc:format>image/svg+xml</dc:format><dc:type
           rdf:resource="http://purl.org/dc/dcmitype/StillImage" /></cc:Work></rdf:RDF></metadata><defs
     id="defs6" /><g
     transform="matrix(1.25,0,0,-1.25,0,75)"
     id="g10"><g
       transform="scale(0.1,0.1)"
       id="g12"><path
         id="path14"
         style="fill:#c1e9e0;fill-opacity:1;fill-rule:nonzero;stroke:none"
         d="m 572.121,187.879 c -9.562,0 -16.215,4.512 -19.531,12.668 -2.024,4.961 -3.457,12.691 -3.457,24.07 l 0,131.055 31.121,0 0,-122.859 c 0,-6.958 0,-9.836 0,-11.477 0.726,-4.598 2.68,-6.277 6.641,-6.277 5.957,0 11.347,5.171 17.933,14.472 l 0,126.141 31.129,0 0,-165.457 -31.129,0 0,18.015 c -11.801,-13.527 -21.801,-20.351 -32.707,-20.351" /><path
         id="path16"
         style="fill:#c1e9e0;fill-opacity:1;fill-rule:nonzero;stroke:none"
         d="m 481.965,187.371 c -13.11,0 -26.535,5.977 -34.813,17.258 -6.379,8.277 -9.418,20.43 -9.418,38.008 l 0.032,58.828 c 0,17.683 3.418,31.101 9.793,39.461 8.281,11.32 19.57,15.945 34.406,15.945 13.105,0 26.109,-4.625 34.402,-15.945 6.278,-8.36 9.828,-21.629 9.828,-39.317 l 0,-58.972 c 0,-17.578 -2.894,-29.731 -9.175,-38.008 -8.29,-11.281 -21.95,-17.258 -35.055,-17.258 m 0,141.57 c -9.672,0 -14.75,-7.671 -13.11,-24.058 l 0,-65.528 c -1.64,-16.378 3.438,-24.503 13.11,-24.503 9.664,0 14.746,8.125 13.105,24.503 l 0.02,65.528 c 1.633,16.387 -3.457,24.058 -13.125,24.058" /><path
         id="path18"
         style="fill:#c1e9e0;fill-opacity:1;fill-rule:nonzero;stroke:none"
         d="m 403.332,190.215 -32.766,0 0,90.098 c 0,0 -33.953,110.464 -40.957,131.05 l 34.407,0 22.988,-86.289 22.879,86.289 34.402,0 -40.953,-131.05 0,-90.098" /><path
         id="path20"
         style="fill:#c1e9e0;fill-opacity:1;fill-rule:nonzero;stroke:none"
         d="m 956.094,215.059 c -4.883,0 -10.508,2.515 -15.469,7.476 l 0.039,99.348 c 4.961,4.89 10.547,7.472 15.43,7.472 8.554,0 12.418,-4.804 12.418,-21.195 l 0,-70.437 c 0,-16.387 -3.864,-22.664 -12.418,-22.664" /><path
         id="path22"
         style="fill:#c1e9e0;fill-opacity:1;fill-rule:nonzero;stroke:none"
         d="m 1050.42,291.758 0,18.113 c 0,15.305 4.2,19.484 14.11,19.484 9.83,0 13.74,-4.55 13.74,-19.687 l 0,-17.891 -27.85,-0.019" /><path
         id="path24"
         style="fill:#c1e9e0;fill-opacity:1;fill-rule:nonzero;stroke:none"
         d="m 905.801,124.883 c 0,0 -127.188,1.148 -166.324,4.89 -10.883,2.032 -35.332,1.418 -53.942,20.813 -14.668,14.785 -19.437,48.34 -19.437,48.34 0,0 -4.891,39.402 -4.891,78.804 l 0,36.958 c 0,39.414 4.891,78.816 4.891,78.816 0,0 4.769,33.555 19.437,48.332 18.61,19.394 39.457,19.488 49.02,20.625 68.453,4.93 171.14,4.93 171.14,4.93 l 0.211,0 c 0,0 102.684,0 171.134,-4.93 9.56,-1.137 30.42,-1.231 49.01,-20.625 14.67,-14.777 19.46,-48.332 19.46,-48.332 0,0 4.88,-39.402 4.88,-78.816 l 0,-36.958 c 0,-39.402 -4.88,-78.804 -4.88,-78.804 0,0 -4.79,-33.555 -19.46,-48.34 -18.59,-19.395 -39.45,-19.492 -49.01,-20.625 -68.45,-4.922 -171.239,-5.078 -171.239,-5.078 m -106.028,229.148 0,-129.414 c 0,-11.379 1.438,-19.109 3.457,-24.07 3.329,-8.156 9.973,-12.668 19.54,-12.668 10.902,0 20.902,6.824 32.703,20.351 l 0,-18.015 31.129,0 0,163.816 -31.129,0 0,-124.5 c -6.586,-9.301 -11.977,-14.472 -17.934,-14.472 -3.961,0 -5.91,1.679 -6.641,6.277 0,1.641 0,4.519 0,11.477 l 0,121.218 -31.125,0 m 265.027,2.375 c -15.14,0 -26.95,-5.929 -35.53,-17.129 -6.3,-8.285 -9.97,-21.808 -9.97,-39.308 l 0,-57.332 c 0,-17.395 4.04,-29.571 10.34,-37.766 8.57,-11.18 20.38,-16.766 35.9,-16.766 15.5,0 27.66,5.86 35.87,17.743 3.6,5.246 5.93,11.191 6.93,17.761 0.27,2.973 1.05,9.739 1.05,19.297 l 0,4.641 -31.12,0 c 0,-11.895 0.06,-18.977 -0.22,-20.586 -1.69,-7.93 -5.95,-11.902 -13.25,-11.902 -10.18,0 -14.48,7.617 -14.38,22.73 l 0,29.418 59.03,0 0,33.492 c 0,17.492 -3.44,30.293 -9.65,38.578 -8.31,11.2 -20.12,17.129 -35,17.129 M 940.703,206.707 c 9.91,-12.266 20.715,-18.602 31.262,-18.602 11.808,0 20.437,6.317 24.39,18.497 1.985,6.929 3.286,17.617 3.286,32.753 l 0,65.528 c 0,15.508 -1.989,26.109 -3.973,32.691 -3.957,12.27 -11.895,19.082 -23.703,19.082 -10.91,0 -21.758,-6.707 -31.34,-18.496 l 0.039,71.574 -29.492,0 0,-219.519 29.492,0 0.039,16.492 m -136.015,203.027 -103.204,-0.039 0,-31.082 34.407,0 0,-188.398 32.757,0 0,188.398 36.04,0 0,31.121" /></g></g></svg>