<?xml version="1.0" encoding="utf-8"?>
<!-- Generator: Adobe Illustrator 17.0.0, SVG Export Plug-In . SVG Version: 6.00 Build 0)  -->
<!DOCTYPE svg PUBLIC "-//W3C//DTD SVG 1.1//EN" "http://www.w3.org/Graphics/SVG/1.1/DTD/svg11.dtd">
<svg version="1.1" id="Capa_1" xmlns="http://www.w3.org/2000/svg" xmlns:xlink="http://www.w3.org/1999/xlink" x="0px" y="0px"
	 width="183px" height="186.036px" viewBox="0 0 183 186.036" enable-background="new 0 0 183 186.036" xml:space="preserve">
<g>
	<defs>
		<rect id="SVGID_1_" x="352" y="-1299.965" width="1024" height="5200.09"/>
	</defs>
	<clipPath id="SVGID_2_">
		<use xlink:href="#SVGID_1_"  overflow="visible"/>
	</clipPath>
	<g clip-path="url(#SVGID_2_)">
		<defs>
			<rect id="SVGID_22_" x="352" y="-1299.964" width="1024" height="5200.089"/>
		</defs>
		<clipPath id="SVGID_4_">
			<use xlink:href="#SVGID_22_"  overflow="visible"/>
		</clipPath>
	</g>
	<g clip-path="url(#SVGID_2_)">
		<defs>
			<rect id="SVGID_48_" x="352" y="-1299.964" width="1024" height="5200.089"/>
		</defs>
		<clipPath id="SVGID_6_">
			<use xlink:href="#SVGID_48_"  overflow="visible"/>
		</clipPath>
		<g clip-path="url(#SVGID_6_)" enable-background="new    ">
			<g>
				<defs>
					<rect id="SVGID_50_" x="38.214" y="-636.755" width="1320.926" height="4308.24"/>
				</defs>
				<clipPath id="SVGID_8_">
					<use xlink:href="#SVGID_50_"  overflow="visible"/>
				</clipPath>
			</g>
		</g>
	</g>
	<g clip-path="url(#SVGID_2_)">
		<defs>
			<rect id="SVGID_114_" x="352" y="-1299.964" width="1024" height="5200.089"/>
		</defs>
		<clipPath id="SVGID_10_">
			<use xlink:href="#SVGID_114_"  overflow="visible"/>
		</clipPath>
	</g>
	<g clip-path="url(#SVGID_2_)">
		<defs>
			<rect id="SVGID_142_" x="352" y="-1299.964" width="1024" height="5200.089"/>
		</defs>
		<clipPath id="SVGID_12_">
			<use xlink:href="#SVGID_142_"  overflow="visible"/>
		</clipPath>
		<g clip-path="url(#SVGID_12_)" enable-background="new    ">
			<g>
				<defs>
					<rect id="SVGID_144_" x="38.214" y="-207.755" width="1320.926" height="4308.24"/>
				</defs>
				<clipPath id="SVGID_13_">
					<use xlink:href="#SVGID_144_"  overflow="visible"/>
				</clipPath>
			</g>
		</g>
	</g>
</g>
<path fill="#5CB7B7" d="M173.167,152.893c0,5.522-36.563,10-81.667,10c-45.103,0-81.666-4.478-81.666-10
	c0-5.523,36.563-10,81.666-10C136.604,142.893,173.167,147.37,173.167,152.893"/>
<path fill="#FFFFFF" d="M132.085,152.143h-80.67c-13.291,0-24.165-10.875-24.165-24.165v-80.67
	c0-13.291,10.874-24.165,24.165-24.165h80.67c13.291,0,24.165,10.874,24.165,24.165v80.67
	C156.25,141.268,145.376,152.143,132.085,152.143"/>
<path fill="#494949" d="M135,87.393c0,23.748-19.252,43-43,43s-43-19.252-43-43c0-23.749,19.252-43,43-43S135,63.644,135,87.393"/>
<path fill="#CCCCCC" d="M130.5,87.393c0,21.263-17.237,38.5-38.5,38.5s-38.5-17.237-38.5-38.5c0-21.263,17.237-38.5,38.5-38.5
	S130.5,66.13,130.5,87.393"/>
<path fill="#E84547" d="M48.5,40.393c0,1.933-1.567,3.5-3.5,3.5c-1.933,0-3.5-1.567-3.5-3.5c0-1.933,1.567-3.5,3.5-3.5
	C46.933,36.893,48.5,38.46,48.5,40.393"/>
<path fill="#F2F2F2" d="M156.5,127.978V92.393l-32.019-33.112c6.522,7.539,10.498,17.361,10.498,28.112
	c0,23.748-19.241,43-42.989,43c-10.338,0-19.816-3.775-27.232-9.853l31.485,31.353h36.175
	C145.709,151.893,156.5,141.269,156.5,127.978"/>
<path fill="#494949" d="M108.5,87.393c0,9.112-7.387,16.5-16.5,16.5c-9.113,0-16.5-7.388-16.5-16.5c0-9.113,7.387-16.5,16.5-16.5
	C101.113,70.893,108.5,78.28,108.5,87.393"/>
<path fill="#FFFFFF" d="M117.5,69.393c0,5.983-4.85,10.833-10.833,10.833s-10.834-4.85-10.834-10.833
	c0-5.983,4.851-10.833,10.834-10.833S117.5,63.41,117.5,69.393"/>
<path fill="#FFFFFF" d="M122.5,83.393c0,2.669-2.164,4.833-4.833,4.833c-2.67,0-4.834-2.164-4.834-4.833
	c0-2.669,2.164-4.833,4.834-4.833C120.336,78.56,122.5,80.724,122.5,83.393"/>
</svg>
