<?xml version="1.0" encoding="utf-8"?>
<!-- Generator: Adobe Illustrator 17.0.0, SVG Export Plug-In . SVG Version: 6.00 Build 0)  -->
<!DOCTYPE svg PUBLIC "-//W3C//DTD SVG 1.1//EN" "http://www.w3.org/Graphics/SVG/1.1/DTD/svg11.dtd">
<svg version="1.1" id="Capa_1" xmlns="http://www.w3.org/2000/svg" xmlns:xlink="http://www.w3.org/1999/xlink" x="0px" y="0px"
	 width="178.589px" height="166.269px" viewBox="0 0 178.589 166.269" enable-background="new 0 0 178.589 166.269"
	 xml:space="preserve">
<g>
	<defs>
		<rect id="SVGID_1_" x="580.666" y="-1046.7" width="1024" height="5200.09"/>
	</defs>
	<clipPath id="SVGID_2_">
		<use xlink:href="#SVGID_1_"  overflow="visible"/>
	</clipPath>
	<g clip-path="url(#SVGID_2_)">
		<defs>
			<rect id="SVGID_22_" x="580.666" y="-1046.699" width="1024" height="5200.089"/>
		</defs>
		<clipPath id="SVGID_4_">
			<use xlink:href="#SVGID_22_"  overflow="visible"/>
		</clipPath>
	</g>
	<g clip-path="url(#SVGID_2_)">
		<defs>
			<rect id="SVGID_114_" x="580.666" y="-1046.699" width="1024" height="5200.089"/>
		</defs>
		<clipPath id="SVGID_6_">
			<use xlink:href="#SVGID_114_"  overflow="visible"/>
		</clipPath>
	</g>
</g>
<path fill="#5CB7B7" d="M163.333,156.269c0,5.523-36.563,10-81.667,10c-45.103,0-81.666-4.477-81.666-10
	c0-5.523,36.563-10,81.666-10C126.77,146.269,163.333,150.746,163.333,156.269"/>
<path fill="#FFFFFF" d="M123.046,129h-80.67c-13.291,0-24.165-10.874-24.165-24.165v-80.67C18.211,10.875,29.085,0,42.375,0h80.67
	c13.291,0,24.165,10.875,24.165,24.165v80.67C147.211,118.126,136.336,129,123.046,129"/>
<path fill="#E84547" d="M118.707,52.977c-1.121-9.531-4.899-10.844-12.417-11.355c-10.689-0.728-34.552-0.728-45.248,0
	c-7.518,0.511-11.296,1.824-12.417,11.355c-0.832,7.076-0.835,19.152,0,26.253c1.122,9.53,4.899,10.843,12.417,11.355
	c10.696,0.728,34.559,0.727,45.248,0c7.518-0.512,11.296-1.825,12.417-11.355C119.54,72.154,119.543,60.077,118.707,52.977
	 M76.563,76.062V56.166l19.081,9.948L76.563,76.062z"/>
<path fill="#F2F2F2" d="M52.49,104.269c-4.963,0-8.823,3.952-8.823,8.915v16.085h79.379c13.29,0,24.621-11.144,24.621-24.434v-0.566
	H52.49z"/>
<path fill="#CCCCCC" d="M169.566,152.329H58.49c-4.963,0-9.023-4.06-9.023-9.023v-25.122c0-4.963,4.06-9.023,9.023-9.023h111.076
	c4.963,0,9.023,4.06,9.023,9.023v25.122C178.589,148.27,174.529,152.329,169.566,152.329"/>
<g>
	<path fill="#E84547" d="M83.865,131.417l15.456-7.961v2.298l-13.024,6.529v0.066l13.024,6.529v2.298l-15.456-7.961V131.417z"/>
	<path fill="#E84547" d="M108.55,142.509l9.293-24.15h2.266l-9.327,24.15H108.55z"/>
	<path fill="#E84547" d="M144.727,133.249l-15.456,7.928v-2.298l13.124-6.529v-0.066l-13.124-6.529v-2.298l15.456,7.928V133.249z"/>
</g>
</svg>
