<?xml version="1.0" encoding="utf-8"?>
<!-- Generator: Adobe Illustrator 17.0.0, SVG Export Plug-In . SVG Version: 6.00 Build 0)  -->
<!DOCTYPE svg PUBLIC "-//W3C//DTD SVG 1.1//EN" "http://www.w3.org/Graphics/SVG/1.1/DTD/svg11.dtd">
<svg version="1.1" id="Capa_1" xmlns="http://www.w3.org/2000/svg" xmlns:xlink="http://www.w3.org/1999/xlink" x="0px" y="0px"
	 width="183px" height="186.036px" viewBox="0 0 183 186.036" enable-background="new 0 0 183 186.036" xml:space="preserve">
<g>
	<defs>
		<rect id="SVGID_1_" x="352" y="-1299.965" width="1024" height="5200.09"/>
	</defs>
	<clipPath id="SVGID_2_">
		<use xlink:href="#SVGID_1_"  overflow="visible"/>
	</clipPath>
	<g clip-path="url(#SVGID_2_)">
		<defs>
			<rect id="SVGID_22_" x="352" y="-1299.964" width="1024" height="5200.089"/>
		</defs>
		<clipPath id="SVGID_4_">
			<use xlink:href="#SVGID_22_"  overflow="visible"/>
		</clipPath>
	</g>
	<g clip-path="url(#SVGID_2_)">
		<defs>
			<rect id="SVGID_48_" x="352" y="-1299.964" width="1024" height="5200.089"/>
		</defs>
		<clipPath id="SVGID_6_">
			<use xlink:href="#SVGID_48_"  overflow="visible"/>
		</clipPath>
		<g clip-path="url(#SVGID_6_)" enable-background="new    ">
			<g>
				<defs>
					<rect id="SVGID_50_" x="38.214" y="-636.755" width="1320.926" height="4308.24"/>
				</defs>
				<clipPath id="SVGID_8_">
					<use xlink:href="#SVGID_50_"  overflow="visible"/>
				</clipPath>
			</g>
		</g>
	</g>
	<g clip-path="url(#SVGID_2_)">
		<defs>
			<rect id="SVGID_114_" x="352" y="-1299.964" width="1024" height="5200.089"/>
		</defs>
		<clipPath id="SVGID_10_">
			<use xlink:href="#SVGID_114_"  overflow="visible"/>
		</clipPath>
	</g>
	<g clip-path="url(#SVGID_2_)">
		<defs>
			<rect id="SVGID_142_" x="352" y="-1299.964" width="1024" height="5200.089"/>
		</defs>
		<clipPath id="SVGID_12_">
			<use xlink:href="#SVGID_142_"  overflow="visible"/>
		</clipPath>
		<g clip-path="url(#SVGID_12_)" enable-background="new    ">
			<g>
				<defs>
					<rect id="SVGID_144_" x="38.214" y="-207.755" width="1320.926" height="4308.24"/>
				</defs>
				<clipPath id="SVGID_13_">
					<use xlink:href="#SVGID_144_"  overflow="visible"/>
				</clipPath>
			</g>
		</g>
	</g>
</g>
<path fill="#5CB7B7" d="M183,175.031c0,6.078-40.238,11.005-89.875,11.005c-49.636,0-89.875-4.927-89.875-11.005
	c0-6.078,40.239-11.005,89.875-11.005C142.762,164.026,183,168.953,183,175.031"/>
<path fill="#FFFFFF" d="M154.859,74.545c0,34.02-27.578,55.181-61.598,55.181s-61.598-21.161-61.598-55.181
	c0-34.02,27.578-61.598,61.598-61.598S154.859,40.525,154.859,74.545"/>
<path fill="#F2F2F2" d="M94.071,12.947c34.02,0,61.598,27.578,61.598,61.598s-27.578,55.182-61.598,55.182"/>
<path fill="#494949" d="M145.451,74.545c0,28.824-23.366,32.941-52.19,32.941s-52.19-4.117-52.19-32.941
	c0-28.824,23.366-52.19,52.19-52.19S145.451,45.721,145.451,74.545"/>
<path d="M93.261,22.354c-3.707,0-7.321,0.393-10.81,1.127c-14.129,11.164-23.197,28.45-23.197,47.855
	c0,12.853,3.982,24.775,10.774,34.606c6.998,1.192,14.884,1.543,23.233,1.543c28.824,0,52.19-4.117,52.19-32.941
	S122.085,22.354,93.261,22.354"/>
<path fill="#FFFFFF" d="M126.491,49.858c0,4.849-3.931,8.78-8.78,8.78c-4.85,0-8.781-3.931-8.781-8.78
	c0-4.849,3.931-8.781,8.781-8.781C122.56,41.077,126.491,45.009,126.491,49.858"/>
<path fill="#FFFFFF" d="M130.544,61.205c0,2.164-1.754,3.917-3.917,3.917c-2.164,0-3.918-1.753-3.918-3.917
	c0-2.164,1.754-3.917,3.918-3.917C128.79,57.288,130.544,59.041,130.544,61.205"/>
<rect x="60.942" y="122.398" fill="#E6E6E6" width="32.932" height="8.206"/>
<rect x="93.967" y="122.398" fill="#CCCCCC" width="30.136" height="8.206"/>
<path fill="#FFFFFF" d="M142.535,10.549c4.991,2.017,9.081,5.787,11.513,10.549c2.431-4.762,6.522-8.532,11.512-10.549
	C160.57,8.532,156.479,4.762,154.048,0C151.616,4.762,147.526,8.532,142.535,10.549"/>
<path fill="#FFFFFF" d="M159.286,31.622c3.351,1.354,6.098,3.886,7.73,7.083c1.633-3.197,4.38-5.729,7.731-7.083
	c-3.351-1.354-6.098-3.886-7.731-7.083C165.384,27.736,162.637,30.268,159.286,31.622"/>
<path fill="#FFFFFF" d="M173,174.036v-5.94c0-20.728-17.27-38.06-37.999-38.06H51.52c-20.729,0-37.52,17.332-37.52,38.06v5.94H173z"
	/>
<path fill="#E6E6E6" d="M135.001,130.036H94v44h79v-5.94C173,147.368,155.729,130.036,135.001,130.036"/>
<path fill="#CCCCCC" d="M25.566,171.635c-9.849,0-17.862-8.012-17.862-17.862c0-9.848,8.013-17.86,17.862-17.86
	c6.259,0,11.952,3.187,15.229,8.525c1.501,2.446,0.735,5.645-1.71,7.145c-2.445,1.501-5.644,0.737-7.146-1.71
	c-1.371-2.235-3.754-3.57-6.373-3.57c-4.12,0-7.471,3.352-7.471,7.47c0,4.12,3.351,7.471,7.471,7.471
	c2.93,0,5.604-1.726,6.813-4.398c1.182-2.615,4.26-3.776,6.874-2.592c2.615,1.183,3.775,4.26,2.593,6.874
	C38.959,167.51,32.568,171.635,25.566,171.635"/>
<path fill="#CCCCCC" d="M13.83,153.882c-0.991,0-1.992-0.283-2.877-0.874c-2.387-1.591-3.032-4.816-1.441-7.204l22.425-33.637
	c1.591-2.388,4.818-3.032,7.204-1.441c2.388,1.591,3.032,4.817,1.441,7.204l-22.425,33.638
	C17.156,153.07,15.509,153.882,13.83,153.882"/>
<path fill="#CCCCCC" d="M10.412,153.467c-0.424,0-0.856-0.052-1.287-0.161c-2.78-0.709-4.46-3.537-3.751-6.318l8.305-32.599
	c0.709-2.779,3.538-4.46,6.318-3.752c2.781,0.709,4.46,3.537,3.752,6.318l-8.306,32.599
	C14.844,151.904,12.731,153.467,10.412,153.467"/>
<path fill="#CCCCCC" d="M19.073,174.265c-4.394,0-7.918-1.329-10.236-2.826C3.366,167.906,0,161.429,0,153.669v-30.615
	c0-2.869,3.131-5.195,6-5.195c2.869,0,6,2.326,6,5.195v30.615c0,4.102,0.865,7.482,3.279,9.041
	c2.772,1.792,6.919,1.466,12.196-0.914c2.615-1.181,5.548-0.018,6.728,2.598c1.181,2.615-0.054,5.692-2.669,6.872
	C26.693,173.45,22.511,174.265,19.073,174.265"/>
</svg>
