<?xml version="1.0" encoding="utf-8"?>
<!-- Generator: Adobe Illustrator 18.1.1, SVG Export Plug-In . SVG Version: 6.00 Build 0)  -->
<svg version="1.1" xmlns="http://www.w3.org/2000/svg" xmlns:xlink="http://www.w3.org/1999/xlink" x="0px" y="0px"
	 viewBox="0 0 317.126 227.749" enable-background="new 0 0 317.126 227.749" xml:space="preserve">
<g id="Capa_2">
	<g>
		<rect x="183.883" y="156.054" fill="#AFAFAF" width="24.146" height="9.286"/>
		<rect x="183.882" y="156.053" fill="#969696" width="24.008" height="4.643"/>
		<path fill="#AFAFAF" d="M115.48,80.878v-0.483v58.483h24v-57.89c0-2.256,0.245-4.737-0.924-6.482l-7.357-11.715
			c-1.016-1.016-2.442-1.501-3.666-1.466c-1.528-0.035-2.669,0.45-3.685,1.466l-7.458,11.754c-1.019,1.52-0.881,3.617-0.99,5.99"/>
		<path fill="#969696" d="M138.556,74.506l-7.357-11.437c-1.016-1.017-2.36-1.191-3.583-1.191h-0.136v77h12v-57.89
			C139.48,78.714,139.726,76.251,138.556,74.506"/>
		<path fill="#AFAFAF" d="M183.48,80.878v-0.483v58.483h25v-57.89c0-2.256-0.266-4.737-1.436-6.482l-7.611-11.715
			c-1.016-1.016-2.57-1.501-3.794-1.466c-1.529-0.035-2.732,0.45-3.748,1.466l-7.491,11.754c-1.019,1.52-0.885,3.617-0.995,5.99"/>
		<path fill="#969696" d="M207.044,74.506l-7.612-11.437c-1.016-1.017-2.616-1.191-3.84-1.191h-1.111v77h14v-57.89
			C208.481,78.714,208.214,76.251,207.044,74.506"/>
		<path fill="#E3E2E1" d="M131.518,107.026c0,0-23.915,11.853-23.915,44.853h32.263l0.128-59.69L131.518,107.026z"/>
		<path fill="#666667" d="M139.993,92.047l-0.128,59.83h-32.263c0-33,23.915-45.129,23.915-45.129L139.993,92.047 M143.926,77.42
			l-7.311,12.678l-7.948,13.783c-2.141,1.287-7.255,4.654-12.214,10.604c-5.866,7.04-12.973,19.24-12.973,37.391v4.002h4.123h32.263
			h3.893l0.008-3.942l0.129-59.854L143.926,77.42z"/>
		<path fill="#C9C8C8" d="M191.857,107.805c0,0,23.915,12.074,23.915,45.074h-32.263l-0.128-59.802L191.857,107.805z"/>
		<path fill="#666667" d="M183.381,92.826l8.476,14.812c0,0,23.915,12.239,23.915,45.239h-32.263L183.381,92.826 M179.448,77.977
			l0.032,14.635l0.128,60.102l0.008,4.164h3.893h32.263h4.708v-4.445c0-18.148-7.397-30.35-13.266-37.391
			c-4.958-5.948-10.163-9.315-12.304-10.603l-8.05-13.784L179.448,77.977z"/>
		<path fill="#E05B62" d="M146.48,23.878v0.378v74.622h31V25.01c0-2.869-0.075-6.025-1.561-8.242l-9.55-14.899
			c-1.293-1.292-3.202-1.91-4.759-1.866c-1.945-0.044-3.442,0.574-4.734,1.866l-9.296,14.948c-1.296,1.933-1.124,4.235-1.124,7.254"
			/>
		<path fill="#DE4849" d="M175.918,16.767l-9.551-14.961c-1.29-1.292-3.199-1.928-4.756-1.928h-0.132v99h16V25.011
			C177.48,22.117,177.404,18.987,175.918,16.767"/>
		<path fill="#EFEEED" d="M182.178,47.077L168.469,25.74c-1.85-1.851-4.602-2.735-6.831-2.671c-2.786-0.064-4.938,0.82-6.789,2.671
			l-13.623,21.63c-1.855,2.768-2.146,5.509-2.163,10.509h0.417v-0.362v0.287v108.075h45V58.883
			C184.48,54.828,184.308,50.254,182.178,47.077"/>
		<path fill="#E3E2E1" d="M182.178,47.077L168.469,25.74c-1.85-1.851-4.61-2.735-6.838-2.671c-0.024-0.001-0.151,0.002-0.151,0.002
			v142.808h23V58.883C184.48,54.828,184.308,50.254,182.178,47.077"/>
		<rect x="159.507" y="122.483" fill="#666667" width="4.179" height="42.903"/>
		<rect x="177.197" y="74.518" fill="#DE4849" width="6.686" height="19.688"/>
		<rect x="177.197" y="94.205" fill="#5CB6BF" width="6.686" height="19.688"/>
		<rect x="115.163" y="156.054" fill="#AFAFAF" width="24.146" height="9.286"/>
		<rect x="115.162" y="156.053" fill="#969696" width="24.007" height="4.643"/>
		<rect x="126.39" y="137.961" fill="#AFAFAF" width="12.779" height="8.062"/>
		<rect x="183.78" y="137.961" fill="#AFAFAF" width="12.779" height="8.062"/>
		<rect x="139.308" y="165.294" fill="#AFAFAF" width="44.462" height="4.644"/>
		<rect x="139.308" y="169.96" fill="#969696" width="44.462" height="4.643"/>
		<rect x="139.308" y="174.626" fill="#808080" width="44.462" height="4.643"/>
		<rect x="139.308" y="179.293" fill="#666667" width="44.462" height="4.642"/>
		<rect x="121.382" y="165.345" fill="#FFFFFF" width="9.65" height="100.966"/>
		<rect x="191.166" y="165.345" fill="#FFFFFF" width="9.651" height="100.966"/>
		<path fill="#FFFFFF" d="M159.986,253.133c0,23.884-19.361,43.246-43.245,43.246c-23.883,0-43.244-19.362-43.244-43.246
			c0-23.883,19.361-43.244,43.244-43.244C140.625,209.889,159.986,229.25,159.986,253.133"/>
		<path fill="#FFFFFF" d="M160.357,253.133c0,23.884,19.36,43.246,43.245,43.246c23.883,0,43.243-19.362,43.243-43.246
			c0-23.883-19.36-43.244-43.243-43.244C179.718,209.889,160.357,229.25,160.357,253.133"/>
		<path fill="#FFFFFF" d="M218.264,229.624c0,27.3,22.131,49.431,49.432,49.431c27.299,0,49.431-22.131,49.431-49.431
			s-22.132-49.431-49.431-49.431C240.395,180.194,218.264,202.324,218.264,229.624"/>
		<path fill="#FFFFFF" d="M0,229.624c0,27.3,22.131,49.431,49.432,49.431c27.3,0,49.431-22.131,49.431-49.431
			s-22.131-49.431-49.431-49.431C22.131,180.194,0,202.324,0,229.624"/>
	</g>
	<path fill="#666666" d="M148.43,50.175c-1,1.023-2.368,2.694-2.368,4.588c0,1.894,1.368,3.564,2.368,4.587V50.175z"/>
	<path fill="#666666" d="M173.43,49.618c1,1.022,2.368,2.693,2.368,4.587c0,1.893-1.368,3.565-2.368,4.587V49.618z"/>
	<polygon fill="#666666" points="173.43,49.798 161.092,33.566 148.43,50.099 148.43,59.38 148.732,59.39 161.236,42.875 
		173.43,59.019 	"/>
</g>
<g id="Capa_1">
</g>
</svg>
