<?xml version="1.0" encoding="utf-8"?>
<!-- Generator: Adobe Illustrator 18.1.1, SVG Export Plug-In . SVG Version: 6.00 Build 0)  -->
<svg version="1.1" xmlns="http://www.w3.org/2000/svg" xmlns:xlink="http://www.w3.org/1999/xlink" x="0px" y="0px"
	 viewBox="0 0 83 83" enable-background="new 0 0 83 83" xml:space="preserve">
<g id="Capa_2">
	<circle fill="#F76380" cx="41.5" cy="41.5" r="41.5"/>
	<g>
		<path fill="#FFFFFF" d="M59.37,46.905c-2.857-6.584-8.031-13.572-13.452-17.572H34.672c-5.419,4-10.592,10.989-13.449,17.572
			c-2.864,6.6,0.572,13.428,7.119,13.428h23.91C58.799,60.333,62.234,53.505,59.37,46.905z"/>
		<path fill="#FFFFFF" d="M34.812,26.333h11.147l1.019-1.556c0.832-1.254,1.749-2.507,2.542-3.787
			c0.377-0.607,1.082-1.629,0.805-2.398c-0.199-0.55-0.706-0.75-1.251-0.846c-0.393-0.069-2.404-0.584-3.217-0.418
			c-0.721,0.148-1.386,0.486-2.077,0.727c-0.974,0.339-2.051,0.621-3.119,0.562c-0.923-0.051-1.972-0.169-2.841-0.483
			c-0.722-0.261-1.418-0.646-2.181-0.776c-0.658-0.113-3.058,0.219-3.541,0.303c-3.397,0.584-0.927,3.271,1.695,7.117L34.812,26.333
			z"/>
	</g>
	<g>
		<path fill="#F76380" d="M45.258,41.383c-0.979-1.344-1.914-2.073-3.509-2.073c-1.617,0-2.871,1.07-3.509,2.779h4.899v1.936h-5.331
			c-0.046,0.318-0.046,0.661-0.046,1.002c0,0.319,0,0.615,0.023,0.912h5.354v1.959h-4.921c0.638,1.8,1.937,2.894,3.714,2.894
			c1.526,0,2.438-0.798,3.485-2.188l2.005,1.481c-1.299,1.891-2.916,3.212-5.514,3.212c-3.372,0-5.741-2.164-6.63-5.399h-2.073
			v-1.959h1.755c-0.024-0.273-0.024-0.569-0.024-0.865c0-0.343,0-0.707,0.046-1.049h-1.777v-1.936h2.143
			c0.911-3.075,3.234-5.285,6.47-5.285c2.779,0,4.351,1.275,5.559,3.007L45.258,41.383z"/>
	</g>
</g>
<g id="Capa_1" display="none">
</g>
</svg>
