<?xml version="1.0" encoding="utf-8"?>
<!-- Generator: Adobe Illustrator 18.1.1, SVG Export Plug-In . SVG Version: 6.00 Build 0)  -->
<svg version="1.1" xmlns="http://www.w3.org/2000/svg" xmlns:xlink="http://www.w3.org/1999/xlink" x="0px" y="0px"
	 viewBox="0 0 83 83" enable-background="new 0 0 83 83" xml:space="preserve">
<g id="Capa_2">
	<circle fill="#080830" cx="41.5" cy="41.5" r="41.5"/>
	<path fill="#FFFFFF" d="M61.564,22.313c0,0-10.833-2.583-20.036,6.769c-6.85,6.959-9.001,12.639-11.786,19.354
		c2.021,1.99,4.14,4.172,6.161,6.162c6.67-2.894,12.346-5.202,19.193-12.162C64.302,33.086,61.564,22.313,61.564,22.313z
		 M52.897,36.956c-1.589,1.614-4.187,1.636-5.801,0.047c-1.614-1.589-1.636-4.186-0.046-5.801c1.589-1.614,4.186-1.635,5.8-0.047
		C54.466,32.744,54.486,35.342,52.897,36.956z M30.705,38.691c-8.075-2.646-10.61,6.279-10.61,6.279l7.202,1.308
		C28.353,43.724,29.393,41.225,30.705,38.691z M37.839,57.121l-0.044,0.02l1.268,6.977c0,0,8.688-2.572,6.256-10.488
		C42.825,54.959,40.359,56.03,37.839,57.121z M30.978,58.55c-1.495,1.52-9.859,4.516-9.859,4.516s2.862-8.41,4.357-9.93
		c1.495-1.52,3.939-1.539,5.458-0.044C32.451,54.588,32.473,57.03,30.978,58.55z"/>
</g>
<g id="Capa_1" display="none">
</g>
</svg>
