<?xml version="1.0" encoding="UTF-8" standalone="no"?>
<svg
   xmlns:dc="http://purl.org/dc/elements/1.1/"
   xmlns:cc="http://creativecommons.org/ns#"
   xmlns:rdf="http://www.w3.org/1999/02/22-rdf-syntax-ns#"
   xmlns:svg="http://www.w3.org/2000/svg"
   xmlns="http://www.w3.org/2000/svg"
   viewBox="0 0 95.625 115.05"
   height="115.05"
   width="95.625"
   xml:space="preserve"
   version="1.1"
   id="svg2"><metadata
     id="metadata8"><rdf:RDF><cc:Work
         rdf:about=""><dc:format>image/svg+xml</dc:format><dc:type
           rdf:resource="http://purl.org/dc/dcmitype/StillImage" /></cc:Work></rdf:RDF></metadata><defs
     id="defs6" /><g
     transform="matrix(1.25,0,0,-1.25,0,115.05)"
     id="g10"><g
       transform="scale(0.1,0.1)"
       id="g12"><path
         id="path14"
         style="fill:#69c4b9;fill-opacity:1;fill-rule:nonzero;stroke:none"
         d="m 765,537.867 c 0,-211.238 -171.25,-382.5 -382.5,-382.5 -211.25,0 -382.5,171.262 -382.5,382.5 0,211.25 171.25,382.5 382.5,382.5 211.25,0 382.5,-171.25 382.5,-382.5" /><path
         id="path16"
         style="fill:#ffffff;fill-opacity:1;fill-rule:nonzero;stroke:none"
         d="m 221.934,550.637 c 0,2.84 0.097,5.898 0.3,9.187 0.2,3.281 0.508,6.672 0.918,10.156 l -46.836,-65.566 45.618,0 0,46.223 z m 32.839,-46.223 18.247,0 0,-21.16 c 0,-1.867 -0.625,-3.488 -1.875,-4.875 -1.274,-1.375 -3.071,-2.059 -5.422,-2.059 l -10.95,0 0,-40.754 -32.839,0 0,40.754 -71.282,0 c -2.351,0 -4.48,0.723 -6.382,2.188 -1.915,1.453 -3.11,3.281 -3.594,5.469 l -3.891,18.613 81.985,110.203 36.003,0 0,-108.379" /><path
         id="path18"
         style="fill:#ffffff;fill-opacity:1;fill-rule:nonzero;stroke:none"
         d="m 362.551,614.746 c 8.75,0 16.637,-1.277 23.648,-3.836 7.016,-2.551 13,-6.105 17.949,-10.644 4.946,-4.543 8.735,-9.953 11.372,-16.243 2.632,-6.277 3.953,-13.191 3.953,-20.73 0,-6.496 -0.91,-12.492 -2.743,-18.008 -1.82,-5.519 -4.32,-10.762 -7.484,-15.754 -3.16,-4.98 -6.824,-9.812 -10.992,-14.472 -4.184,-4.668 -8.625,-9.383 -13.32,-14.168 l -34.668,-35.52 c 4.453,1.289 8.843,2.324 13.191,3.098 4.336,0.769 8.406,1.16 12.219,1.16 l 33.086,0 c 4.058,0 7.261,-1.121 9.617,-3.348 2.351,-2.226 3.523,-5.168 3.523,-8.82 l 0,-21.895 -124.558,0 0,12.168 c 0,2.344 0.488,4.864 1.457,7.539 0.972,2.676 2.676,5.11 5.113,7.297 L 355,514.023 c 4.387,4.375 8.191,8.555 11.438,12.532 3.242,3.972 5.917,7.89 8.027,11.738 2.105,3.848 3.687,7.703 4.746,11.551 1.055,3.859 1.582,7.929 1.582,12.226 0,7.063 -1.684,12.473 -5.051,16.243 -3.371,3.769 -8.496,5.652 -15.383,5.652 -2.847,0 -5.437,-0.399 -7.793,-1.211 -2.351,-0.809 -4.453,-1.914 -6.328,-3.289 -1.851,-1.379 -3.457,-3 -4.8,-4.863 -1.333,-1.868 -2.415,-3.887 -3.223,-6.086 -1.289,-3.641 -2.942,-6.278 -4.922,-7.899 -1.992,-1.621 -4.688,-2.433 -8.09,-2.433 -0.816,0 -1.687,0.039 -2.613,0.117 -0.942,0.078 -1.899,0.207 -2.863,0.363 l -19.954,3.535 c 1.301,8.836 3.79,16.543 7.485,23.106 3.687,6.57 8.277,12.039 13.75,16.425 5.469,4.375 11.734,7.637 18.789,9.793 7.051,2.141 14.637,3.223 22.754,3.223" /><path
         id="path20"
         style="fill:#ffffff;fill-opacity:1;fill-rule:nonzero;stroke:none"
         d="m 606.555,477.168 c 0,4.055 -0.356,7.441 -1.035,10.156 -0.684,2.715 -1.641,4.883 -2.852,6.504 -1.223,1.621 -2.656,2.766 -4.316,3.41 -1.672,0.653 -3.481,0.977 -5.422,0.977 -1.946,0 -3.731,-0.324 -5.352,-0.977 -1.621,-0.644 -3,-1.789 -4.133,-3.41 -1.14,-1.621 -2.027,-3.789 -2.675,-6.504 -0.653,-2.715 -0.973,-6.101 -0.973,-10.156 0,-3.895 0.32,-7.137 0.973,-9.734 0.648,-2.59 1.535,-4.661 2.675,-6.204 1.133,-1.542 2.512,-2.636 4.133,-3.281 1.621,-0.652 3.406,-0.976 5.352,-0.976 1.941,0 3.75,0.324 5.422,0.976 1.66,0.645 3.093,1.739 4.316,3.281 1.211,1.543 2.168,3.614 2.852,6.204 0.679,2.597 1.035,5.839 1.035,9.734 z m 28.941,0 c 0,-6.492 -1.172,-12.43 -3.516,-17.82 -2.363,-5.391 -5.476,-10.02 -9.375,-13.868 -3.882,-3.847 -8.417,-6.835 -13.55,-8.937 -5.16,-2.109 -10.532,-3.164 -16.125,-3.164 -6.16,0 -11.825,1.055 -16.961,3.164 -5.156,2.102 -9.614,5.09 -13.379,8.937 -3.781,3.848 -6.723,8.477 -8.828,13.868 -2.114,5.39 -3.164,11.328 -3.164,17.82 0,6.73 1.05,12.832 3.164,18.312 2.105,5.469 5.047,10.157 8.828,14.043 3.765,3.895 8.223,6.915 13.379,9.063 5.136,2.148 10.801,3.223 16.961,3.223 6.164,0 11.867,-1.075 17.09,-3.223 5.222,-2.148 9.738,-5.168 13.503,-9.063 3.774,-3.886 6.704,-8.574 8.821,-14.043 2.097,-5.48 3.152,-11.582 3.152,-18.312 z m -130.879,92.687 c 0,4.141 -0.347,7.567 -1.031,10.282 -0.688,2.715 -1.645,4.883 -2.856,6.504 -1.218,1.621 -2.656,2.754 -4.312,3.41 -1.672,0.644 -3.48,0.976 -5.422,0.976 -1.941,0 -3.73,-0.332 -5.351,-0.976 -1.629,-0.656 -3,-1.789 -4.129,-3.41 -1.145,-1.621 -2.036,-3.789 -2.676,-6.504 -0.656,-2.715 -0.981,-6.141 -0.981,-10.282 0,-3.886 0.325,-7.128 0.981,-9.726 0.64,-2.598 1.531,-4.668 2.676,-6.203 1.129,-1.543 2.5,-2.637 4.129,-3.289 1.621,-0.645 3.41,-0.969 5.351,-0.969 1.942,0 3.75,0.324 5.422,0.969 1.656,0.652 3.094,1.746 4.312,3.289 1.211,1.535 2.168,3.605 2.856,6.203 0.684,2.598 1.031,5.84 1.031,9.726 z m 84.668,37.344 c 1.211,1.375 2.719,2.656 4.492,3.836 1.789,1.172 4.258,1.758 7.422,1.758 l 27.492,0 -133.562,-171.875 c -1.211,-1.543 -2.734,-2.82 -4.555,-3.828 -1.836,-1.016 -4.043,-1.524 -6.636,-1.524 l -28.223,0 133.57,171.633 z m -55.722,-37.344 c 0,-6.484 -1.168,-12.402 -3.512,-17.753 -2.363,-5.352 -5.481,-9.961 -9.375,-13.809 -3.891,-3.848 -8.418,-6.836 -13.559,-8.938 -5.152,-2.109 -10.523,-3.164 -16.121,-3.164 -6.16,0 -11.824,1.055 -16.965,3.164 -5.152,2.102 -9.605,5.09 -13.386,8.938 -3.77,3.848 -6.707,8.457 -8.821,13.809 -2.105,5.351 -3.164,11.269 -3.164,17.753 0,6.739 1.059,12.833 3.164,18.309 2.114,5.481 5.051,10.156 8.821,14.055 3.781,3.886 8.234,6.902 13.386,9.062 5.141,2.149 10.805,3.223 16.965,3.223 6.16,0 11.863,-1.074 17.09,-3.223 5.227,-2.16 9.734,-5.176 13.508,-9.062 3.765,-3.899 6.699,-8.574 8.804,-14.055 2.114,-5.476 3.165,-11.57 3.165,-18.309" /><path
         id="path22"
         style="fill:#69c4b9;fill-opacity:1;fill-rule:nonzero;stroke:none"
         d="M 379.164,0 315.066,110 250.969,220 507.367,220 443.266,110 379.164,0" /></g></g></svg>