<?xml version="1.0" encoding="utf-8"?>
<!-- Generator: Adobe Illustrator 17.0.0, SVG Export Plug-In . SVG Version: 6.00 Build 0)  -->
<!DOCTYPE svg PUBLIC "-//W3C//DTD SVG 1.1//EN" "http://www.w3.org/Graphics/SVG/1.1/DTD/svg11.dtd">
<svg version="1.1" id="Capa_1" xmlns="http://www.w3.org/2000/svg" xmlns:xlink="http://www.w3.org/1999/xlink" x="0px" y="0px"
	 width="100px" height="100px" viewBox="0 0 100 100" enable-background="new 0 0 100 100" xml:space="preserve">
<g>
	<g>
		<g>
			<g>
				<path fill="#09081E" d="M0.5,50.002c0-27.336,22.164-49.504,49.492-49.504c27.344,0,49.508,22.164,49.508,49.504
					c0,27.34-22.164,49.5-49.508,49.5C22.664,99.502,0.5,77.342,0.5,50.002"/>
			</g>
		</g>
	</g>
	<g>
		<defs>
			<path id="SVGID_30_" d="M2.655,50.342c0-26.262,21.286-47.557,47.549-47.557S97.761,24.08,97.761,50.342
				S76.467,97.899,50.204,97.899C23.942,97.903,2.655,76.604,2.655,50.342z"/>
		</defs>
		<clipPath id="SVGID_1_">
			<use xlink:href="#SVGID_30_"  overflow="visible"/>
		</clipPath>
		<g clip-path="url(#SVGID_1_)">
			<g>
				<path fill="#FFFFFF" d="M76.625,51.718c0,14.594-11.83,23.669-26.421,23.669c-14.594,0-26.421-9.074-26.421-23.669
					S35.61,25.297,50.204,25.297C64.795,25.297,76.625,37.124,76.625,51.718z"/>
				<path fill="#EEEEEE" d="M50.552,25.297c14.59,0,26.421,11.827,26.421,26.421S65.143,75.387,50.552,75.387"/>
				<path fill="#494949" d="M72.595,51.718c0,12.367-10.035,14.125-22.391,14.125c-12.363,0-22.383-1.758-22.383-14.125
					c0-12.364,10.02-22.387,22.383-22.387C62.56,29.332,72.595,39.355,72.595,51.718z"/>
				<path d="M50.204,29.332c-1.588,0-3.138,0.17-4.636,0.484c-6.065,4.79-9.951,12.205-9.951,20.526
					c0,5.512,1.709,10.628,4.62,14.844c3.002,0.514,6.382,0.658,9.966,0.658c12.356,0,22.391-1.758,22.391-14.125
					C72.595,39.355,62.56,29.332,50.204,29.332z"/>
				<path fill="#FFFFFF" d="M64.459,41.132c0,2.079-1.687,3.766-3.77,3.766c-2.076,0-3.762-1.687-3.762-3.766
					s1.687-3.766,3.762-3.766C62.772,37.366,64.459,39.052,64.459,41.132z"/>
				<path fill="#FFFFFF" d="M66.198,45.994c0,0.934-0.756,1.686-1.679,1.686c-0.93,0-1.679-0.752-1.679-1.686
					c0-0.93,0.748-1.679,1.679-1.679C65.442,44.315,66.198,45.064,66.198,45.994z"/>
				<rect x="36.343" y="72.249" fill="#E2E2E2" width="14.126" height="3.516"/>
				<rect x="50.507" y="72.249" fill="#C8C8C8" width="12.931" height="3.516"/>
				<path fill="#FFFFFF" d="M71.34,24.269c2.14,0.862,3.895,2.484,4.938,4.522c1.043-2.038,2.79-3.66,4.938-4.522
					c-2.148-0.866-3.895-2.484-4.938-4.522C75.234,21.785,73.48,23.403,71.34,24.269z"/>
				<path fill="#FFFFFF" d="M78.524,33.305c1.444,0.582,2.616,1.668,3.312,3.04c0.704-1.373,1.883-2.458,3.316-3.04
					c-1.433-0.578-2.613-1.667-3.316-3.036C81.14,31.638,79.968,32.727,78.524,33.305z"/>
				<path fill="#FFFFFF" d="M84.569,100.984v-9.135c0-8.893-7.57-16.364-16.462-16.364H32.298c-8.885,0-16.421,7.471-16.421,16.364
					v9.135H84.569z"/>
				<path fill="#E2E2E2" d="M68.107,75.486H50.386v25.498h34.183v-9.135C84.569,82.956,77,75.486,68.107,75.486z"/>
			</g>
		</g>
	</g>
</g>
</svg>
